<svg width="107" height="107" viewBox="0 0 107 107" fill="none" xmlns="http://www.w3.org/2000/svg">
<g clip-path="url(#clip0)">
<path d="M71.7401 65.5542H35.2431V107H71.7401V65.5542Z" fill="#EB725F"/>
<path d="M35.2431 80.852H4.79828V107H35.2431V80.852Z" fill="#7CA3C2"/>
<path d="M20.0291 83.5268L23.4063 90.3815L30.9631 91.4682L25.4961 96.8015L26.7834 104.325L20.0291 100.781L13.2747 104.325L14.562 96.8015L9.095 91.4682L16.6519 90.3815L20.0291 83.5268Z" fill="#E9E9E9"/>
<path d="M102.202 80.8517H71.7569V107H102.202V80.8517Z" fill="#7CA3C2"/>
<path d="M86.9709 83.5268L90.3481 90.3815L97.905 91.4682L92.438 96.8015L93.7253 104.325L86.9709 100.781L80.2166 104.325L81.5039 96.8015L76.0369 91.4682L83.5937 90.3815L86.9709 83.5268Z" fill="#E9E9E9"/>
<path d="M53.5 73.0442L57.7967 81.7546L67.41 83.159L60.455 89.9301L62.0934 99.51L53.5 94.9792L44.9066 99.51L46.545 89.9301L39.59 83.159L49.2033 81.7546L53.5 73.0442Z" fill="#E9E9E9"/>
<path d="M46.3444 47.6316C49.9222 43.9033 51.5941 38.871 50.7748 32.9024H56.2084C55.3892 38.871 57.0611 43.9033 60.6389 47.6316H46.3444Z" fill="#E8AA60"/>
<path d="M71.6733 2.20697C71.6733 3.49431 71.6399 4.76494 71.5395 6.01884C71.4894 6.77119 71.4225 7.50681 71.3389 8.24244C70.6534 14.629 68.8645 20.3301 66.3567 24.7606C65.9722 25.4293 65.5709 26.0813 65.153 26.6999C61.9931 31.331 57.9305 34.1398 53.4833 34.1398C48.9023 34.1398 44.7059 31.1471 41.5127 26.2318C41.0947 25.5965 40.7102 24.9445 40.3423 24.259C37.9014 19.7951 36.2128 14.094 35.5775 7.75759C35.4939 7.02197 35.4438 6.26963 35.3936 5.51728C35.3267 4.43056 35.2933 3.34385 35.2933 2.24041H71.6733V2.20697Z" fill="#F0BB73"/>
<path d="M71.8405 2.20688H35.1595C34.5577 2.20688 34.0561 1.72203 34.0561 1.10344C34.0561 0.501563 34.5409 0 35.1595 0H71.8405C72.4424 0 72.9439 0.484844 72.9439 1.10344C72.9439 1.70531 72.4424 2.20688 71.8405 2.20688ZM77.8425 15.933C77.8425 21.9517 72.9941 26.8503 67.0422 26.8503C66.4069 26.8503 65.7716 26.8002 65.1697 26.6831C65.5877 26.0645 65.9889 25.4292 66.3734 24.7437C66.5908 24.7605 66.8081 24.7772 67.0422 24.7772C71.8572 24.7772 75.7861 20.8148 75.7861 15.933C75.7861 12.6394 74.0139 9.76375 71.3556 8.24234C71.4392 7.50672 71.5061 6.77109 71.5563 6.01875C75.2511 7.74078 77.8425 11.5359 77.8425 15.933ZM41.5127 26.1983C41.0111 26.2652 40.4928 26.3153 39.9578 26.3153C33.9892 26.3153 29.1575 21.4167 29.1575 15.398C29.1575 11.0177 31.7155 7.2225 35.4103 5.50047C35.4438 6.25281 35.5106 7.00516 35.5942 7.74078C32.9861 9.27891 31.2306 12.1378 31.2306 15.398C31.2306 20.2798 35.1428 24.2589 39.9745 24.2589C40.1083 24.2589 40.2253 24.2589 40.3591 24.2422C40.7269 24.9109 41.1114 25.5797 41.5127 26.1983Z" fill="#E8AA60"/>
<path d="M62.6619 50.3569H44.3381V48.8522C44.3381 48.1667 44.8898 47.6317 45.5586 47.6317H61.408C62.0934 47.6317 62.6284 48.1834 62.6284 48.8522V50.3569H62.6619Z" fill="#F0BB73"/>
<path d="M67.8948 50.357H39.1219V62.8793H67.8948V50.357Z" fill="#5E5E61"/>
<path d="M65.0025 52.5971H42.0142V60.6221H65.0025V52.5971Z" fill="#48484C"/>
<path d="M69.5667 65.5543H37.4333V64.0998C37.4333 63.4143 37.985 62.8793 38.6538 62.8793H68.3295C69.015 62.8793 69.55 63.4311 69.55 64.0998V65.5543H69.5667Z" fill="#754C24"/>
<path d="M44.9902 54.3025C44.9902 54.7372 44.6391 55.105 44.1877 55.105C43.753 55.105 43.3852 54.7539 43.3852 54.3025C43.3852 53.8678 43.7363 53.5 44.1877 53.5C44.6224 53.5 44.9902 53.8678 44.9902 54.3025Z" fill="#E9E9E9"/>
<path d="M62.8124 55.105C63.2556 55.105 63.6149 54.7457 63.6149 54.3025C63.6149 53.8593 63.2556 53.5 62.8124 53.5C62.3691 53.5 62.0099 53.8593 62.0099 54.3025C62.0099 54.7457 62.3691 55.105 62.8124 55.105Z" fill="#E9E9E9"/>
<path d="M44.9902 58.9336C44.9902 59.3683 44.6391 59.7361 44.1877 59.7361C43.753 59.7361 43.3852 59.385 43.3852 58.9336C43.3852 58.4989 43.7363 58.1311 44.1877 58.1311C44.6224 58.1478 44.9902 58.4989 44.9902 58.9336Z" fill="#E9E9E9"/>
<path d="M62.8124 59.7361C63.2556 59.7361 63.6149 59.3768 63.6149 58.9336C63.6149 58.4904 63.2556 58.1311 62.8124 58.1311C62.3691 58.1311 62.0099 58.4904 62.0099 58.9336C62.0099 59.3768 62.3691 59.7361 62.8124 59.7361Z" fill="#E9E9E9"/>
<path d="M53.5 7.84103L56.3087 13.5254L62.595 14.4449L58.0475 18.8754L59.1175 25.1282L53.5 22.169L47.8825 25.1282L48.9525 18.8754L44.405 14.4449L50.6912 13.5254L53.5 7.84103Z" fill="#DA4765"/>
</g>
<defs>
<clipPath id="clip0">
<rect width="107" height="107" fill="white"/>
</clipPath>
</defs>
</svg>
