<svg width="61" height="61" viewBox="0 0 61 61" fill="none" xmlns="http://www.w3.org/2000/svg">
<path d="M43.7103 3.8125H17.2897L3.8125 17.1562V43.8438L17.2897 57.1875H43.7103L57.1875 43.8438V17.1562L43.7103 3.8125Z" fill="#FAA819"/>
<path d="M43.7103 58.1406H17.2897C17.0419 58.1406 16.7941 58.0453 16.6225 57.8642L3.14531 44.5205C2.96422 44.3394 2.85938 44.1011 2.85938 43.8438V17.1562C2.85938 16.8989 2.96422 16.6606 3.14531 16.4795L16.6225 3.13578C16.8036 2.95469 17.0419 2.85938 17.2897 2.85938H43.7008C43.9486 2.85938 44.1964 2.95469 44.368 3.13578L57.8452 16.4795C58.0358 16.6606 58.1406 16.8989 58.1406 17.1562V43.8438C58.1406 44.1011 58.0358 44.3394 57.8547 44.5205L44.3775 57.8642C44.1964 58.0453 43.9581 58.1406 43.7103 58.1406ZM17.6805 56.2344H43.31L56.2344 43.4434V17.5566L43.3195 4.76562H17.6805L4.76562 17.5566V43.453L17.6805 56.2344Z" fill="black"/>
<path d="M41.8231 54.3281H19.1769C18.9291 54.3281 18.6813 54.2328 18.5097 54.0517L6.95781 42.6142C6.77672 42.4331 6.67188 42.1948 6.67188 41.9375V19.0625C6.67188 18.8052 6.77672 18.5669 6.95781 18.3858L18.5097 6.94828C18.6908 6.76719 18.9291 6.67188 19.1769 6.67188H41.8136C42.0614 6.67188 42.3092 6.76719 42.4808 6.94828L54.0327 18.3858C54.2233 18.5669 54.3281 18.8052 54.3281 19.0625V41.9375C54.3281 42.1948 54.2233 42.4331 54.0422 42.6142L42.4903 54.0517C42.3092 54.2328 42.0709 54.3281 41.8231 54.3281ZM19.5677 52.4219H41.4228L52.4219 41.5372V19.4628L41.4323 8.57812H19.5677L8.57812 19.4628V41.5467L19.5677 52.4219Z" fill="black"/>
<path d="M30.5 50.5156C33.132 50.5156 35.2656 48.382 35.2656 45.75C35.2656 43.118 33.132 40.9844 30.5 40.9844C27.868 40.9844 25.7344 43.118 25.7344 45.75C25.7344 48.382 27.868 50.5156 30.5 50.5156Z" fill="white"/>
<path d="M30.5 51.4688C27.3452 51.4688 24.7812 48.9048 24.7812 45.75C24.7812 42.5952 27.3452 40.0312 30.5 40.0312C33.6548 40.0312 36.2188 42.5952 36.2188 45.75C36.2188 48.9048 33.6548 51.4688 30.5 51.4688ZM30.5 41.9375C28.3936 41.9375 26.6875 43.6436 26.6875 45.75C26.6875 47.8564 28.3936 49.5625 30.5 49.5625C32.6064 49.5625 34.3125 47.8564 34.3125 45.75C34.3125 43.6436 32.6064 41.9375 30.5 41.9375Z" fill="black"/>
<path d="M36.2188 16.2031C36.2188 22.2173 35.2656 28.5938 30.5 37.1719C25.7344 28.5938 24.7812 22.2173 24.7812 16.2031C24.7812 13.0483 27.3452 10.4844 30.5 10.4844C33.6548 10.4844 36.2188 13.0483 36.2188 16.2031Z" fill="white"/>
<path d="M30.5 38.125C30.1569 38.125 29.8328 37.9344 29.6708 37.6389C24.5239 28.3745 23.8281 21.6073 23.8281 16.2031C23.8281 12.5241 26.8209 9.53125 30.5 9.53125C34.1791 9.53125 37.1719 12.5241 37.1719 16.2031C37.1719 21.6073 36.4761 28.3745 31.3292 37.6389C31.1672 37.9344 30.8431 38.125 30.5 38.125ZM30.5 11.4375C27.8694 11.4375 25.7344 13.5725 25.7344 16.2031C25.7344 21.2928 26.3348 27.1164 30.5 35.1608C34.6652 27.1164 35.2656 21.3023 35.2656 16.2031C35.2656 13.5725 33.1306 11.4375 30.5 11.4375Z" fill="black"/>
</svg>
