<svg width="52" height="54" viewBox="0 0 52 54" fill="none" xmlns="http://www.w3.org/2000/svg">
<path d="M23.2739 14.4629L39.5374 30.7263L1 53.0001L23.2739 14.4629Z" fill="#F8B545" stroke="#F8B545" stroke-linecap="round" stroke-linejoin="round"/>
<path fill-rule="evenodd" clip-rule="evenodd" d="M21.5386 17.4648L20.4741 19.3066C20.6024 19.3762 20.7444 19.4169 20.8901 19.4258L27.6538 19.8711C27.7919 19.8803 27.9303 19.8607 28.0604 19.8136C28.1905 19.7665 28.3094 19.693 28.4097 19.5977L26.6089 17.7988L21.5386 17.4648V17.4648ZM18.1909 23.2578L17.1147 25.1191C17.2311 25.1748 17.3571 25.2074 17.4858 25.2152L34.0562 26.3049C34.1998 26.3203 34.3451 26.3044 34.482 26.2582C34.6189 26.212 34.7441 26.1367 34.8491 26.0375L33.0464 24.2367L18.1909 23.2582V23.2578ZM14.8433 29.0508L13.7495 30.9434C13.8382 30.9752 13.9309 30.9944 14.0249 31.0004L36.5054 32.479L39.0308 31.02C38.9411 30.8908 38.8222 30.7845 38.6837 30.7098C38.5453 30.6352 38.3911 30.5941 38.2339 30.5902L14.8433 29.0511V29.0508ZM11.4937 34.8438L10.4155 36.709C10.5217 36.754 10.6354 36.791 10.771 36.799L19.689 37.3849L27.1694 37.8751L30.2144 36.1154C30.1396 36.0944 30.0751 36.0603 29.9878 36.0543L19.8198 35.3904L11.4937 34.8435V34.8438ZM8.146 40.6387L7.08154 42.4766C7.20528 42.5426 7.34908 42.5877 7.51904 42.5977L17.7632 43.3105L20.8589 41.5215L8.146 40.6387ZM4.79639 46.4316L3.72217 48.291C3.83344 48.341 3.95612 48.3781 4.10107 48.3871L8.43701 48.7014L11.521 46.9182L4.79639 46.432V46.4316Z" fill="#FECB5B"/>
<path d="M29.1088 6.03235C30.0524 6.92554 30.7972 8.00751 31.2948 9.20776C31.7923 10.408 32.0315 11.6996 31.9966 12.9984C31.9617 14.2973 31.6535 15.5743 31.0922 16.7461C30.5309 17.9179 29.729 18.9583 28.7388 19.7996" stroke="#3A90CD" stroke-linecap="round" stroke-linejoin="round"/>
<path d="M23.2739 14.4629L39.5374 30.7263L1 53.0001L23.2739 14.4629Z" stroke="#25233A" stroke-linecap="round" stroke-linejoin="round"/>
<path d="M37.0059 23.9962C39.0941 22.6615 41.5211 21.9523 43.9998 21.9523C46.4786 21.9523 48.9056 22.6615 50.9938 23.9962" stroke="#3A90CD" stroke-linecap="round" stroke-linejoin="round"/>
<path d="M14.9932 4C14.7299 4 14.4712 3.9306 14.2432 3.79895C14.0151 3.6673 13.8258 3.47803 13.6941 3.25C13.5625 3.02197 13.4932 2.76331 13.4932 2.5C13.4932 2.23669 13.5625 1.97803 13.6941 1.75C13.8258 1.52197 14.0151 1.33258 14.2432 1.20093C14.4712 1.06928 14.7299 1 14.9932 1" stroke="#ED4A4B" stroke-linecap="round" stroke-linejoin="round"/>
<path d="M14.9932 7C14.7299 7 14.4712 6.9306 14.2432 6.79895C14.0151 6.6673 13.8258 6.47803 13.6941 6.25C13.5625 6.02197 13.4932 5.76331 13.4932 5.5C13.4932 5.23669 13.5625 4.97803 13.6941 4.75C13.8258 4.52197 14.0151 4.33258 14.2432 4.20093C14.4712 4.06928 14.7299 4 14.9932 4" stroke="#ED4A4B" stroke-linecap="round" stroke-linejoin="round"/>
<path d="M14.9932 10C14.7299 10 14.4712 9.9306 14.2432 9.79895C14.0151 9.6673 13.8258 9.47803 13.6941 9.25C13.5625 9.02197 13.4932 8.76331 13.4932 8.5C13.4932 8.23669 13.5625 7.97803 13.6941 7.75C13.8258 7.52197 14.0151 7.33258 14.2432 7.20093C14.4712 7.06928 14.7299 7 14.9932 7" stroke="#ED4A4B" stroke-linecap="round" stroke-linejoin="round"/>
<path d="M14.9932 13C14.7299 13 14.4712 12.9306 14.2432 12.799C14.0151 12.6673 13.8258 12.478 13.6941 12.25C13.5625 12.022 13.4932 11.7633 13.4932 11.5C13.4932 11.2367 13.5625 10.978 13.6941 10.75C13.8258 10.522 14.0151 10.3326 14.2432 10.2009C14.4712 10.0693 14.7299 10 14.9932 10" stroke="#ED4A4B" stroke-linecap="round" stroke-linejoin="round"/>
<path d="M41.0053 12.7501C41.1369 12.9781 41.2062 13.2369 41.2062 13.5002C41.2062 13.7635 41.137 14.0221 41.0053 14.2502C40.8737 14.4782 40.6843 14.6675 40.4563 14.7992C40.2282 14.9308 39.9696 15.0002 39.7063 15.0002C39.443 15.0002 39.1843 14.9308 38.9562 14.7992C38.7282 14.6675 38.5389 14.4781 38.4072 14.2501" stroke="#ED4A4B" stroke-linecap="round" stroke-linejoin="round"/>
<path d="M43.6034 11.2501C43.7351 11.4781 43.8043 11.7369 43.8043 12.0002C43.8043 12.2635 43.7351 12.5221 43.6035 12.7502C43.4718 12.9782 43.2824 13.1675 43.0544 13.2992C42.8264 13.4308 42.5677 13.5002 42.3044 13.5002C42.0411 13.5002 41.7824 13.4308 41.5544 13.2992C41.3264 13.1675 41.137 12.9781 41.0054 12.7501" stroke="#ED4A4B" stroke-linecap="round" stroke-linejoin="round"/>
<path d="M46.2016 9.75012C46.3332 9.97815 46.4025 10.2369 46.4025 10.5002C46.4025 10.7635 46.3333 11.0221 46.2016 11.2502C46.07 11.4782 45.8806 11.6675 45.6526 11.7992C45.4245 11.9308 45.1659 12.0002 44.9026 12.0002C44.6393 12.0002 44.3805 11.9308 44.1525 11.7992C43.9245 11.6675 43.7352 11.4781 43.6035 11.2501" stroke="#ED4A4B" stroke-linecap="round" stroke-linejoin="round"/>
<path d="M48.7997 8.25012C48.9314 8.47815 49.0006 8.73687 49.0006 9.00017C49.0006 9.26346 48.9314 9.52213 48.7998 9.75015C48.6681 9.97818 48.4787 10.1675 48.2507 10.2992C48.0227 10.4308 47.764 10.5002 47.5007 10.5002C47.2374 10.5002 46.9787 10.4308 46.7507 10.2992C46.5226 10.1675 46.3333 9.97814 46.2017 9.75012" stroke="#ED4A4B" stroke-linecap="round" stroke-linejoin="round"/>
<path d="M30.9952 46.2501C30.8635 46.0221 30.7943 45.7634 30.7943 45.5001C30.7943 45.2368 30.8635 44.9781 30.9952 44.7501C31.1268 44.5221 31.3162 44.3327 31.5442 44.2011C31.7723 44.0694 32.0309 44.0001 32.2942 44.0001C32.5575 44.0001 32.8162 44.0694 33.0443 44.2011C33.2723 44.3327 33.4616 44.5221 33.5933 44.7501" stroke="#ED4A4B" stroke-linecap="round" stroke-linejoin="round"/>
<path d="M28.397 47.7501C28.2654 47.5221 28.1962 47.2634 28.1962 47.0001C28.1961 46.7368 28.2654 46.4781 28.397 46.2501C28.5287 46.0221 28.7181 45.8327 28.9461 45.7011C29.1741 45.5694 29.4328 45.5001 29.6961 45.5001C29.9594 45.5001 30.2181 45.5694 30.4461 45.7011C30.6741 45.8327 30.8635 46.0221 30.9951 46.2501" stroke="#ED4A4B" stroke-linecap="round" stroke-linejoin="round"/>
<path d="M25.7989 49.2501C25.6672 49.0221 25.598 48.7634 25.598 48.5001C25.598 48.2368 25.6672 47.9781 25.7989 47.7501C25.9305 47.5221 26.1199 47.3327 26.3479 47.2011C26.576 47.0694 26.8346 47.0001 27.0979 47.0001C27.3612 47.0001 27.6199 47.0694 27.848 47.2011C28.076 47.3327 28.2653 47.5221 28.397 47.7501" stroke="#ED4A4B" stroke-linecap="round" stroke-linejoin="round"/>
<path d="M23.2008 50.7501C23.0691 50.5221 22.9999 50.2634 22.9999 50.0001C22.9999 49.7368 23.0691 49.4781 23.2007 49.2501C23.3324 49.0221 23.5218 48.8327 23.7498 48.7011C23.9778 48.5694 24.2365 48.5001 24.4998 48.5001C24.7631 48.5001 25.0218 48.5694 25.2498 48.7011C25.4779 48.8327 25.6672 49.0221 25.7988 49.2501" stroke="#ED4A4B" stroke-linecap="round" stroke-linejoin="round"/>
<path d="M24.5 11C25.3284 11 26 10.3284 26 9.5C26 8.67157 25.3284 8 24.5 8C23.6716 8 23 8.67157 23 9.5C23 10.3284 23.6716 11 24.5 11Z" stroke="#3A90CD" stroke-linecap="round" stroke-linejoin="round"/>
<path d="M37.5 7C38.3284 7 39 6.32843 39 5.5C39 4.67157 38.3284 4 37.5 4C36.6716 4 36 4.67157 36 5.5C36 6.32843 36.6716 7 37.5 7Z" stroke="#FECB5B" stroke-linecap="round" stroke-linejoin="round"/>
<path d="M45.5 30C46.3284 30 47 29.3284 47 28.5C47 27.6716 46.3284 27 45.5 27C44.6716 27 44 27.6716 44 28.5C44 29.3284 44.6716 30 45.5 30Z" stroke="#FECB5B" stroke-linecap="round" stroke-linejoin="round"/>
<path d="M43.5 43.0001C44.3284 43.0001 45 42.3285 45 41.5001C45 40.6717 44.3284 40.0001 43.5 40.0001C42.6716 40.0001 42 40.6717 42 41.5001C42 42.3285 42.6716 43.0001 43.5 43.0001Z" stroke="#3A90CD" stroke-linecap="round" stroke-linejoin="round"/>
<path d="M7.5 28C8.32843 28 9 27.3284 9 26.5C9 25.6716 8.32843 25 7.5 25C6.67157 25 6 25.6716 6 26.5C6 27.3284 6.67157 28 7.5 28Z" stroke="#FECB5B" stroke-linecap="round" stroke-linejoin="round"/>
<path d="M13 19.5C13.2761 19.5 13.5 19.2761 13.5 19C13.5 18.7239 13.2761 18.5 13 18.5C12.7239 18.5 12.5 18.7239 12.5 19C12.5 19.2761 12.7239 19.5 13 19.5Z" fill="#ED4A4B"/>
<path d="M35 21.5C35.2761 21.5 35.5 21.2761 35.5 21C35.5 20.7239 35.2761 20.5 35 20.5C34.7239 20.5 34.5 20.7239 34.5 21C34.5 21.2761 34.7239 21.5 35 21.5Z" fill="#3A90CD"/>
<path d="M50 17.5C50.2761 17.5 50.5 17.2761 50.5 17C50.5 16.7239 50.2761 16.5 50 16.5C49.7239 16.5 49.5 16.7239 49.5 17C49.5 17.2761 49.7239 17.5 50 17.5Z" fill="#3A90CD"/>
<path d="M37 37.5001C37.2761 37.5001 37.5 37.2763 37.5 37.0001C37.5 36.724 37.2761 36.5001 37 36.5001C36.7239 36.5001 36.5 36.724 36.5 37.0001C36.5 37.2763 36.7239 37.5001 37 37.5001Z" fill="#FECB5B"/>
<path d="M37 48.5001C37.2761 48.5001 37.5 48.2763 37.5 48.0001C37.5 47.724 37.2761 47.5001 37 47.5001C36.7239 47.5001 36.5 47.724 36.5 48.0001C36.5 48.2763 36.7239 48.5001 37 48.5001Z" fill="#3A90CD"/>
<path d="M18 50.5001C18.2761 50.5001 18.5 50.2763 18.5 50.0001C18.5 49.724 18.2761 49.5001 18 49.5001C17.7239 49.5001 17.5 49.724 17.5 50.0001C17.5 50.2763 17.7239 50.5001 18 50.5001Z" fill="#ED4A4B"/>
<path d="M50 35.5001C50.2761 35.5001 50.5 35.2763 50.5 35.0001C50.5 34.724 50.2761 34.5001 50 34.5001C49.7239 34.5001 49.5 34.724 49.5 35.0001C49.5 35.2763 49.7239 35.5001 50 35.5001Z" fill="#FECB5B"/>
<path d="M26 4.5C26.2761 4.5 26.5 4.27614 26.5 4C26.5 3.72386 26.2761 3.5 26 3.5C25.7239 3.5 25.5 3.72386 25.5 4C25.5 4.27614 25.7239 4.5 26 4.5Z" fill="#3A90CD"/>
<path d="M45 4.5C45.2761 4.5 45.5 4.27614 45.5 4C45.5 3.72386 45.2761 3.5 45 3.5C44.7239 3.5 44.5 3.72386 44.5 4C44.5 4.27614 44.7239 4.5 45 4.5Z" fill="#ED4A4B"/>
</svg>
