<svg width="64" height="64" viewBox="0 0 64 64" fill="none" xmlns="http://www.w3.org/2000/svg">
<path d="M13 20V42C13.0027 44.5551 13.5201 47.0835 14.5214 49.4342C15.5227 51.785 16.9872 53.91 18.8277 55.6823C20.6682 57.4546 22.8469 58.8381 25.2337 59.75C27.6205 60.6619 30.1666 61.0836 32.72 60.99C43.01 60.6 51 51.83 51 41.54V20H13Z" fill="#FFDAAA"/>
<path d="M13 27V30C13 30 35 29 40 21C40 21 41 28.051 51 30V27L40 20L13 27Z" fill="#FFC477"/>
<path d="M54 29.27C53.6962 29.0937 53.3513 29.0006 53 29L51 28V39H53C53.5299 38.9984 54.0377 38.7872 54.4125 38.4125C54.7872 38.0377 54.9984 37.5299 55 37V31C54.9996 30.6493 54.9071 30.3048 54.7315 30.0012C54.556 29.6975 54.3037 29.4454 54 29.27Z" fill="#F7BF75"/>
<path d="M54 25V29.27C53.6962 29.0937 53.3513 29.0006 53 29H51.97C51.64 29 51.32 28.98 51 28.95C48.8353 28.6942 46.7592 27.9409 44.9341 26.749C43.1091 25.5572 41.5846 23.9591 40.48 22.08C40.3001 21.7429 40.1399 21.3956 40 21.04V21.03C39.6546 21.3767 39.2871 21.7007 38.9 22C30.94 28.43 13.85 28.98 13.03 29H11C10.6487 29.0006 10.3038 29.0937 10 29.27V25C10 19.1652 12.3179 13.5695 16.4437 9.44365C20.5695 5.31785 26.1652 3 32 3C37.8348 3 43.4305 5.31785 47.5564 9.44365C51.6822 13.5695 54 19.1652 54 25Z" fill="#A02100"/>
<path d="M13 29H11C10.4696 29 9.96086 29.2107 9.58579 29.5858C9.21071 29.9609 9 30.4696 9 31V37C9.00158 37.5299 9.2128 38.0377 9.58753 38.4125C9.96227 38.7872 10.4701 38.9984 11 39H13V29Z" fill="#F7BF75"/>
<path d="M23 35.472L26.804 38.236L25.351 33.764L29.155 31H24.453L23 26.528L21.547 31H16.845L20.649 33.764L19.196 38.236L23 35.472Z" fill="#EB5757"/>
<path d="M41 26.528L39.547 31H34.845L38.649 33.764L37.196 38.236L41 35.472L44.804 38.236L43.351 33.764L47.155 31H42.453L41 26.528Z" fill="#EB5757"/>
<path d="M32 55C34.9174 55 37.7153 53.8411 39.7782 51.7782C41.8411 49.7153 43 46.9174 43 44H21C21 46.9174 22.1589 49.7153 24.2218 51.7782C26.2847 53.8411 29.0826 55 32 55Z" fill="#EC3100"/>
</svg>
