<svg width="44" height="44" viewBox="0 0 44 44" fill="none" xmlns="http://www.w3.org/2000/svg">
<path d="M8.9375 13.75V28.875C8.93937 30.6316 9.2951 32.3699 9.98346 33.986C10.6718 35.6022 11.6787 37.0631 12.944 38.2816C14.2094 39.5001 15.7072 40.4512 17.3482 41.0781C18.9891 41.705 20.7395 41.995 22.495 41.9306C29.5694 41.6625 35.0625 35.6331 35.0625 28.5587V13.75H8.9375Z" fill="#FFDAAA"/>
<path d="M8.9375 18.5625V20.625C8.9375 20.625 24.0625 19.9375 27.5 14.4375C27.5 14.4375 28.1875 19.2851 35.0625 20.625V18.5625L27.5 13.75L8.9375 18.5625Z" fill="#FFC477"/>
<path d="M37.125 20.1231C36.9161 20.002 36.679 19.9379 36.4375 19.9375L35.0625 19.25V26.8125H36.4375C36.8018 26.8114 37.1509 26.6662 37.4086 26.4086C37.6662 26.1509 37.8114 25.8018 37.8125 25.4375V21.3125C37.8123 21.0714 37.7486 20.8346 37.6279 20.6258C37.5073 20.417 37.3338 20.2437 37.125 20.1231Z" fill="#F7BF75"/>
<path d="M37.125 17.1875V20.1231C36.9161 20.002 36.679 19.9379 36.4375 19.9375H35.7294C35.5025 19.9375 35.2825 19.9238 35.0625 19.9031C33.5743 19.7272 32.1469 19.2093 30.8922 18.39C29.6375 17.5706 28.5894 16.4719 27.83 15.18C27.7063 14.9482 27.5961 14.7095 27.5 14.465V14.4581C27.2625 14.6964 27.0099 14.9192 26.7438 15.125C21.2713 19.5456 9.52187 19.9238 8.95812 19.9375H7.5625C7.32101 19.9379 7.08389 20.002 6.875 20.1231V17.1875C6.875 13.1761 8.46852 9.329 11.305 6.49251C14.1415 3.65602 17.9886 2.0625 22 2.0625C26.0114 2.0625 29.8585 3.65602 32.695 6.49251C35.5315 9.329 37.125 13.1761 37.125 17.1875Z" fill="#A02100"/>
<path d="M8.9375 19.9375H7.5625C7.19783 19.9375 6.84809 20.0824 6.59023 20.3402C6.33237 20.5981 6.1875 20.9478 6.1875 21.3125V25.4375C6.18859 25.8018 6.3338 26.1509 6.59143 26.4086C6.84906 26.6662 7.19816 26.8114 7.5625 26.8125H8.9375V19.9375Z" fill="#F7BF75"/>
<path d="M15.8125 24.0625C16.0844 24.0625 16.3503 23.9819 16.5764 23.8308C16.8025 23.6797 16.9788 23.4649 17.0828 23.2137C17.1869 22.9624 17.2141 22.686 17.1611 22.4193C17.108 22.1525 16.9771 21.9075 16.7848 21.7152C16.5925 21.5229 16.3475 21.392 16.0807 21.3389C15.814 21.2859 15.5376 21.3131 15.2863 21.4172C15.0351 21.5212 14.8203 21.6975 14.6692 21.9236C14.5181 22.1497 14.4375 22.4156 14.4375 22.6875C14.4375 23.0522 14.5824 23.4019 14.8402 23.6598C15.0981 23.9176 15.4478 24.0625 15.8125 24.0625ZM28.1875 24.0625C28.4594 24.0625 28.7253 23.9819 28.9514 23.8308C29.1775 23.6797 29.3538 23.4649 29.4578 23.2137C29.5619 22.9624 29.5891 22.686 29.5361 22.4193C29.483 22.1525 29.3521 21.9075 29.1598 21.7152C28.9675 21.5229 28.7225 21.392 28.4557 21.3389C28.189 21.2859 27.9126 21.3131 27.6613 21.4172C27.4101 21.5212 27.1953 21.6975 27.0442 21.9236C26.8931 22.1497 26.8125 22.4156 26.8125 22.6875C26.8125 23.0522 26.9574 23.4019 27.2152 23.6598C27.4731 23.9176 27.8228 24.0625 28.1875 24.0625Z" fill="#FF6243"/>
<path d="M13.75 31.6251V33.0001H30.25V31.6251H13.75Z" fill="#FF7956"/>
</svg>
