<svg x="0" y="0" width="806" height="1026" viewBox="0 0 940.3333333333334 1197" xmlns="http://www.w3.org/2000/svg" xmlns:xlink="http://www.w3.org/1999/xlink" xmlns:fi="http://pattern.flaticon.com/"><rect x="0px" y="0px" width="100%" height="100%" opacity="1" fill="#fbfbfe"/><defs><g transform="matrix(0.1171875 0 0 0.1171875 108.99999237060547 17)" id="L1_4"><path d="m165.949 204.849v15.861c0 4.142 3.358 7.5 7.5 7.5 4.143 0 7.5-3.358 7.5-7.5v-15.861c0-4.142-3.357-7.5-7.5-7.5-4.142 0-7.5 3.358-7.5 7.5z" fill="#5f6fed"/><path d="m338.536 197.349c-4.142 0-7.5 3.358-7.5 7.5v15.861c0 4.142 3.358 7.5 7.5 7.5s7.5-3.358 7.5-7.5v-15.861c0-4.142-3.358-7.5-7.5-7.5z" fill="#5f6fed"/><path d="m272.1 215.311c-4.066 4.666-9.937 7.342-16.108 7.342s-12.042-2.676-16.108-7.341c-2.721-3.123-7.458-3.448-10.582-.727-3.123 2.721-3.448 7.459-.727 10.582 6.916 7.936 16.908 12.487 27.417 12.487 10.508 0 20.5-4.551 27.417-12.486 2.721-3.123 2.396-7.86-.727-10.582s-7.86-2.397-10.582.725z" fill="#5f6fed"/><path d="m400.295 55.234c-39.762-35.618-91.01-55.234-144.302-55.234-42.309 0-83.332 12.271-118.636 35.485-3.461 2.276-4.421 6.926-2.146 10.387s6.927 4.423 10.387 2.146c32.85-21.601 71.024-33.018 110.395-33.018 49.593 0 97.286 18.256 134.293 51.407 32.377 29.002 54.379 67.33 63.054 109.314-7.02-3.327-15.037-5.215-22.91-5.381-4.674-12.633-14.682-23.253-27.946-28.447-24.929-9.76-50.769-32.884-64.905-53.445-3.065-4.522-9.85-4.368-12.667.396-19.696 33.369-57.048 51.353-95.167 57.337 12.435-25.578 1.518-54.753.955-56.216-2.012-5.229-8.936-6.519-12.663-2.225-24.08 27.729-61.204 41.548-97.223 47.052-19.336 2.955-34.81 17.065-39.588 35.557-7.55.201-15.476 2.007-22.582 5.374 8.74-42.309 31-80.868 63.788-109.957 3.098-2.749 3.381-7.489.633-10.588-2.749-3.098-7.489-3.382-10.588-.633-39.271 34.842-64.471 82.344-71.168 133.992-9.274 10.057-14.952 23.477-14.952 38.203 0 33.029 28.444 59.244 61.646 56.157 15.9 39.853 45.641 72.863 83.172 93.004-31.306 28.782-52.982 74.253-52.982 128.599 0 4.142 3.358 7.5 7.5 7.5h260.601c4.143 0 7.5-3.358 7.5-7.5 0-53.765-21.313-99.383-52.822-128.451 13.71-7.318 26.54-16.449 38.158-27.269 3.031-2.823 3.2-7.569.376-10.6-2.823-3.031-7.568-3.2-10.6-.376-34.331 31.975-78.804 46.69-122.484 44.158-103.302-5.965-177.687-106.049-150.617-208.071 3.381-12.735 14.092-22.257 27.276-24.272 35.095-5.365 70.618-18.13 96.61-42.093 1.87 11.804 1.894 29.738-10.881 42.512-4.666 4.667-1.462 12.859 5.44 12.802 11.133-.205 30.079-3.198 47.25-8.752 27.873-9.014 53.077-24.777 70.311-48.457 17.094 20.996 40.091 40.396 65.206 50.229 17.821 6.977 20.535 23.747 20.593 23.859 10.527 44.6 1.463 95.971-29.431 136.756-2.501 3.302-1.852 8.006 1.45 10.507 3.301 2.5 8.006 1.852 10.507-1.45 10.024-13.235 18.062-27.543 24.026-42.621 51.429 4.602 81.194-56.77 46.516-94.376-6.651-51.277-31.572-98.535-70.383-133.301zm-86.653 332.609v24.495h-50.149v-15.259c17.71-.721 34.673-4.016 50.149-9.236zm58.554 67.848h-43.553v-28.354h32.331c4.64 9.014 8.391 18.47 11.222 28.354zm-58.554 0h-50.149v-28.354h50.149zm-162.63-28.353h32.331v28.354h-43.553c2.831-9.885 6.582-19.341 11.222-28.354zm47.331 0h50.15v28.354h-50.15zm0-39.572c16.168 5.493 32.958 8.603 50.15 9.305v15.267h-50.15zm50.15 82.925v26.309h-50.15v-26.309zm15 0h50.149v26.309h-50.149zm-80.15-85.538v27.185h-23.503c7.382-11.057 15.444-20.123 23.503-27.185zm-47.078 85.538h47.078v26.309h-50.009c.344-9.041 1.338-17.809 2.931-26.309zm192.377 26.309v-26.309h47.078c1.593 8.5 2.587 17.268 2.931 26.309zm23.503-84.662h-23.503v-27.185c7.977 6.99 16.099 16.081 23.503 27.185zm-269.309-144.186c-37.75 0-55.569-46.182-28.33-71.655.624-.427 8.849-9.182 23.406-10.877-4.608 26.748-3.301 55.15 4.924 82.532zm346.428-.001c8.132-27.367 9.393-56.029 4.815-82.53 20.577 2.392 36.548 19.964 36.548 41.119.001 22.819-18.551 41.385-41.363 41.411z" fill="#5f6fed"/></g><g transform="matrix(0.1171875 0 0 0.1171875 202 104)" id="L1_5"><path d="m172.501 221.508c4.142 0 7.5-3.358 7.5-7.5v-16.044c0-4.142-3.358-7.5-7.5-7.5s-7.5 3.358-7.5 7.5v16.044c0 4.142 3.358 7.5 7.5 7.5z" fill="#5a69e0"/><path d="m339.494 221.508c4.142 0 7.5-3.358 7.5-7.5v-16.044c0-4.142-3.358-7.5-7.5-7.5s-7.5 3.358-7.5 7.5v16.044c0 4.142 3.357 7.5 7.5 7.5z" fill="#5a69e0"/><path d="m255.997 231.059c10.604 0 20.688-4.593 27.667-12.601 2.721-3.123 2.396-7.86-.727-10.582-3.123-2.721-7.861-2.396-10.582.727-8.646 9.922-24.046 9.952-32.718 0-2.721-3.123-7.459-3.448-10.582-.727s-3.448 7.459-.727 10.582c6.981 8.008 17.065 12.601 27.669 12.601z" fill="#5a69e0"/><path d="m472.505 216.518c0-60.434-25.022-117.218-68.764-158.12-3.025-2.828-7.771-2.67-10.601.356s-2.67 7.772.355 10.601c40.614 37.975 64.009 90.761 64.009 147.163.052 142.734 1.934 174.205-80.223 210.061-9.296-20.095-22.289-37.619-36.256-50.499 64.012-34.221 101.224-102.892 95.026-175.163-2.01-23.438-17.808-43.292-40.247-50.581-55.595-18.058-87.188-17.208-132.308-77.051v-58.148c38.592 1.417 75.57 13.763 107.381 35.921 3.398 2.367 8.073 1.532 10.441-1.867 2.367-3.399 1.531-8.074-1.868-10.441-36.391-25.351-79.081-38.75-123.453-38.75-119.382 0-216.507 97.129-216.507 216.518l-.002 9.824c-.047 136.052-.043 174.974 89.578 214.125-6.329 17.559-10.866 38.899-10.866 64.033 0 4.142 3.358 7.5 7.5 7.5h260.597c4.142 0 7.5-3.358 7.5-7.5 0-25.134-4.537-46.474-10.866-64.033 91.878-40.138 89.609-80.241 89.574-223.949zm-128.077 280.482h-176.861c-5.36-39.661 39.098-64.108 69.659-41.396 11.227 8.351 26.315 8.351 37.542.001 31.11-23.12 75.083 2.448 69.66 41.395zm-64.884-101.283v40.248c-4.843 1.89-9.451 4.427-13.727 7.604-5.982 4.449-13.899 4.267-19.642-.001-4.047-3.01-8.753-5.661-13.725-7.6v-40.262c15.191 1.987 31.005 2.083 47.094.011zm-87.321-10.135c8.397 3.186 16.499 5.537 25.228 7.495v39.231c-8.199-.876-16.996-.042-25.228 2.671zm102.321 46.725v-39.176c8.608-1.86 17.034-4.344 25.228-7.428v49.275c-8.198-2.701-16.979-3.547-25.228-2.671zm-159.832-5.728c-80.286-35.039-80.271-65.842-80.225-200.231l.002-9.83c0-108.608 86.354-197.424 194.008-201.38v58.146c-43.614 58.28-75.471 58.59-132.309 77.051-22.436 7.289-38.232 27.134-40.245 50.56-3.683 42.92 7.771 85.866 33.993 121.788 2.803 3.842 8.418 4.13 11.611.621 2.349-2.58 2.643-6.539.506-9.466-24.084-32.993-34.542-72.387-31.164-111.659 1.483-17.277 13.147-32.124 29.934-37.577 56.287-18.286 90.296-19.502 135.174-76.463 46.167 58.611 83.043 59.525 135.174 76.463 16.62 5.399 28.435 20.102 29.936 37.596 6.043 70.415-33.26 136.624-96.933 165.404h-.001c-61.641 27.852-134.073 15.447-183.231-32.084-2.983-2.884-7.736-2.795-10.61.184-2.879 2.978-2.799 7.726.179 10.605 11.891 11.5 25.65 21.633 40.595 29.646-14.319 13.167-27.244 30.847-36.394 50.626zm-1.372 70.421c1.695-44.519 19.063-80.931 43.882-106.039v51.487c-16.217 11.253-25.084 29.497-25.084 48.452.033 2.102.087 3.919.314 6.1zm226.202 0c2.193-21.377-7.043-42.252-24.77-54.553v-51.489c25.527 25.824 42.226 62.539 43.882 106.042z" fill="#5a69e0"/></g><g transform="matrix(0.11718681454658508 0 0 0.11718681454658508 -27 2)" id="L1_6"><path d="m386.279 111.831c3.536 2.353 8.259 2.19 11.636-.38 3.181-2.421 4.598-6.666 3.568-10.517-1.104-4.129-4.846-7.163-9.113-7.394-4.247-.23-8.267 2.354-9.831 6.303-1.705 4.303-.151 9.438 3.74 11.988z" fill="#5b6be3"/><path d="m429.848 131.761c-3.338-4.399-9.609-5.264-14.011-1.923-4.399 3.337-5.261 9.61-1.923 14.011 39.529 52.112 61.093 113.87 62.589 179.033l-38.835 12.324c-4.112-29.492-10.702-56.996-19.635-81.911-.001-.002-.001-.004-.002-.006-9.099-25.404-20.867-48.756-34.98-69.41-.005-.007-.009-.013-.013-.02-47.371-69.326-122.763-111.476-224.21-125.394l12.371-38.384c65.514 1.462 127.636 22.738 180.094 61.755 1.793 1.333 3.885 1.977 5.96 1.977 3.054 0 6.069-1.395 8.032-4.033 3.296-4.432 2.375-10.695-2.057-13.992-57.864-43.039-126.778-65.788-199.286-65.788-4.341 0-8.187 2.801-9.518 6.933l-76.8 238.298-26.516 82.265c-.017.053-.033.107-.049.16l-33.998 105.49c-3.909 12.145-.734 25.316 8.286 34.375 9.111 9.149 22.434 12.405 34.772 8.488l146.18-46.393v40.064c0 22.72 18.271 41.698 40.729 42.307.395.011.79.017 1.184.017 11.026 0 21.391-4.196 29.295-11.89 8.12-7.903 12.593-18.477 12.593-29.773v-67.322l52.53-16.672v45.353c0 19.426 15.898 35.229 35.44 35.229 9.441 0 18.327-3.653 25.028-10.296 6.707-6.665 10.401-15.52 10.401-24.934v-67.844l76.112-24.152c4.154-1.317 6.976-5.174 6.976-9.531 0-72.242-23.078-140.852-66.739-198.411zm-59.205 69.603c10.08 15.716 18.775 33.018 25.935 51.604-4.179 2.257-8.886 3.461-13.719 3.461-15.925 0-28.88-12.955-28.88-28.88 0-11.349 6.72-21.517 16.664-26.185zm-267.268 110.596c-8.033 7.971-18.872 11.879-29.819 11.092l22.67-70.34c2.583 1.567 4.985 3.441 7.141 5.58 7.232 7.176 11.214 16.709 11.214 26.843-.001 10.128-3.98 19.655-11.206 26.825zm-32.745 139.726c.143-15.604 12.881-28.257 28.519-28.257 9.317 0 17.881 4.594 23.145 11.862zm162.174-56.755c-14.619 14.509-38.406 14.508-53.025 0-7.058-7.003-10.943-16.308-10.943-26.2 0-9.894 3.886-19.198 10.943-26.202 7.31-7.254 16.911-10.881 26.513-10.881s19.203 3.627 26.513 10.881c7.057 7.003 10.943 16.309 10.943 26.202-.001 9.892-3.887 19.198-10.944 26.2zm167.669-47.922c-4.153 1.319-6.974 5.175-6.974 9.531v75.16c0 4.047-1.598 7.863-4.49 10.738-2.922 2.896-6.807 4.491-10.939 4.491-8.514 0-15.44-6.832-15.44-15.229v-59.02c0-3.189-1.522-6.186-4.095-8.07-2.573-1.883-5.891-2.426-8.931-1.461l-72.53 23.021c-4.153 1.318-6.975 5.174-6.975 9.531v74.64c0 5.852-2.323 11.335-6.542 15.44-4.284 4.17-9.936 6.391-15.987 6.214-11.729-.318-21.271-10.328-21.271-22.315v-47.439c7.517-2.76 14.565-7.131 20.593-13.113 0 0 0 0 0-.001 10.869-10.786 16.855-25.133 16.855-40.397 0-15.265-5.986-29.611-16.855-40.397-22.387-22.217-58.813-22.218-81.201-.001-10.87 10.786-16.855 25.134-16.855 40.398s5.985 29.611 16.855 40.397c3.493 3.466 7.328 6.392 11.397 8.777l-35.156 11.158c-8.322-15.477-24.719-25.631-42.783-25.631-26.754 0-48.52 21.767-48.52 48.521 0 1.892.109 3.772.325 5.636-4.218.404-8.335-1.063-11.435-4.177-3.771-3.788-5.05-9.072-3.421-14.133l31.203-96.817c3.019.471 6.045.705 9.057.705 15.168 0 29.926-5.913 41.105-17.007 11.038-10.954 17.117-25.523 17.117-41.022 0-15.505-6.082-30.08-17.126-41.039-4.396-4.363-9.472-7.999-14.983-10.763l50.123-155.522c92.169 11.962 161.537 47.925 206.497 107.028-15.118 8.474-25.113 24.716-25.113 42.711 0 26.952 21.928 48.88 48.88 48.88 7.099 0 14.037-1.537 20.373-4.442 6.763 21.378 11.821 44.622 15.087 69.354z" fill="#5b6be3"/><path d="m269.769 169.329c0-16.081-6.307-31.195-17.758-42.56-23.588-23.406-61.969-23.406-85.557 0-11.451 11.364-17.758 26.478-17.758 42.56 0 16.081 6.307 31.195 17.758 42.56 11.794 11.703 27.286 17.555 42.778 17.555s30.984-5.852 42.778-17.555c11.452-11.365 17.759-26.479 17.759-42.56zm-31.846 28.362c-15.82 15.699-41.561 15.699-57.381 0-7.64-7.58-11.846-17.652-11.846-28.362s4.206-20.782 11.846-28.362c7.91-7.85 18.3-11.774 28.69-11.774 10.391 0 20.78 3.925 28.69 11.774 7.64 7.58 11.846 17.652 11.846 28.362.001 10.71-4.205 20.782-11.845 28.362z" fill="#5b6be3"/><path d="m308.857 255.15c-20.34-21.006-54.085-21.444-75.224-.978-1.905 1.846-3 4.372-3.043 7.023-.042 2.651.97 5.212 2.815 7.117l59.864 61.824c1.961 2.026 4.571 3.044 7.185 3.044 2.505 0 5.014-.936 6.955-2.815 21.138-20.467 21.788-54.208 1.448-75.215zm-9.23 52.803-43.844-45.279c12.65-6.379 28.436-4.217 38.705 6.389 10.271 10.606 11.922 26.453 5.139 38.89z" fill="#5b6be3"/></g><g transform="matrix(0.05097544938325882 -0.05097544938325882 0.05097544938325882 0.05097544938325882 119.32223510742188 184.98336791992188)" id="L1_7"><path d="m175.282 239.71c-17.127 0-31.061 13.934-31.061 31.061s13.934 31.062 31.061 31.062 31.061-13.935 31.061-31.062-13.934-31.061-31.061-31.061zm0 47.095c-8.84 0-16.033-7.192-16.033-16.033 0-8.84 7.192-16.032 16.033-16.032s16.033 7.192 16.033 16.032-7.193 16.033-16.033 16.033z" fill="#5c6ce6"/><path d="m305.657 270.771c0 17.127 13.934 31.062 31.061 31.062s31.061-13.935 31.061-31.062-13.934-31.061-31.061-31.061-31.061 13.934-31.061 31.061zm31.061-16.032c8.841 0 16.033 7.192 16.033 16.032 0 8.841-7.192 16.033-16.033 16.033-8.84 0-16.033-7.192-16.033-16.033 0-8.84 7.193-16.032 16.033-16.032z" fill="#5c6ce6"/><path d="m511.143 376.469-33.876-201.735c-.022-.129-.047-.257-.075-.384-4.768-33.451-27.278-60.819-57.144-73.096v-13.947c0-12.43-10.112-22.543-22.543-22.543h-28.337c-12.43 0-22.543 10.113-22.543 22.543v15.086c-9.997 4.489-19.214 10.758-27.256 18.689h-126.739c-8.042-7.931-17.259-14.2-27.256-18.689v-15.086c0-12.43-10.112-22.543-22.543-22.543h-28.337c-12.43 0-22.543 10.113-22.543 22.543v13.948c-29.863 12.276-52.371 39.641-57.142 73.088-.029.129-.054.259-.076.391l-10.91 64.966c-.687 4.093 2.073 7.968 6.166 8.655 4.093.684 7.968-2.073 8.655-6.166l10.805-64.348c.069-.274.124-.554.162-.838 5.23-38.599 38.583-67.706 77.585-67.706 20.72 0 40.046 7.942 54.764 22.397v10.263c0 15.192 12.36 27.552 27.552 27.552h31.459c4.15 0 7.514-3.364 7.514-7.514 0-4.151-3.364-7.514-7.514-7.514h-31.459c-6.906 0-12.524-5.618-12.524-12.524v-5.849h118.022v5.849c0 6.906-5.618 12.524-12.524 12.524h-31.459c-4.15 0-7.514 3.364-7.514 7.514s3.364 7.514 7.514 7.514h31.459c15.192 0 27.552-12.36 27.552-27.552v-10.263c14.718-14.456 34.044-22.397 54.764-22.397 39.001 0 72.356 29.107 77.585 67.706.038.281.091.557.16.828l33.774 201.126c3.544 21.104-7.785 41.573-27.549 49.777-11.832 4.912-24.771 4.695-36.433-.607s-20.33-14.909-24.408-27.053l-6.917-20.597c-1.321-3.934-5.582-6.056-9.516-4.731-3.934 1.321-6.052 5.581-4.731 9.515l6.917 20.597c5.341 15.903 17.163 29.007 32.435 35.95 7.951 3.614 16.543 5.426 25.142 5.426 7.919 0 15.844-1.537 23.272-4.621 26.265-10.9 41.319-38.1 36.61-66.144zm-404.163-279.954v-9.208c0-4.144 3.371-7.514 7.514-7.514h28.337c4.144 0 7.514 3.371 7.514 7.514v9.84c-7.462-1.892-15.218-2.877-23.148-2.877-6.919 0-13.684.784-20.217 2.245zm254.675.632v-9.84c0-4.144 3.371-7.514 7.514-7.514h28.337c4.144 0 7.514 3.371 7.514 7.514v9.208c-6.533-1.461-13.298-2.245-20.217-2.245-7.93 0-15.686.985-23.148 2.877z" fill="#5c6ce6"/><path d="m391.439 351.968-13.355-39.766c-.762-2.27-2.561-4.041-4.842-4.768-2.28-.726-4.772-.323-6.708 1.088-8.159 5.947-17.815 9.09-27.924 9.09-13.018 0-25.167-5.177-34.21-14.577-1.417-1.473-3.372-2.305-5.415-2.305h-85.969c-2.043 0-3.999.833-5.415 2.305-9.043 9.401-21.193 14.577-34.211 14.577-10.109 0-19.766-3.144-27.924-9.09-1.934-1.41-4.425-1.814-6.707-1.088-2.282.727-4.08 2.498-4.842 4.768l-29.848 88.873c-4.078 12.144-12.746 21.751-24.408 27.053-11.663 5.302-24.601 5.516-36.433.607-19.765-8.204-31.093-28.673-27.549-49.777l17.985-107.1c.687-4.093-2.073-7.968-6.166-8.655-4.098-.681-7.968 2.073-8.655 6.166l-17.985 107.1c-4.709 28.044 10.345 55.245 36.61 66.146 7.43 3.084 15.352 4.622 23.272 4.621 8.597 0 17.192-1.812 25.142-5.426 15.272-6.943 27.094-20.047 32.435-35.95l26.849-79.944c8.697 4.421 18.296 6.726 28.226 6.726 16.046 0 31.088-5.971 42.709-16.883h79.803c11.62 10.911 26.662 16.883 42.708 16.883 9.93 0 19.529-2.304 28.226-6.726l10.356 30.837c1.321 3.934 5.58 6.056 9.516 4.731 3.932-1.322 6.05-5.582 4.729-9.516z" fill="#5c6ce6"/><path d="m127.801 140.968c-12.934 0-23.457 10.523-23.457 23.457v1.701h-1.701c-12.934 0-23.457 10.523-23.457 23.457s10.522 23.457 23.457 23.457h1.701v1.701c0 12.934 10.523 23.457 23.457 23.457s23.457-10.523 23.457-23.457v-1.701h1.701c12.934 0 23.457-10.523 23.457-23.457s-10.522-23.457-23.457-23.457h-1.701v-1.701c-.001-12.934-10.523-23.457-23.457-23.457zm25.158 40.187c4.647 0 8.428 3.781 8.428 8.428s-3.781 8.428-8.428 8.428h-9.216c-4.15 0-7.514 3.364-7.514 7.514v9.216c0 4.648-3.781 8.428-8.428 8.428s-8.429-3.781-8.429-8.428v-9.216c0-4.15-3.364-7.514-7.514-7.514h-9.215c-4.647 0-8.428-3.781-8.428-8.428 0-4.648 3.781-8.428 8.428-8.428h9.215c4.15 0 7.514-3.364 7.514-7.514v-9.216c0-4.648 3.781-8.428 8.429-8.428 4.647 0 8.428 3.781 8.428 8.428v9.216c0 4.15 3.364 7.514 7.514 7.514z" fill="#5c6ce6"/><path d="m389.346 130.706c-12.1 0-21.944 9.844-21.944 21.944s9.844 21.944 21.944 21.944 21.944-9.844 21.944-21.944-9.844-21.944-21.944-21.944zm0 28.86c-3.813 0-6.915-3.103-6.915-6.915s3.102-6.915 6.915-6.915 6.915 3.103 6.915 6.915-3.102 6.915-6.915 6.915z" fill="#5c6ce6"/><path d="m389.346 204.572c-12.1 0-21.944 9.844-21.944 21.944 0 12.099 9.844 21.943 21.944 21.943s21.944-9.844 21.944-21.944c0-12.099-9.844-21.943-21.944-21.943zm0 28.859c-3.813 0-6.915-3.103-6.915-6.915 0-3.813 3.102-6.915 6.915-6.915s6.915 3.103 6.915 6.915-3.102 6.915-6.915 6.915z" fill="#5c6ce6"/><path d="m448.223 189.583c0-12.1-9.844-21.944-21.944-21.944s-21.944 9.844-21.944 21.944 9.844 21.944 21.944 21.944 21.944-9.844 21.944-21.944zm-28.859 0c0-3.813 3.102-6.915 6.915-6.915s6.915 3.103 6.915 6.915-3.102 6.915-6.915 6.915-6.915-3.102-6.915-6.915z" fill="#5c6ce6"/><path d="m330.469 189.583c0 12.1 9.844 21.944 21.944 21.944s21.943-9.844 21.943-21.944-9.844-21.944-21.943-21.944c-12.1 0-21.944 9.844-21.944 21.944zm28.859 0c0 3.813-3.102 6.915-6.915 6.915s-6.915-3.103-6.915-6.915 3.102-6.915 6.915-6.915c3.813-.001 6.915 3.102 6.915 6.915z" fill="#5c6ce6"/><path d="m233.812 218.681c4.15 0 7.514-3.364 7.514-7.514s-3.364-7.514-7.514-7.514h-22.491c-4.15 0-7.514 3.364-7.514 7.514s3.364 7.514 7.514 7.514z" fill="#5c6ce6"/><path d="m300.679 203.653h-22.491c-4.15 0-7.514 3.364-7.514 7.514s3.364 7.514 7.514 7.514h22.491c4.15 0 7.514-3.364 7.514-7.514 0-4.151-3.364-7.514-7.514-7.514z" fill="#5c6ce6"/></g><g transform="matrix(0.06355486065149307 0.04236990585923195 -0.04236990585923195 0.06355486065149307 238.2417449951172 288.9049072265625)" id="L1_8"><path d="m426.523 283.917-76.444-119.836c10.831-5.692 18.24-17.05 18.24-30.112 0-14.297-8.875-26.553-21.402-31.57l23.158-80.964c.999-3.493.025-7.252-2.543-9.821-15.405-15.404-40.469-15.404-55.874 0-3.685 3.685-8.584 5.714-13.795 5.714s-10.11-2.029-13.818-5.738l-.049-.049c-15.35-15.352-40.371-15.395-55.783-.091l-.287.286c-7.607 7.553-19.962 7.531-27.541-.049l-.073-.073c-15.405-15.404-40.469-15.404-55.874 0-2.57 2.571-3.543 6.333-2.542 9.828l23.208 80.938c-12.554 5.004-21.453 17.273-21.453 31.59 0 13.062 7.408 24.42 18.24 30.112l-76.445 119.835c-29.574 46.36-31.448 102.826-5.013 151.045s75.047 77.007 130.038 77.007h91.026c54.99 0 103.602-28.788 130.038-77.007 26.435-48.219 24.562-104.685-5.012-151.045zm-240.354-258.161.073.073c15.352 15.351 40.372 15.393 55.783.091l.287-.286c7.606-7.553 19.961-7.531 27.564.072l.049.049c15.405 15.404 40.469 15.404 55.874 0 6.268-6.268 15.775-7.371 23.183-3.309l-22.172 77.523h-141.59l-22.23-77.524c7.408-4.061 16.912-2.956 23.179 3.311zm227.829 399.592c-22.87 41.716-64.926 66.622-112.5 66.622h-91.026c-47.574 0-89.63-24.905-112.5-66.622-22.87-41.716-21.249-90.566 4.336-130.675l80.825-126.704h27.852c5.523 0 10-4.477 10-10s-4.477-10-10-10h-33.334c-7.72 0-14-6.28-14-14s6.28-14 14-14h.033 156.634c7.72 0 14 6.28 14 14s-6.28 14-14 14h-33.333c-5.523 0-10 4.477-10 10s4.477 10 10 10h27.851l80.826 126.704c25.585 40.108 27.206 88.958 4.336 130.675z" id="XMLID_1329_" fill="#5f6fed"/><path d="m273.615 326.579c-2.509-.887-5.07-1.81-7.63-2.769v-45.322c6.78 1.995 11.308 5.23 11.5 5.37 4.399 3.295 10.64 2.421 13.964-1.966 3.335-4.402 2.47-10.674-1.932-14.01-.587-.445-9.885-7.347-23.532-9.96v-9.952c0-5.523-4.477-10-10-10s-10 4.477-10 10v9.88c-1.694.325-3.411.736-5.151 1.259-14.074 4.229-24.594 16.265-27.455 31.411-2.611 13.83 1.82 27.169 11.564 34.811 5.288 4.147 11.895 7.934 21.042 11.956v57.996c-7.875-.498-13.143-2.29-21.925-8.035-4.621-3.025-10.82-1.728-13.843 2.894-3.024 4.622-1.728 10.819 2.894 13.843 12.806 8.377 21.477 10.75 32.874 11.311v10.341c0 5.523 4.477 10 10 10s10-4.477 10-10v-11.38c21.414-4.69 33.938-22.559 36.748-39.275 3.673-21.854-7.756-40.853-29.118-48.403zm-36.329-16.986c-3.844-3.015-5.474-8.902-4.254-15.363 1.122-5.942 5.12-13.107 12.953-15.758v36.623c-3.288-1.753-6.255-3.585-8.699-5.502zm45.723 62.072c-1.44 8.565-7.221 17.649-17.025 21.663v-48.239c.326.116.635.229.965.346 17.929 6.337 16.826 21.679 16.06 26.23z" id="XMLID_1341_" fill="#5f6fed"/><path d="m255.985 167.969c2.63 0 5.21-1.07 7.07-2.93s2.93-4.44 2.93-7.07-1.07-5.21-2.93-7.07-4.44-2.93-7.07-2.93-5.21 1.07-7.07 2.93-2.93 4.44-2.93 7.07 1.07 5.21 2.93 7.07 4.439 2.93 7.07 2.93z" id="XMLID_1343_" fill="#5f6fed"/></g><g transform="matrix(0.05301326513290405 -0.05301326513290405 0.05301326513290405 0.05301326513290405 306.8572082519531 234)" id="L1_9"><path d="M407.815,0h-303.63c-21.38,0-41.736,6.707-58.87,19.394c-3.341,2.474-4.044,7.188-1.57,10.529s7.188,4.042,10.529,1.57    c14.522-10.754,31.781-16.439,49.911-16.439h303.629c46.296,0,83.96,37.665,83.96,83.96v199.144    c0,46.296-37.665,83.96-83.96,83.96H279.48c-3.101,0-6.097,1.296-8.217,3.553l-103.068,109.59    c-2.225,2.364-4.805,1.693-5.81,1.296c-1.006-0.398-3.345-1.676-3.345-4.924V393.4c0-6.22-5.06-11.28-11.28-11.28h-43.575    c-46.296,0-83.961-37.665-83.961-83.96V99.014c0-17.032,5.069-33.429,14.66-47.417c2.35-3.429,1.477-8.113-1.951-10.464    c-3.427-2.351-8.114-1.476-10.464,1.951C11.153,59.59,5.171,78.93,5.171,99.014v199.144c0,54.596,44.418,99.014,99.015,99.014    h39.801v94.461c0,8.398,5.044,15.824,12.851,18.918c2.461,0.975,5.017,1.449,7.543,1.449c5.489,0,10.84-2.237,14.78-6.425    l101.95-108.402h126.704c54.596,0,99.014-44.418,99.014-99.014V99.014C506.829,44.418,462.412,0,407.815,0z" fill="#5c6ce6"/><path d="M364.119,120.935c-26.124-26.125-68.635-26.123-94.761,0l-13.119,13.12c-0.035,0.035-0.143,0.143-0.344,0.143    c-0.2,0-0.307-0.106-0.342-0.143l-12.911-12.91c-26.125-26.125-68.635-26.124-94.76,0c-26.125,26.125-26.125,68.636,0,94.761    l97.035,97.035c2.935,2.935,6.837,4.551,10.987,4.551s8.053-1.617,10.987-4.552l53.325-53.334c2.94-2.94,2.94-7.706-0.001-10.644    c-2.94-2.939-7.707-2.94-10.644,0.001l-53.325,53.334c-0.035,0.035-0.143,0.141-0.342,0.141c-0.201,0-0.308-0.106-0.343-0.143    l-97.035-97.035c-20.256-20.257-20.256-53.215,0-73.472s53.215-20.255,73.471,0l12.91,12.91c2.935,2.935,6.837,4.552,10.987,4.552    c4.151,0,8.052-1.616,10.988-4.551l13.12-13.12c20.26-20.255,53.216-20.255,73.472,0c20.256,20.256,20.256,53.214,0,73.472    l-22.472,22.477c-2.94,2.94-2.94,7.706,0.001,10.644c2.94,2.939,7.706,2.94,10.644-0.001l22.473-22.476    C390.244,189.57,390.244,147.06,364.119,120.935z" fill="#5c6ce6"/></g><g transform="matrix(0.08382610231637955 0.08382610231637955 -0.08382610231637955 0.08382610231637955 97.9999771118164 256.08099365234375)" id="L1_10"><path d="M504.53,375.058h-14.984V111.17c0-16.925-13.77-30.695-30.696-30.695H53.149c-16.926,0-30.696,13.77-30.696,30.695    v263.889H7.47c-4.125,0-7.47,3.344-7.47,7.47v8.943c0,22.086,17.968,40.054,40.054,40.054h327.989c4.125,0,7.47-3.344,7.47-7.469    c0-4.126-3.344-7.47-7.47-7.47H40.054c-13.849,0-25.115-11.267-25.115-25.115v-1.474h178.32v13.294c0,4.126,3.344,7.47,7.47,7.47    h110.543c4.125,0,7.47-3.344,7.47-7.47v-13.294h178.32v1.474c0,13.849-11.267,25.115-25.115,25.115h-51.118    c-4.125,0-7.47,3.344-7.47,7.47c0,4.126,3.344,7.469,7.47,7.469h51.118c22.086,0,40.054-17.969,40.054-40.054v-8.943    C512,378.402,508.656,375.058,504.53,375.058z M303.802,395.822h-95.604v-5.825h95.604V395.822z M474.608,374.428H37.393V111.17    c0-8.688,7.068-15.756,15.757-15.756h405.701c8.688,0,15.757,7.068,15.757,15.756V374.428z" fill="#5f6fed"/><path d="M440.307,109.615H71.693c-12.182,0-22.093,9.911-22.093,22.094v79.475c0,4.126,3.344,7.47,7.47,7.47s7.47-3.344,7.47-7.47    v-79.475c0-3.945,3.209-7.154,7.153-7.154h368.613c3.944,0,7.153,3.21,7.153,7.154v214.509H64.54v-81.254    c0-4.126-3.344-7.47-7.47-7.47s-7.47,3.344-7.47,7.47v88.723c0,4.126,3.344,7.47,7.47,7.47h397.86c4.125,0,7.47-3.344,7.47-7.47    V131.708C462.399,119.525,452.488,109.615,440.307,109.615z" fill="#5f6fed"/></g><g transform="matrix(0.0580916628241539 -0.037983011454343796 0.037983011454343796 0.0580916628241539 43.404884338378906 113.85218811035156)" id="L1_13"><path d="m256 51.911c87.498 0 146.943 28.491 176.684 84.681 1.94 3.668 6.488 5.068 10.158 3.127 3.668-1.942 5.068-6.489 3.126-10.158-32.551-61.497-96.464-92.679-189.968-92.679-82.077 0-141.614 24.216-176.958 71.975-26.861 36.295-39.379 86.971-36.203 146.551 2.377 44.591 12.489 78.103 12.918 79.508.039.127.081.253.127.379l10.586 29.027c.003.007.005.013.007.02l47.219 129.476.012.033.782 2.144c-21.11-3.754-38.869-18.108-46.868-38.676l-15.946-41.004c-5.893-15.156-7.548-31.637-4.786-47.661.214-1.242.112-2.519-.296-3.711-.147-.428-14.708-43.434-19.698-98.787-2.918-32.38-2.015-62.497 2.686-89.515 5.813-33.417 17.486-62.135 34.695-85.355 2.472-3.335 1.772-8.04-1.563-10.512-3.337-2.472-8.043-1.771-10.512 1.563-18.597 25.092-31.182 55.915-37.407 91.612-4.932 28.284-5.904 59.691-2.886 93.346 4.6 51.304 16.949 91.691 19.862 100.691-2.784 18.118-.755 36.669 5.896 53.775l15.946 41.004c5.663 14.563 15.475 26.924 28.372 35.747 12.896 8.822 27.972 13.486 43.599 13.486 5.058.141 8.926-5.386 7.06-10.089l-.404-1.107 41.483 6.686c1.259.213 2.566.062 3.77-.359l29.519-10.766c9.404-3.429 16.909-10.314 21.133-19.389 4.224-9.074 4.661-19.249 1.232-28.652l-26.04-71.402c-1.421-3.899-5.735-5.911-9.634-4.485-3.899 1.422-5.907 5.735-4.485 9.634l26.04 71.402c2.054 5.632 1.792 11.726-.738 17.16s-7.024 9.558-12.656 11.612l-22.46 8.191-60.468-165.802 22.46-8.191c11.628-4.236 24.534 1.769 28.773 13.395l8.715 23.896c3.767 9.259 17.207 4.268 14.119-5.15l-8.715-23.896c-7.079-19.41-28.63-29.445-48.041-22.364l-29.432 10.734c-1.233.44-2.346 1.201-3.205 2.185l-27.438 31.821-6.094-16.71c-.784-2.649-10.101-34.885-12.252-76.125-2.034-38.986 2.097-94.309 33.331-136.478 32.36-43.686 87.821-65.838 164.843-65.838zm-149.37 282.843 56.841 155.858-37.129-5.984-44.27-121.392z" fill="#5b6be3"/><path d="m497.595 176.249c-5.885-35.485-17.986-66.234-35.967-91.395-40.236-56.305-109.418-84.854-205.622-84.854h-.012c-79.864 0-141.405 19.799-182.911 58.847-7.014 7.073 2.827 17.51 10.297 10.946 38.627-36.339 96.702-54.764 172.625-54.764 91.05 0 156.108 26.419 193.366 78.523 37.842 52.92 40.264 123.656 35.632 173.678-5.068 54.723-19.455 97.292-19.6 97.716-.407 1.192-.509 2.467-.295 3.707 2.762 16.024 1.108 32.505-4.786 47.661l-15.946 41.004c-7.999 20.568-25.757 34.922-46.868 38.676l.782-2.144c.004-.011.008-.022.012-.033l47.219-129.476c.002-.007.005-.013.007-.02l10.586-29.027c.046-.125.088-.251.127-.379 1.166-3.817 28.268-94.412 2.2-175.546-1.27-3.951-5.51-6.126-9.453-4.856-3.952 1.27-6.125 5.502-4.856 9.453 24.088 74.967-.905 161.953-2.213 166.385l-6.094 16.71-27.438-31.822c-.86-.986-1.976-1.748-3.212-2.188l-29.425-10.731c-9.403-3.43-19.579-2.991-28.652 1.232-9.073 4.225-15.96 11.729-19.388 21.132l-45.089 123.634c-3.43 9.403-2.992 19.579 1.232 28.652 4.224 9.074 11.729 15.96 21.133 19.389l29.519 10.766c1.204.421 2.511.572 3.77.359l41.483-6.686-.404 1.107c-1.867 4.704 2.002 10.231 7.06 10.089 15.626 0 30.702-4.663 43.599-13.486 12.897-8.822 22.708-21.183 28.372-35.747l15.946-41.004c6.651-17.105 8.679-35.656 5.896-53.774 2.886-8.902 15.007-48.483 19.723-99.175 3.1-33.306 2.307-64.449-2.355-92.559zm-200.116 294.382c-2.529-5.434-2.792-11.529-.738-17.16l45.089-123.634c2.054-5.632 6.178-10.126 11.612-12.656 5.435-2.529 11.528-2.792 17.16-.739l22.461 8.191-60.468 165.802-22.46-8.191c-5.631-2.055-10.125-6.179-12.656-11.613zm51.05 19.981 56.841-155.858 24.559 28.482-44.271 121.392z" fill="#5b6be3"/></g><g transform="matrix(0.8085106015205383 0.1489361673593521 -0.1489361673593521 0.8085106015205383 208.2127685546875 208.27659606933594)" id="L1_15"><path d="M42.595,0H17.405C14.977,0,13,1.977,13,4.405v51.189C13,58.023,14.977,60,17.405,60h25.189C45.023,60,47,58.023,47,55.595   V4.405C47,1.977,45.023,0,42.595,0z M15,8h30v38H15V8z M17.405,2h25.189C43.921,2,45,3.079,45,4.405V6H15V4.405   C15,3.079,16.079,2,17.405,2z M42.595,58H17.405C16.079,58,15,56.921,15,55.595V48h30v7.595C45,56.921,43.921,58,42.595,58z" fill="#5a69e0"/><path d="M30,49c-2.206,0-4,1.794-4,4s1.794,4,4,4s4-1.794,4-4S32.206,49,30,49z M30,55c-1.103,0-2-0.897-2-2s0.897-2,2-2   s2,0.897,2,2S31.103,55,30,55z" fill="#5a69e0"/><path d="M26,5h4c0.553,0,1-0.447,1-1s-0.447-1-1-1h-4c-0.553,0-1,0.447-1,1S25.447,5,26,5z" fill="#5a69e0"/><path d="M33,5h1c0.553,0,1-0.447,1-1s-0.447-1-1-1h-1c-0.553,0-1,0.447-1,1S32.447,5,33,5z" fill="#5a69e0"/><path d="M21.456,31.773l-0.045,0.042l0.977,0.708c0.032,0.023,0.066,0.042,0.098,0.065c0.193,0.138,0.391,0.268,0.593,0.396   c0.123,0.078,0.247,0.153,0.372,0.226c0.191,0.112,0.382,0.222,0.578,0.324c0.165,0.086,0.334,0.164,0.503,0.243   c0.168,0.078,0.332,0.161,0.504,0.232c0.335,0.14,0.676,0.264,1.021,0.375c0.12,0.039,0.244,0.068,0.365,0.103   c0.259,0.075,0.519,0.144,0.783,0.202c0.136,0.03,0.272,0.056,0.409,0.081c0.27,0.051,0.541,0.092,0.815,0.125   c0.124,0.015,0.247,0.032,0.371,0.044C29.197,34.976,29.597,35,30,35c0.403,0,0.802-0.024,1.199-0.061   c0.125-0.012,0.247-0.029,0.371-0.044c0.274-0.033,0.546-0.074,0.816-0.125c0.136-0.025,0.271-0.051,0.406-0.081   c0.267-0.059,0.53-0.128,0.792-0.204c0.118-0.034,0.238-0.063,0.355-0.1c0.346-0.111,0.688-0.235,1.025-0.375   c0.165-0.068,0.323-0.148,0.485-0.223c0.176-0.082,0.352-0.163,0.524-0.253c0.19-0.099,0.375-0.205,0.559-0.313   c0.133-0.078,0.266-0.158,0.397-0.241c0.193-0.122,0.383-0.247,0.568-0.378c0.034-0.024,0.071-0.045,0.105-0.07l1.012-0.731   l-0.05-0.044C41.276,29.372,43,25.887,43,22c0-7.168-5.832-13-13-13s-13,5.832-13,13C17,25.896,18.732,29.389,21.456,31.773z    M27.32,32.656c-0.396-0.098-0.786-0.222-1.17-0.365c-0.045-0.017-0.091-0.032-0.136-0.05c-0.395-0.153-0.783-0.327-1.159-0.527   l2.428-1.324c0.746-0.407,1.209-1.188,1.209-2.037v-1.688l-0.233-0.278c-0.008-0.01-0.804-0.987-1.104-2.294l-0.134-0.467   l-0.342-0.221l0.033-1.511l0.33-0.298v-2.54l-0.009-0.131c-0.001-0.007-0.072-0.744,0.429-1.315   c0.467-0.532,1.354-0.814,2.565-0.814c1.198,0,2.081,0.276,2.551,0.799c0.516,0.572,0.445,1.313,0.443,1.331l-0.009,2.227   l0.033,0.505l0.33,0.298v1.45c0,0.042-0.04,0.07-0.065,0.078l-0.498,0.153l-0.16,0.497c-0.223,0.692-0.539,1.33-0.942,1.898   c-0.093,0.133-0.181,0.246-0.258,0.333l-0.251,0.284v1.737c0,0.884,0.491,1.679,1.281,2.074l2.584,1.292   c-0.015,0.008-0.03,0.014-0.044,0.021c-0.352,0.183-0.715,0.343-1.084,0.484c-0.063,0.024-0.126,0.046-0.189,0.069   c-0.375,0.135-0.757,0.254-1.145,0.348c-0.01,0.002-0.019,0.005-0.029,0.007c-1.714,0.406-3.523,0.399-5.234-0.021   C27.334,32.66,27.327,32.658,27.32,32.656z M30,11c6.065,0,11,4.935,11,11c0,3.415-1.564,6.47-4.013,8.489   c-0.049-0.027-0.096-0.061-0.146-0.086l-3.461-1.73c-0.108-0.054-0.178-0.166-0.178-0.286v-1.005   c0.047-0.062,0.095-0.127,0.143-0.195c0.438-0.617,0.797-1.298,1.069-2.028c0.592-0.375,0.963-1.027,0.963-1.753v-1.45   c0-0.417-0.129-0.824-0.363-1.167v-1.68c0.032-0.361,0.072-1.689-0.916-2.816c-0.87-0.992-2.239-1.496-4.069-1.496   s-3.199,0.504-4.069,1.496c-0.987,1.127-0.948,2.454-0.916,2.816v1.68c-0.234,0.343-0.363,0.75-0.363,1.167v1.45   c0,0.561,0.224,1.086,0.613,1.474c0.322,1.139,0.883,2.036,1.199,2.482v0.991c0,0.117-0.064,0.225-0.167,0.281l-3.232,1.764   c-0.037,0.02-0.071,0.047-0.107,0.068C20.553,28.446,19,25.401,19,22C19,15.935,23.935,11,30,11z" fill="#5a69e0"/><path d="M24,37h-8v8h8h20v-8H24z M18,43v-4h4v4H18z M42,43H24v-4h18V43z" fill="#5a69e0"/></g><g transform="matrix(0.13976283371448517 0.039308298379182816 -0.039308298379182816 0.13976283371448517 222.7226104736328 22.626462936401367)" id="L1_16"><path d="M173.031,29.851c-58.7-7.3-140.1,2.5-165.4,65.9c-10.6,26.4-12.9,63.9,11.2,84.9c28.3,24.6,65.6,19.7,100.6,21.1l0,0    c0.8,16.101,5.6,33.2,10.5,48.2c1.7,5.3,7.9,5.5,11,1.4c6.201-8.2,8.9-18.801,11.5-28.601c1.3-5,4.899-12.8,4.6-18.7    c0.7,0,1.3,0,2.101-0.3c47-17.3,114.199-0.399,122.199-66.5C289.031,74.351,227.132,36.55,173.031,29.851z M263.531,157.45    c-14.7,33.2-78.5,23-107.7,34.1c-3.1,1.2-4.3,4-4.199,6.601c-7.301,1.3-8.101,10.399-9.601,16.5c-1.4,5.5-2.7,11.3-4.6,16.899    c-3.2-12.8-5.9-25.8-11.1-37.6c-1.2-2.7-4.5-2.2-6.1-0.3c-20.3-4.7-40-5-60.6-7.9c-61.1-8.399-52.1-75.7-23.7-109.8    c32.5-39,98.5-40.1,144.201-32.4C232.031,52.351,289.632,98.45,263.531,157.45z" fill="#5a69e0"/><path d="M90.331,91.25c-1.6-4.3-7.4-5.6-10-1.3c-5,8.3-3.6,21.5-4.1,30.8c-0.3,5.1-0.7,10.6-1,16.1c-5.1,0.8-10.1,1.2-15.3,1.6    c0-4.1-0.1-8.2-0.1-12.3c0-6.7,0.3-13.5,0.6-20.2c0.1-2.9,0.4-5.8,0.9-8.7c0.8-4.3,1.8-3.1-0.9-1.8c3.4-1.7,3.6-7.6,0-9.3    c-21.3-9.6-12.4,67.3-11.7,77c0.5,7,10.5,7,10.8,0c0.3-5.101,0.3-10.101,0.3-15.2c5,0.3,10.1,0.4,15.2,0.2    c0.2,5.5,0.9,10.8,2.5,15.7c0.6,1.899,2.2,3.899,4.3,4.3c2.1,0.399,4.4,0.3,6.1-1c1.2-0.9,1.3-2.2,0.8-3.101    c1.1-3.899,0.3-7.8,0.1-12.199c-0.2-8.5,0.1-17.1,0.5-25.6C90.131,115.75,94.131,101.25,90.331,91.25z" fill="#5a69e0"/><path d="M125.131,92.25c-0.1-0.2-0.3-0.4-0.4-0.6c-1.7-2.3-3.6-2.9-6.3-2.6c-3.2,0.4-6.5,0.5-9.8,0.7c-1.6-0.9-3.9-0.4-4.7,1.4    c-1.5,1.3-1.8,3.5-1.1,5.2c-3.6,22.5-3.9,46.1-4.1,68.699c0,3.7,2.9,5.9,6.2,6.2c8.5,0.9,19.8-0.7,19.1-11.7    c-0.2-3.399-3.7-5.8-6.9-4c-2.4,1.4-4,2.4-5.8,2.9c0.1-4,0.2-8,0.4-12c1.4,0.2,2.8,0.3,4.1,0.5c2.8,0.4,4.7-0.3,6.4-2.6l0.1-0.101    c1-1.3,1-4.1,0-5.399l-0.1-0.1c-1.7-2.2-3.6-3-6.4-2.6c-1.2,0.2-2.5,0.3-3.8,0.4c0.4-12.5,0.5-25-0.9-37.2    c2.4,0.1,4.9,0.2,7.2,0.6c2.7,0.4,4.7-0.3,6.3-2.6c0.1-0.2,0.3-0.4,0.4-0.6C125.931,95.65,125.931,93.45,125.131,92.25z" fill="#5a69e0"/><path d="M155.331,154.25c-2.6-0.8-5.3-1.2-8-1.7c-0.399-19.299-1.699-38.899-4-58c-0.6-5.2-7.5-5.2-8.1,0    c-2.3,20.9-0.6,42.4-0.6,63.3c0,2.899,2,5.399,4.7,6.199c5.4,1.5,10.4,2.7,15.9,1.101    C160.831,163.55,160.632,155.851,155.331,154.25z" fill="#5a69e0"/><path d="M183.632,158.55c-1.301,0.601-2.4,1.4-3.5,1.9c0.1-21.8,0.699-43.9-4.5-65.2c-1-4.2-7.601-3.3-7.5,1    c0.699,23.6-0.4,47-0.801,70.6c0,3,2,5.199,4.7,6.199c8,3,15.5,1.301,19.101-7C193.331,161.05,188.932,156.05,183.632,158.55z" fill="#5a69e0"/><path d="M220.731,98.65c-3.9-5.3-12-2-11.8,3.2c-0.2,0-0.3,0-0.601,0c-2.8-0.1-4.1,2.4-5.3,4.4c-3.899,6.7-5.8,15.2-7.6,22.6    c-2.9,11.9-6.3,31.8,6.5,39.199c14.8,8.601,24.6-10.8,26.2-22.1C230.231,131.95,229.531,110.55,220.731,98.65z M214.831,149.05    c-0.6,2.5-4.699,11.4-7.8,6.5c-5-8,0.101-24.199,2-32.5c1-4.3,2.101-8.6,3.3-12.9c0-0.1,0-0.2,0.101-0.3c2.8,7,3.5,15.5,3.8,22.5    C216.531,137.851,216.132,143.55,214.831,149.05z" fill="#5a69e0"/></g><g transform="matrix(0.5616706013679504 0 0 0.5616706013679504 276.0267333984375 172.0265350341797)" id="L1_18"><path d="M14.1933422,9.4116497c-7.8260994,0-14.1922989,6.3662004-14.1922989,14.1924   c0,7.5498009,5.9247999,13.7420998,13.3690996,14.169899c0.1288996,1.3916016,0.0321999,5.1797028-3.5977001,10.4491997   C9.4980431,48.6206512,9.547843,49.1567497,9.888648,49.497551c1.4853945,1.4853973,2.4033947,2.4208984,3.0458946,3.0751991   c0.8408995,0.8554993,1.2247,1.2461014,1.7861996,1.7559013c0.1904001,0.1727982,0.4306002,0.259697,0.6719055,0.259697   c0.2342949,0,0.4676943-0.0819969,0.6561956-0.2450981c6.3251991-5.5038986,13.3515987-16.8759995,12.3349991-30.8115005   C27.7881413,15.3501501,21.820343,9.4116497,14.1933422,9.4116497z M15.4023428,52.2221489   c-0.2723999-0.2684975-0.5830002-0.5848999-1.0410004-1.0508003c-0.5565996-0.5672989-1.3203001-1.3446999-2.4784994-2.5067978   c4.4053001-6.7881012,3.5731993-11.6230011,3.2089996-12.3164024c-0.1729002-0.3290977-0.5274-0.5507965-0.8985004-0.5507965   c-6.7225995,0-12.1922989-5.4697018-12.1922989-12.1933022c0-6.7227001,5.4696999-12.1924,12.1922989-12.1924   c6.5489006,0,11.6777992,5.1582012,12.1963062,12.2646008C27.5322418,39.3501511,18.2168427,49.5268517,15.4023428,52.2221489z" fill="#5b6be3"/><path d="M63.9004402,23.5317497v-0.0009995C63.302742,15.3501501,57.3340416,9.4116497,49.7090416,9.4116497   c-7.8261986,0-14.1933937,6.3662004-14.1933937,14.1924c0,7.5498009,5.9257927,13.7420998,13.3710938,14.169899   c0.1289062,1.3906021,0.0312004,5.1767006-3.5996017,10.4491997c-0.2743988,0.3975029-0.2245979,0.9336014,0.1162033,1.2744026   c1.4794998,1.4794998,2.3955002,2.4130974,3.0380974,3.0663986c0.8446999,0.8613014,1.2304993,1.2538986,1.7949028,1.7656021   c0.1903992,0.1718979,0.4315987,0.2587967,0.6718979,0.2587967c0.2344055,0,0.4678001-0.0819969,0.6562004-0.2460976   C57.8896484,48.8383484,64.9160385,37.4663506,63.9004402,23.5317497z M50.917942,52.2221489   c-0.2743988-0.2705002-0.5877991-0.5887985-1.0498009-1.0594978c-0.5565987-0.5665016-1.3172989-1.3418007-2.4706993-2.4981003   c4.4053001-6.7891006,3.5742989-11.6230011,3.2109985-12.3164024c-0.1728973-0.3280983-0.5282974-0.5507965-0.8993988-0.5507965   c-6.7237015,0-12.1933937-5.4697018-12.1933937-12.1933022c0-6.7227001,5.4696922-12.1924,12.1933937-12.1924   c6.5477982,0,11.6777,5.1582012,12.1972008,12.2656002v-0.0009995   C63.0478401,39.3481483,53.7324409,49.5268517,50.917942,52.2221489z" fill="#5b6be3"/></g><g transform="matrix(0.08044933527708054 0 0 0.08044933527708054 3.3876538276672363 142.3876495361328)" id="L1_19"><path d="m481.014 255.385c-2.926-4.685-9.095-6.11-13.779-3.186-4.685 2.926-6.11 9.095-3.185 13.779 18.237 29.206 27.877 62.938 27.877 97.55 0 49.751-19.511 96.392-54.938 131.33-3.933 3.878-3.977 10.21-.099 14.142 1.957 1.984 4.538 2.979 7.12 2.979 2.536 0 5.073-.959 7.022-2.88 39.269-38.727 60.895-90.425 60.895-145.57-.001-38.362-10.69-75.757-30.913-108.144z" id="XMLID_1419_" fill="#5b6be3"/><path d="m330.405 180.531c26.004 3.239 51.046 11.946 73.444 25.698 1.632 1.003 3.439 1.479 5.223 1.479 3.361 0 6.643-1.694 8.531-4.769 2.89-4.706 1.417-10.864-3.289-13.754-29.77-18.279-63.737-28.553-98.705-29.935 8.868-20.904 9.584-44.378 1.706-66.167-1.592-4.4-6.014-7.106-10.662-6.521-22.893 2.902-43.392 14.159-57.949 31.462l-21.355-102.714c-1.873-9.014-9.612-15.31-18.818-15.31s-16.945 6.296-18.819 15.31l-22.872 110.016c-13.163-19.423-35.12-31.354-59.342-31.354-20.095 0-36.443 16.348-36.443 36.442s16.348 36.443 36.443 36.443h.51c-23.703 8.101-48.398 12.208-73.574 12.208-.001 0-.003 0-.004 0-18.955.006-34.375 15.428-34.375 34.384v25.906c0 18.956 15.42 34.378 34.375 34.384h.004c31.109 0 61.273 11.121 84.936 31.314 21.438 18.294 48.764 28.369 76.945 28.369 9.301 0 18.393-1.358 27.051-3.98-4.822 31.267-21.498 59.359-47.169 78.677-29.921 22.515-49.46 55.306-55.018 92.333-.82 5.462 2.943 10.554 8.405 11.374.503.075 1.003.111 1.497.111 4.867 0 9.133-3.559 9.877-8.517 4.775-31.809 21.561-59.98 47.266-79.322 33.281-25.043 53.579-62.753 56.279-104.128 6.279-3.826 12.151-8.417 17.482-13.749 3.905-3.905 3.905-10.237 0-14.143-3.904-3.904-10.237-3.904-14.142 0-13.763 13.764-32.062 21.344-51.527 21.344-23.427 0-46.143-8.375-63.963-23.582-27.278-23.278-62.051-36.099-97.912-36.101h-.001c-7.931 0-14.384-6.452-14.384-14.384v-2.953h4.25c5.523 0 10-4.478 10-10 0-5.523-4.477-10-10-10h-4.25v-2.953c0-7.932 6.453-14.384 14.384-14.384h.001c31.563-.001 62.434-5.926 91.754-17.611 24.302-9.686 49.891-14.597 76.055-14.597h25.597c-.122 1.143-.23 2.287-.307 3.434-.372 5.511 3.794 10.279 9.304 10.651 5.509.368 10.279-3.794 10.651-9.305.77-11.408 4.208-22.177 10.219-32.005 9.779-15.991 25.228-27.233 43.188-31.686 4.219 18.016 1.251 36.89-8.528 52.881-4.276 6.992-9.65 13.116-15.974 18.199-4.305 3.461-4.988 9.756-1.528 14.06 1.977 2.458 4.875 3.734 7.8 3.734 2.199 0 4.413-.722 6.26-2.206 4.778-3.841 9.119-8.153 13.01-12.866 91.307 77.129 126.857 203.244 88.424 317.029-1.767 5.232 1.042 10.907 6.275 12.675 1.061.358 2.14.528 3.201.528 4.172 0 8.065-2.632 9.474-6.803 38.799-114.878 7.022-241.522-78.911-324.646zm-121.873-157.478 12.263 58.986-30.964 30.964zm-117.477 107.361c0-9.066 7.377-16.442 16.443-16.442 21.287 0 40.158 12.768 48.076 32.526l.144.359h-48.22c-9.066 0-16.443-7.375-16.443-16.443zm93.206 16.443 41.402-41.402 7.905 38.026c-.437 1.117-.851 2.243-1.244 3.376z" id="XMLID_1423_" fill="#5b6be3"/><path d="m209.027 212.566c-1.905 1.905-4.434 2.955-7.121 2.955s-5.216-1.05-7.121-2.955c-3.904-3.903-10.237-3.904-14.142 0-3.905 3.905-3.906 10.236 0 14.143 5.683 5.683 13.234 8.812 21.264 8.812 8.029 0 15.581-3.13 21.263-8.812 3.905-3.906 3.905-10.237-.001-14.143-3.906-3.904-10.237-3.904-14.142 0z" id="XMLID_1440_" fill="#5b6be3"/><path d="m444.451 235.52c2.63 0 5.21-1.061 7.07-2.931 1.869-1.859 2.93-4.439 2.93-7.069 0-2.631-1.061-5.211-2.93-7.07-1.86-1.86-4.44-2.93-7.07-2.93s-5.21 1.069-7.07 2.93c-1.859 1.859-2.93 4.439-2.93 7.07 0 2.63 1.07 5.21 2.93 7.069 1.86 1.87 4.44 2.931 7.07 2.931z" id="XMLID_1443_" fill="#5b6be3"/></g><g transform="matrix(0.038958724588155746 -0.011131064034998417 0.011131064034998417 0.038958724588155746 288.177001953125 -6.123878002166748)" id="L1_20"><path d="M472.208,201.712c9.271-9.037,12.544-22.3,8.544-34.613c-4.001-12.313-14.445-21.118-27.257-22.979l-112.03-16.279    c-2.199-0.319-4.1-1.7-5.084-3.694L286.28,22.632c-5.729-11.61-17.331-18.822-30.278-18.822c-12.947,0-24.549,7.212-30.278,18.822    l-50.101,101.516c-0.985,1.993-2.885,3.374-5.085,3.694L58.51,144.12c-12.812,1.861-23.255,10.666-27.257,22.979    c-4.002,12.313-0.728,25.576,8.544,34.613l81.065,79.019c1.591,1.552,2.318,3.787,1.942,5.978l-19.137,111.576    c-2.188,12.761,2.958,25.414,13.432,33.024c10.474,7.612,24.102,8.595,35.56,2.572l100.201-52.679    c1.968-1.035,4.317-1.035,6.286,0l100.202,52.679c4.984,2.62,10.377,3.915,15.744,3.914c6.97,0,13.896-2.184,19.813-6.487    c10.474-7.611,15.621-20.265,13.432-33.024l-19.137-111.576c-0.375-2.191,0.351-4.426,1.942-5.978L472.208,201.712z     M362.579,291.276l19.137,111.578c0.64,3.734-1.665,5.863-2.686,6.604c-1.022,0.74-3.76,2.277-7.112,0.513l-100.202-52.679    c-4.919-2.585-10.315-3.879-15.712-3.879c-5.397,0-10.794,1.294-15.712,3.878l-100.201,52.678    c-3.354,1.763-6.091,0.228-7.112-0.513c-1.021-0.741-3.327-2.87-2.686-6.604l19.137-111.576    c1.879-10.955-1.75-22.127-9.711-29.886l-81.065-79.019c-2.713-2.646-2.099-5.723-1.708-6.923    c0.389-1.201,1.702-4.052,5.451-4.596l112.027-16.279c10.999-1.598,20.504-8.502,25.424-18.471l50.101-101.516    c1.677-3.397,4.793-3.764,6.056-3.764c1.261,0,4.377,0.366,6.055,3.764v0.001l50.101,101.516    c4.919,9.969,14.423,16.873,25.422,18.471l112.029,16.279c3.749,0.544,5.061,3.395,5.451,4.596    c0.39,1.201,1.005,4.279-1.709,6.923l-81.065,79.019C364.329,269.149,360.7,280.321,362.579,291.276z" fill="#5a69e0"/><path d="M413.783,22.625c-6.036-4.384-14.481-3.046-18.865,2.988l-14.337,19.732c-4.384,6.034-3.047,14.481,2.988,18.865    c2.399,1.741,5.176,2.58,7.928,2.58c4.177,0,8.295-1.931,10.937-5.567l14.337-19.732    C421.155,35.456,419.818,27.009,413.783,22.625z" fill="#5a69e0"/><path d="M131.36,45.265l-14.337-19.732c-4.383-6.032-12.829-7.37-18.865-2.988c-6.034,4.384-7.372,12.831-2.988,18.865    l14.337,19.732c2.643,3.639,6.761,5.569,10.939,5.569c2.753,0,5.531-0.839,7.927-2.581C134.407,59.747,135.745,51.3,131.36,45.265    z" fill="#5a69e0"/><path d="M49.552,306.829c-2.305-7.093-9.924-10.976-17.019-8.671l-23.197,7.538c-7.095,2.305-10.976,9.926-8.671,17.019    c1.854,5.709,7.149,9.337,12.842,9.337c1.383,0,2.79-0.215,4.177-0.666l23.197-7.538    C47.975,321.543,51.857,313.924,49.552,306.829z" fill="#5a69e0"/><path d="M256.005,456.786c-7.459,0-13.506,6.047-13.506,13.506v24.392c0,7.459,6.047,13.506,13.506,13.506    c7.459,0,13.506-6.047,13.506-13.506v-24.392C269.511,462.832,263.465,456.786,256.005,456.786z" fill="#5a69e0"/><path d="M502.664,305.715l-23.197-7.538c-7.092-2.303-14.714,1.577-17.019,8.672c-2.305,7.095,1.576,14.714,8.671,17.019    l23.197,7.538c1.387,0.45,2.793,0.664,4.176,0.664c5.694,0,10.989-3.629,12.843-9.337    C513.64,315.639,509.758,308.02,502.664,305.715z" fill="#5a69e0"/></g><g transform="matrix(0.09143848717212677 0.040639325976371765 -0.040639325976371765 0.09143848717212677 61.402896881103516 187.87644958496094)" id="L1_21"><path d="m321.218,257.555c15.516-20.46 23.717-44.881 23.717-70.624 0-31.563-12.379-61.151-34.857-83.314-22.474-22.158-52.261-34.124-83.828-33.668-30.591,0.433-59.412,12.708-81.154,34.564-21.741,21.855-33.867,50.741-34.145,81.335-0.238,26.228 8.011,51.088 23.855,71.894 25.721,33.776 39.887,75.149 39.887,116.498v45.244c0,20.069 16.327,36.396 36.396,36.396h33.854c20.069,0 36.396-16.328 36.396-36.396v-45.241c0.001-41.806 13.691-82.157 39.879-116.688zm-174.478-8.9c-13.808-18.132-20.997-39.803-20.79-62.67 0.499-54.935 45.588-100.26 100.512-101.037 27.553-0.37 53.493,10.035 73.084,29.352 19.597,19.321 30.389,45.116 30.389,72.632 0,22.442-7.147,43.729-20.669,61.56-27.593,36.385-42.45,78.833-43.058,122.93h-76.536c-0.627-43.669-15.817-87.161-42.932-122.767zm42.953,165.746v-6.072l76.647,8.781v2.374c0,1.25-0.13,2.468-0.336,3.659l-76.311-8.742zm0-21.17v-6.809h76.647v15.59l-76.647-8.781zm21.396,47.65c-8.057,0-15.082-4.48-18.731-11.077l64.567,7.397c-3.421,2.321-7.545,3.679-11.981,3.679h-33.855z" fill="#5a69e0"/><path d="m153.776,198.213c-0.585-3.925-0.864-7.957-0.827-11.983 0.038-4.142-3.289-7.53-7.431-7.568-4.114-0.036-7.53,3.289-7.568,7.431-0.044,4.81 0.289,9.632 0.99,14.333 0.555,3.722 3.755,6.395 7.409,6.395 0.368,0 0.741-0.027 1.116-0.083 4.096-0.612 6.922-4.428 6.311-8.525z" fill="#5a69e0"/><path d="m197.913,312.135c0.776,0 1.566-0.122 2.344-0.377 3.935-1.294 6.076-5.533 4.782-9.467-8.312-25.277-20.7-48.827-36.82-69.994-2.664-3.499-5.025-7.226-7.016-11.079-1.902-3.68-6.427-5.12-10.107-3.218-3.679,1.902-5.12,6.427-3.218,10.107 2.39,4.622 5.218,9.089 8.408,13.278 15.106,19.836 26.715,41.904 34.504,65.591 1.038,3.157 3.971,5.159 7.123,5.159z" fill="#5a69e0"/><path d="m306.746,212.613c-3.804-1.639-8.217,0.117-9.855,3.921-2.376,5.518-5.451,10.781-9.139,15.643-2.503,3.3-1.856,8.005 1.444,10.508 1.355,1.028 2.947,1.524 4.526,1.524 2.267,0 4.507-1.023 5.982-2.969 4.419-5.827 8.107-12.143 10.963-18.772 1.639-3.804-0.116-8.217-3.921-9.855z" fill="#5a69e0"/><path d="m227.941,111.938c41.352,0 74.994,33.643 74.994,74.995 0,2.351-0.108,4.72-0.321,7.041-0.378,4.125 2.658,7.775 6.783,8.154 0.233,0.021 0.464,0.032 0.694,0.032 3.833,0 7.103-2.923 7.46-6.815 0.254-2.775 0.384-5.605 0.384-8.412 0-49.623-40.371-89.995-89.994-89.995-4.142,0-7.5,3.358-7.5,7.5s3.358,7.5 7.5,7.5z" fill="#5a69e0"/><path d="m227.941,57c4.142,0 7.5-3.358 7.5-7.5v-42c0-4.142-3.358-7.5-7.5-7.5s-7.5,3.358-7.5,7.5v42c0,4.142 3.358,7.5 7.5,7.5z" fill="#5a69e0"/><path d="m152.065,71.82c1.39,2.407 3.91,3.752 6.502,3.752 1.272,0 2.562-0.324 3.743-1.006 3.587-2.071 4.817-6.658 2.746-10.245l-20.99-36.36c-2.072-3.588-6.658-4.817-10.245-2.746-3.587,2.071-4.817,6.658-2.746,10.245l20.99,36.36z" fill="#5a69e0"/><path d="m388.22,272.115l-36.36-20.99c-3.588-2.072-8.175-0.842-10.245,2.746-2.071,3.587-0.842,8.174 2.746,10.245l36.36,20.99c1.181,0.682 2.47,1.006 3.743,1.006 2.592,0 5.113-1.346 6.502-3.752 2.071-3.587 0.841-8.174-2.746-10.245z" fill="#5a69e0"/><path d="m67.661,104.366l36.36,20.99c1.181,0.682 2.47,1.006 3.743,1.006 2.592,0 5.113-1.346 6.502-3.752 2.071-3.587 0.842-8.174-2.746-10.245l-36.36-20.99c-3.587-2.072-8.174-0.842-10.245,2.746-2.071,3.587-0.842,8.173 2.746,10.245z" fill="#5a69e0"/><path d="m408.68,180.74h-42c-4.142,0-7.5,3.358-7.5,7.5s3.358,7.5 7.5,7.5h42c4.142,0 7.5-3.358 7.5-7.5s-3.357-7.5-7.5-7.5z" fill="#5a69e0"/><path d="m96.7,188.24c0-4.142-3.358-7.5-7.5-7.5h-42c-4.142,0-7.5,3.358-7.5,7.5s3.358,7.5 7.5,7.5h42c4.143,0 7.5-3.358 7.5-7.5z" fill="#5a69e0"/><path d="m348.117,126.362c1.272,0 2.562-0.324 3.743-1.006l36.36-20.99c3.587-2.071 4.817-6.658 2.746-10.245-2.071-3.587-6.659-4.817-10.245-2.746l-36.36,20.99c-3.587,2.071-4.817,6.658-2.746,10.245 1.389,2.406 3.911,3.752 6.502,3.752z" fill="#5a69e0"/><path d="m104.021,251.125l-36.36,20.99c-3.587,2.071-4.817,6.658-2.746,10.245 1.389,2.406 3.91,3.752 6.502,3.752 1.272,0 2.562-0.324 3.743-1.006l36.36-20.99c3.587-2.071 4.817-6.658 2.746-10.245-2.07-3.588-6.66-4.817-10.245-2.746z" fill="#5a69e0"/><path d="m293.571,74.566c1.181,0.682 2.47,1.006 3.743,1.006 2.592,0 5.113-1.346 6.502-3.752l20.99-36.36c2.071-3.587 0.841-8.174-2.746-10.245-3.586-2.071-8.174-0.842-10.245,2.746l-20.99,36.36c-2.071,3.587-0.841,8.174 2.746,10.245z" fill="#5a69e0"/></g><g transform="matrix(0.35355332493782043 -1.5320647954940796 1.5320647954940796 0.35355332493782043 -6.62741756439209 317.14215087890625)" id="L1_22"><path d="m11.861 19.066c-.128 0-.256-.049-.354-.146l-6.427-6.427c-.188-.188-.196-.489-.02-.687l4.817-5.396c3.367-3.939 8.85-6.488 13.631-6.407.267.006.482.221.488.488.111 4.784-2.467 10.264-6.416 13.638l-5.387 4.81c-.094.085-.214.127-.332.127zm-5.74-6.946 5.759 5.759 5.043-4.502c3.606-3.082 6.001-7.994 6.075-12.375-4.381.073-9.292 2.468-12.368 6.066z" fill="#5a69e0"/><path d="m13.776 22.726c-.048 0-.097-.007-.143-.022-.18-.06-.328-.198-.354-.386l-.686-4.787c-.039-.273.151-.526.424-.566.273-.043.526.15.566.424l.536 3.74c1.752-2.095 2.726-4.751 2.726-7.459 0-.276.224-.5.5-.5s.5.224.5.5c0 3.313-1.342 6.556-3.682 8.895-.1.1-.246.161-.387.161z" fill="#5a69e0"/><path d="m6.541 11.412c-.023 0-.047-.001-.071-.005l-4.787-.686c-.188-.027-.345-.158-.404-.339-.059-.18-.011-.379.124-.512 2.373-2.373 5.615-3.715 8.928-3.715.276 0 .5.224.5.5s-.224.5-.5.5c-2.721 0-5.391.983-7.464 2.725l3.745.537c.273.04.463.292.424.566-.037.249-.251.429-.495.429z" fill="#5a69e0"/><path d="m17.133 9.366c-.641 0-1.281-.244-1.768-.731-.974-.975-.974-2.561 0-3.536.975-.975 2.561-.975 3.536 0 .974.975.974 2.561 0 3.536-.488.488-1.128.731-1.768.731zm0-3.998c-.384 0-.769.146-1.061.438-.584.585-.584 1.537 0 2.122.585.584 1.537.583 2.122 0 .584-.585.584-1.537 0-2.122-.293-.291-.677-.438-1.061-.438zm1.414 2.914h.01z" fill="#5a69e0"/><path d="m.5 24c-.131 0-.258-.051-.354-.146-.13-.13-.178-.321-.125-.497.164-.547 1.633-5.381 2.703-6.451 1.205-1.205 3.166-1.206 4.371 0 1.205 1.205 1.205 3.166 0 4.371-1.07 1.07-5.904 2.539-6.451 2.703-.048.013-.096.02-.144.02zm4.41-6.999c-.536 0-1.071.204-1.479.611-.577.578-1.537 3.159-2.171 5.128 1.968-.634 4.55-1.594 5.127-2.171.815-.815.815-2.142 0-2.957-.407-.407-.942-.611-1.477-.611z" fill="#5a69e0"/></g><g transform="matrix(0.055730365216732025 0.02507866360247135 -0.02507866360247135 0.055730365216732025 300.0403137207031 91.03633117675781)" id="L1_23"><path d="m7.5 364.832031c4.140625 0 7.5-3.355469 7.5-7.5v-218.441406h443.128906v82.441406c0 4.144531 3.359375 7.5 7.5 7.5 4.144532 0 7.5-3.355469 7.5-7.5v-148.222656c0-25.144531-20.457031-45.601563-45.597656-45.601563h-19.667969v-9.289062c0-10.046875-8.171875-18.21875-18.21875-18.21875h-13.933593c-10.042969 0-18.214844 8.171875-18.214844 18.21875v9.289062h-49.742188v-9.289062c0-10.046875-8.171875-18.21875-18.21875-18.21875h-13.933594c-10.042968 0-18.214843 8.171875-18.214843 18.21875v9.289062h-49.746094v-9.289062c0-10.046875-8.171875-18.21875-18.21875-18.21875h-13.929687c-10.046876 0-18.21875 8.171875-18.21875 18.21875v9.289062h-49.742188v-9.289062c0-10.046875-8.171875-18.21875-18.21875-18.21875h-13.929688c-10.046874 0-18.21875 8.171875-18.21875 18.21875v9.289062h-11.5625c-25.144531 0-45.601562 20.457032-45.601562 45.601563v284.222656c0 4.144531 3.359375 7.5 7.5 7.5zm364.996094-346.613281c0-1.773438 1.445312-3.21875 3.21875-3.21875h13.933594c1.773437 0 3.214843 1.445312 3.214843 3.21875v36.4375c0 1.773438-1.441406 3.21875-3.214843 3.21875h-13.933594c-1.773438 0-3.21875-1.441406-3.21875-3.21875zm-100.109375 0c0-1.773438 1.441406-3.21875 3.214843-3.21875h13.933594c1.773438 0 3.21875 1.445312 3.21875 3.21875v36.4375c0 1.773438-1.445312 3.21875-3.21875 3.21875h-13.933594c-1.773437 0-3.214843-1.441406-3.214843-3.21875zm-100.113281 0c0-1.773438 1.445312-3.21875 3.21875-3.21875h13.933593c1.773438 0 3.21875 1.445312 3.21875 3.21875v36.4375c0 1.773438-1.445312 3.21875-3.21875 3.21875h-13.933593c-1.773438 0-3.21875-1.441406-3.21875-3.21875zm-100.109376 0c0-1.773438 1.445313-3.21875 3.21875-3.21875h13.933594c1.773438 0 3.214844 1.445312 3.214844 3.21875v36.4375c0 1.773438-1.441406 3.21875-3.214844 3.21875h-13.933594c-1.773437 0-3.21875-1.441406-3.21875-3.21875zm-26.5625 24.289062h11.5625v12.148438c0 10.046875 8.171876 18.21875 18.21875 18.21875h13.933594c10.042969 0 18.214844-8.171875 18.214844-18.21875v-12.148438h49.746094v12.148438c0 10.046875 8.171875 18.21875 18.214844 18.21875h13.933593c10.046875 0 18.21875-8.171875 18.21875-18.21875v-12.148438h49.742188v12.148438c0 10.046875 8.171875 18.21875 18.21875 18.21875h13.933593c10.042969 0 18.214844-8.171875 18.214844-18.21875v-12.148438h49.742188v12.148438c0 10.046875 8.171875 18.21875 18.21875 18.21875h13.933594c10.042968 0 18.214843-8.171875 18.214843-18.21875v-12.148438h19.667969c16.875 0 30.601562 13.726563 30.601562 30.601563v50.78125h-443.132812v-50.78125c0-16.875 13.726562-30.601563 30.601562-30.601563zm0 0" fill="#5f6fed"/><path d="m84.910156 434.582031h-65.398437c-2.488281 0-4.511719-2.023437-4.511719-4.511719v-38.558593c0-4.144531-3.359375-7.5-7.5-7.5s-7.5 3.355469-7.5 7.5v38.558593c0 10.757813 8.753906 19.511719 19.511719 19.511719h65.398437c4.140625 0 7.5-3.359375 7.5-7.5 0-4.144531-3.359375-7.5-7.5-7.5zm0 0" fill="#5f6fed"/><path d="m84.660156 160.761719h-26.070312c-4.140625 0-7.5 3.359375-7.5 7.5 0 4.144531 3.359375 7.5 7.5 7.5h26.070312c4.140625 0 7.5-3.355469 7.5-7.5 0-4.140625-3.359375-7.5-7.5-7.5zm0 0" fill="#5f6fed"/><path d="m138.707031 175.761719h26.070313c4.140625 0 7.5-3.355469 7.5-7.5 0-4.140625-3.359375-7.5-7.5-7.5h-26.070313c-4.140625 0-7.5 3.359375-7.5 7.5 0 4.144531 3.359375 7.5 7.5 7.5zm0 0" fill="#5f6fed"/><path d="m218.824219 175.761719h26.066406c4.140625 0 7.5-3.355469 7.5-7.5 0-4.140625-3.359375-7.5-7.5-7.5h-26.066406c-4.144531 0-7.5 3.359375-7.5 7.5 0 4.144531 3.355469 7.5 7.5 7.5zm0 0" fill="#5f6fed"/><path d="m298.9375 175.761719h26.070312c4.140626 0 7.5-3.355469 7.5-7.5 0-4.140625-3.359374-7.5-7.5-7.5h-26.070312c-4.140625 0-7.5 3.359375-7.5 7.5 0 4.144531 3.359375 7.5 7.5 7.5zm0 0" fill="#5f6fed"/><path d="m405.121094 160.761719h-26.066406c-4.144532 0-7.5 3.359375-7.5 7.5 0 4.144531 3.355468 7.5 7.5 7.5h26.066406c4.140625 0 7.5-3.355469 7.5-7.5 0-4.140625-3.359375-7.5-7.5-7.5zm0 0" fill="#5f6fed"/><path d="m84.660156 198.476562h-26.070312c-4.140625 0-7.5 3.355469-7.5 7.5 0 4.144532 3.359375 7.5 7.5 7.5h26.070312c4.140625 0 7.5-3.355468 7.5-7.5 0-4.144531-3.359375-7.5-7.5-7.5zm0 0" fill="#5f6fed"/><path d="m138.707031 213.476562h26.070313c4.140625 0 7.5-3.355468 7.5-7.5 0-4.144531-3.359375-7.5-7.5-7.5h-26.070313c-4.140625 0-7.5 3.355469-7.5 7.5 0 4.144532 3.359375 7.5 7.5 7.5zm0 0" fill="#5f6fed"/><path d="m218.824219 213.476562h26.066406c4.140625 0 7.5-3.355468 7.5-7.5 0-4.144531-3.359375-7.5-7.5-7.5h-26.066406c-4.144531 0-7.5 3.355469-7.5 7.5 0 4.144532 3.355469 7.5 7.5 7.5zm0 0" fill="#5f6fed"/><path d="m298.9375 213.476562h26.070312c4.140626 0 7.5-3.355468 7.5-7.5 0-4.144531-3.359374-7.5-7.5-7.5h-26.070312c-4.140625 0-7.5 3.355469-7.5 7.5 0 4.144532 3.359375 7.5 7.5 7.5zm0 0" fill="#5f6fed"/><path d="m405.121094 198.476562h-26.066406c-4.144532 0-7.5 3.355469-7.5 7.5 0 4.144532 3.355468 7.5 7.5 7.5h26.066406c4.140625 0 7.5-3.355468 7.5-7.5 0-4.144531-3.359375-7.5-7.5-7.5zm0 0" fill="#5f6fed"/><path d="m138.890625 360.714844 38.5625 38.5625c5.578125 5.578125 12.992187 8.648437 20.882813 8.648437 7.890624 0 15.308593-3.070312 20.882812-8.648437l105.605469-105.605469c11.515625-11.515625 11.515625-30.253906 0-41.769531s-30.253907-11.515625-41.769531 0l-84.71875 84.71875-17.679688-17.675782c-11.511719-11.515624-30.25-11.515624-41.769531 0-11.511719 11.515626-11.511719 30.253907.003906 41.769532zm10.605469-31.164063c2.832031-2.832031 6.554687-4.25 10.277344-4.25 3.722656 0 7.445312 1.417969 10.277343 4.25l22.980469 22.980469c2.929688 2.929688 7.675781 2.929688 10.605469 0l90.023437-90.019531c5.671875-5.667969 14.890625-5.667969 20.554688-.003907 5.667968 5.667969 5.667968 14.890626 0 20.558594l-105.601563 105.601563c-2.746093 2.746093-6.394531 4.257812-10.277343 4.257812-3.882813 0-7.53125-1.511719-10.277344-4.257812l-38.5625-38.5625c-5.667969-5.667969-5.667969-14.886719 0-20.554688zm0 0" fill="#5f6fed"/><path d="m473.128906 315.359375v-59.847656c0-4.144531-3.355468-7.5-7.5-7.5-4.140625 0-7.5 3.355469-7.5 7.5v50.28125c-13.675781-7.089844-29.195312-11.101563-45.632812-11.101563-54.867188 0-99.503906 44.636719-99.503906 99.503906 0 14.371094 3.066406 28.035157 8.570312 40.386719h-202.476562c-4.140626 0-7.5 3.355469-7.5 7.5 0 4.140625 3.359374 7.5 7.5 7.5h210.785156c17.878906 26.589844 48.242187 44.117188 82.625 44.117188 54.867187 0 99.503906-44.636719 99.503906-99.503907 0-32.0625-15.25-60.628906-38.871094-78.835937zm-60.632812 163.339844c-46.597656 0-84.503906-37.90625-84.503906-84.503907 0-46.597656 37.910156-84.503906 84.503906-84.503906s84.503906 37.90625 84.503906 84.503906c0 46.597657-37.910156 84.503907-84.503906 84.503907zm0 0" fill="#5f6fed"/><path d="m412.496094 320.527344c-40.621094 0-73.667969 33.050781-73.667969 73.667968 0 40.621094 33.046875 73.667969 73.667969 73.667969s73.664062-33.046875 73.664062-73.667969c0-40.617187-33.046875-73.667968-73.664062-73.667968zm6.714844 131.9375c.496093-1.003906.785156-2.128906.785156-3.324219v-9.136719c0-4.140625-3.359375-7.5-7.5-7.5s-7.5 3.359375-7.5 7.5v9.136719c0 1.195313.285156 2.320313.785156 3.324219-26.992188-3.089844-48.464844-24.5625-51.554688-51.554688 1 .5 2.128907.785156 3.324219.785156h9.132813c4.144531 0 7.5-3.355468 7.5-7.5 0-4.144531-3.355469-7.5-7.5-7.5h-9.132813c-1.195312 0-2.324219.289063-3.324219.785157 3.089844-26.992188 24.5625-48.464844 51.554688-51.554688-.5 1.003907-.785156 2.128907-.785156 3.324219v9.136719c0 4.144531 3.359375 7.5 7.5 7.5s7.5-3.355469 7.5-7.5v-9.136719c0-1.195312-.289063-2.320312-.785156-3.324219 26.992187 3.089844 48.464843 24.5625 51.554687 51.554688-1.003906-.496094-2.128906-.785157-3.324219-.785157h-9.136718c-4.140626 0-7.5 3.355469-7.5 7.5 0 4.144532 3.359374 7.5 7.5 7.5h9.136718c1.195313 0 2.320313-.285156 3.324219-.785156-3.09375 26.992188-24.5625 48.464844-51.554687 51.554688zm0 0" fill="#5f6fed"/><path d="m429.027344 386.695312h-9.03125v-7.691406c0-4.140625-3.359375-7.5-7.5-7.5-4.144532 0-7.5 3.359375-7.5 7.5v15.191406c0 4.144532 3.355468 7.5 7.5 7.5h16.53125c4.140625 0 7.5-3.355468 7.5-7.5 0-4.144531-3.359375-7.5-7.5-7.5zm0 0" fill="#5f6fed"/></g><g transform="matrix(1.0339888334274292 -0.18246862292289734 0.18246862292289734 1.0339888334274292 150.9447784423828 259.4691467285156)" id="L1_24"><path d="m23.5 24h-23c-.276 0-.5-.224-.5-.5s.224-.5.5-.5h23c.276 0 .5.224.5.5s-.224.5-.5.5z" fill="#5b6be3"/><path d="m6.5 24h-5c-.276 0-.5-.224-.5-.5v-5.5c0-.551.448-1 1-1h4c.552 0 1 .449 1 1v5.5c0 .276-.224.5-.5.5zm-4.5-1h4v-5h-4z" fill="#5b6be3"/><path d="m14.5 24h-5c-.276 0-.5-.224-.5-.5v-11.5c0-.551.448-1 1-1h4c.552 0 1 .449 1 1v11.5c0 .276-.224.5-.5.5zm-4.5-1h4v-11h-4z" fill="#5b6be3"/><path d="m22.5 24h-5c-.276 0-.5-.224-.5-.5v-9.5c0-.551.448-1 1-1h4c.552 0 1 .449 1 1v9.5c0 .276-.224.5-.5.5zm-4.5-1h4v-9h-4z" fill="#5b6be3"/><path d="m2.5 11c-.128 0-.256-.049-.354-.146-.195-.195-.195-.512 0-.707l5-5c.124-.124.303-.176.475-.132l7.726 1.931 5.8-5.8c.195-.195.512-.195.707 0s.195.512 0 .707l-6 6c-.123.124-.303.174-.475.131l-7.726-1.93-4.8 4.8c-.097.097-.225.146-.353.146z" fill="#5b6be3"/><path d="m21.5 6c-.276 0-.5-.224-.5-.5v-3.5h-3.5c-.276 0-.5-.224-.5-.5s.224-.5.5-.5h4c.276 0 .5.224.5.5v4c0 .276-.224.5-.5.5z" fill="#5b6be3"/></g></defs><g fi:class="KUsePattern" opacity="0.42"><pattern id="pattern_L1_4" width="350" height="350" patternUnits="userSpaceOnUse"><use xlink:href="#L1_4" x="-350" y="-350"/><use xlink:href="#L1_4" x="0" y="-350"/><use xlink:href="#L1_4" x="350" y="-350"/><use xlink:href="#L1_4" x="-350" y="0"/><use xlink:href="#L1_4" x="0" y="0"/><use xlink:href="#L1_4" x="350" y="0"/><use xlink:href="#L1_4" x="-350" y="350"/><use xlink:href="#L1_4" x="0" y="350"/><use xlink:href="#L1_4" x="350" y="350"/></pattern><rect x="0" y="0" width="100%" height="100%" fill="url(#pattern_L1_4)"/></g><g fi:class="KUsePattern" opacity="0.5"><pattern id="pattern_L1_5" width="350" height="350" patternUnits="userSpaceOnUse"><use xlink:href="#L1_5" x="-350" y="-350"/><use xlink:href="#L1_5" x="0" y="-350"/><use xlink:href="#L1_5" x="350" y="-350"/><use xlink:href="#L1_5" x="-350" y="0"/><use xlink:href="#L1_5" x="0" y="0"/><use xlink:href="#L1_5" x="350" y="0"/><use xlink:href="#L1_5" x="-350" y="350"/><use xlink:href="#L1_5" x="0" y="350"/><use xlink:href="#L1_5" x="350" y="350"/></pattern><rect x="0" y="0" width="100%" height="100%" fill="url(#pattern_L1_5)"/></g><g fi:class="KUsePattern" opacity="0.24"><pattern id="pattern_L1_6" width="350" height="350" patternUnits="userSpaceOnUse"><use xlink:href="#L1_6" x="-350" y="-350"/><use xlink:href="#L1_6" x="0" y="-350"/><use xlink:href="#L1_6" x="350" y="-350"/><use xlink:href="#L1_6" x="-350" y="0"/><use xlink:href="#L1_6" x="0" y="0"/><use xlink:href="#L1_6" x="350" y="0"/><use xlink:href="#L1_6" x="-350" y="350"/><use xlink:href="#L1_6" x="0" y="350"/><use xlink:href="#L1_6" x="350" y="350"/></pattern><rect x="0" y="0" width="100%" height="100%" fill="url(#pattern_L1_6)"/></g><g fi:class="KUsePattern" opacity="0.55"><pattern id="pattern_L1_7" width="350" height="350" patternUnits="userSpaceOnUse"><use xlink:href="#L1_7" x="-350" y="-350"/><use xlink:href="#L1_7" x="0" y="-350"/><use xlink:href="#L1_7" x="350" y="-350"/><use xlink:href="#L1_7" x="-350" y="0"/><use xlink:href="#L1_7" x="0" y="0"/><use xlink:href="#L1_7" x="350" y="0"/><use xlink:href="#L1_7" x="-350" y="350"/><use xlink:href="#L1_7" x="0" y="350"/><use xlink:href="#L1_7" x="350" y="350"/></pattern><rect x="0" y="0" width="100%" height="100%" fill="url(#pattern_L1_7)"/></g><g fi:class="KUsePattern" opacity="0.51"><pattern id="pattern_L1_8" width="350" height="350" patternUnits="userSpaceOnUse"><use xlink:href="#L1_8" x="-350" y="-350"/><use xlink:href="#L1_8" x="0" y="-350"/><use xlink:href="#L1_8" x="350" y="-350"/><use xlink:href="#L1_8" x="-350" y="0"/><use xlink:href="#L1_8" x="0" y="0"/><use xlink:href="#L1_8" x="350" y="0"/><use xlink:href="#L1_8" x="-350" y="350"/><use xlink:href="#L1_8" x="0" y="350"/><use xlink:href="#L1_8" x="350" y="350"/></pattern><rect x="0" y="0" width="100%" height="100%" fill="url(#pattern_L1_8)"/></g><g fi:class="KUsePattern" opacity="0.54"><pattern id="pattern_L1_9" width="350" height="350" patternUnits="userSpaceOnUse"><use xlink:href="#L1_9" x="-350" y="-350"/><use xlink:href="#L1_9" x="0" y="-350"/><use xlink:href="#L1_9" x="350" y="-350"/><use xlink:href="#L1_9" x="-350" y="0"/><use xlink:href="#L1_9" x="0" y="0"/><use xlink:href="#L1_9" x="350" y="0"/><use xlink:href="#L1_9" x="-350" y="350"/><use xlink:href="#L1_9" x="0" y="350"/><use xlink:href="#L1_9" x="350" y="350"/></pattern><rect x="0" y="0" width="100%" height="100%" fill="url(#pattern_L1_9)"/></g><g fi:class="KUsePattern" opacity="0.25"><pattern id="pattern_L1_10" width="350" height="350" patternUnits="userSpaceOnUse"><use xlink:href="#L1_10" x="-350" y="-350"/><use xlink:href="#L1_10" x="0" y="-350"/><use xlink:href="#L1_10" x="350" y="-350"/><use xlink:href="#L1_10" x="-350" y="0"/><use xlink:href="#L1_10" x="0" y="0"/><use xlink:href="#L1_10" x="350" y="0"/><use xlink:href="#L1_10" x="-350" y="350"/><use xlink:href="#L1_10" x="0" y="350"/><use xlink:href="#L1_10" x="350" y="350"/></pattern><rect x="0" y="0" width="100%" height="100%" fill="url(#pattern_L1_10)"/></g><g fi:class="KUsePattern" opacity="0.53"><pattern id="pattern_L1_13" width="350" height="350" patternUnits="userSpaceOnUse"><use xlink:href="#L1_13" x="-350" y="-350"/><use xlink:href="#L1_13" x="0" y="-350"/><use xlink:href="#L1_13" x="350" y="-350"/><use xlink:href="#L1_13" x="-350" y="0"/><use xlink:href="#L1_13" x="0" y="0"/><use xlink:href="#L1_13" x="350" y="0"/><use xlink:href="#L1_13" x="-350" y="350"/><use xlink:href="#L1_13" x="0" y="350"/><use xlink:href="#L1_13" x="350" y="350"/></pattern><rect x="0" y="0" width="100%" height="100%" fill="url(#pattern_L1_13)"/></g><g fi:class="KUsePattern" opacity="0.5"><pattern id="pattern_L1_15" width="350" height="350" patternUnits="userSpaceOnUse"><use xlink:href="#L1_15" x="-350" y="-350"/><use xlink:href="#L1_15" x="0" y="-350"/><use xlink:href="#L1_15" x="350" y="-350"/><use xlink:href="#L1_15" x="-350" y="0"/><use xlink:href="#L1_15" x="0" y="0"/><use xlink:href="#L1_15" x="350" y="0"/><use xlink:href="#L1_15" x="-350" y="350"/><use xlink:href="#L1_15" x="0" y="350"/><use xlink:href="#L1_15" x="350" y="350"/></pattern><rect x="0" y="0" width="100%" height="100%" fill="url(#pattern_L1_15)"/></g><g fi:class="KUsePattern" opacity="0.48"><pattern id="pattern_L1_16" width="350" height="350" patternUnits="userSpaceOnUse"><use xlink:href="#L1_16" x="-350" y="-350"/><use xlink:href="#L1_16" x="0" y="-350"/><use xlink:href="#L1_16" x="350" y="-350"/><use xlink:href="#L1_16" x="-350" y="0"/><use xlink:href="#L1_16" x="0" y="0"/><use xlink:href="#L1_16" x="350" y="0"/><use xlink:href="#L1_16" x="-350" y="350"/><use xlink:href="#L1_16" x="0" y="350"/><use xlink:href="#L1_16" x="350" y="350"/></pattern><rect x="0" y="0" width="100%" height="100%" fill="url(#pattern_L1_16)"/></g><g fi:class="KUsePattern" opacity="0.48"><pattern id="pattern_L1_18" width="350" height="350" patternUnits="userSpaceOnUse"><use xlink:href="#L1_18" x="-350" y="-350"/><use xlink:href="#L1_18" x="0" y="-350"/><use xlink:href="#L1_18" x="350" y="-350"/><use xlink:href="#L1_18" x="-350" y="0"/><use xlink:href="#L1_18" x="0" y="0"/><use xlink:href="#L1_18" x="350" y="0"/><use xlink:href="#L1_18" x="-350" y="350"/><use xlink:href="#L1_18" x="0" y="350"/><use xlink:href="#L1_18" x="350" y="350"/></pattern><rect x="0" y="0" width="100%" height="100%" fill="url(#pattern_L1_18)"/></g><g fi:class="KUsePattern" opacity="0.52"><pattern id="pattern_L1_19" width="350" height="350" patternUnits="userSpaceOnUse"><use xlink:href="#L1_19" x="-350" y="-350"/><use xlink:href="#L1_19" x="0" y="-350"/><use xlink:href="#L1_19" x="350" y="-350"/><use xlink:href="#L1_19" x="-350" y="0"/><use xlink:href="#L1_19" x="0" y="0"/><use xlink:href="#L1_19" x="350" y="0"/><use xlink:href="#L1_19" x="-350" y="350"/><use xlink:href="#L1_19" x="0" y="350"/><use xlink:href="#L1_19" x="350" y="350"/></pattern><rect x="0" y="0" width="100%" height="100%" fill="url(#pattern_L1_19)"/></g><g fi:class="KUsePattern" opacity="0.53"><pattern id="pattern_L1_20" width="350" height="350" patternUnits="userSpaceOnUse"><use xlink:href="#L1_20" x="-350" y="-350"/><use xlink:href="#L1_20" x="0" y="-350"/><use xlink:href="#L1_20" x="350" y="-350"/><use xlink:href="#L1_20" x="-350" y="0"/><use xlink:href="#L1_20" x="0" y="0"/><use xlink:href="#L1_20" x="350" y="0"/><use xlink:href="#L1_20" x="-350" y="350"/><use xlink:href="#L1_20" x="0" y="350"/><use xlink:href="#L1_20" x="350" y="350"/></pattern><rect x="0" y="0" width="100%" height="100%" fill="url(#pattern_L1_20)"/></g><g fi:class="KUsePattern" opacity="0.5"><pattern id="pattern_L1_21" width="350" height="350" patternUnits="userSpaceOnUse"><use xlink:href="#L1_21" x="-350" y="-350"/><use xlink:href="#L1_21" x="0" y="-350"/><use xlink:href="#L1_21" x="350" y="-350"/><use xlink:href="#L1_21" x="-350" y="0"/><use xlink:href="#L1_21" x="0" y="0"/><use xlink:href="#L1_21" x="350" y="0"/><use xlink:href="#L1_21" x="-350" y="350"/><use xlink:href="#L1_21" x="0" y="350"/><use xlink:href="#L1_21" x="350" y="350"/></pattern><rect x="0" y="0" width="100%" height="100%" fill="url(#pattern_L1_21)"/></g><g fi:class="KUsePattern" opacity="0.47"><pattern id="pattern_L1_22" width="350" height="350" patternUnits="userSpaceOnUse"><use xlink:href="#L1_22" x="-350" y="-350"/><use xlink:href="#L1_22" x="0" y="-350"/><use xlink:href="#L1_22" x="350" y="-350"/><use xlink:href="#L1_22" x="-350" y="0"/><use xlink:href="#L1_22" x="0" y="0"/><use xlink:href="#L1_22" x="350" y="0"/><use xlink:href="#L1_22" x="-350" y="350"/><use xlink:href="#L1_22" x="0" y="350"/><use xlink:href="#L1_22" x="350" y="350"/></pattern><rect x="0" y="0" width="100%" height="100%" fill="url(#pattern_L1_22)"/></g><g fi:class="KUsePattern" opacity="0.5"><pattern id="pattern_L1_23" width="350" height="350" patternUnits="userSpaceOnUse"><use xlink:href="#L1_23" x="-350" y="-350"/><use xlink:href="#L1_23" x="0" y="-350"/><use xlink:href="#L1_23" x="350" y="-350"/><use xlink:href="#L1_23" x="-350" y="0"/><use xlink:href="#L1_23" x="0" y="0"/><use xlink:href="#L1_23" x="350" y="0"/><use xlink:href="#L1_23" x="-350" y="350"/><use xlink:href="#L1_23" x="0" y="350"/><use xlink:href="#L1_23" x="350" y="350"/></pattern><rect x="0" y="0" width="100%" height="100%" fill="url(#pattern_L1_23)"/></g><g fi:class="KUsePattern" opacity="0.5"><pattern id="pattern_L1_24" width="350" height="350" patternUnits="userSpaceOnUse"><use xlink:href="#L1_24" x="-350" y="-350"/><use xlink:href="#L1_24" x="0" y="-350"/><use xlink:href="#L1_24" x="350" y="-350"/><use xlink:href="#L1_24" x="-350" y="0"/><use xlink:href="#L1_24" x="0" y="0"/><use xlink:href="#L1_24" x="350" y="0"/><use xlink:href="#L1_24" x="-350" y="350"/><use xlink:href="#L1_24" x="0" y="350"/><use xlink:href="#L1_24" x="350" y="350"/></pattern><rect x="0" y="0" width="100%" height="100%" fill="url(#pattern_L1_24)"/></g></svg>