<svg width="25" height="25" viewBox="0 0 25 25" fill="none" xmlns="http://www.w3.org/2000/svg">
<path d="M13.5729 2.51556L13.58 2.52265L22.4769 11.4196C22.5074 11.4501 22.5464 11.4709 22.5888 11.4793C22.6311 11.4877 22.6751 11.4832 22.7149 11.4666L24.3658 10.7777L24.3659 10.7776C24.399 10.7639 24.4281 10.7421 24.4508 10.7144C24.4734 10.6867 24.4889 10.6538 24.4959 10.6187C24.5028 10.5836 24.501 10.5473 24.4906 10.513C24.4802 10.4788 24.4615 10.4476 24.4362 10.4223L14.5774 0.563805C14.5773 0.563774 14.5773 0.563743 14.5773 0.563712C14.552 0.53846 14.5209 0.519817 14.4867 0.509422C14.4524 0.499015 14.4161 0.497197 14.381 0.504129C14.3459 0.511061 14.313 0.52653 14.2853 0.549171C14.2577 0.571773 14.236 0.60083 14.2222 0.633783C14.2222 0.633788 14.2222 0.633793 14.2222 0.633797C14.2221 0.633847 14.2221 0.633897 14.2221 0.633948L13.5328 2.28476C13.5162 2.32464 13.5118 2.36858 13.5202 2.411C13.5279 2.45007 13.5461 2.48622 13.5729 2.51556Z" stroke="#E0E0E0"/>
<path d="M3.99909 9.58817L3.999 9.5882C3.96596 9.60198 3.93682 9.6237 3.91415 9.65142C3.89148 9.67914 3.87599 9.71202 3.86905 9.74714C3.86211 9.78227 3.86392 9.81856 3.87434 9.85283C3.88475 9.88708 3.90344 9.91825 3.92876 9.94357L15.0569 21.0713C15.0569 21.0714 15.057 21.0714 15.057 21.0715C15.0823 21.0967 15.1134 21.1153 15.1476 21.1257C15.1818 21.1361 15.2181 21.1379 15.2532 21.131C15.2883 21.124 15.3212 21.1085 15.3489 21.0859C15.3766 21.0632 15.3983 21.0341 15.4121 21.0011L16.1014 19.3503C16.1014 19.3503 16.1014 19.3502 16.1014 19.3502C16.118 19.3104 16.1224 19.2665 16.114 19.2241C16.1056 19.1817 16.0849 19.1428 16.0543 19.1122L5.8882 8.94611C5.85764 8.91557 5.81869 8.89481 5.77631 8.88645C5.73392 8.87809 5.69001 8.8825 5.65014 8.89914L5.65013 8.89915L3.99909 9.58817Z" stroke="#E0E0E0"/>
<path d="M21.5378 11.8944L13.1057 3.46238L7.46215 9.10597L15.8942 17.538L21.5378 11.8944Z" stroke="#E0E0E0"/>
<path d="M8.37756 15.8064L1.19873 22.9855L0.790672 24.2095L2.01466 23.8015L9.19357 16.6226L8.37756 15.8064Z" stroke="#E0E0E0"/>
</svg>
