<svg width="1440" height="996" viewBox="0 0 1440 996" fill="none" xmlns="http://www.w3.org/2000/svg">
<path d="M319.299 230.265L374.96 198.129L430.622 230.265V294.538L374.96 326.674L319.299 294.538V230.265Z" stroke="#F2F2F2"/>
<path d="M375.94 328.771L431.601 296.635L487.263 328.771V393.044L431.601 425.18L375.94 393.044V328.771Z" stroke="#F2F2F2"/>
<path d="M433.402 230.265L489.063 198.129L544.725 230.265V294.538L489.063 326.674L433.402 294.538V230.265Z" stroke="#F2F2F2"/>
<path d="M490.864 328.771L546.525 296.635L602.187 328.771V393.044L546.525 425.18L490.864 393.044V328.771Z" stroke="#F2F2F2"/>
<path d="M319.299 427.277L374.96 395.141L430.622 427.277V491.55L374.96 523.686L319.299 491.55V427.277Z" stroke="#F2F2F2"/>
<path d="M433.402 427.277L489.063 395.141L544.725 427.277V491.55L489.063 523.686L433.402 491.55V427.277Z" stroke="#F2F2F2"/>
<path d="M548.326 230.265L603.988 198.129L659.649 230.265V294.538L603.988 326.674L548.326 294.538V230.265Z" stroke="#F2F2F2"/>
<path d="M605.788 328.771L661.449 296.635L717.111 328.771V393.044L661.449 425.18L605.788 393.044V328.771Z" stroke="#F2F2F2"/>
<path d="M719.891 328.771L775.553 296.635L831.214 328.771V393.044L775.553 425.18L719.891 393.044V328.771Z" stroke="#F2F2F2"/>
<path d="M1060.46 838.764L1116.12 806.628L1171.78 838.764V903.037L1116.12 935.173L1060.46 903.037V838.764Z" stroke="#F2F2F2"/>
<path d="M719.225 526.12L774.887 493.983L830.549 526.12V590.392L774.887 622.529L719.225 590.392V526.12Z" stroke="#F2F2F2"/>
<path d="M775.483 426.516L831.144 394.38L886.806 426.516V490.789L831.144 522.925L775.483 490.789V426.516Z" stroke="#F2F2F2"/>
<path d="M832.662 328.757L888.324 296.621L943.986 328.757V393.03L888.324 425.166L832.662 393.03V328.757Z" stroke="#F2F2F2"/>
<path d="M832.662 525.197L888.324 493.061L943.986 525.197V589.47L888.324 621.606L832.662 589.47V525.197Z" stroke="#F2F2F2"/>
<path d="M889.842 427.439L945.504 395.302L1001.17 427.439V491.711L945.504 523.847L889.842 491.711V427.439Z" stroke="#F2F2F2"/>
<path d="M777.327 623.879L832.989 591.742L888.651 623.879V688.151L832.989 720.288L777.327 688.151V623.879Z" stroke="#F2F2F2"/>
<path d="M490.506 131.395L546.168 99.2586L601.829 131.395V195.668L546.168 227.804L490.506 195.668V131.395Z" stroke="#F2F2F2"/>
<path d="M433.326 32.7137L488.988 0.57735L544.65 32.7137V96.9863L488.988 129.123L433.326 96.9863V32.7137Z" stroke="#F2F2F2"/>
<path d="M547.686 32.7137L603.347 0.57735L659.009 32.7137V96.9863L603.347 129.123L547.686 96.9863V32.7137Z" stroke="#F2F2F2"/>
<path d="M376.146 131.395L431.808 99.2586L487.47 131.395V195.668L431.808 227.804L376.146 195.668V131.395Z" stroke="#F2F2F2"/>
<path d="M376.146 990.014L431.808 957.877L487.47 990.014V1054.29L431.808 1086.42L376.146 1054.29V990.014Z" stroke="#F2F2F2"/>
<path d="M490.506 722.56L546.168 690.424L601.829 722.56V786.833L546.168 818.969L490.506 786.833V722.56Z" stroke="#F2F2F2"/>
<path d="M160.339 295.556L216.001 263.42L271.662 295.556V359.829L216.001 391.965L160.339 359.829V295.556Z" stroke="#F2F2F2"/>
<path d="M224.897 89.8935L280.558 57.7572L336.22 89.8935V154.166L280.558 186.302L224.897 154.166V89.8935Z" stroke="#F2F2F2"/>
<path d="M548.326 839.362L603.988 807.226L659.649 839.362V903.635L603.988 935.771L548.326 903.635V839.362Z" stroke="#F2F2F2"/>
<path d="M613.176 709.662L668.837 677.526L724.499 709.662V773.935L668.837 806.071L613.176 773.935V709.662Z" stroke="#F2F2F2"/>
<path d="M279.075 774.512L334.737 742.376L390.399 774.512V838.785L334.737 870.921L279.075 838.785V774.512Z" stroke="#F2F2F2"/>
<path d="M548.326 427.277L603.988 395.141L659.649 427.277V491.55L603.988 523.686L548.326 491.55V427.277Z" stroke="#F2F2F2"/>
<path d="M375.94 525.784L431.601 493.648L487.263 525.784V590.057L431.601 622.193L375.94 590.057V525.784Z" stroke="#F2F2F2"/>
<path d="M319.299 624.29L374.96 592.154L430.622 624.29V688.563L374.96 720.699L319.299 688.563V624.29Z" stroke="#F2F2F2"/>
<path d="M433.402 624.29L489.063 592.154L544.725 624.29V688.563L489.063 720.699L433.402 688.563V624.29Z" stroke="#F2F2F2"/>
<path d="M490.864 525.784L546.525 493.648L602.187 525.784V590.057L546.525 622.193L490.864 590.057V525.784Z" stroke="#F2F2F2"/>
<path d="M605.788 525.784L661.449 493.648L717.111 525.784V590.057L661.449 622.193L605.788 590.057V525.784Z" stroke="#F2F2F2"/>
<path d="M662.429 427.277L718.09 395.141L773.752 427.277V491.55L718.09 523.686L662.429 491.55V427.277Z" stroke="#F2F2F2"/>
<path d="M1000.51 100.038L1056.17 67.902L1111.84 100.038V164.311L1056.17 196.447L1000.51 164.311V100.038Z" stroke="#F2F2F2"/>
<path d="M946.1 525.197L1001.76 493.061L1057.42 525.197V589.47L1001.76 621.606L946.1 589.47V525.197Z" stroke="#F2F2F2"/>
<path d="M1003.28 427.439L1058.94 395.302L1114.6 427.439V491.711L1058.94 523.847L1003.28 491.711V427.439Z" stroke="#F2F2F2"/>
<path d="M1117.64 427.439L1173.3 395.302L1228.96 427.439V491.711L1173.3 523.847L1117.64 491.711V427.439Z" stroke="#F2F2F2"/>
<path d="M1172.97 328.757L1228.64 296.621L1284.3 328.757V393.03L1228.64 425.166L1172.97 393.03V328.757Z" stroke="#F2F2F2"/>
<path d="M1230.15 230.998L1285.82 198.862L1341.48 230.998V295.271L1285.82 327.407L1230.15 295.271V230.998Z" stroke="#F2F2F2"/>
<path d="M1230.15 427.439L1285.82 395.302L1341.48 427.439V491.711L1285.82 523.847L1230.15 491.711V427.439Z" stroke="#F2F2F2"/>
<path d="M1344.51 426.516L1400.18 394.38L1455.84 426.516V490.789L1400.18 522.925L1344.51 490.789V426.516Z" stroke="#F2F2F2"/>
<path d="M1002.36 623.879L1058.02 591.742L1113.68 623.879V688.151L1058.02 720.288L1002.36 688.151V623.879Z" stroke="#F2F2F2"/>
<path d="M946.1 722.56L1001.76 690.424L1057.42 722.56V786.833L1001.76 818.969L946.1 786.833V722.56Z" stroke="#F2F2F2"/>
<path d="M1114.87 623.879L1170.53 591.742L1226.2 623.879V688.151L1170.53 720.288L1114.87 688.151V623.879Z" stroke="#F2F2F2"/>
<path d="M1170.21 722.56L1225.87 690.424L1281.53 722.56V786.833L1225.87 818.969L1170.21 786.833V722.56Z" stroke="#F2F2F2"/>
<path d="M1286.41 328.757L1342.07 296.621L1397.73 328.757V393.03L1342.07 425.166L1286.41 393.03V328.757Z" stroke="#F2F2F2"/>
<path d="M-15.8117 440.35L39.85 408.214L95.5117 440.35V504.623L39.85 536.759L-15.8117 504.623V440.35Z" stroke="#F2F2F2"/>
<g opacity="0.456808">
<path fill-rule="evenodd" clip-rule="evenodd" d="M1201.95 180.407C1203.69 180.407 1205.12 178.983 1205.12 177.23C1205.12 175.473 1203.69 174.053 1201.95 174.053C1200.19 174.053 1198.76 175.473 1198.76 177.23C1198.76 178.983 1200.19 180.407 1201.95 180.407Z" fill="#4A90E2"/>
<path fill-rule="evenodd" clip-rule="evenodd" d="M1233.77 180.407C1235.53 180.407 1236.96 178.983 1236.96 177.23C1236.96 175.473 1235.53 174.053 1233.77 174.053C1232.03 174.053 1230.6 175.473 1230.6 177.23C1230.6 178.983 1232.03 180.407 1233.77 180.407Z" fill="#4A90E2"/>
<path fill-rule="evenodd" clip-rule="evenodd" d="M1265.61 180.407C1267.36 180.407 1268.79 178.983 1268.79 177.23C1268.79 175.473 1267.36 174.053 1265.61 174.053C1263.86 174.053 1262.43 175.473 1262.43 177.23C1262.43 178.983 1263.86 180.407 1265.61 180.407Z" fill="#4A90E2"/>
<path fill-rule="evenodd" clip-rule="evenodd" d="M1297.44 180.407C1299.2 180.407 1300.62 178.983 1300.62 177.23C1300.62 175.473 1299.2 174.053 1297.44 174.053C1295.69 174.053 1294.26 175.473 1294.26 177.23C1294.26 178.983 1295.69 180.407 1297.44 180.407Z" fill="#4A90E2"/>
<path fill-rule="evenodd" clip-rule="evenodd" d="M1329.28 180.407C1331.03 180.407 1332.45 178.983 1332.45 177.23C1332.45 175.473 1331.03 174.053 1329.28 174.053C1327.53 174.053 1326.1 175.473 1326.1 177.23C1326.1 178.983 1327.53 180.407 1329.28 180.407Z" fill="#4A90E2"/>
<path fill-rule="evenodd" clip-rule="evenodd" d="M1361.11 180.407C1362.86 180.407 1364.29 178.983 1364.29 177.23C1364.29 175.473 1362.86 174.053 1361.11 174.053C1359.36 174.053 1357.93 175.473 1357.93 177.23C1357.93 178.983 1359.36 180.407 1361.11 180.407Z" fill="#4A90E2"/>
<path fill-rule="evenodd" clip-rule="evenodd" d="M1201.95 212.225C1203.69 212.225 1205.12 210.805 1205.12 209.048C1205.12 207.296 1203.69 205.871 1201.95 205.871C1200.19 205.871 1198.76 207.296 1198.76 209.048C1198.76 210.805 1200.19 212.225 1201.95 212.225Z" fill="#4A90E2"/>
<path fill-rule="evenodd" clip-rule="evenodd" d="M1233.77 212.225C1235.53 212.225 1236.96 210.805 1236.96 209.048C1236.96 207.296 1235.53 205.871 1233.77 205.871C1232.03 205.871 1230.6 207.296 1230.6 209.048C1230.6 210.805 1232.03 212.225 1233.77 212.225Z" fill="#4A90E2"/>
<path fill-rule="evenodd" clip-rule="evenodd" d="M1265.61 212.225C1267.36 212.225 1268.79 210.805 1268.79 209.048C1268.79 207.296 1267.36 205.871 1265.61 205.871C1263.86 205.871 1262.43 207.296 1262.43 209.048C1262.43 210.805 1263.86 212.225 1265.61 212.225Z" fill="#4A90E2"/>
<path fill-rule="evenodd" clip-rule="evenodd" d="M1297.44 212.225C1299.2 212.225 1300.62 210.805 1300.62 209.048C1300.62 207.296 1299.2 205.871 1297.44 205.871C1295.69 205.871 1294.26 207.296 1294.26 209.048C1294.26 210.805 1295.69 212.225 1297.44 212.225Z" fill="#4A90E2"/>
<path fill-rule="evenodd" clip-rule="evenodd" d="M1329.28 212.225C1331.03 212.225 1332.45 210.805 1332.45 209.048C1332.45 207.296 1331.03 205.871 1329.28 205.871C1327.53 205.871 1326.1 207.296 1326.1 209.048C1326.1 210.805 1327.53 212.225 1329.28 212.225Z" fill="#4A90E2"/>
<path fill-rule="evenodd" clip-rule="evenodd" d="M1361.11 212.225C1362.86 212.225 1364.29 210.805 1364.29 209.048C1364.29 207.296 1362.86 205.871 1361.11 205.871C1359.36 205.871 1357.93 207.296 1357.93 209.048C1357.93 210.805 1359.36 212.225 1361.11 212.225Z" fill="#4A90E2"/>
<path fill-rule="evenodd" clip-rule="evenodd" d="M1201.95 244.052C1203.69 244.052 1205.12 242.632 1205.12 240.875C1205.12 239.118 1203.69 237.697 1201.95 237.697C1200.19 237.697 1198.76 239.118 1198.76 240.875C1198.76 242.632 1200.19 244.052 1201.95 244.052Z" fill="#4A90E2"/>
<path fill-rule="evenodd" clip-rule="evenodd" d="M1233.77 244.052C1235.53 244.052 1236.96 242.632 1236.96 240.875C1236.96 239.118 1235.53 237.697 1233.77 237.697C1232.03 237.697 1230.6 239.118 1230.6 240.875C1230.6 242.632 1232.03 244.052 1233.77 244.052Z" fill="#4A90E2"/>
<path fill-rule="evenodd" clip-rule="evenodd" d="M1265.61 244.052C1267.36 244.052 1268.79 242.632 1268.79 240.875C1268.79 239.118 1267.36 237.697 1265.61 237.697C1263.86 237.697 1262.43 239.118 1262.43 240.875C1262.43 242.632 1263.86 244.052 1265.61 244.052Z" fill="#4A90E2"/>
<path fill-rule="evenodd" clip-rule="evenodd" d="M1297.44 244.052C1299.2 244.052 1300.62 242.632 1300.62 240.875C1300.62 239.118 1299.2 237.697 1297.44 237.697C1295.69 237.697 1294.26 239.118 1294.26 240.875C1294.26 242.632 1295.69 244.052 1297.44 244.052Z" fill="#4A90E2"/>
<path fill-rule="evenodd" clip-rule="evenodd" d="M1329.28 244.052C1331.03 244.052 1332.45 242.632 1332.45 240.875C1332.45 239.118 1331.03 237.697 1329.28 237.697C1327.53 237.697 1326.1 239.118 1326.1 240.875C1326.1 242.632 1327.53 244.052 1329.28 244.052Z" fill="#4A90E2"/>
<path fill-rule="evenodd" clip-rule="evenodd" d="M1361.11 244.052C1362.86 244.052 1364.29 242.632 1364.29 240.875C1364.29 239.118 1362.86 237.697 1361.11 237.697C1359.36 237.697 1357.93 239.118 1357.93 240.875C1357.93 242.632 1359.36 244.052 1361.11 244.052Z" fill="#4A90E2"/>
<path fill-rule="evenodd" clip-rule="evenodd" d="M1201.95 275.874C1203.69 275.874 1205.12 274.45 1205.12 272.697C1205.12 270.945 1203.69 269.525 1201.95 269.525C1200.19 269.525 1198.76 270.945 1198.76 272.697C1198.76 274.45 1200.19 275.874 1201.95 275.874Z" fill="#4A90E2"/>
<path fill-rule="evenodd" clip-rule="evenodd" d="M1233.77 275.874C1235.53 275.874 1236.96 274.45 1236.96 272.697C1236.96 270.945 1235.53 269.525 1233.77 269.525C1232.03 269.525 1230.6 270.945 1230.6 272.697C1230.6 274.45 1232.03 275.874 1233.77 275.874Z" fill="#4A90E2"/>
<path fill-rule="evenodd" clip-rule="evenodd" d="M1265.61 275.874C1267.36 275.874 1268.79 274.45 1268.79 272.697C1268.79 270.945 1267.36 269.525 1265.61 269.525C1263.86 269.525 1262.43 270.945 1262.43 272.697C1262.43 274.45 1263.86 275.874 1265.61 275.874Z" fill="#4A90E2"/>
<path fill-rule="evenodd" clip-rule="evenodd" d="M1297.44 275.874C1299.2 275.874 1300.62 274.45 1300.62 272.697C1300.62 270.945 1299.2 269.525 1297.44 269.525C1295.69 269.525 1294.26 270.945 1294.26 272.697C1294.26 274.45 1295.69 275.874 1297.44 275.874Z" fill="#4A90E2"/>
<path fill-rule="evenodd" clip-rule="evenodd" d="M1329.28 275.874C1331.03 275.874 1332.45 274.45 1332.45 272.697C1332.45 270.945 1331.03 269.525 1329.28 269.525C1327.53 269.525 1326.1 270.945 1326.1 272.697C1326.1 274.45 1327.53 275.874 1329.28 275.874Z" fill="#4A90E2"/>
<path fill-rule="evenodd" clip-rule="evenodd" d="M1361.11 275.874C1362.86 275.874 1364.29 274.45 1364.29 272.697C1364.29 270.945 1362.86 269.525 1361.11 269.525C1359.36 269.525 1357.93 270.945 1357.93 272.697C1357.93 274.45 1359.36 275.874 1361.11 275.874Z" fill="#4A90E2"/>
<path fill-rule="evenodd" clip-rule="evenodd" d="M1201.95 307.696C1203.69 307.696 1205.12 306.276 1205.12 304.519C1205.12 302.767 1203.69 301.342 1201.95 301.342C1200.19 301.342 1198.76 302.767 1198.76 304.519C1198.76 306.276 1200.19 307.696 1201.95 307.696Z" fill="#4A90E2"/>
<path fill-rule="evenodd" clip-rule="evenodd" d="M1233.77 307.696C1235.53 307.696 1236.96 306.276 1236.96 304.519C1236.96 302.767 1235.53 301.342 1233.77 301.342C1232.03 301.342 1230.6 302.767 1230.6 304.519C1230.6 306.276 1232.03 307.696 1233.77 307.696Z" fill="#4A90E2"/>
<path fill-rule="evenodd" clip-rule="evenodd" d="M1265.61 307.696C1267.36 307.696 1268.79 306.276 1268.79 304.519C1268.79 302.767 1267.36 301.342 1265.61 301.342C1263.86 301.342 1262.43 302.767 1262.43 304.519C1262.43 306.276 1263.86 307.696 1265.61 307.696Z" fill="#4A90E2"/>
<path fill-rule="evenodd" clip-rule="evenodd" d="M1297.44 307.696C1299.2 307.696 1300.62 306.276 1300.62 304.519C1300.62 302.767 1299.2 301.342 1297.44 301.342C1295.69 301.342 1294.26 302.767 1294.26 304.519C1294.26 306.276 1295.69 307.696 1297.44 307.696Z" fill="#4A90E2"/>
<path fill-rule="evenodd" clip-rule="evenodd" d="M1329.28 307.696C1331.03 307.696 1332.45 306.276 1332.45 304.519C1332.45 302.767 1331.03 301.342 1329.28 301.342C1327.53 301.342 1326.1 302.767 1326.1 304.519C1326.1 306.276 1327.53 307.696 1329.28 307.696Z" fill="#4A90E2"/>
<path fill-rule="evenodd" clip-rule="evenodd" d="M1361.11 307.696C1362.86 307.696 1364.29 306.276 1364.29 304.519C1364.29 302.767 1362.86 301.342 1361.11 301.342C1359.36 301.342 1357.93 302.767 1357.93 304.519C1357.93 306.276 1359.36 307.696 1361.11 307.696Z" fill="#4A90E2"/>
<path fill-rule="evenodd" clip-rule="evenodd" d="M1201.95 339.523C1203.69 339.523 1205.12 338.103 1205.12 336.346C1205.12 334.589 1203.69 333.169 1201.95 333.169C1200.19 333.169 1198.76 334.589 1198.76 336.346C1198.76 338.103 1200.19 339.523 1201.95 339.523Z" fill="#4A90E2"/>
<path fill-rule="evenodd" clip-rule="evenodd" d="M1233.77 339.523C1235.53 339.523 1236.96 338.103 1236.96 336.346C1236.96 334.589 1235.53 333.169 1233.77 333.169C1232.03 333.169 1230.6 334.589 1230.6 336.346C1230.6 338.103 1232.03 339.523 1233.77 339.523Z" fill="#4A90E2"/>
<path fill-rule="evenodd" clip-rule="evenodd" d="M1265.61 339.523C1267.36 339.523 1268.79 338.103 1268.79 336.346C1268.79 334.589 1267.36 333.169 1265.61 333.169C1263.86 333.169 1262.43 334.589 1262.43 336.346C1262.43 338.103 1263.86 339.523 1265.61 339.523Z" fill="#4A90E2"/>
<path fill-rule="evenodd" clip-rule="evenodd" d="M1297.44 339.523C1299.2 339.523 1300.62 338.103 1300.62 336.346C1300.62 334.589 1299.2 333.169 1297.44 333.169C1295.69 333.169 1294.26 334.589 1294.26 336.346C1294.26 338.103 1295.69 339.523 1297.44 339.523Z" fill="#4A90E2"/>
<path fill-rule="evenodd" clip-rule="evenodd" d="M1329.28 339.523C1331.03 339.523 1332.45 338.103 1332.45 336.346C1332.45 334.589 1331.03 333.169 1329.28 333.169C1327.53 333.169 1326.1 334.589 1326.1 336.346C1326.1 338.103 1327.53 339.523 1329.28 339.523Z" fill="#4A90E2"/>
<path fill-rule="evenodd" clip-rule="evenodd" d="M1361.11 339.523C1362.86 339.523 1364.29 338.103 1364.29 336.346C1364.29 334.589 1362.86 333.169 1361.11 333.169C1359.36 333.169 1357.93 334.589 1357.93 336.346C1357.93 338.103 1359.36 339.523 1361.11 339.523Z" fill="#4A90E2"/>
<path fill-rule="evenodd" clip-rule="evenodd" d="M1201.95 371.346C1203.69 371.346 1205.12 369.921 1205.12 368.168C1205.12 366.416 1203.69 364.991 1201.95 364.991C1200.19 364.991 1198.76 366.416 1198.76 368.168C1198.76 369.921 1200.19 371.346 1201.95 371.346Z" fill="#4A90E2"/>
<path fill-rule="evenodd" clip-rule="evenodd" d="M1233.77 371.346C1235.53 371.346 1236.96 369.921 1236.96 368.168C1236.96 366.416 1235.53 364.991 1233.77 364.991C1232.03 364.991 1230.6 366.416 1230.6 368.168C1230.6 369.921 1232.03 371.346 1233.77 371.346Z" fill="#4A90E2"/>
<path fill-rule="evenodd" clip-rule="evenodd" d="M1265.61 371.346C1267.36 371.346 1268.79 369.921 1268.79 368.168C1268.79 366.416 1267.36 364.991 1265.61 364.991C1263.86 364.991 1262.43 366.416 1262.43 368.168C1262.43 369.921 1263.86 371.346 1265.61 371.346Z" fill="#4A90E2"/>
<path fill-rule="evenodd" clip-rule="evenodd" d="M1297.44 371.346C1299.2 371.346 1300.62 369.921 1300.62 368.168C1300.62 366.416 1299.2 364.991 1297.44 364.991C1295.69 364.991 1294.26 366.416 1294.26 368.168C1294.26 369.921 1295.69 371.346 1297.44 371.346Z" fill="#4A90E2"/>
<path fill-rule="evenodd" clip-rule="evenodd" d="M1329.28 371.346C1331.03 371.346 1332.45 369.921 1332.45 368.168C1332.45 366.416 1331.03 364.991 1329.28 364.991C1327.53 364.991 1326.1 366.416 1326.1 368.168C1326.1 369.921 1327.53 371.346 1329.28 371.346Z" fill="#4A90E2"/>
<path fill-rule="evenodd" clip-rule="evenodd" d="M1361.11 371.346C1362.86 371.346 1364.29 369.921 1364.29 368.168C1364.29 366.416 1362.86 364.991 1361.11 364.991C1359.36 364.991 1357.93 366.416 1357.93 368.168C1357.93 369.921 1359.36 371.346 1361.11 371.346Z" fill="#4A90E2"/>
<path fill-rule="evenodd" clip-rule="evenodd" d="M1201.95 403.168C1203.69 403.168 1205.12 401.748 1205.12 399.99C1205.12 398.233 1203.69 396.813 1201.95 396.813C1200.19 396.813 1198.76 398.233 1198.76 399.99C1198.76 401.748 1200.19 403.168 1201.95 403.168Z" fill="#4A90E2"/>
<path fill-rule="evenodd" clip-rule="evenodd" d="M1233.77 403.168C1235.53 403.168 1236.96 401.748 1236.96 399.99C1236.96 398.233 1235.53 396.813 1233.77 396.813C1232.03 396.813 1230.6 398.233 1230.6 399.99C1230.6 401.748 1232.03 403.168 1233.77 403.168Z" fill="#4A90E2"/>
<path fill-rule="evenodd" clip-rule="evenodd" d="M1265.61 403.168C1267.36 403.168 1268.79 401.748 1268.79 399.99C1268.79 398.233 1267.36 396.813 1265.61 396.813C1263.86 396.813 1262.43 398.233 1262.43 399.99C1262.43 401.748 1263.86 403.168 1265.61 403.168Z" fill="#4A90E2"/>
<path fill-rule="evenodd" clip-rule="evenodd" d="M1297.44 403.168C1299.2 403.168 1300.62 401.748 1300.62 399.99C1300.62 398.233 1299.2 396.813 1297.44 396.813C1295.69 396.813 1294.26 398.233 1294.26 399.99C1294.26 401.748 1295.69 403.168 1297.44 403.168Z" fill="#4A90E2"/>
<path fill-rule="evenodd" clip-rule="evenodd" d="M1329.28 403.168C1331.03 403.168 1332.45 401.748 1332.45 399.99C1332.45 398.233 1331.03 396.813 1329.28 396.813C1327.53 396.813 1326.1 398.233 1326.1 399.99C1326.1 401.748 1327.53 403.168 1329.28 403.168Z" fill="#4A90E2"/>
<path fill-rule="evenodd" clip-rule="evenodd" d="M1361.11 403.168C1362.86 403.168 1364.29 401.748 1364.29 399.99C1364.29 398.233 1362.86 396.813 1361.11 396.813C1359.36 396.813 1357.93 398.233 1357.93 399.99C1357.93 401.748 1359.36 403.168 1361.11 403.168Z" fill="#4A90E2"/>
<path fill-rule="evenodd" clip-rule="evenodd" d="M1201.95 434.995C1203.69 434.995 1205.12 433.57 1205.12 431.818C1205.12 430.061 1203.69 428.641 1201.95 428.641C1200.19 428.641 1198.76 430.061 1198.76 431.818C1198.76 433.57 1200.19 434.995 1201.95 434.995Z" fill="#4A90E2"/>
<path fill-rule="evenodd" clip-rule="evenodd" d="M1233.77 434.995C1235.53 434.995 1236.96 433.57 1236.96 431.818C1236.96 430.061 1235.53 428.641 1233.77 428.641C1232.03 428.641 1230.6 430.061 1230.6 431.818C1230.6 433.57 1232.03 434.995 1233.77 434.995Z" fill="#4A90E2"/>
<path fill-rule="evenodd" clip-rule="evenodd" d="M1265.61 434.995C1267.36 434.995 1268.79 433.57 1268.79 431.818C1268.79 430.061 1267.36 428.641 1265.61 428.641C1263.86 428.641 1262.43 430.061 1262.43 431.818C1262.43 433.57 1263.86 434.995 1265.61 434.995Z" fill="#4A90E2"/>
<path fill-rule="evenodd" clip-rule="evenodd" d="M1297.44 434.995C1299.2 434.995 1300.62 433.57 1300.62 431.818C1300.62 430.061 1299.2 428.641 1297.44 428.641C1295.69 428.641 1294.26 430.061 1294.26 431.818C1294.26 433.57 1295.69 434.995 1297.44 434.995Z" fill="#4A90E2"/>
<path fill-rule="evenodd" clip-rule="evenodd" d="M1329.28 434.995C1331.03 434.995 1332.45 433.57 1332.45 431.818C1332.45 430.061 1331.03 428.641 1329.28 428.641C1327.53 428.641 1326.1 430.061 1326.1 431.818C1326.1 433.57 1327.53 434.995 1329.28 434.995Z" fill="#4A90E2"/>
<path fill-rule="evenodd" clip-rule="evenodd" d="M1361.11 434.995C1362.86 434.995 1364.29 433.57 1364.29 431.818C1364.29 430.061 1362.86 428.641 1361.11 428.641C1359.36 428.641 1357.93 430.061 1357.93 431.818C1357.93 433.57 1359.36 434.995 1361.11 434.995Z" fill="#4A90E2"/>
<path fill-rule="evenodd" clip-rule="evenodd" d="M1201.95 466.813C1203.69 466.813 1205.12 465.393 1205.12 463.635C1205.12 461.888 1203.69 460.458 1201.95 460.458C1200.19 460.458 1198.76 461.888 1198.76 463.635C1198.76 465.393 1200.19 466.813 1201.95 466.813Z" fill="#4A90E2"/>
<path fill-rule="evenodd" clip-rule="evenodd" d="M1233.77 466.813C1235.53 466.813 1236.96 465.393 1236.96 463.635C1236.96 461.888 1235.53 460.458 1233.77 460.458C1232.03 460.458 1230.6 461.888 1230.6 463.635C1230.6 465.393 1232.03 466.813 1233.77 466.813Z" fill="#4A90E2"/>
<path fill-rule="evenodd" clip-rule="evenodd" d="M1265.61 466.813C1267.36 466.813 1268.79 465.393 1268.79 463.635C1268.79 461.888 1267.36 460.458 1265.61 460.458C1263.86 460.458 1262.43 461.888 1262.43 463.635C1262.43 465.393 1263.86 466.813 1265.61 466.813Z" fill="#4A90E2"/>
<path fill-rule="evenodd" clip-rule="evenodd" d="M1297.44 466.813C1299.2 466.813 1300.62 465.393 1300.62 463.635C1300.62 461.888 1299.2 460.458 1297.44 460.458C1295.69 460.458 1294.26 461.888 1294.26 463.635C1294.26 465.393 1295.69 466.813 1297.44 466.813Z" fill="#4A90E2"/>
<path fill-rule="evenodd" clip-rule="evenodd" d="M1329.28 466.813C1331.03 466.813 1332.45 465.393 1332.45 463.635C1332.45 461.888 1331.03 460.458 1329.28 460.458C1327.53 460.458 1326.1 461.888 1326.1 463.635C1326.1 465.393 1327.53 466.813 1329.28 466.813Z" fill="#4A90E2"/>
<path fill-rule="evenodd" clip-rule="evenodd" d="M1361.11 466.813C1362.86 466.813 1364.29 465.393 1364.29 463.635C1364.29 461.888 1362.86 460.458 1361.11 460.458C1359.36 460.458 1357.93 461.888 1357.93 463.635C1357.93 465.393 1359.36 466.813 1361.11 466.813Z" fill="#4A90E2"/>
<path fill-rule="evenodd" clip-rule="evenodd" d="M1201.95 498.64C1203.69 498.64 1205.12 497.219 1205.12 495.462C1205.12 493.705 1203.69 492.285 1201.95 492.285C1200.19 492.285 1198.76 493.705 1198.76 495.462C1198.76 497.219 1200.19 498.64 1201.95 498.64Z" fill="#4A90E2"/>
<path fill-rule="evenodd" clip-rule="evenodd" d="M1233.77 498.64C1235.53 498.64 1236.96 497.219 1236.96 495.462C1236.96 493.705 1235.53 492.285 1233.77 492.285C1232.03 492.285 1230.6 493.705 1230.6 495.462C1230.6 497.219 1232.03 498.64 1233.77 498.64Z" fill="#4A90E2"/>
<path fill-rule="evenodd" clip-rule="evenodd" d="M1265.61 498.64C1267.36 498.64 1268.79 497.219 1268.79 495.462C1268.79 493.705 1267.36 492.285 1265.61 492.285C1263.86 492.285 1262.43 493.705 1262.43 495.462C1262.43 497.219 1263.86 498.64 1265.61 498.64Z" fill="#4A90E2"/>
<path fill-rule="evenodd" clip-rule="evenodd" d="M1297.44 498.64C1299.2 498.64 1300.62 497.219 1300.62 495.462C1300.62 493.705 1299.2 492.285 1297.44 492.285C1295.69 492.285 1294.26 493.705 1294.26 495.462C1294.26 497.219 1295.69 498.64 1297.44 498.64Z" fill="#4A90E2"/>
<path fill-rule="evenodd" clip-rule="evenodd" d="M1329.28 498.64C1331.03 498.64 1332.45 497.219 1332.45 495.462C1332.45 493.705 1331.03 492.285 1329.28 492.285C1327.53 492.285 1326.1 493.705 1326.1 495.462C1326.1 497.219 1327.53 498.64 1329.28 498.64Z" fill="#4A90E2"/>
<path fill-rule="evenodd" clip-rule="evenodd" d="M1361.11 498.64C1362.86 498.64 1364.29 497.219 1364.29 495.462C1364.29 493.705 1362.86 492.285 1361.11 492.285C1359.36 492.285 1357.93 493.705 1357.93 495.462C1357.93 497.219 1359.36 498.64 1361.11 498.64Z" fill="#4A90E2"/>
<path fill-rule="evenodd" clip-rule="evenodd" d="M1201.95 530.462C1203.69 530.462 1205.12 529.037 1205.12 527.289C1205.12 525.532 1203.69 524.112 1201.95 524.112C1200.19 524.112 1198.76 525.532 1198.76 527.289C1198.76 529.037 1200.19 530.462 1201.95 530.462Z" fill="#4A90E2"/>
<path fill-rule="evenodd" clip-rule="evenodd" d="M1233.77 530.462C1235.53 530.462 1236.96 529.037 1236.96 527.289C1236.96 525.532 1235.53 524.112 1233.77 524.112C1232.03 524.112 1230.6 525.532 1230.6 527.289C1230.6 529.037 1232.03 530.462 1233.77 530.462Z" fill="#4A90E2"/>
<path fill-rule="evenodd" clip-rule="evenodd" d="M1265.61 530.462C1267.36 530.462 1268.79 529.037 1268.79 527.289C1268.79 525.532 1267.36 524.112 1265.61 524.112C1263.86 524.112 1262.43 525.532 1262.43 527.289C1262.43 529.037 1263.86 530.462 1265.61 530.462Z" fill="#4A90E2"/>
<path fill-rule="evenodd" clip-rule="evenodd" d="M1297.44 530.462C1299.2 530.462 1300.62 529.037 1300.62 527.289C1300.62 525.532 1299.2 524.112 1297.44 524.112C1295.69 524.112 1294.26 525.532 1294.26 527.289C1294.26 529.037 1295.69 530.462 1297.44 530.462Z" fill="#4A90E2"/>
<path fill-rule="evenodd" clip-rule="evenodd" d="M1329.28 530.462C1331.03 530.462 1332.45 529.037 1332.45 527.289C1332.45 525.532 1331.03 524.112 1329.28 524.112C1327.53 524.112 1326.1 525.532 1326.1 527.289C1326.1 529.037 1327.53 530.462 1329.28 530.462Z" fill="#4A90E2"/>
<path fill-rule="evenodd" clip-rule="evenodd" d="M1361.11 530.462C1362.86 530.462 1364.29 529.037 1364.29 527.289C1364.29 525.532 1362.86 524.112 1361.11 524.112C1359.36 524.112 1357.93 525.532 1357.93 527.289C1357.93 529.037 1359.36 530.462 1361.11 530.462Z" fill="#4A90E2"/>
<path fill-rule="evenodd" clip-rule="evenodd" d="M1201.95 562.284C1203.69 562.284 1205.12 560.864 1205.12 559.107C1205.12 557.355 1203.69 555.93 1201.95 555.93C1200.19 555.93 1198.76 557.355 1198.76 559.107C1198.76 560.864 1200.19 562.284 1201.95 562.284Z" fill="#4A90E2"/>
<path fill-rule="evenodd" clip-rule="evenodd" d="M1233.77 562.284C1235.53 562.284 1236.96 560.864 1236.96 559.107C1236.96 557.355 1235.53 555.93 1233.77 555.93C1232.03 555.93 1230.6 557.355 1230.6 559.107C1230.6 560.864 1232.03 562.284 1233.77 562.284Z" fill="#4A90E2"/>
<path fill-rule="evenodd" clip-rule="evenodd" d="M1265.61 562.284C1267.36 562.284 1268.79 560.864 1268.79 559.107C1268.79 557.355 1267.36 555.93 1265.61 555.93C1263.86 555.93 1262.43 557.355 1262.43 559.107C1262.43 560.864 1263.86 562.284 1265.61 562.284Z" fill="#4A90E2"/>
<path fill-rule="evenodd" clip-rule="evenodd" d="M1297.44 562.284C1299.2 562.284 1300.62 560.864 1300.62 559.107C1300.62 557.355 1299.2 555.93 1297.44 555.93C1295.69 555.93 1294.26 557.355 1294.26 559.107C1294.26 560.864 1295.69 562.284 1297.44 562.284Z" fill="#4A90E2"/>
<path fill-rule="evenodd" clip-rule="evenodd" d="M1329.28 562.284C1331.03 562.284 1332.45 560.864 1332.45 559.107C1332.45 557.355 1331.03 555.93 1329.28 555.93C1327.53 555.93 1326.1 557.355 1326.1 559.107C1326.1 560.864 1327.53 562.284 1329.28 562.284Z" fill="#4A90E2"/>
<path fill-rule="evenodd" clip-rule="evenodd" d="M1361.11 562.284C1362.86 562.284 1364.29 560.864 1364.29 559.107C1364.29 557.355 1362.86 555.93 1361.11 555.93C1359.36 555.93 1357.93 557.355 1357.93 559.107C1357.93 560.864 1359.36 562.284 1361.11 562.284Z" fill="#4A90E2"/>
<path fill-rule="evenodd" clip-rule="evenodd" d="M1201.95 594.111C1203.69 594.111 1205.12 592.691 1205.12 590.934C1205.12 589.177 1203.69 587.756 1201.95 587.756C1200.19 587.756 1198.76 589.177 1198.76 590.934C1198.76 592.691 1200.19 594.111 1201.95 594.111Z" fill="#4A90E2"/>
<path fill-rule="evenodd" clip-rule="evenodd" d="M1233.77 594.111C1235.53 594.111 1236.96 592.691 1236.96 590.934C1236.96 589.177 1235.53 587.756 1233.77 587.756C1232.03 587.756 1230.6 589.177 1230.6 590.934C1230.6 592.691 1232.03 594.111 1233.77 594.111Z" fill="#4A90E2"/>
<path fill-rule="evenodd" clip-rule="evenodd" d="M1265.61 594.111C1267.36 594.111 1268.79 592.691 1268.79 590.934C1268.79 589.177 1267.36 587.756 1265.61 587.756C1263.86 587.756 1262.43 589.177 1262.43 590.934C1262.43 592.691 1263.86 594.111 1265.61 594.111Z" fill="#4A90E2"/>
<path fill-rule="evenodd" clip-rule="evenodd" d="M1297.44 594.111C1299.2 594.111 1300.62 592.691 1300.62 590.934C1300.62 589.177 1299.2 587.756 1297.44 587.756C1295.69 587.756 1294.26 589.177 1294.26 590.934C1294.26 592.691 1295.69 594.111 1297.44 594.111Z" fill="#4A90E2"/>
<path fill-rule="evenodd" clip-rule="evenodd" d="M1329.28 594.111C1331.03 594.111 1332.45 592.691 1332.45 590.934C1332.45 589.177 1331.03 587.756 1329.28 587.756C1327.53 587.756 1326.1 589.177 1326.1 590.934C1326.1 592.691 1327.53 594.111 1329.28 594.111Z" fill="#4A90E2"/>
<path fill-rule="evenodd" clip-rule="evenodd" d="M1361.11 594.111C1362.86 594.111 1364.29 592.691 1364.29 590.934C1364.29 589.177 1362.86 587.756 1361.11 587.756C1359.36 587.756 1357.93 589.177 1357.93 590.934C1357.93 592.691 1359.36 594.111 1361.11 594.111Z" fill="#4A90E2"/>
<path fill-rule="evenodd" clip-rule="evenodd" d="M1201.95 625.933C1203.69 625.933 1205.12 624.508 1205.12 622.756C1205.12 621.004 1203.69 619.579 1201.95 619.579C1200.19 619.579 1198.76 621.004 1198.76 622.756C1198.76 624.508 1200.19 625.933 1201.95 625.933Z" fill="#4A90E2"/>
<path fill-rule="evenodd" clip-rule="evenodd" d="M1233.77 625.933C1235.53 625.933 1236.96 624.508 1236.96 622.756C1236.96 621.004 1235.53 619.579 1233.77 619.579C1232.03 619.579 1230.6 621.004 1230.6 622.756C1230.6 624.508 1232.03 625.933 1233.77 625.933Z" fill="#4A90E2"/>
<path fill-rule="evenodd" clip-rule="evenodd" d="M1265.61 625.933C1267.36 625.933 1268.79 624.508 1268.79 622.756C1268.79 621.004 1267.36 619.579 1265.61 619.579C1263.86 619.579 1262.43 621.004 1262.43 622.756C1262.43 624.508 1263.86 625.933 1265.61 625.933Z" fill="#4A90E2"/>
<path fill-rule="evenodd" clip-rule="evenodd" d="M1297.44 625.933C1299.2 625.933 1300.62 624.508 1300.62 622.756C1300.62 621.004 1299.2 619.579 1297.44 619.579C1295.69 619.579 1294.26 621.004 1294.26 622.756C1294.26 624.508 1295.69 625.933 1297.44 625.933Z" fill="#4A90E2"/>
<path fill-rule="evenodd" clip-rule="evenodd" d="M1329.28 625.933C1331.03 625.933 1332.45 624.508 1332.45 622.756C1332.45 621.004 1331.03 619.579 1329.28 619.579C1327.53 619.579 1326.1 621.004 1326.1 622.756C1326.1 624.508 1327.53 625.933 1329.28 625.933Z" fill="#4A90E2"/>
<path fill-rule="evenodd" clip-rule="evenodd" d="M1361.11 625.933C1362.86 625.933 1364.29 624.508 1364.29 622.756C1364.29 621.004 1362.86 619.579 1361.11 619.579C1359.36 619.579 1357.93 621.004 1357.93 622.756C1357.93 624.508 1359.36 625.933 1361.11 625.933Z" fill="#4A90E2"/>
<path fill-rule="evenodd" clip-rule="evenodd" d="M1201.95 657.755C1203.69 657.755 1205.12 656.335 1205.12 654.578C1205.12 652.821 1203.69 651.401 1201.95 651.401C1200.19 651.401 1198.76 652.821 1198.76 654.578C1198.76 656.335 1200.19 657.755 1201.95 657.755Z" fill="#4A90E2"/>
<path fill-rule="evenodd" clip-rule="evenodd" d="M1233.77 657.755C1235.53 657.755 1236.96 656.335 1236.96 654.578C1236.96 652.821 1235.53 651.401 1233.77 651.401C1232.03 651.401 1230.6 652.821 1230.6 654.578C1230.6 656.335 1232.03 657.755 1233.77 657.755Z" fill="#4A90E2"/>
<path fill-rule="evenodd" clip-rule="evenodd" d="M1265.61 657.755C1267.36 657.755 1268.79 656.335 1268.79 654.578C1268.79 652.821 1267.36 651.401 1265.61 651.401C1263.86 651.401 1262.43 652.821 1262.43 654.578C1262.43 656.335 1263.86 657.755 1265.61 657.755Z" fill="#4A90E2"/>
<path fill-rule="evenodd" clip-rule="evenodd" d="M1297.44 657.755C1299.2 657.755 1300.62 656.335 1300.62 654.578C1300.62 652.821 1299.2 651.401 1297.44 651.401C1295.69 651.401 1294.26 652.821 1294.26 654.578C1294.26 656.335 1295.69 657.755 1297.44 657.755Z" fill="#4A90E2"/>
<path fill-rule="evenodd" clip-rule="evenodd" d="M1329.28 657.755C1331.03 657.755 1332.45 656.335 1332.45 654.578C1332.45 652.821 1331.03 651.401 1329.28 651.401C1327.53 651.401 1326.1 652.821 1326.1 654.578C1326.1 656.335 1327.53 657.755 1329.28 657.755Z" fill="#4A90E2"/>
<path fill-rule="evenodd" clip-rule="evenodd" d="M1361.11 657.755C1362.86 657.755 1364.29 656.335 1364.29 654.578C1364.29 652.821 1362.86 651.401 1361.11 651.401C1359.36 651.401 1357.93 652.821 1357.93 654.578C1357.93 656.335 1359.36 657.755 1361.11 657.755Z" fill="#4A90E2"/>
<path fill-rule="evenodd" clip-rule="evenodd" d="M1201.95 689.583C1203.69 689.583 1205.12 688.158 1205.12 686.405C1205.12 684.648 1203.69 683.228 1201.95 683.228C1200.19 683.228 1198.76 684.648 1198.76 686.405C1198.76 688.158 1200.19 689.583 1201.95 689.583Z" fill="#4A90E2"/>
<path fill-rule="evenodd" clip-rule="evenodd" d="M1233.77 689.583C1235.53 689.583 1236.96 688.158 1236.96 686.405C1236.96 684.648 1235.53 683.228 1233.77 683.228C1232.03 683.228 1230.6 684.648 1230.6 686.405C1230.6 688.158 1232.03 689.583 1233.77 689.583Z" fill="#4A90E2"/>
<path fill-rule="evenodd" clip-rule="evenodd" d="M1265.61 689.583C1267.36 689.583 1268.79 688.158 1268.79 686.405C1268.79 684.648 1267.36 683.228 1265.61 683.228C1263.86 683.228 1262.43 684.648 1262.43 686.405C1262.43 688.158 1263.86 689.583 1265.61 689.583Z" fill="#4A90E2"/>
<path fill-rule="evenodd" clip-rule="evenodd" d="M1297.44 689.583C1299.2 689.583 1300.62 688.158 1300.62 686.405C1300.62 684.648 1299.2 683.228 1297.44 683.228C1295.69 683.228 1294.26 684.648 1294.26 686.405C1294.26 688.158 1295.69 689.583 1297.44 689.583Z" fill="#4A90E2"/>
<path fill-rule="evenodd" clip-rule="evenodd" d="M1329.28 689.583C1331.03 689.583 1332.45 688.158 1332.45 686.405C1332.45 684.648 1331.03 683.228 1329.28 683.228C1327.53 683.228 1326.1 684.648 1326.1 686.405C1326.1 688.158 1327.53 689.583 1329.28 689.583Z" fill="#4A90E2"/>
<path fill-rule="evenodd" clip-rule="evenodd" d="M1361.11 689.583C1362.86 689.583 1364.29 688.158 1364.29 686.405C1364.29 684.648 1362.86 683.228 1361.11 683.228C1359.36 683.228 1357.93 684.648 1357.93 686.405C1357.93 688.158 1359.36 689.583 1361.11 689.583Z" fill="#4A90E2"/>
<path fill-rule="evenodd" clip-rule="evenodd" d="M1201.95 721.4C1203.69 721.4 1205.12 719.98 1205.12 718.223C1205.12 716.475 1203.69 715.045 1201.95 715.045C1200.19 715.045 1198.76 716.475 1198.76 718.223C1198.76 719.98 1200.19 721.4 1201.95 721.4Z" fill="#4A90E2"/>
<path fill-rule="evenodd" clip-rule="evenodd" d="M1233.77 721.4C1235.53 721.4 1236.96 719.98 1236.96 718.223C1236.96 716.475 1235.53 715.045 1233.77 715.045C1232.03 715.045 1230.6 716.475 1230.6 718.223C1230.6 719.98 1232.03 721.4 1233.77 721.4Z" fill="#4A90E2"/>
<path fill-rule="evenodd" clip-rule="evenodd" d="M1265.61 721.4C1267.36 721.4 1268.79 719.98 1268.79 718.223C1268.79 716.475 1267.36 715.045 1265.61 715.045C1263.86 715.045 1262.43 716.475 1262.43 718.223C1262.43 719.98 1263.86 721.4 1265.61 721.4Z" fill="#4A90E2"/>
<path fill-rule="evenodd" clip-rule="evenodd" d="M1297.44 721.4C1299.2 721.4 1300.62 719.98 1300.62 718.223C1300.62 716.475 1299.2 715.045 1297.44 715.045C1295.69 715.045 1294.26 716.475 1294.26 718.223C1294.26 719.98 1295.69 721.4 1297.44 721.4Z" fill="#4A90E2"/>
<path fill-rule="evenodd" clip-rule="evenodd" d="M1329.28 721.4C1331.03 721.4 1332.45 719.98 1332.45 718.223C1332.45 716.475 1331.03 715.045 1329.28 715.045C1327.53 715.045 1326.1 716.475 1326.1 718.223C1326.1 719.98 1327.53 721.4 1329.28 721.4Z" fill="#4A90E2"/>
<path fill-rule="evenodd" clip-rule="evenodd" d="M1361.11 721.4C1362.86 721.4 1364.29 719.98 1364.29 718.223C1364.29 716.475 1362.86 715.045 1361.11 715.045C1359.36 715.045 1357.93 716.475 1357.93 718.223C1357.93 719.98 1359.36 721.4 1361.11 721.4Z" fill="#4A90E2"/>
<path fill-rule="evenodd" clip-rule="evenodd" d="M1201.95 753.227C1203.69 753.227 1205.12 751.807 1205.12 750.05C1205.12 748.293 1203.69 746.873 1201.95 746.873C1200.19 746.873 1198.76 748.293 1198.76 750.05C1198.76 751.807 1200.19 753.227 1201.95 753.227Z" fill="#4A90E2"/>
<path fill-rule="evenodd" clip-rule="evenodd" d="M1233.77 753.227C1235.53 753.227 1236.96 751.807 1236.96 750.05C1236.96 748.293 1235.53 746.873 1233.77 746.873C1232.03 746.873 1230.6 748.293 1230.6 750.05C1230.6 751.807 1232.03 753.227 1233.77 753.227Z" fill="#4A90E2"/>
<path fill-rule="evenodd" clip-rule="evenodd" d="M1265.61 753.227C1267.36 753.227 1268.79 751.807 1268.79 750.05C1268.79 748.293 1267.36 746.873 1265.61 746.873C1263.86 746.873 1262.43 748.293 1262.43 750.05C1262.43 751.807 1263.86 753.227 1265.61 753.227Z" fill="#4A90E2"/>
<path fill-rule="evenodd" clip-rule="evenodd" d="M1297.44 753.227C1299.2 753.227 1300.62 751.807 1300.62 750.05C1300.62 748.293 1299.2 746.873 1297.44 746.873C1295.69 746.873 1294.26 748.293 1294.26 750.05C1294.26 751.807 1295.69 753.227 1297.44 753.227Z" fill="#4A90E2"/>
<path fill-rule="evenodd" clip-rule="evenodd" d="M1329.28 753.227C1331.03 753.227 1332.45 751.807 1332.45 750.05C1332.45 748.293 1331.03 746.873 1329.28 746.873C1327.53 746.873 1326.1 748.293 1326.1 750.05C1326.1 751.807 1327.53 753.227 1329.28 753.227Z" fill="#4A90E2"/>
<path fill-rule="evenodd" clip-rule="evenodd" d="M1361.11 753.227C1362.86 753.227 1364.29 751.807 1364.29 750.05C1364.29 748.293 1362.86 746.873 1361.11 746.873C1359.36 746.873 1357.93 748.293 1357.93 750.05C1357.93 751.807 1359.36 753.227 1361.11 753.227Z" fill="#4A90E2"/>
<mask id="mask0" mask-type="alpha" maskUnits="userSpaceOnUse" x="-26" y="180" width="200" height="16">
<path fill-rule="evenodd" clip-rule="evenodd" d="M-25.2705 180.935H173.89V195.574H-25.2705V180.935Z" fill="white"/>
</mask>
<g mask="url(#mask0)">
<path fill-rule="evenodd" clip-rule="evenodd" d="M102.078 180.935H102.084C108.046 180.935 113.622 183.039 117.783 186.856C120.992 189.798 125.257 191.415 129.799 191.415C134.342 191.415 138.613 189.798 141.822 186.856C145.989 183.039 151.57 180.935 157.532 180.935H157.544C163.506 180.935 169.081 183.039 173.242 186.856C174.166 187.708 174.097 189.027 173.069 189.798C172.053 190.563 170.472 190.505 169.548 189.658C166.345 186.717 162.08 185.099 157.544 185.099H157.532C152.996 185.099 148.725 186.717 145.51 189.658C141.343 193.476 135.762 195.574 129.799 195.574C123.832 195.574 118.256 193.476 114.089 189.658C110.886 186.717 106.626 185.099 102.084 185.099H102.078C97.5362 185.099 93.2652 186.717 90.0504 189.658C85.8833 193.476 80.3079 195.574 74.3401 195.574H74.3343C68.3723 195.574 62.7911 193.476 58.624 189.658C52.2002 183.775 40.9975 183.775 34.5622 189.658C30.4009 193.476 24.814 195.574 18.8461 195.574C12.8783 195.574 7.29137 193.476 3.12427 189.658C-0.0789719 186.717 -4.34996 185.099 -8.89799 185.099H-8.90376C-13.446 185.099 -17.717 186.717 -20.9318 189.658C-21.8668 190.505 -23.4424 190.573 -24.4582 189.793C-25.474 189.023 -25.5491 187.704 -24.6198 186.856C-20.447 183.039 -14.8658 180.935 -8.90376 180.935H-8.89799C-2.93015 180.935 2.651 183.039 6.82386 186.856C10.0271 189.798 14.2981 191.415 18.8461 191.415C23.3941 191.415 27.6651 189.798 30.8799 186.856C39.2141 179.226 53.9779 179.226 62.3121 186.856C65.5269 189.798 69.7921 191.415 74.3343 191.415H74.3401C78.8824 191.415 83.1476 189.798 86.3681 186.856C90.5352 183.039 96.1106 180.935 102.078 180.935Z" fill="#4A90E2"/>
</g>
<path fill-rule="evenodd" clip-rule="evenodd" d="M102.079 214.989H102.084C108.046 214.989 113.622 217.093 117.783 220.91C120.992 223.851 125.257 225.469 129.8 225.469C134.342 225.469 138.613 223.851 141.822 220.91C145.989 217.093 151.57 214.989 157.532 214.989H157.544C163.506 214.989 169.081 217.093 173.242 220.91C174.166 221.762 174.097 223.081 173.069 223.851C172.053 224.617 170.472 224.559 169.549 223.712C166.345 220.77 162.08 219.153 157.544 219.153H157.532C152.996 219.153 148.725 220.77 145.51 223.712C141.343 227.529 135.762 229.628 129.8 229.628C123.832 229.628 118.256 227.529 114.089 223.712C110.886 220.77 106.627 219.153 102.084 219.153H102.079C97.5363 219.153 93.2653 220.77 90.0505 223.712C85.8834 227.529 80.3081 229.628 74.3402 229.628H74.3344C68.3724 229.628 62.7912 227.529 58.6241 223.712C52.2003 217.829 40.9977 217.829 34.5623 223.712C30.401 227.529 24.8141 229.628 18.8462 229.628C12.8784 229.628 7.29149 227.529 3.12439 223.712C-0.0788498 220.77 -4.34984 219.153 -8.89786 219.153H-8.90364C-13.4459 219.153 -17.7169 220.77 -20.9317 223.712C-21.8667 224.559 -23.4423 224.626 -24.4581 223.847C-25.4739 223.076 -25.5489 221.757 -24.6197 220.91C-20.4468 217.093 -14.8657 214.989 -8.90364 214.989H-8.89786C-2.93002 214.989 2.65112 217.093 6.82399 220.91C10.0272 223.851 14.2982 225.469 18.8462 225.469C23.3943 225.469 27.6653 223.851 30.88 220.91C39.2142 213.28 53.978 213.28 62.3122 220.91C65.527 223.851 69.7922 225.469 74.3344 225.469H74.3402C78.8825 225.469 83.1477 223.851 86.3682 220.91C90.5353 217.093 96.1107 214.989 102.079 214.989Z" fill="#4A90E2"/>
<path fill-rule="evenodd" clip-rule="evenodd" d="M102.079 248.919H102.084C108.046 248.919 113.622 251.023 117.783 254.84C120.992 257.782 125.257 259.399 129.8 259.399C134.342 259.399 138.613 257.782 141.822 254.84C145.989 251.023 151.57 248.919 157.532 248.919H157.544C163.506 248.919 169.081 251.023 173.242 254.84C174.166 255.692 174.097 257.011 173.069 257.782C172.053 258.547 170.472 258.489 169.549 257.642C166.345 254.701 162.08 253.083 157.544 253.083H157.532C152.996 253.083 148.725 254.701 145.51 257.642C141.343 261.46 135.762 263.559 129.8 263.559C123.832 263.559 118.256 261.46 114.089 257.642C110.886 254.701 106.627 253.083 102.084 253.083H102.079C97.5363 253.083 93.2653 254.701 90.0505 257.642C85.8834 261.46 80.3081 263.559 74.3402 263.559H74.3344C68.3724 263.559 62.7912 261.46 58.6241 257.642C52.2003 251.759 40.9977 251.759 34.5623 257.642C30.401 261.46 24.8141 263.559 18.8462 263.559C12.8784 263.559 7.29149 261.46 3.12439 257.642C-0.0788498 254.701 -4.34984 253.083 -8.89786 253.083H-8.90364C-13.4459 253.083 -17.7169 254.701 -20.9317 257.642C-21.8667 258.489 -23.4423 258.557 -24.4581 257.777C-25.4739 257.007 -25.5489 255.688 -24.6197 254.84C-20.4468 251.023 -14.8657 248.919 -8.90364 248.919H-8.89786C-2.93002 248.919 2.65112 251.023 6.82399 254.84C10.0272 257.782 14.2982 259.399 18.8462 259.399C23.3943 259.399 27.6653 257.782 30.88 254.84C39.2142 247.21 53.978 247.21 62.3122 254.84C65.527 257.782 69.7922 259.399 74.3344 259.399H74.3402C78.8825 259.399 83.1477 257.782 86.3682 254.84C90.5353 251.023 96.1107 248.919 102.079 248.919Z" fill="#4A90E2"/>
</g>
</svg>
