<svg width="44" height="44" viewBox="0 0 44 44" fill="none" xmlns="http://www.w3.org/2000/svg">
<path d="M8.9375 13.75V28.875C8.93937 30.6316 9.2951 32.3699 9.98346 33.986C10.6718 35.6022 11.6787 37.0631 12.944 38.2816C14.2094 39.5001 15.7072 40.4512 17.3482 41.0781C18.9891 41.705 20.7395 41.995 22.495 41.9306C29.5694 41.6625 35.0625 35.6331 35.0625 28.5587V13.75H8.9375Z" fill="#FFDAAA"/>
<path d="M8.9375 18.5625V20.625C8.9375 20.625 24.0625 19.9375 27.5 14.4375C27.5 14.4375 28.1875 19.2851 35.0625 20.625V18.5625L27.5 13.75L8.9375 18.5625Z" fill="#FFC477"/>
<path d="M37.125 20.1231C36.9161 20.002 36.679 19.9379 36.4375 19.9375L35.0625 19.25V26.8125H36.4375C36.8018 26.8114 37.1509 26.6662 37.4086 26.4086C37.6662 26.1509 37.8114 25.8018 37.8125 25.4375V21.3125C37.8123 21.0714 37.7486 20.8346 37.6279 20.6258C37.5073 20.417 37.3338 20.2437 37.125 20.1231Z" fill="#F7BF75"/>
<path d="M37.125 17.1875V20.1231C36.9161 20.002 36.679 19.9379 36.4375 19.9375H35.7294C35.5025 19.9375 35.2825 19.9238 35.0625 19.9031C33.5743 19.7272 32.1469 19.2093 30.8922 18.39C29.6375 17.5706 28.5894 16.4719 27.83 15.18C27.7063 14.9482 27.5961 14.7095 27.5 14.465V14.4581C27.2625 14.6964 27.0099 14.9192 26.7438 15.125C21.2713 19.5456 9.52187 19.9238 8.95812 19.9375H7.5625C7.32101 19.9379 7.08389 20.002 6.875 20.1231V17.1875C6.875 13.1761 8.46852 9.329 11.305 6.49251C14.1415 3.65602 17.9886 2.0625 22 2.0625C26.0114 2.0625 29.8585 3.65602 32.695 6.49251C35.5315 9.329 37.125 13.1761 37.125 17.1875Z" fill="#A02100"/>
<path d="M8.9375 19.9375H7.5625C7.19783 19.9375 6.84809 20.0824 6.59023 20.3402C6.33237 20.5981 6.1875 20.9478 6.1875 21.3125V25.4375C6.18859 25.8018 6.3338 26.1509 6.59143 26.4086C6.84906 26.6662 7.19816 26.8114 7.5625 26.8125H8.9375V19.9375Z" fill="#F7BF75"/>
<path d="M14.4375 22.6875C14.4375 23.0522 14.5824 23.4019 14.8402 23.6598C15.0981 23.9176 15.4478 24.0625 15.8125 24.0625C16.1772 24.0625 16.5269 23.9176 16.7848 23.6598C17.0426 23.4019 17.1875 23.0522 17.1875 22.6875C17.1861 22.4454 17.1201 22.2081 16.9964 22H18.5625V20.625H13.0625V22H14.6286C14.5049 22.2081 14.4389 22.4454 14.4375 22.6875ZM25.4375 22H27.0036C26.8799 22.2081 26.8139 22.4454 26.8125 22.6875C26.8125 23.0522 26.9574 23.4019 27.2152 23.6598C27.4731 23.9176 27.8228 24.0625 28.1875 24.0625C28.5522 24.0625 28.9019 23.9176 29.1598 23.6598C29.4176 23.4019 29.5625 23.0522 29.5625 22.6875C29.5611 22.4454 29.4951 22.2081 29.3714 22H30.9375V20.625H25.4375V22Z" fill="#FF6243"/>
<path d="M22 29.5625C20.3292 29.5686 18.6991 30.0789 17.3231 31.0268C15.9472 31.9747 14.8894 33.3158 14.2883 34.8748L15.5733 35.3643C16.0694 34.0613 16.9499 32.9399 18.0978 32.1487C19.2458 31.3575 20.6071 30.9338 22.0014 30.9338C23.3956 30.9338 24.7569 31.3575 25.9049 32.1487C27.0529 32.9399 27.9333 34.0613 28.4295 35.3643L29.7144 34.8748C29.1129 33.3156 28.0547 31.9742 26.6782 31.0264C25.3018 30.0785 23.6712 29.5683 22 29.5625Z" fill="#FF7956"/>
</svg>
