<?xml version="1.0" standalone="no"?>
<!DOCTYPE svg PUBLIC "-//W3C//DTD SVG 20010904//EN"
 "http://www.w3.org/TR/2001/REC-SVG-20010904/DTD/svg10.dtd">
<svg version="1.0" xmlns="http://www.w3.org/2000/svg"
 width="1647.000000pt" height="1647.000000pt" viewBox="0 0 1647.000000 1647.000000"
 preserveAspectRatio="xMidYMid meet">
<metadata>
Created by potrace 1.11, written by Peter Selinger 2001-2013
</metadata>
<g transform="translate(0.000000,1647.000000) scale(0.100000,-0.100000)"
fill="#000000" stroke="none">
<path d="M8092 16459 c-202 -15 -412 -71 -597 -159 -103 -49 -5534 -3180
-5640 -3252 -410 -278 -693 -750 -745 -1243 -8 -81 -10 -960 -8 -3375 l3
-3265 27 -121 c104 -461 357 -839 728 -1089 107 -72 5476 -3173 5610 -3240
474 -238 1102 -229 1560 22 36 19 766 440 1623 935 910 525 1562 896 1569 892
7 -4 642 -575 1413 -1269 894 -805 1413 -1266 1434 -1273 119 -42 246 29 270
150 15 79 27 11362 12 11558 -25 321 -120 598 -292 856 -113 168 -336 387
-494 486 -30 19 -5293 3058 -5530 3193 -67 38 -225 102 -320 130 -190 55 -425
79 -623 64z m358 -1046 c66 -23 671 -368 2740 -1562 1460 -843 2659 -1536
2663 -1540 4 -4 -1246 -727 -2779 -1605 -2418 -1387 -2789 -1597 -2807 -1588
-69 32 -5592 3222 -5591 3229 2 11 5148 2985 5249 3033 112 54 196 70 330 66
90 -3 125 -9 195 -33z m-3270 -5579 l3050 -1756 2 -2884 c2 -1586 3 -3054 3
-3261 l0 -378 -60 3 c-76 4 -191 35 -258 69 -71 35 -5406 3115 -5483 3164
-170 110 -290 306 -314 516 -6 54 -10 568 -10 1339 0 1467 12 4944 17 4944 2
0 1376 -790 3053 -1756z"/>
</g>
</svg>
