<svg width="691" height="339" viewBox="0 0 691 339" fill="none" xmlns="http://www.w3.org/2000/svg">
<path d="M218.516 254.093H215.786V247.692C212.505 247.747 209.231 247.8 205.961 247.855L206.422 247.03C206.732 246.476 206.535 245.775 205.982 245.465C205.805 245.367 205.612 245.32 205.422 245.32C205.02 245.32 204.63 245.532 204.419 245.909L203.306 247.901C190.345 248.117 177.464 248.333 164.564 248.549V254.093H160.751C160.996 238.806 161.244 223.568 161.49 208.29H152.142C152.142 209.062 152.117 209.719 152.146 210.376C152.319 214.223 152.615 218.067 152.665 221.914C152.807 232.64 152.876 243.367 152.968 254.093H148.267C148.519 238.79 148.769 223.584 149.021 208.388C148.191 208.216 146.477 208.138 144.74 208.138C142.64 208.138 140.504 208.253 139.862 208.464C140.128 223.674 140.39 238.859 140.653 254.093H135.789C136.035 238.794 136.283 223.573 136.528 208.299H127.167C127.167 209.142 127.137 209.866 127.171 210.587C127.346 214.494 127.648 218.398 127.699 222.307C127.834 232.902 127.894 243.498 127.967 254.093H123.417C123.408 250.206 123.404 246.341 123.436 242.487C123.489 236.74 123.67 230.993 123.713 225.246C123.757 219.593 124.262 213.947 124.193 208.278H114.694C114.694 209.158 114.664 209.937 114.696 210.718C114.87 214.687 115.169 218.653 115.219 222.624C115.355 233.114 115.407 243.604 115.479 254.093H112.743V247.69C98.1598 247.933 83.645 248.177 69.1118 248.42L66.4066 243.726C68.5313 243.71 70.656 243.701 72.7784 243.701C86.123 243.701 99.4241 244.045 112.737 244.585V235.028C104.089 235.274 95.5602 235.591 87.0271 235.736C78.6476 235.878 70.2659 235.853 61.8911 235.894L58.103 229.32C58.2131 222.307 58.3255 215.301 58.4402 208.283H49.3013C49.3335 210.275 49.3679 212.244 49.4046 214.232L44.3889 205.532C50.0195 205.436 55.6525 205.337 61.2877 205.24V197.613C57.7473 197.613 54.2436 197.627 50.7537 197.627C48.5121 197.627 46.2772 197.623 44.0424 197.602C42.6175 197.588 41.195 197.547 39.7724 197.528L37.2622 193.174C44.7514 193.105 52.2406 193.045 59.7297 192.974C60.2483 192.969 60.7645 192.887 61.2647 192.841V185.32C51.6394 185.159 42.0462 184.996 32.4553 184.835L30.0989 180.749C39.9766 180.641 49.852 180.565 59.7297 180.471C60.246 180.464 60.7668 180.381 61.2601 180.335V172.817C49.2004 172.615 37.1934 172.412 25.1795 172.21L22.9791 168.396C35.7548 168.177 48.4914 167.959 61.2372 167.743V160.312C46.7292 160.066 32.3245 159.824 17.8969 159.581L16.1141 156.485H20.3795C20.3795 150.63 20.3428 144.952 20.391 139.274C20.4392 133.527 20.6227 127.78 20.6663 122.033C20.7122 116.382 21.217 110.734 21.1459 105.081H11.8051L13.0785 102.871C29.1696 102.595 45.1782 102.319 61.2624 102.041V94.6211C46.8875 94.3775 32.5884 94.134 18.2571 93.8881L20.3589 90.2436C33.9743 90.0092 47.5575 89.7748 61.2372 89.5381V82.1205C49.2348 81.916 37.3104 81.7115 25.3952 81.5092L27.6369 77.6189C38.85 77.4235 50.0402 77.2305 61.2395 77.0352V69.6152C51.6371 69.4544 42.0783 69.2912 32.5287 69.1327L34.915 64.9919C43.6845 64.8425 52.4585 64.6908 61.2831 64.5392V56.8733C58.314 56.9055 55.3496 56.9193 52.3851 56.9193C48.1266 56.9193 43.8726 56.8894 39.6187 56.8366L41.6332 53.3415C42.8539 53.3369 44.0745 53.3253 45.13 53.3185C45.1644 51.2319 45.1965 49.1776 45.2309 47.1003L49.9415 38.9289C50.0241 43.7017 50.1067 48.4676 50.1893 53.2518H57.6119C57.7657 43.7362 57.9194 34.2711 58.0754 24.8221L61.384 19.0773C61.384 20.4561 61.3817 21.8371 61.3886 23.2066C61.3886 23.6892 61.4368 24.1694 61.4712 24.8542C65.1607 24.7922 68.8388 24.7646 72.5122 24.7646C85.9647 24.7646 99.3323 25.1415 112.753 25.6815V16.2831C95.9847 16.568 79.3039 16.8506 62.5037 17.1356L65.28 12.3192C67.7076 12.2939 70.1283 12.2824 72.5489 12.2824C86.0106 12.2824 99.3667 12.6501 112.739 13.1717V3.78009C98.4168 4.02597 84.1452 4.26729 69.7818 4.51086L71.404 1.69592C72.3608 1.63388 73.1593 1.54192 73.547 1.41553C73.547 0.951355 73.5424 0.473404 73.5447 3.05176e-05H76.7547C76.7455 0.556122 76.7364 1.11223 76.7272 1.66602H86.0129C86.0129 1.07086 86.0198 0.523956 86.0221 3.05176e-05H89.0301C89.0072 0.56073 88.9911 1.11682 88.9682 1.67522H98.504C98.504 1.06398 98.5109 0.519363 98.5132 3.05176e-05H101.512C101.491 0.553833 101.478 1.10303 101.452 1.65681H110.835C110.825 1.10303 110.816 0.553833 110.809 3.05176e-05H167.327C167.32 0.553833 167.311 1.10762 167.301 1.66142H176.587C176.587 1.06856 176.594 0.52626 176.596 3.05176e-05H179.802C179.793 0.556122 179.783 1.10992 179.774 1.66373H189.06C189.06 1.07086 189.067 0.52626 189.069 3.05176e-05H192.073C192.05 0.489487 192.04 0.978973 192.018 1.46843C192.86 1.67754 194.727 1.77632 196.611 1.77632C198.704 1.77632 200.815 1.65451 201.549 1.41553C201.549 0.951355 201.547 0.473404 201.547 3.05176e-05H204.568C204.548 0.558426 204.532 1.11223 204.509 1.67062H214.024C214.024 1.07086 214.031 0.523956 214.033 3.05176e-05H218.863L219.96 1.89812H217.743C217.743 2.81038 217.718 3.59398 217.748 4.37756C217.936 9.01935 218.248 13.6588 218.308 18.3029C218.448 29.372 218.471 40.441 218.544 51.5123C218.549 52.0914 218.576 52.6727 218.594 53.2702H226.265C226.478 40.0848 226.689 27.0143 226.9 13.9414L230.792 20.6927C230.902 30.9069 230.962 41.1212 231.044 51.3354C231.046 51.9788 231.079 52.6199 231.102 53.3392C231.409 53.3392 231.716 53.3392 232.019 53.3392C232.653 53.3392 233.272 53.3415 233.882 53.3438C234.5 53.3461 235.105 53.3483 235.7 53.3483C236.751 53.3483 237.765 53.3392 238.747 53.307C238.845 47.1693 238.942 41.089 239.04 34.9995L243.618 42.9434C243.678 46.3742 243.737 49.7981 243.797 53.2357H249.554L251.662 56.894C239.761 56.8274 227.917 56.5332 216.02 55.9978V65.4239C229.447 65.1918 242.806 64.962 256.18 64.7299L258.915 69.4751C244.614 69.2292 230.36 68.9856 216.11 68.7421C215.772 70.3368 215.807 76.6813 216.142 77.9199C231.836 77.6487 247.519 77.3776 263.314 77.1064L266.193 82.1021C249.395 81.8125 232.724 81.5276 215.976 81.2404V90.4228C233.185 90.1264 250.235 89.8346 267.338 89.5381V84.0875L270.583 89.7174C270.505 94.7797 270.429 99.8282 270.346 104.92C271.845 104.955 273.37 104.976 274.915 104.976C276.374 104.976 277.854 104.957 279.341 104.909L280.91 107.627C276.472 107.703 272.037 107.777 267.6 107.852V115.282C273.581 115.383 279.538 115.486 285.499 115.59L288.044 120.006C281.229 120.121 274.419 120.236 267.607 120.353V128.051C271.083 127.996 274.552 127.971 278.019 127.971C282.518 127.971 287.013 128.012 291.506 128.086L289 132.431C282.307 132.493 275.617 132.562 268.926 132.626C268.465 132.631 268.004 132.72 267.581 132.769V140.568C270.924 140.51 274.261 140.487 277.592 140.487C279.843 140.487 282.094 140.499 284.34 140.515L281.69 145.111C276.961 145.191 272.237 145.269 267.497 145.35C267.476 147.889 267.458 150.414 267.501 152.804C270.741 152.859 273.939 152.912 277.163 152.965L275.05 156.628H271.145C271.108 158.956 271.074 161.27 271.037 163.591L265.734 172.789C249.081 172.509 232.582 172.233 215.992 171.955V181.298C216.502 181.298 216.977 181.31 217.436 181.31C217.704 181.31 217.968 181.305 218.234 181.296C222.073 181.137 225.909 180.869 229.752 180.818C240.261 180.68 250.772 180.604 261.283 180.51L258.594 185.173C244.391 184.934 230.23 184.697 216.004 184.458V193.806C216.541 193.806 217.048 193.817 217.546 193.817C217.835 193.817 218.122 193.813 218.409 193.801C222.431 193.64 226.451 193.362 230.475 193.31C238.329 193.204 246.183 193.139 254.042 193.075L251.428 197.607C250.983 197.602 250.538 197.607 250.093 197.602C244.419 197.551 238.747 197.388 233.073 197.317C227.446 197.248 221.825 196.798 216.103 196.798C216.034 196.798 215.963 196.8 215.894 196.8C215.894 198.569 215.878 200.093 215.898 201.616C215.919 203.174 215.804 204.742 215.979 206.318C216.594 206.318 217.112 206.327 217.596 206.327C217.874 206.327 218.14 206.325 218.406 206.316C223.16 206.136 227.912 205.845 232.671 205.78C237.379 205.716 242.09 205.675 246.8 205.636L245.27 208.292H242.909C242.932 209.618 242.955 210.937 242.978 212.265L239.41 218.453C239.463 215.066 239.518 211.684 239.573 208.29H230.211C230.211 209.119 230.186 209.841 230.216 210.56C230.39 214.469 230.695 218.373 230.746 222.282C230.792 225.954 230.819 229.626 230.854 233.297L226.51 240.828C226.577 235.632 226.721 230.437 226.76 225.241C226.804 219.588 227.311 213.942 227.24 208.28H217.729C217.729 209.046 217.709 209.7 217.734 210.358C217.858 213.533 218.062 216.707 218.108 219.885C218.271 231.287 218.388 242.689 218.516 254.093ZM175.626 243.675C189.062 243.675 202.405 244.034 215.802 244.592V235.188C198.665 235.478 181.619 235.766 164.507 236.056V243.76C168.222 243.702 171.927 243.675 175.626 243.675ZM175.695 231.167C189.101 231.167 202.425 231.549 215.802 232.085V222.686C198.658 222.976 181.612 223.265 164.431 223.557C164.431 225.588 164.427 227.599 164.433 229.607C164.436 230.087 164.482 230.568 164.518 231.26C168.254 231.195 171.978 231.167 175.695 231.167ZM72.6292 231.166C86.0473 231.166 99.3759 231.553 112.746 232.082V222.686C95.5946 222.976 78.5467 223.265 61.384 223.557C61.384 225.731 61.3794 227.865 61.3886 230C61.3909 230.357 61.446 230.712 61.4896 231.26C65.2112 231.195 68.9237 231.166 72.6292 231.166ZM175.369 218.662C188.909 218.662 202.34 219.051 215.781 219.572V210.185C198.658 210.475 181.649 210.764 164.534 211.054V218.75C168.157 218.69 171.767 218.662 175.369 218.662ZM112.743 210.185C95.5556 210.477 78.5467 210.767 61.5056 211.056V218.483C78.6339 218.777 95.6359 219.069 112.743 219.363V210.185ZM65.0506 156.646C64.7867 173.796 64.5206 190.839 64.2567 207.986C65.1997 208.129 66.7646 208.198 68.3615 208.198C70.5413 208.198 72.7761 208.071 73.547 207.839C73.547 207.005 73.5723 206.153 73.5447 205.302C73.3268 198.455 73.0055 191.609 72.9046 184.759C72.7738 176.011 72.8197 167.258 72.7898 158.505C72.7876 157.912 72.7898 157.317 72.7898 156.646H65.0506ZM89.7735 156.674C90.0558 173.874 89.6978 190.931 88.9728 208.078H98.504C98.504 206.945 98.5293 206.033 98.4994 205.123C98.2746 197.857 97.9487 190.591 97.8363 183.323C97.7078 175.135 97.7744 166.943 97.7514 158.756C97.7491 158.048 97.717 157.345 97.701 156.674H89.7735ZM173.292 156.541C172.751 156.541 172.228 156.541 171.702 156.548C170.45 156.557 169.199 156.591 168.1 156.612C167.832 173.89 167.57 190.927 167.301 208.067H176.596C176.596 207.053 176.619 206.203 176.594 205.353C176.374 198.443 176.053 191.538 175.949 184.628C175.819 175.937 175.867 167.247 175.835 158.556C175.83 157.91 175.791 157.267 175.766 156.543C174.878 156.543 174.068 156.541 173.292 156.541ZM192.821 156.653C193.094 173.835 192.756 190.899 192.015 208.064H201.556C201.556 206.998 201.579 206.088 201.551 205.178C201.324 197.79 200.996 190.403 200.879 183.013C200.75 174.945 200.819 166.877 200.801 158.809C200.799 158.099 200.801 157.389 200.801 156.653H192.821ZM185.692 156.541C185.18 156.541 184.682 156.541 184.184 156.545C182.931 156.557 181.676 156.589 180.609 156.61C180.33 173.883 180.052 190.922 179.774 208.064H189.062C189.062 206.934 189.085 205.962 189.058 204.99C188.842 197.958 188.518 190.927 188.413 183.893C188.289 175.45 188.344 167.001 188.314 158.556C188.312 157.912 188.271 157.267 188.241 156.543C187.328 156.543 186.495 156.541 185.692 156.541ZM102.267 156.69C102.547 173.874 102.175 190.897 101.452 208.044H110.828C110.557 190.885 110.286 173.814 110.015 156.69H102.267ZM81.6557 156.545C80.552 156.545 79.4737 156.545 78.3953 156.548C78.0993 156.55 77.8056 156.6 77.5624 156.623C77.2824 173.878 77.0071 190.915 76.7272 208.044H86.0152C86.0152 206.945 86.0405 205.971 86.0106 204.999C85.7949 198.091 85.4714 191.182 85.3705 184.272C85.2443 175.705 85.297 167.134 85.2695 158.565C85.2672 157.922 85.2236 157.276 85.1961 156.545C83.9708 156.545 82.7983 156.545 81.6557 156.545ZM210.678 156.541C210.155 156.541 209.646 156.541 209.139 156.545C207.884 156.557 206.631 156.587 205.314 156.607C205.592 173.862 205.225 190.885 204.497 208.039H213.964C214.001 207.499 214.074 207.023 214.054 206.552C213.955 203.988 213.785 201.428 213.73 198.864C213.551 190.92 213.372 182.978 213.276 175.034C213.209 169.535 213.278 164.034 213.278 158.533C213.278 157.892 213.232 157.253 213.205 156.543C212.296 156.543 211.47 156.541 210.678 156.541ZM112.943 196.947V206.318C113.494 206.318 114.012 206.329 114.515 206.329C114.802 206.329 115.084 206.325 115.366 206.316C120.118 206.136 124.872 205.845 129.626 205.78C140.731 205.626 151.839 205.58 162.947 205.482C163.403 205.477 163.86 205.378 164.319 205.321V197.823C147.158 197.531 130.11 197.239 112.943 196.947ZM112.932 184.442V193.624C130.138 193.328 147.188 193.034 164.291 192.742V185.322C147.103 185.028 130.058 184.736 112.932 184.442ZM112.987 171.941V181.124C130.175 180.825 147.223 180.533 164.328 180.237V172.821C147.177 172.527 130.129 172.235 112.987 171.941ZM215.988 159.206V168.763C216.541 168.763 217.055 168.775 217.553 168.775C217.846 168.775 218.135 168.77 218.425 168.759C222.204 168.616 225.983 168.368 229.762 168.32C241.844 168.166 253.927 168.083 266.01 167.964C266.469 167.959 266.925 167.86 267.354 167.81V160.054C263.722 160.105 260.095 160.128 256.472 160.128C242.959 160.128 229.502 159.794 215.988 159.206ZM112.964 159.441V168.621C130.129 168.327 147.181 168.035 164.332 167.741V160.314C147.092 160.022 130.048 159.73 112.964 159.441ZM255.189 105.086C255.189 105.858 255.161 106.515 255.191 107.17C255.366 111.017 255.662 114.861 255.712 118.708C255.873 130.816 255.939 142.923 256.049 155.031C256.054 155.495 256.127 155.959 256.18 156.545C257.029 156.545 257.837 156.545 258.624 156.545C259.129 156.545 259.624 156.545 260.12 156.543C261.37 156.538 262.621 156.525 263.706 156.515C263.984 139.21 264.259 122.182 264.534 105.086H255.189ZM49.2991 105.079C49.5973 122.35 49.891 139.373 50.1893 156.545C51.0382 156.545 51.8849 156.545 52.7339 156.545C53.1584 156.545 53.5805 156.545 54.005 156.545C55.2601 156.541 56.5175 156.527 57.6142 156.52C57.8919 139.228 58.1649 122.198 58.4379 105.079H49.2991ZM114.682 105.081C114.682 105.846 114.662 106.504 114.687 107.159C114.809 110.334 115.017 113.508 115.063 116.686C115.238 128.977 115.361 141.269 115.501 153.558C115.513 154.516 115.501 155.472 115.501 156.485H123.427C123.427 150.633 123.388 144.955 123.438 139.276C123.489 133.529 123.67 127.782 123.713 122.035C123.757 116.385 124.262 110.736 124.193 105.081H114.682ZM235.273 104.911C233.068 104.911 231.074 105.047 230.434 105.272C230.723 122.35 231.01 139.38 231.299 156.476H238.949C238.949 150.635 238.91 144.959 238.96 139.281C239.008 133.534 239.176 127.787 239.233 122.04C239.288 116.389 239.779 110.746 239.729 105.116C238.387 104.973 236.78 104.911 235.273 104.911ZM247.872 104.927C245.71 104.927 243.522 105.054 242.909 105.277C243.205 122.35 243.501 139.371 243.797 156.467H251.222C251.506 139.24 251.782 122.208 252.059 105.166C251.162 105.001 249.526 104.927 247.872 104.927ZM157.208 104.941C155.12 104.941 152.991 105.051 152.346 105.251C152.642 122.316 152.94 139.341 153.236 156.456H160.659C160.939 139.263 161.214 122.231 161.492 105.185C160.703 105.019 158.968 104.941 157.208 104.941ZM139.651 105.051C139.651 105.888 139.626 106.55 139.653 107.209C139.832 111.116 140.135 115.022 140.183 118.928C140.337 130.914 140.396 142.9 140.5 154.886C140.504 155.405 140.587 155.925 140.635 156.451H148.175C148.457 139.281 148.739 122.208 149.026 105.051H139.651ZM38.6779 104.923C38.0355 104.923 37.4091 104.971 36.8148 105.143C37.1108 122.313 37.4068 139.338 37.7028 156.426H45.3893C45.3893 147.756 45.2883 139.203 45.4145 130.655C45.5453 122.129 45.9009 113.609 46.1602 104.966C45.0956 104.966 44.1181 104.953 43.1728 104.953C42.5579 104.953 41.959 104.959 41.3602 104.98C41.2225 104.985 41.0871 104.985 40.9495 104.985C40.5686 104.985 40.1854 104.971 39.8068 104.955C39.4259 104.939 39.0496 104.923 38.6779 104.923ZM217.743 105.088C217.743 105.984 217.716 106.766 217.745 107.547C217.934 112.189 218.246 116.828 218.308 121.472C218.448 132.541 218.473 143.613 218.542 154.682C218.546 155.268 218.542 155.854 218.542 156.421H226.265C226.545 139.263 226.82 122.228 227.098 105.088H217.743ZM127.385 105.086C127.674 122.274 127.963 139.35 128.252 156.421H135.7C135.977 139.263 136.25 122.233 136.523 105.086H127.385ZM24.1195 105.095C24.1195 105.936 24.0897 106.658 24.1241 107.379C24.2985 111.286 24.6036 115.19 24.6518 119.098C24.8033 130.901 24.856 142.705 24.9455 154.507C24.9501 155.155 24.9455 155.803 24.9455 156.41H32.6504C32.9326 139.244 33.2125 122.212 33.4947 105.095H24.1195ZM215.793 144.488C198.649 144.775 181.61 145.063 164.505 145.348V152.807C181.718 153.094 198.711 153.376 215.793 153.661V144.488ZM112.741 144.488C95.5419 144.778 78.5421 145.063 61.5217 145.348V152.809C78.6522 153.094 95.6428 153.376 112.741 153.661V144.488ZM175.649 140.474C189.076 140.474 202.411 140.834 215.802 141.39V131.985C198.667 132.275 181.621 132.564 164.505 132.851V140.559C168.228 140.501 171.941 140.474 175.649 140.474ZM72.5008 140.471C85.951 140.471 99.353 140.841 112.787 141.384V131.985C95.5969 132.275 78.5926 132.564 61.4942 132.851V140.559C65.1699 140.499 68.8365 140.471 72.5008 140.471ZM175.541 127.966C188.977 127.966 202.356 128.341 215.795 128.885V119.485C198.582 119.776 181.58 120.064 164.566 120.353V128.053C168.231 127.994 171.888 127.966 175.541 127.966ZM72.6155 127.964C86.029 127.964 99.3897 128.354 112.78 128.876V119.482C95.5877 119.774 78.5811 120.064 61.4965 120.353V128.06C65.2089 127.994 68.9122 127.964 72.6155 127.964ZM215.784 106.984C198.616 107.276 181.605 107.563 164.548 107.852V115.282C181.672 115.576 198.674 115.87 215.784 116.164V106.984ZM112.748 106.984C95.5464 107.276 78.5398 107.565 61.5102 107.852V115.282C78.6408 115.576 95.6428 115.868 112.748 116.162V106.984ZM106.943 53.3415C105.778 53.3415 104.612 53.3438 103.446 53.3461C103.098 53.3484 102.747 53.4058 102.267 53.4494C102.545 70.5781 102.182 87.601 101.452 104.709C102.526 104.918 104.261 105.01 105.956 105.01C108.145 105.01 110.27 104.856 110.832 104.599C110.557 87.5275 110.284 70.5114 110.009 53.3415C108.985 53.3415 107.964 53.3415 106.943 53.3415ZM89.7735 53.3415C90.0466 70.6769 89.707 87.7366 88.9705 104.874H98.504C98.504 103.735 98.5293 102.822 98.4994 101.912C98.2746 94.6441 97.9487 87.3804 97.8363 80.1121C97.7078 71.9247 97.7744 63.7326 97.7514 55.5428C97.7491 54.8397 97.7193 54.1342 97.6987 53.3415H89.7735ZM192.823 53.4563C193.089 70.6378 192.761 87.7044 192.013 104.865H201.553C201.553 103.79 201.579 102.88 201.551 101.97C201.322 94.52 200.991 87.0725 200.874 79.6204C200.746 71.6144 200.817 63.6085 200.801 55.6003C200.799 54.8902 200.801 54.1802 200.801 53.4563H192.823ZM70.1237 53.3392C69.6258 53.3392 69.1417 53.3392 68.6552 53.3438C67.4047 53.3552 66.1519 53.3897 65.0506 53.4104C64.7844 70.6884 64.5183 87.7251 64.2544 104.865H73.5493C73.5493 103.854 73.5746 103.004 73.547 102.154C73.3291 95.2438 73.0056 88.3363 72.9023 81.4265C72.7715 72.7358 72.822 64.0451 72.7876 55.3544C72.7853 54.711 72.744 54.0653 72.7187 53.3415C71.7849 53.3415 70.9382 53.3392 70.1237 53.3392ZM82.601 53.3392C82.1054 53.3392 81.6213 53.3392 81.1371 53.3438C79.8844 53.3552 78.6316 53.3874 77.5624 53.4081C77.2824 70.6815 77.0048 87.7205 76.7272 104.863H86.0152C86.0152 103.735 86.0382 102.76 86.0106 101.788C85.7949 94.7567 85.4737 87.7274 85.3682 80.6935C85.242 72.2486 85.297 63.8015 85.2695 55.3544C85.2672 54.711 85.2236 54.0653 85.1961 53.3415C84.2645 53.3415 83.4156 53.3392 82.601 53.3392ZM185.696 53.3392C185.194 53.3392 184.703 53.3415 184.212 53.3438C182.954 53.3552 181.697 53.3828 180.609 53.4012C180.33 70.6631 180.054 87.7044 179.774 104.849H189.062C189.062 103.762 189.087 102.788 189.06 101.818C188.844 94.9061 188.518 87.9986 188.417 81.0887C188.291 72.5221 188.344 63.9509 188.314 55.3843C188.312 54.7363 188.273 54.0906 188.245 53.3415C187.334 53.3415 186.499 53.3392 185.696 53.3392ZM173.212 53.3392C172.71 53.3392 172.219 53.3415 171.727 53.3438C170.472 53.3552 169.217 53.3851 167.859 53.4104C168.027 70.3276 167.9 87.0242 167.074 103.705C167.061 104.006 167.074 104.309 167.074 104.847H176.59C176.59 103.815 176.615 102.905 176.585 101.993C176.369 95.1451 176.05 88.2996 175.949 81.4495C175.819 72.7611 175.867 64.0704 175.835 55.3797C175.83 54.7317 175.791 54.086 175.768 53.3415C174.853 53.3415 174.017 53.3392 173.212 53.3392ZM205.314 53.4426C205.594 70.6654 205.222 87.6883 204.499 104.84H213.882C213.606 87.6906 213.333 70.6171 213.058 53.4426H205.314ZM215.894 93.5802C215.894 95.3289 215.889 96.8501 215.896 98.369C215.901 99.9293 215.914 101.49 215.926 102.93C233.226 102.632 250.27 102.335 267.382 102.039V94.3178C262.13 94.3178 256.912 94.3523 251.708 94.3523C248.374 94.3523 245.047 94.3385 241.72 94.2902C233.151 94.1684 224.59 93.8283 215.894 93.5802ZM112.945 93.7479V102.926C130.108 102.629 147.158 102.337 164.312 102.041V94.6211C147.138 94.3293 130.09 94.0397 112.945 93.7479ZM112.847 81.0405C112.847 82.8259 112.842 84.3472 112.849 85.8684C112.854 87.4263 112.867 88.9866 112.879 90.4297C130.184 90.1287 147.229 89.8323 164.33 89.5359V81.9137C160.762 81.9137 157.231 81.9297 153.716 81.9297C151.499 81.9297 149.29 81.9229 147.083 81.9045C141.408 81.8562 135.734 81.7574 130.062 81.6126C124.365 81.4656 118.67 81.2381 112.847 81.0405ZM112.922 68.7512V77.9268C130.138 77.6281 147.188 77.3316 164.282 77.0352V69.6152C147.087 69.3257 130.044 69.0385 112.922 68.7512ZM112.948 56.0047V65.5617C113.498 65.5617 114.01 65.5732 114.508 65.5732C114.802 65.5732 115.088 65.5686 115.375 65.5571C119.154 65.4147 122.931 65.1665 126.712 65.1183C138.795 64.9643 150.878 64.8793 162.963 64.7621C163.422 64.7575 163.878 64.6587 164.36 64.6012V56.8526C160.712 56.9032 157.073 56.9262 153.438 56.9262C139.905 56.9262 126.451 56.593 112.948 56.0047ZM127.164 1.88431C127.164 2.71616 127.137 3.43773 127.169 4.15468C127.346 8.06342 127.648 11.9676 127.699 15.8763C127.85 27.6784 127.903 39.4804 127.993 51.2825C127.997 51.9328 127.993 52.5831 127.993 53.2771H135.7C135.977 36.0566 136.25 19.0267 136.526 1.88431H127.164ZM114.696 1.89812C114.696 2.80579 114.669 3.58937 114.698 4.37067C114.889 9.01474 115.201 13.6543 115.261 18.2983C115.401 29.3651 115.426 40.4364 115.497 51.5054C115.501 52.0891 115.529 52.6705 115.547 53.2725H123.22C123.495 36.0428 123.773 19.0107 124.048 1.89812H114.696ZM152.344 1.89351C152.642 19.0934 152.94 36.1186 153.236 53.2266H160.657C160.939 36.0795 161.221 19.052 161.503 1.89351H152.344ZM139.86 1.87971C140.158 19.1301 140.454 36.1531 140.75 53.2151H148.175C148.457 36.0566 148.737 19.0244 149.021 1.87971H139.86ZM215.795 41.2866C198.651 41.5738 181.612 41.8611 164.505 42.1483V49.6028C181.715 49.89 198.708 50.1749 215.795 50.4599V41.2866ZM112.576 41.2912C95.535 41.5761 78.5375 41.8611 61.384 42.1483C61.384 43.4214 61.3817 44.6944 61.384 45.9651C61.3863 47.2221 61.3932 48.4814 61.3978 49.6028C78.6109 49.89 95.5625 50.1726 112.652 50.4576C112.998 48.5664 112.929 42.4264 112.576 41.2912ZM175.704 37.2722C189.078 37.2722 202.402 37.6329 215.788 38.1913V28.7837C198.614 29.0755 181.607 29.3627 164.56 29.65V37.3595C168.281 37.2997 171.994 37.2722 175.704 37.2722ZM72.7807 37.2722C86.1322 37.2722 99.3851 37.6375 112.617 38.1844C112.989 36.068 112.925 29.9119 112.594 28.7883C95.5464 29.0755 78.5421 29.3627 61.4598 29.65V37.3641C65.2434 37.302 69.0155 37.2722 72.7807 37.2722ZM175.412 24.7623C188.899 24.7623 202.338 25.1461 215.77 25.6723V16.2831C198.644 16.5726 181.633 16.8621 164.431 17.154C164.431 19.1715 164.424 21.235 164.436 23.2986C164.438 23.7696 164.502 24.2407 164.548 24.8497C168.173 24.7899 171.794 24.7623 175.412 24.7623ZM215.896 3.78009C198.593 4.07422 181.587 4.36147 164.431 4.65331V12.0779C181.688 12.3743 198.69 12.6684 215.793 12.9625C215.825 12.604 215.889 12.1904 215.889 11.7768C215.901 9.09746 215.896 6.41809 215.896 3.78009ZM12.4108 150.067L9.68039 145.329V144.35L9.11367 144.346L7.36069 141.305C8.14081 141.335 8.92092 141.358 9.70104 141.39V131.985C7.14499 132.031 4.61418 132.072 2.06503 132.116L0 128.536C3.2398 128.642 6.4773 128.752 9.72398 128.881V119.482C7.62224 119.519 5.53656 119.553 3.44171 119.588L5.45856 116.093C6.86966 116.116 8.28075 116.141 9.69415 116.164V108.744L11.6353 105.378C11.6307 106.016 11.6192 106.596 11.6376 107.161C11.7615 110.337 11.9703 113.51 12.0162 116.688C12.1722 127.814 12.2892 138.941 12.4108 150.067Z" fill="#828282" fill-opacity="0.1"/>
<mask id="mask0" mask-type="alpha" maskUnits="userSpaceOnUse" x="77" y="25" width="255" height="294">
<path d="M204.21 25.7211L331.111 98.9873V245.52L204.21 318.786L77.3093 245.52V98.9873L204.21 25.7211Z" fill="#C4C4C4"/>
</mask>
<g mask="url(#mask0)">
<path d="M204.21 25.7211L331.111 98.9873V245.52L204.21 318.786L77.3093 245.52V98.9873L204.21 25.7211Z" fill="#F2F2F2"/>
<path d="M206.362 235.796C206.362 235.796 233.527 290.753 241.066 341.315C241.066 341.315 261.476 338.174 268.073 322.159C268.073 322.159 260.221 297.349 249.857 274.424C239.495 251.498 235.097 242.391 235.097 242.391C235.097 242.391 265.246 221.751 278.751 209.461C292.254 197.169 297.278 174.678 301.361 161.272C305.443 147.865 312.666 122.098 312.666 122.098C312.666 122.098 302.303 115.519 292.567 114.576C292.567 114.576 270.27 158.856 266.817 164.038C263.362 169.22 263.362 169.22 263.362 169.22C263.362 169.22 255.233 168.615 254.743 171.744C254.255 174.872 252.842 178.27 252.842 178.27L206.362 235.796Z" fill="#2B2C5A"/>
<path d="M181.726 255.799C167.539 266.68 151.653 278.011 145.753 279.849C147.774 287.551 150.231 298.372 150.935 307.712C152.19 324.356 148.433 340.687 148.433 340.687C170.742 346.653 196.624 343.199 196.624 343.199C197.092 301.118 181.73 255.798 181.73 255.798L181.726 255.799Z" fill="#2B2C5A"/>
<path d="M206.362 235.796C203.014 238.944 192.888 247.238 181.711 255.809C181.715 255.806 181.721 255.802 181.726 255.799L181.73 255.798C181.73 255.798 197.092 301.118 196.624 343.199C196.624 343.199 229.989 344.91 241.066 341.316C233.527 290.753 206.362 235.796 206.362 235.796Z" fill="#FBCA3E"/>
<path d="M188.641 344.625C188.628 344.625 188.613 344.625 188.601 344.623C188.203 344.602 187.895 344.26 187.919 343.863C189.795 309.762 174.426 261.703 174.271 261.22C174.148 260.841 174.356 260.435 174.735 260.312C175.115 260.187 175.522 260.398 175.646 260.777C175.802 261.26 191.255 309.578 189.363 343.941C189.34 344.326 189.022 344.625 188.641 344.625Z" fill="#353D74"/>
<path d="M247.628 340.282C247.23 340.282 246.906 339.961 246.905 339.562C246.796 307.252 211.523 231.762 211.168 231.004C210.997 230.643 211.153 230.211 211.514 230.042C211.879 229.874 212.306 230.029 212.476 230.388C212.834 231.15 248.242 306.929 248.351 339.556C248.352 339.957 247.989 340.23 247.628 340.282Z" fill="#353D74"/>
<path d="M235.097 243.114C234.823 243.114 234.562 242.958 234.44 242.694L229.068 230.997C228.902 230.635 229.06 230.205 229.422 230.039C229.781 229.872 230.214 230.031 230.382 230.394L235.755 242.09C235.921 242.452 235.762 242.881 235.399 243.048C235.301 243.093 235.199 243.114 235.097 243.114Z" fill="#353D74"/>
</g>
<mask id="mask1" mask-type="alpha" maskUnits="userSpaceOnUse" x="335" y="25" width="255" height="294">
<path d="M462.201 25.7211L589.101 98.9873V245.52L462.201 318.786L335.3 245.52V98.9873L462.201 25.7211Z" fill="#C4C4C4"/>
</mask>
<g mask="url(#mask1)">
<path d="M462.201 25.7211L589.101 98.9873V245.52L462.201 318.786L335.3 245.52V98.9873L462.201 25.7211Z" fill="#F2F2F2"/>
</g>
<mask id="mask2" mask-type="alpha" maskUnits="userSpaceOnUse" x="335" y="25" width="255" height="294">
<path d="M462.201 25.7211L589.101 98.9873V245.52L462.201 318.786L335.3 245.52V98.9873L462.201 25.7211Z" fill="#C4C4C4"/>
</mask>
<g mask="url(#mask2)">
<path d="M400.371 226.953L418.461 240.234C418.461 240.234 390.178 293.641 385.817 321.375C385.817 321.375 446.375 358.769 503.974 339.449C503.974 339.449 494.913 323.555 499.885 308.288C504.856 293.017 510.968 270.58 510.968 270.58L437.546 212.78L419.705 194.077C419.705 194.077 406.199 203.271 400.371 226.953Z" fill="#16B1B3"/>
</g>
<path d="M319.683 33.1586C319.292 33.1586 318.932 32.9052 318.814 32.5129L314.667 18.7252C314.524 18.2459 314.794 17.7407 315.275 17.5972C315.755 17.4522 316.259 17.7254 316.404 18.2032L320.551 31.9908C320.696 32.4701 320.423 32.9754 319.944 33.1204C319.857 33.1464 319.768 33.1586 319.683 33.1586Z" fill="white"/>
<path d="M333.492 30.402C332.991 30.402 332.585 29.9959 332.585 29.4938V16.4952C332.585 15.9945 332.991 15.5885 333.492 15.5885C333.994 15.5885 334.399 15.9945 334.399 16.4952V29.4938C334.399 29.9959 333.994 30.402 333.492 30.402Z" fill="white"/>
<path d="M348.682 33.1586C348.534 33.1586 348.385 33.1219 348.246 33.0456C347.806 32.8044 347.648 32.2534 347.89 31.8138L354.193 20.3904C354.435 19.9523 354.983 19.7921 355.424 20.0333C355.862 20.2775 356.023 20.8285 355.782 21.2666L349.478 32.6899C349.313 32.9891 349.003 33.1586 348.682 33.1586Z" fill="white"/>
<path d="M550.675 238.505H552.883V60.0159H550.675V238.505ZM581.273 238.505H583.479V60.0159H581.273V238.505ZM543.025 238.505H545.233V60.0159H543.025V238.505ZM558.324 238.505H560.532V60.0159H558.324V238.505ZM573.623 238.505H575.831V60.0159H573.623V238.505ZM565.974 238.505H568.18V60.0159H565.974V238.505ZM535.376 231.42L537.584 235.252V63.2686L535.376 67.1001V231.42ZM489.48 151.777L491.687 155.608V142.913L489.48 146.744V151.777ZM497.129 165.051L499.337 168.882V129.638L497.129 133.47V165.051ZM504.78 178.325L506.986 182.157V116.364L504.78 120.196V178.325ZM520.077 204.872L522.285 208.704V89.8171L520.077 93.6486V204.872ZM527.727 218.146L529.935 221.978V76.5429L527.727 80.3744V218.146ZM512.428 191.598L514.635 195.429V103.091L512.428 106.923V191.598ZM588.922 238.505H591.13V60.0159H588.922V238.505ZM657.767 211.695L659.975 207.863V90.6576L657.767 86.8261V211.695ZM650.117 224.969L652.324 221.137V77.3833L650.117 73.5518V224.969ZM688.363 139.922V158.599L690.573 154.768V143.753L688.363 139.922ZM673.064 185.148L675.272 181.315V117.205L673.064 113.373V185.148ZM642.468 238.243L644.676 234.41V64.1106L642.468 60.2791V238.243ZM680.715 171.873L682.924 168.042V130.479L680.715 126.647V171.873ZM665.416 198.42L667.625 194.589V103.932L665.416 100.1V198.42ZM611.87 238.505H614.078V60.0159H611.87V238.505ZM604.221 238.505H606.429V60.0159H604.221V238.505ZM634.819 238.505H637.027V60.0159H634.819V238.505ZM596.571 238.505H598.779V60.0159H596.571V238.505ZM627.169 238.505H629.377V60.0159H627.169V238.505ZM619.519 238.505H621.726V60.0159H619.519V238.505Z" fill="#F2C94C"/>
<path d="M626.188 339L599.19 309.318L572.159 339L540.923 304.663L549.415 296.948L572.159 321.968L599.19 292.285L626.188 321.968L648.973 296.948L657.449 304.663L626.188 339Z" fill="url(#paint0_linear)"/>
<path d="M58.0658 14.0297L35.8538 52.5018H80.2811L58.0658 14.0297ZM58.0658 24.2516L71.4282 47.3924H44.7067L58.0658 24.2516Z" fill="url(#paint1_linear)"/>
<path d="M564.551 170.533C560.345 158.146 549.828 157.68 549.828 157.68C549.828 157.68 553.567 149.966 547.023 139.735C540.479 129.504 525.287 131.035 525.287 131.035C525.287 131.035 524.12 117.947 508.627 115.142C493.135 112.338 485.789 124.257 485.789 124.257C485.789 124.257 472.702 116.544 460.548 124.257C448.395 131.969 450.936 146.46 450.936 146.46C450.936 146.46 440.214 147.395 436.242 161.651C432.269 175.908 436.242 185.024 436.242 185.024C432.035 187.593 430.371 194.504 430.371 194.504L440.824 199.921L457.963 206.525C457.963 206.525 458.016 206.551 458.103 206.592L458.352 206.709C459.011 207.021 460.49 207.719 462.559 208.698L464.018 209.387C464.018 209.387 518.839 220.12 538.335 214.783C557.833 209.445 553.8 190.633 553.8 190.633C553.8 190.633 568.759 182.92 564.551 170.533Z" fill="#6D2822"/>
<path d="M389.5 168.32C378.28 153.005 357.103 107.162 357.103 107.162L357.115 107.143C357.115 107.143 354.661 90.1345 352.791 78.2148C350.92 66.2964 349.636 56.4791 348.468 53.7908C347.299 51.1038 344.144 52.39 343.793 53.7908C343.793 53.7908 341.689 52.7402 340.404 55.7787C339.118 58.8159 339.469 72.6051 339.469 72.6051C339.469 72.6051 337.248 69.5679 334.912 70.5026C332.574 71.4374 332.458 78.4491 333.277 81.1361C334.094 83.8244 335.846 88.1479 335.496 91.4194C335.146 94.6922 334.211 99.9504 335.612 103.925C337.014 107.897 340.041 112.784 340.041 112.784C340.041 112.784 359.116 182.101 362.387 193.145C365.659 204.188 400.313 227.248 400.313 227.248C400.313 227.248 404.456 206.759 419.648 194.372C419.648 194.372 400.716 183.633 389.5 168.32Z" fill="#CE715C"/>
<path d="M532.934 247.971C529.375 240.023 520.131 235.973 520.131 235.973C518.393 235.084 457.963 206.525 457.963 206.525L440.824 199.921L430.371 194.504C430.371 194.504 416.245 186.075 410.285 182.687C404.325 179.298 387.693 172.557 382.55 171.312C377.409 170.065 373.668 168.663 371.021 167.885C368.372 167.106 366.813 167.885 366.503 169.443C366.191 171.001 369.307 173.649 369.307 173.649L376.629 178.791C376.629 178.791 375.539 182.063 379.278 184.089C383.018 186.114 388.939 188.607 391.431 190.633C393.924 192.658 396.574 199.514 401.871 202.163C407.17 204.811 422.437 208.906 422.437 208.906L430.371 217.728C430.371 217.728 438.642 227.715 446.433 235.038C454.223 242.362 498.941 277.731 507.51 278.976C516.08 280.224 529.947 276.952 532.934 273.991C535.92 271.03 536.492 255.918 532.934 247.971Z" fill="#CE715C"/>
<path d="M400.313 185.741C400.236 185.741 400.156 185.728 400.079 185.702C399.949 185.657 386.969 181.178 382.987 180.106C379.169 179.08 376.783 179.494 376.761 179.496C376.362 179.572 375.999 179.309 375.925 178.92C375.853 178.531 376.109 178.159 376.499 178.087C376.606 178.066 379.199 177.598 383.361 178.723C387.389 179.805 400.012 184.16 400.546 184.344C400.92 184.473 401.12 184.884 400.991 185.258C400.889 185.554 400.61 185.741 400.313 185.741Z" fill="#893D38"/>
<path d="M370.717 175.356C370.44 175.356 370.178 175.197 370.06 174.927C370.006 174.801 368.714 171.82 369.233 169.736C369.728 167.763 371.637 167.493 372.58 167.625C372.972 167.681 373.244 168.045 373.189 168.437C373.133 168.828 372.76 169.095 372.381 169.045C372.227 169.028 370.923 168.896 370.626 170.082C370.293 171.416 371.054 173.616 371.374 174.352C371.532 174.715 371.367 175.138 371.005 175.296C370.912 175.338 370.813 175.356 370.717 175.356Z" fill="#893D38"/>
<path d="M521.689 179.102C521.689 179.102 517.42 188.452 506.045 188.486C494.671 188.52 489.062 177.388 489.062 177.388C483.687 181.828 476.894 194.605 476.894 194.605L472.453 192.737C472.453 192.737 474.791 184.322 473.155 180.116C471.518 175.908 463.339 170.767 457.964 182.687C452.588 194.605 460.535 200.682 460.535 200.682L457.964 206.525L520.131 235.973C545.841 219.146 543.503 188.919 543.503 188.919C525.96 194.528 521.689 179.102 521.689 179.102Z" fill="#CE715C"/>
<path d="M519.509 210.576C519.309 212.969 519.288 215.327 519.376 217.665C519.477 220.003 519.717 222.322 520.175 224.606L520.296 225.211L519.763 225.389C518.98 225.65 518.257 225.8 517.492 225.91C516.734 226 515.969 226.03 515.211 225.986C513.695 225.908 512.197 225.477 510.911 224.756C511.643 224.888 512.346 225.046 513.069 225.068C513.786 225.102 514.496 225.109 515.2 225.036C515.903 224.978 516.602 224.88 517.284 224.715C517.96 224.572 518.663 224.365 519.252 224.12L518.842 224.905C518.585 223.716 518.324 222.52 518.235 221.305C518.103 220.095 518.077 218.876 518.127 217.665C518.17 216.453 518.303 215.245 518.527 214.058C518.759 212.872 519.055 211.695 519.509 210.576Z" fill="#893D38"/>
<path d="M530.258 226.234C530.118 226.234 529.977 226.195 529.853 226.108C529.528 225.884 529.444 225.438 529.666 225.111C529.706 225.056 533.479 219.462 531.775 215.205C531.396 214.261 530.752 213.799 529.803 213.793C529.796 213.793 529.787 213.793 529.781 213.793C527.207 213.793 523.357 217.007 522.353 219.423C522.2 219.789 521.772 219.955 521.413 219.808C521.048 219.657 520.876 219.236 521.027 218.87C522.253 215.93 526.525 212.358 529.782 212.358C529.791 212.358 529.803 212.358 529.814 212.358C531.345 212.368 532.514 213.19 533.106 214.673C535.097 219.645 531.026 225.668 530.85 225.924C530.71 226.125 530.486 226.234 530.258 226.234Z" fill="#5C263D"/>
<path d="M509.447 215.501C509.321 215.501 509.194 215.467 509.08 215.398C508.739 215.195 508.629 214.753 508.832 214.415C508.882 214.329 513.852 205.921 510.365 201.85C509.676 201.046 508.831 200.648 507.782 200.639C507.77 200.639 507.755 200.639 507.741 200.639C504.314 200.639 499.459 204.724 496.049 208.559C495.783 208.855 495.33 208.879 495.038 208.619C494.739 208.356 494.714 207.902 494.977 207.606C496.741 205.624 502.87 199.184 507.795 199.205C509.261 199.218 510.494 199.796 511.455 200.917C515.613 205.772 510.291 214.773 510.063 215.153C509.927 215.376 509.69 215.501 509.447 215.501Z" fill="#5C263D"/>
<path d="M532.207 205.98C532.207 205.98 535.323 208.006 536.258 210.576C537.192 213.147 540.152 210.673 539.452 207.352C538.751 204.033 535.323 200.449 533.531 200.683C531.739 200.915 530.415 202.396 530.415 203.253C530.415 204.11 532.207 205.98 532.207 205.98Z" fill="#6D2822"/>
<path d="M506.415 194.811C506.415 194.811 510.044 194 512.534 195.132C515.025 196.261 515.328 192.415 512.466 190.594C509.602 188.772 504.645 188.714 503.557 190.158C502.471 191.601 502.603 193.582 503.215 194.183C503.827 194.782 506.415 194.811 506.415 194.811Z" fill="#6D2822"/>
<path d="M494.939 224.76C494.796 224.76 494.652 224.716 494.527 224.627C494.382 224.524 490.988 222.035 492.319 215.88C492.404 215.494 492.78 215.241 493.172 215.33C493.561 215.413 493.806 215.794 493.721 216.181C492.6 221.366 495.249 223.376 495.362 223.46C495.679 223.692 495.751 224.14 495.522 224.46C495.38 224.655 495.162 224.76 494.939 224.76Z" fill="#5C263D"/>
<path d="M464.018 181.752C465.404 181.141 467.373 181.473 468.469 182.85C468.748 183.178 468.975 183.519 469.158 183.918L469.375 184.597C469.409 184.818 469.417 185.037 469.434 185.259C469.447 186.129 469.255 186.925 469.02 187.679C468.505 189.175 467.778 190.533 466.93 191.802C466.086 193.07 465.133 194.26 464.018 195.307C464.646 193.915 465.319 192.583 465.959 191.248C466.584 189.91 467.22 188.581 467.656 187.234C467.895 186.568 468.052 185.886 468.081 185.261C468.078 185.109 468.093 184.949 468.086 184.801C468.052 184.669 468.023 184.536 467.999 184.398C467.893 184.11 467.745 183.794 467.578 183.521C466.916 182.397 465.547 181.753 464.018 181.752Z" fill="#893D38"/>
<path d="M520.13 236.691C520.02 236.691 519.908 236.666 519.804 236.614C518.095 235.74 458.26 207.46 457.655 207.173L440.567 200.591L430.04 195.142C429.862 195.037 415.815 186.656 409.93 183.309C403.818 179.834 387.347 173.212 382.381 172.008C378.78 171.136 375.871 170.192 373.534 169.429C372.522 169.102 371.62 168.808 370.819 168.572C369.549 168.201 368.504 168.208 367.872 168.588C367.519 168.801 367.295 169.136 367.206 169.583C367.055 170.33 368.598 172.107 369.771 173.101L377.043 178.203C377.301 178.386 377.41 178.716 377.311 179.019C377.277 179.124 376.482 181.757 379.62 183.458C380.847 184.123 382.295 184.831 383.831 185.58C386.939 187.1 390.155 188.67 391.884 190.075C392.867 190.874 393.812 192.272 394.908 193.892C396.72 196.576 398.977 199.915 402.192 201.521C403.76 202.304 406.401 203.303 410.041 204.489C410.417 204.613 410.623 205.019 410.5 205.397C410.378 205.772 409.979 205.978 409.595 205.855C405.889 204.645 403.181 203.621 401.551 202.804C397.999 201.028 395.626 197.516 393.719 194.697C392.689 193.171 391.797 191.854 390.979 191.189C389.377 189.887 386.237 188.353 383.201 186.869C381.653 186.112 380.189 185.399 378.936 184.719C375.958 183.105 375.565 180.582 375.818 179.098L368.893 174.236C368.268 173.707 365.423 171.179 365.8 169.302C365.968 168.457 366.428 167.785 367.128 167.36C368.127 166.758 369.541 166.702 371.224 167.197C372.037 167.435 372.951 167.732 373.978 168.067C376.289 168.82 379.171 169.755 382.721 170.614C387.759 171.837 404.451 178.542 410.639 182.063C416.537 185.417 430.596 193.803 430.738 193.889L441.154 199.284L458.22 205.855C460.737 207.044 518.728 234.451 520.457 235.335C520.811 235.516 520.951 235.948 520.77 236.3C520.643 236.549 520.392 236.691 520.13 236.691Z" fill="#893D38"/>
<path d="M417.92 242.3C417.819 242.3 417.718 242.279 417.62 242.234C417.261 242.068 417.103 241.643 417.267 241.283L422.599 229.677C422.765 229.319 423.189 229.161 423.551 229.326C423.91 229.49 424.067 229.917 423.903 230.276L418.572 241.882C418.451 242.144 418.191 242.3 417.92 242.3Z" fill="#0FA39C"/>
<path d="M345.546 90.2675C345.229 90.2675 344.939 90.0555 344.852 89.7343C344.849 89.7185 344.367 87.9504 342.658 83.6204C340.917 79.2127 338.81 72.8961 338.787 72.8329C338.662 72.4577 338.866 72.0522 339.242 71.9258C339.618 71.8007 340.025 72.0035 340.15 72.38C340.171 72.4419 342.267 78.723 343.991 83.0925C345.74 87.5212 346.22 89.2919 346.239 89.3643C346.341 89.7475 346.114 90.1398 345.731 90.2425C345.669 90.2596 345.608 90.2675 345.546 90.2675Z" fill="#893D38"/>
<path d="M107.943 189.981C107.943 189.981 105.586 220.443 131.496 237.4L194.146 207.723L191.555 201.837C191.555 201.837 199.563 195.711 194.146 183.7C188.729 171.688 180.486 176.869 178.837 181.109C177.188 185.348 179.544 193.828 179.544 193.828L175.069 195.711C175.069 195.711 172.478 190.766 167.061 186.291C167.061 186.291 150.573 198.067 133.144 196.418C115.715 194.769 107.943 189.981 107.943 189.981Z" fill="#F7967B"/>
<path d="M107.942 189.981C107.942 189.981 115.714 194.769 133.144 196.418C150.573 198.067 167.061 186.291 167.061 186.291C172.478 190.765 175.069 195.711 175.069 195.711L179.544 193.828C179.544 193.828 177.188 185.348 178.837 181.109C179.929 178.303 183.908 175.09 188.044 176.715L187.788 175.221C187.788 175.221 172.949 165.327 146.333 167.918C119.719 170.51 98.0502 181.344 98.0502 181.344C98.0502 181.344 94.5171 191.708 98.0502 201.364C101.582 211.022 112.471 214.492 112.471 214.492L112.472 214.491C107.052 201.607 107.942 189.981 107.942 189.981Z" fill="#B71978"/>
<path d="M96.5749 189.349V189.348C96.9132 184.691 98.0503 181.344 98.0503 181.344C98.0503 181.344 110.649 175.05 128.426 170.909C129.572 170.62 130.757 170.36 131.982 170.122C132.041 170.112 132.102 170.1 132.161 170.086C132.573 170.008 132.965 169.914 133.388 169.841C133.401 169.838 133.417 169.837 133.432 169.834C137.542 169.025 141.866 168.354 146.333 167.918C146.479 167.904 146.618 167.897 146.763 167.883C166.047 165.398 188.044 163.68 188.044 163.68C188.044 163.68 184.019 152.609 172.713 142.481C161.409 132.354 135.971 131.883 118.542 141.068C101.111 150.254 94.0462 170.51 93.5752 180.167C93.1042 189.823 96.5749 189.349 96.5749 189.349Z" fill="#FBCA3E"/>
<path d="M100.876 172.866C100.876 172.866 101.975 160.146 110.141 156.535C118.306 152.922 124.901 162.188 125.058 164.7C125.214 167.213 99.149 176.476 100.876 172.866Z" fill="#B71978"/>
<path d="M217.936 164.7C201.919 161.716 188.044 163.68 188.044 163.68C182.647 164.151 146.333 167.919 146.333 167.919C172.949 165.327 187.788 175.221 187.788 175.221L188.044 176.715C190.159 177.545 192.315 179.636 194.146 183.7C195.23 186.1 195.759 188.256 195.941 190.185C198.844 189.206 204.503 187.452 212.754 185.584C225.237 182.758 233.951 167.682 217.936 164.7Z" fill="#434FAA"/>
<path d="M188.044 182.758C186.504 182.759 185.124 183.408 184.457 184.541C184.288 184.816 184.14 185.134 184.032 185.425C184.01 185.564 183.979 185.698 183.945 185.831C183.938 185.979 183.953 186.141 183.95 186.294C183.979 186.924 184.138 187.611 184.379 188.283C184.818 189.64 185.458 190.98 186.089 192.328C186.735 193.673 187.411 195.016 188.044 196.418C186.921 195.363 185.96 194.164 185.11 192.886C184.255 191.607 183.523 190.238 183.004 188.731C182.767 187.971 182.573 187.17 182.586 186.293C182.603 186.068 182.611 185.848 182.647 185.625L182.866 184.941C183.049 184.539 183.277 184.195 183.559 183.865C184.664 182.477 186.647 182.142 188.044 182.758Z" fill="#DF5443"/>
<path d="M132.122 211.806C132.58 212.933 132.878 214.12 133.112 215.315C133.338 216.512 133.472 217.728 133.515 218.95C133.566 220.171 133.539 221.399 133.407 222.619C133.316 223.843 133.054 225.048 132.795 226.246L132.381 225.455C132.975 225.702 133.684 225.91 134.364 226.055C135.052 226.221 135.756 226.32 136.465 226.379C137.174 226.452 137.89 226.445 138.613 226.41C139.341 226.388 140.051 226.229 140.788 226.096C139.491 226.823 137.981 227.257 136.454 227.335C135.69 227.38 134.919 227.35 134.155 227.26C133.384 227.148 132.656 226.997 131.866 226.734L131.329 226.555L131.452 225.945C131.913 223.643 132.154 221.307 132.258 218.95C132.346 216.594 132.324 214.218 132.122 211.806Z" fill="#DF5443"/>
<path d="M121.29 227.586C121.06 227.586 120.833 227.476 120.693 227.273C120.517 227.015 116.415 220.946 118.42 215.935C119.017 214.441 120.196 213.611 121.738 213.602C121.75 213.602 121.759 213.602 121.77 213.602C125.052 213.602 129.358 217.2 130.593 220.164C130.747 220.533 130.573 220.958 130.204 221.11C129.838 221.26 129.412 221.092 129.258 220.721C128.244 218.287 124.365 215.048 121.771 215.048C121.763 215.048 121.757 215.048 121.75 215.048C120.792 215.054 120.143 215.519 119.763 216.471C118.042 220.773 121.847 226.397 121.885 226.453C122.111 226.783 122.027 227.233 121.698 227.459C121.572 227.546 121.43 227.586 121.29 227.586Z" fill="#5C263D"/>
<path d="M142.263 216.769C142.017 216.769 141.778 216.643 141.642 216.417C141.412 216.035 136.051 206.964 140.238 202.071C141.206 200.942 142.448 200.36 143.928 200.347C143.945 200.347 143.962 200.347 143.979 200.347C148.931 200.347 155.075 206.822 156.845 208.813C157.11 209.111 157.084 209.569 156.784 209.834C156.487 210.096 156.033 210.072 155.763 209.773C152.329 205.908 147.436 201.792 143.981 201.792C143.967 201.792 143.953 201.792 143.941 201.792C142.883 201.801 142.03 202.201 141.337 203.012C137.823 207.114 142.832 215.588 142.882 215.674C143.088 216.015 142.976 216.461 142.633 216.666C142.517 216.735 142.39 216.769 142.263 216.769Z" fill="#5C263D"/>
<path d="M156.882 226.1C156.655 226.1 156.432 225.994 156.29 225.793C156.059 225.471 156.136 225.021 156.459 224.788C156.579 224.7 159.239 222.672 158.11 217.455C158.025 217.065 158.272 216.68 158.664 216.597C159.058 216.508 159.438 216.762 159.523 217.151C160.866 223.354 157.444 225.862 157.298 225.966C157.171 226.056 157.026 226.1 156.882 226.1Z" fill="#5C263D"/>
<path d="M119.326 207.174C119.326 207.174 116.185 209.216 115.243 211.806C114.301 214.397 111.318 211.904 112.025 208.557C112.732 205.212 116.185 201.6 117.991 201.837C119.797 202.07 121.132 203.563 121.132 204.426C121.132 205.29 119.326 207.174 119.326 207.174Z" fill="#B71978"/>
<path d="M131.496 237.4C131.496 237.4 122.18 241.482 118.594 249.492C115.009 257.5 115.585 272.729 118.594 275.713C121.603 278.697 135.579 281.995 144.214 280.737C152.85 279.483 197.915 243.838 205.766 236.458C213.617 229.078 222.882 220.593 222.882 220.593C222.882 220.593 217.858 205.404 211.419 201.068L194.146 207.723C194.146 207.723 133.247 236.504 131.496 237.4Z" fill="#2B2C5A"/>
<path d="M221.233 194.416C221.233 194.416 219.465 193.71 216.405 195.123C213.342 196.536 210.438 197.945 211.419 201.068C217.857 205.404 222.882 220.593 222.882 220.593C225.119 220.089 230.89 218.832 231.832 216.046C232.774 213.259 221.233 194.416 221.233 194.416Z" fill="#353D74"/>
<path d="M221.953 195.609C221.953 195.609 236.189 187.115 242.195 183.7C248.201 180.285 264.962 173.492 270.146 172.237C275.326 170.981 279.096 169.568 281.765 168.784C284.433 167.998 286.004 168.784 286.317 170.353C286.632 171.924 283.491 174.592 283.491 174.592L276.112 179.774C276.112 179.774 277.21 183.071 273.443 185.113C269.673 187.154 263.707 189.666 261.195 191.708C258.683 193.749 256.013 200.658 250.674 203.328C245.336 205.996 229.948 210.123 229.948 210.123C229.948 210.123 224.638 199.824 221.953 195.609Z" fill="#F7967B"/>
<path d="M315.328 115.238C313.56 112.137 300.371 108.093 296.956 107.624C293.54 107.151 291.539 109.86 291.068 111.744C290.597 113.628 291.97 115.238 291.97 115.238C301.706 116.181 312.069 122.76 312.069 122.76C316.348 123.531 317.093 118.34 315.328 115.238Z" fill="#353D74"/>
<path d="M318.154 70.6446C315.799 69.7026 313.561 72.7634 313.561 72.7634C313.561 72.7634 313.915 58.8672 312.619 55.8064C311.324 52.7443 309.204 53.803 309.204 53.803C308.851 52.3913 305.67 51.0951 304.492 53.803C303.315 56.5122 302.021 66.4057 300.135 78.4166C298.251 90.4289 295.778 107.569 295.778 107.569L295.792 107.589C296.159 107.561 296.546 107.566 296.956 107.623C299.674 107.998 308.556 110.631 312.974 113.254H312.985C312.985 113.254 316.035 108.329 317.448 104.327C318.86 100.321 317.919 95.0221 317.566 91.7238C317.212 88.4269 318.978 84.0699 319.803 81.3607C320.628 78.6528 320.51 71.5866 318.154 70.6446Z" fill="#F7967B"/>
<path d="M252.245 186.778C251.945 186.778 251.664 186.59 251.56 186.291C251.43 185.914 251.632 185.5 252.009 185.37C252.548 185.185 265.268 180.796 269.328 179.705C273.522 178.572 276.136 179.043 276.243 179.064C276.636 179.137 276.895 179.512 276.822 179.904C276.747 180.296 276.373 180.562 275.979 180.484C275.957 180.48 273.554 180.063 269.705 181.1C265.692 182.18 252.611 186.693 252.48 186.738C252.403 186.765 252.322 186.778 252.245 186.778Z" fill="#DF5443"/>
<path d="M282.07 176.313C281.973 176.313 281.875 176.294 281.78 176.252C281.415 176.091 281.249 175.665 281.408 175.3C281.731 174.559 282.499 172.342 282.162 170.998C281.853 169.757 280.456 169.943 280.397 169.952C280.008 170.004 279.636 169.733 279.58 169.339C279.524 168.944 279.799 168.578 280.195 168.521C281.133 168.388 283.067 168.656 283.565 170.649C284.089 172.748 282.787 175.753 282.732 175.88C282.613 176.152 282.349 176.313 282.07 176.313Z" fill="#DF5443"/>
<path d="M307.436 90.563C307.374 90.563 307.312 90.555 307.251 90.5378C306.864 90.4343 306.635 90.0389 306.738 89.6529C306.757 89.5799 307.241 87.7954 309.003 83.3323C310.741 78.9288 312.853 72.599 312.875 72.5366C313.001 72.1572 313.411 71.9528 313.789 72.0789C314.168 72.2062 314.374 72.6149 314.248 72.993C314.225 73.0567 312.101 79.4224 310.347 83.8643C308.625 88.2279 308.14 90.0097 308.136 90.0257C308.048 90.3494 307.756 90.563 307.436 90.563Z" fill="#DF5443"/>
<path d="M304.259 79.9637C304.23 79.9637 304.204 79.9624 304.175 79.9598C303.779 79.9147 303.493 79.5564 303.538 79.1597C303.558 78.9939 305.425 62.5304 305.656 58.8222C305.913 54.688 308.758 53.218 308.88 53.157C309.234 52.9792 309.671 53.1238 309.85 53.4807C310.028 53.8363 309.886 54.2688 309.531 54.4492C309.429 54.501 307.304 55.6473 307.099 58.9124C306.865 62.6551 305.052 78.6436 304.977 79.3229C304.933 79.6918 304.621 79.9637 304.259 79.9637Z" fill="#DF5443"/>
<defs>
<linearGradient id="paint0_linear" x1="251.63" y1="478.055" x2="840.47" y2="197.655" gradientUnits="userSpaceOnUse">
<stop stop-color="#9B51E0"/>
<stop offset="1" stop-color="#2F80ED"/>
</linearGradient>
<linearGradient id="paint1_linear" x1="35.8538" y1="33.2673" x2="80.2802" y2="33.2673" gradientUnits="userSpaceOnUse">
<stop stop-color="#2F80ED"/>
<stop offset="1" stop-color="#9B51E0"/>
</linearGradient>
</defs>
</svg>
