<svg width="691" height="339" viewBox="0 0 691 339" fill="none" xmlns="http://www.w3.org/2000/svg">
<path d="M218.516 254.093H215.786V247.692C212.505 247.747 209.231 247.8 205.961 247.855L206.422 247.03C206.732 246.476 206.535 245.775 205.982 245.465C205.805 245.367 205.612 245.32 205.422 245.32C205.02 245.32 204.63 245.532 204.419 245.909L203.306 247.901C190.345 248.117 177.464 248.333 164.564 248.549V254.093H160.751C160.996 238.806 161.244 223.568 161.49 208.29H152.142C152.142 209.062 152.117 209.719 152.146 210.376C152.319 214.223 152.615 218.067 152.665 221.914C152.807 232.64 152.876 243.367 152.968 254.093H148.267C148.519 238.79 148.769 223.584 149.021 208.388C148.191 208.216 146.477 208.138 144.74 208.138C142.64 208.138 140.504 208.253 139.862 208.464C140.128 223.674 140.39 238.859 140.653 254.093H135.789C136.035 238.794 136.283 223.573 136.528 208.299H127.167C127.167 209.142 127.137 209.866 127.171 210.587C127.346 214.494 127.648 218.398 127.699 222.307C127.834 232.902 127.894 243.498 127.967 254.093H123.417C123.408 250.206 123.404 246.341 123.436 242.487C123.489 236.74 123.67 230.993 123.713 225.246C123.757 219.593 124.262 213.947 124.193 208.278H114.694C114.694 209.158 114.664 209.937 114.696 210.718C114.87 214.687 115.169 218.653 115.219 222.624C115.355 233.114 115.407 243.604 115.479 254.093H112.743V247.69C98.1598 247.933 83.645 248.177 69.1118 248.42L66.4066 243.726C68.5313 243.71 70.656 243.701 72.7784 243.701C86.123 243.701 99.4241 244.045 112.737 244.585V235.028C104.089 235.274 95.5602 235.591 87.0271 235.736C78.6476 235.878 70.2659 235.853 61.8911 235.894L58.103 229.32C58.2131 222.307 58.3255 215.3 58.4402 208.283H49.3013C49.3335 210.275 49.3679 212.244 49.4046 214.232L44.3889 205.532C50.0195 205.436 55.6525 205.337 61.2877 205.24V197.613C57.7473 197.613 54.2436 197.627 50.7537 197.627C48.5121 197.627 46.2772 197.623 44.0424 197.602C42.6175 197.588 41.195 197.547 39.7724 197.528L37.2622 193.174C44.7514 193.105 52.2406 193.045 59.7297 192.974C60.2483 192.969 60.7645 192.887 61.2647 192.841V185.32C51.6394 185.159 42.0462 184.996 32.4553 184.835L30.0989 180.749C39.9766 180.641 49.852 180.565 59.7297 180.471C60.246 180.464 60.7668 180.381 61.2601 180.335V172.817C49.2004 172.614 37.1934 172.412 25.1795 172.21L22.9791 168.396C35.7548 168.177 48.4914 167.959 61.2372 167.743V160.311C46.7292 160.066 32.3245 159.824 17.8969 159.581L16.1141 156.485H20.3795C20.3795 150.63 20.3428 144.952 20.391 139.274C20.4392 133.527 20.6227 127.78 20.6663 122.033C20.7122 116.382 21.217 110.734 21.1459 105.081H11.8051L13.0785 102.871C29.1696 102.595 45.1782 102.319 61.2624 102.041V94.6211C46.8875 94.3775 32.5884 94.1339 18.2571 93.888L20.3589 90.2436C33.9743 90.0092 47.5575 89.7748 61.2372 89.5381V82.1205C49.2348 81.9159 37.3104 81.7114 25.3952 81.5092L27.6369 77.6188C38.85 77.4235 50.0402 77.2305 61.2395 77.0352V69.6152C51.6371 69.4544 42.0783 69.2912 32.5287 69.1327L34.915 64.9918C43.6845 64.8425 52.4585 64.6908 61.2831 64.5391V56.8733C58.314 56.9055 55.3496 56.9193 52.3851 56.9193C48.1266 56.9193 43.8726 56.8894 39.6187 56.8365L41.6332 53.3414C42.8539 53.3368 44.0745 53.3253 45.13 53.3184C45.1644 51.2319 45.1965 49.1776 45.2309 47.1003L49.9415 38.9289C50.0241 43.7017 50.1067 48.4676 50.1893 53.2518H57.6119C57.7657 43.7362 57.9194 34.2711 58.0754 24.8221L61.384 19.0773C61.384 20.456 61.3817 21.8371 61.3886 23.2066C61.3886 23.6892 61.4368 24.1694 61.4712 24.8542C65.1607 24.7922 68.8388 24.7646 72.5122 24.7646C85.9647 24.7646 99.3323 25.1415 112.753 25.6815V16.283C95.9847 16.568 79.3039 16.8506 62.5037 17.1355L65.28 12.3191C67.7076 12.2939 70.1283 12.2823 72.5489 12.2823C86.0106 12.2823 99.3667 12.65 112.739 13.1716V3.78006C98.4168 4.02594 84.1452 4.26726 69.7818 4.51083L71.404 1.69589C72.3608 1.63385 73.1593 1.54189 73.547 1.4155C73.547 0.951324 73.5424 0.473373 73.5447 0H76.7547C76.7455 0.556091 76.7364 1.1122 76.7272 1.66599H86.0129C86.0129 1.07083 86.0198 0.523926 86.0221 0H89.0301C89.0072 0.560699 88.9911 1.11679 88.9682 1.67519H98.504C98.504 1.06395 98.5109 0.519333 98.5132 0H101.512C101.491 0.553802 101.478 1.103 101.452 1.65678H110.835C110.825 1.103 110.816 0.553802 110.809 0H167.327C167.32 0.553802 167.311 1.10759 167.301 1.66139H176.587C176.587 1.06853 176.594 0.52623 176.596 0H179.802C179.793 0.556091 179.783 1.10989 179.774 1.6637H189.06C189.06 1.07083 189.067 0.52623 189.069 0H192.073C192.05 0.489456 192.04 0.978943 192.018 1.4684C192.86 1.67751 194.727 1.77629 196.611 1.77629C198.704 1.77629 200.815 1.65448 201.549 1.4155C201.549 0.951324 201.547 0.473373 201.547 0H204.568C204.548 0.558395 204.532 1.1122 204.509 1.67059H214.024C214.024 1.07083 214.031 0.523926 214.033 0H218.863L219.96 1.89809H217.743C217.743 2.81035 217.718 3.59395 217.748 4.37753C217.936 9.01932 218.248 13.6588 218.308 18.3029C218.448 29.3719 218.471 40.4409 218.544 51.5123C218.549 52.0913 218.576 52.6727 218.594 53.2702H226.265C226.478 40.0848 226.689 27.0142 226.9 13.9414L230.792 20.6927C230.902 30.9069 230.962 41.1211 231.044 51.3354C231.046 51.9788 231.079 52.6199 231.102 53.3391C231.409 53.3391 231.716 53.3391 232.019 53.3391C232.653 53.3391 233.272 53.3414 233.882 53.3437C234.5 53.346 235.105 53.3483 235.7 53.3483C236.751 53.3483 237.765 53.3391 238.747 53.3069C238.845 47.1692 238.942 41.0889 239.04 34.9995L243.618 42.9434C243.678 46.3742 243.737 49.798 243.797 53.2357H249.554L251.662 56.894C239.761 56.8273 227.917 56.5332 216.02 55.9978V65.4238C229.447 65.1917 242.806 64.9619 256.18 64.7299L258.915 69.4751C244.614 69.2292 230.36 68.9856 216.11 68.742C215.772 70.3368 215.807 76.6813 216.142 77.9199C231.836 77.6487 247.519 77.3775 263.314 77.1064L266.193 82.1021C249.395 81.8125 232.724 81.5276 215.976 81.2403V90.4228C233.185 90.1264 250.235 89.8345 267.338 89.5381V84.0875L270.583 89.7173C270.505 94.7796 270.429 99.8282 270.346 104.92C271.845 104.955 273.37 104.975 274.915 104.975C276.374 104.975 277.854 104.957 279.341 104.909L280.91 107.627C276.472 107.703 272.037 107.777 267.6 107.852V115.282C273.581 115.383 279.538 115.486 285.499 115.59L288.044 120.006C281.229 120.121 274.419 120.236 267.607 120.353V128.051C271.083 127.996 274.552 127.971 278.019 127.971C282.518 127.971 287.013 128.012 291.506 128.086L289 132.431C282.307 132.493 275.617 132.562 268.926 132.626C268.465 132.631 268.004 132.72 267.581 132.769V140.568C270.924 140.51 274.261 140.487 277.592 140.487C279.843 140.487 282.094 140.499 284.34 140.515L281.69 145.111C276.961 145.191 272.237 145.269 267.497 145.35C267.476 147.889 267.458 150.414 267.501 152.804C270.741 152.859 273.939 152.912 277.163 152.965L275.05 156.628H271.145C271.108 158.956 271.074 161.27 271.037 163.591L265.734 172.789C249.081 172.509 232.582 172.233 215.992 171.955V181.298C216.502 181.298 216.977 181.31 217.436 181.31C217.704 181.31 217.968 181.305 218.234 181.296C222.073 181.137 225.909 180.869 229.752 180.818C240.261 180.68 250.772 180.604 261.283 180.51L258.594 185.173C244.391 184.934 230.23 184.697 216.004 184.458V193.806C216.541 193.806 217.048 193.817 217.546 193.817C217.835 193.817 218.122 193.813 218.409 193.801C222.431 193.64 226.451 193.362 230.475 193.309C238.329 193.204 246.183 193.139 254.042 193.075L251.428 197.607C250.983 197.602 250.538 197.607 250.093 197.602C244.419 197.551 238.747 197.388 233.073 197.317C227.446 197.248 221.825 196.798 216.103 196.798C216.034 196.798 215.963 196.8 215.894 196.8C215.894 198.569 215.878 200.093 215.898 201.616C215.919 203.174 215.804 204.742 215.979 206.318C216.594 206.318 217.112 206.327 217.596 206.327C217.874 206.327 218.14 206.325 218.406 206.316C223.16 206.136 227.912 205.845 232.671 205.78C237.379 205.716 242.09 205.675 246.8 205.635L245.27 208.292H242.909C242.932 209.618 242.955 210.937 242.978 212.265L239.41 218.453C239.463 215.066 239.518 211.684 239.573 208.29H230.211C230.211 209.119 230.186 209.841 230.216 210.56C230.39 214.469 230.695 218.373 230.746 222.282C230.792 225.954 230.819 229.626 230.854 233.297L226.51 240.828C226.577 235.632 226.721 230.437 226.76 225.241C226.804 219.588 227.311 213.942 227.24 208.28H217.729C217.729 209.046 217.709 209.7 217.734 210.358C217.858 213.533 218.062 216.707 218.108 219.885C218.271 231.287 218.388 242.689 218.516 254.093ZM175.626 243.675C189.062 243.675 202.405 244.034 215.802 244.592V235.188C198.665 235.478 181.619 235.766 164.507 236.056V243.76C168.222 243.702 171.927 243.675 175.626 243.675ZM175.695 231.167C189.101 231.167 202.425 231.549 215.802 232.085V222.686C198.658 222.975 181.612 223.265 164.431 223.557C164.431 225.588 164.427 227.599 164.433 229.607C164.436 230.087 164.482 230.568 164.518 231.26C168.254 231.195 171.978 231.167 175.695 231.167ZM72.6292 231.165C86.0473 231.165 99.3759 231.553 112.746 232.082V222.686C95.5946 222.975 78.5467 223.265 61.384 223.557C61.384 225.731 61.3794 227.865 61.3886 230C61.3909 230.357 61.446 230.712 61.4896 231.26C65.2112 231.195 68.9237 231.165 72.6292 231.165ZM175.369 218.662C188.909 218.662 202.34 219.051 215.781 219.572V210.185C198.658 210.475 181.649 210.764 164.534 211.054V218.75C168.157 218.69 171.767 218.662 175.369 218.662ZM112.743 210.185C95.5556 210.477 78.5467 210.767 61.5056 211.056V218.483C78.6339 218.777 95.6359 219.069 112.743 219.363V210.185ZM65.0506 156.646C64.7867 173.796 64.5206 190.839 64.2567 207.986C65.1997 208.129 66.7646 208.198 68.3615 208.198C70.5413 208.198 72.7761 208.071 73.547 207.839C73.547 207.005 73.5723 206.152 73.5447 205.302C73.3268 198.454 73.0055 191.609 72.9046 184.759C72.7738 176.011 72.8197 167.258 72.7898 158.505C72.7876 157.912 72.7898 157.317 72.7898 156.646H65.0506ZM89.7735 156.674C90.0558 173.874 89.6978 190.931 88.9728 208.078H98.504C98.504 206.945 98.5293 206.033 98.4994 205.123C98.2746 197.857 97.9487 190.591 97.8363 183.323C97.7078 175.135 97.7744 166.943 97.7514 158.756C97.7491 158.048 97.717 157.345 97.701 156.674H89.7735ZM173.292 156.541C172.751 156.541 172.228 156.541 171.702 156.548C170.45 156.557 169.199 156.591 168.1 156.612C167.832 173.89 167.57 190.927 167.301 208.067H176.596C176.596 207.053 176.619 206.203 176.594 205.353C176.374 198.443 176.053 191.538 175.949 184.628C175.819 175.937 175.867 167.247 175.835 158.556C175.83 157.91 175.791 157.267 175.766 156.543C174.878 156.543 174.068 156.541 173.292 156.541ZM192.821 156.653C193.094 173.835 192.756 190.899 192.015 208.064H201.556C201.556 206.998 201.579 206.088 201.551 205.178C201.324 197.79 200.996 190.403 200.879 183.013C200.75 174.945 200.819 166.877 200.801 158.809C200.799 158.099 200.801 157.389 200.801 156.653H192.821ZM185.692 156.541C185.18 156.541 184.682 156.541 184.184 156.545C182.931 156.557 181.676 156.589 180.609 156.61C180.33 173.883 180.052 190.922 179.774 208.064H189.062C189.062 206.934 189.085 205.962 189.058 204.99C188.842 197.958 188.518 190.927 188.413 183.893C188.289 175.45 188.344 167.001 188.314 158.556C188.312 157.912 188.271 157.267 188.241 156.543C187.328 156.543 186.495 156.541 185.692 156.541ZM102.267 156.69C102.547 173.874 102.175 190.897 101.452 208.044H110.828C110.557 190.885 110.286 173.814 110.015 156.69H102.267ZM81.6557 156.545C80.552 156.545 79.4737 156.545 78.3953 156.548C78.0993 156.55 77.8056 156.6 77.5624 156.623C77.2824 173.878 77.0071 190.915 76.7272 208.044H86.0152C86.0152 206.945 86.0405 205.971 86.0106 204.999C85.7949 198.091 85.4714 191.182 85.3705 184.272C85.2443 175.705 85.297 167.134 85.2695 158.565C85.2672 157.922 85.2236 157.276 85.1961 156.545C83.9708 156.545 82.7983 156.545 81.6557 156.545ZM210.678 156.541C210.155 156.541 209.646 156.541 209.139 156.545C207.884 156.557 206.631 156.587 205.314 156.607C205.592 173.862 205.225 190.885 204.497 208.039H213.964C214.001 207.499 214.074 207.023 214.054 206.552C213.955 203.988 213.785 201.428 213.73 198.864C213.551 190.92 213.372 182.978 213.276 175.034C213.209 169.535 213.278 164.034 213.278 158.533C213.278 157.892 213.232 157.253 213.205 156.543C212.296 156.543 211.47 156.541 210.678 156.541ZM112.943 196.947V206.318C113.494 206.318 114.012 206.329 114.515 206.329C114.802 206.329 115.084 206.325 115.366 206.316C120.118 206.136 124.872 205.845 129.626 205.78C140.731 205.626 151.839 205.58 162.947 205.481C163.403 205.477 163.86 205.378 164.319 205.321V197.823C147.158 197.531 130.11 197.239 112.943 196.947ZM112.932 184.442V193.624C130.138 193.328 147.188 193.034 164.291 192.742V185.322C147.103 185.028 130.058 184.736 112.932 184.442ZM112.987 171.941V181.124C130.175 180.825 147.223 180.533 164.328 180.237V172.821C147.177 172.527 130.129 172.235 112.987 171.941ZM215.988 159.206V168.763C216.541 168.763 217.055 168.775 217.553 168.775C217.846 168.775 218.135 168.77 218.425 168.759C222.204 168.616 225.983 168.368 229.762 168.32C241.844 168.166 253.927 168.083 266.01 167.964C266.469 167.959 266.925 167.86 267.354 167.81V160.054C263.722 160.105 260.095 160.128 256.472 160.128C242.959 160.128 229.502 159.794 215.988 159.206ZM112.964 159.441V168.621C130.129 168.327 147.181 168.035 164.332 167.741V160.314C147.092 160.022 130.048 159.73 112.964 159.441ZM255.189 105.086C255.189 105.858 255.161 106.515 255.191 107.17C255.366 111.017 255.662 114.861 255.712 118.708C255.873 130.815 255.939 142.923 256.049 155.031C256.054 155.495 256.127 155.959 256.18 156.545C257.029 156.545 257.837 156.545 258.624 156.545C259.129 156.545 259.624 156.545 260.12 156.543C261.37 156.538 262.621 156.525 263.706 156.515C263.984 139.21 264.259 122.182 264.534 105.086H255.189ZM49.2991 105.079C49.5973 122.35 49.891 139.373 50.1893 156.545C51.0382 156.545 51.8849 156.545 52.7339 156.545C53.1584 156.545 53.5805 156.545 54.005 156.545C55.2601 156.541 56.5175 156.527 57.6142 156.52C57.8919 139.228 58.1649 122.198 58.4379 105.079H49.2991ZM114.682 105.081C114.682 105.846 114.662 106.504 114.687 107.158C114.809 110.334 115.017 113.508 115.063 116.686C115.238 128.977 115.361 141.269 115.501 153.558C115.513 154.516 115.501 155.472 115.501 156.485H123.427C123.427 150.633 123.388 144.955 123.438 139.276C123.489 133.529 123.67 127.782 123.713 122.035C123.757 116.385 124.262 110.736 124.193 105.081H114.682ZM235.273 104.911C233.068 104.911 231.074 105.047 230.434 105.272C230.723 122.35 231.01 139.38 231.299 156.476H238.949C238.949 150.635 238.91 144.959 238.96 139.281C239.008 133.534 239.176 127.787 239.233 122.04C239.288 116.389 239.779 110.746 239.729 105.116C238.387 104.973 236.78 104.911 235.273 104.911ZM247.872 104.927C245.71 104.927 243.522 105.054 242.909 105.277C243.205 122.35 243.501 139.371 243.797 156.467H251.222C251.506 139.24 251.782 122.207 252.059 105.166C251.162 105.001 249.526 104.927 247.872 104.927ZM157.208 104.941C155.12 104.941 152.991 105.051 152.346 105.251C152.642 122.315 152.94 139.341 153.236 156.456H160.659C160.939 139.263 161.214 122.23 161.492 105.185C160.703 105.019 158.968 104.941 157.208 104.941ZM139.651 105.051C139.651 105.888 139.626 106.55 139.653 107.209C139.832 111.115 140.135 115.022 140.183 118.928C140.337 130.914 140.396 142.9 140.5 154.886C140.504 155.405 140.587 155.925 140.635 156.451H148.175C148.457 139.281 148.739 122.207 149.026 105.051H139.651ZM38.6779 104.923C38.0355 104.923 37.4091 104.971 36.8148 105.143C37.1108 122.313 37.4068 139.338 37.7028 156.426H45.3893C45.3893 147.756 45.2883 139.203 45.4145 130.655C45.5453 122.129 45.9009 113.609 46.1602 104.966C45.0956 104.966 44.1181 104.952 43.1728 104.952C42.5579 104.952 41.959 104.959 41.3602 104.98C41.2225 104.985 41.0871 104.985 40.9495 104.985C40.5686 104.985 40.1854 104.971 39.8068 104.955C39.4259 104.939 39.0496 104.923 38.6779 104.923ZM217.743 105.088C217.743 105.984 217.716 106.766 217.745 107.547C217.934 112.189 218.246 116.828 218.308 121.472C218.448 132.541 218.473 143.613 218.542 154.682C218.546 155.268 218.542 155.854 218.542 156.421H226.265C226.545 139.263 226.82 122.228 227.098 105.088H217.743ZM127.385 105.086C127.674 122.274 127.963 139.35 128.252 156.421H135.7C135.977 139.263 136.25 122.233 136.523 105.086H127.385ZM24.1195 105.095C24.1195 105.936 24.0897 106.658 24.1241 107.379C24.2985 111.286 24.6036 115.19 24.6518 119.098C24.8033 130.9 24.856 142.705 24.9455 154.507C24.9501 155.155 24.9455 155.803 24.9455 156.41H32.6504C32.9326 139.244 33.2125 122.212 33.4947 105.095H24.1195ZM215.793 144.488C198.649 144.775 181.61 145.063 164.505 145.347V152.806C181.718 153.094 198.711 153.376 215.793 153.661V144.488ZM112.741 144.488C95.5419 144.778 78.5421 145.063 61.5217 145.347V152.809C78.6522 153.094 95.6428 153.376 112.741 153.661V144.488ZM175.649 140.474C189.076 140.474 202.411 140.834 215.802 141.39V131.985C198.667 132.275 181.621 132.564 164.505 132.851V140.559C168.228 140.501 171.941 140.474 175.649 140.474ZM72.5008 140.471C85.951 140.471 99.353 140.841 112.787 141.384V131.985C95.5969 132.275 78.5926 132.564 61.4942 132.851V140.559C65.1699 140.499 68.8365 140.471 72.5008 140.471ZM175.541 127.966C188.977 127.966 202.356 128.341 215.795 128.885V119.484C198.582 119.776 181.58 120.064 164.566 120.353V128.053C168.231 127.994 171.888 127.966 175.541 127.966ZM72.6155 127.964C86.029 127.964 99.3897 128.354 112.78 128.876V119.482C95.5877 119.774 78.5811 120.064 61.4965 120.353V128.06C65.2089 127.994 68.9122 127.964 72.6155 127.964ZM215.784 106.984C198.616 107.276 181.605 107.563 164.548 107.852V115.282C181.672 115.576 198.674 115.87 215.784 116.164V106.984ZM112.748 106.984C95.5464 107.276 78.5398 107.565 61.5102 107.852V115.282C78.6408 115.576 95.6428 115.868 112.748 116.162V106.984ZM106.943 53.3414C105.778 53.3414 104.612 53.3437 103.446 53.346C103.098 53.3483 102.747 53.4058 102.267 53.4494C102.545 70.578 102.182 87.601 101.452 104.709C102.526 104.918 104.261 105.01 105.956 105.01C108.145 105.01 110.27 104.856 110.832 104.599C110.557 87.5274 110.284 70.5114 110.009 53.3414C108.985 53.3414 107.964 53.3414 106.943 53.3414ZM89.7735 53.3414C90.0466 70.6769 89.707 87.7366 88.9705 104.874H98.504C98.504 103.735 98.5293 102.822 98.4994 101.912C98.2746 94.6441 97.9487 87.3804 97.8363 80.1121C97.7078 71.9246 97.7744 63.7326 97.7514 55.5428C97.7491 54.8396 97.7193 54.1342 97.6987 53.3414H89.7735ZM192.823 53.4563C193.089 70.6378 192.761 87.7044 192.013 104.865H201.553C201.553 103.79 201.579 102.88 201.551 101.97C201.322 94.52 200.991 87.0724 200.874 79.6203C200.746 71.6144 200.817 63.6085 200.801 55.6003C200.799 54.8902 200.801 54.1802 200.801 53.4563H192.823ZM70.1237 53.3391C69.6258 53.3391 69.1417 53.3391 68.6552 53.3437C67.4047 53.3552 66.1519 53.3897 65.0506 53.4103C64.7844 70.6883 64.5183 87.7251 64.2544 104.865H73.5493C73.5493 103.854 73.5746 103.004 73.547 102.154C73.3291 95.2438 73.0056 88.3363 72.9023 81.4265C72.7715 72.7358 72.822 64.0451 72.7876 55.3544C72.7853 54.711 72.744 54.0653 72.7187 53.3414C71.7849 53.3414 70.9382 53.3391 70.1237 53.3391ZM82.601 53.3391C82.1054 53.3391 81.6213 53.3391 81.1371 53.3437C79.8844 53.3552 78.6316 53.3874 77.5624 53.4081C77.2824 70.6814 77.0048 87.7205 76.7272 104.863H86.0152C86.0152 103.735 86.0382 102.76 86.0106 101.788C85.7949 94.7567 85.4737 87.7273 85.3682 80.6934C85.242 72.2486 85.297 63.8015 85.2695 55.3544C85.2672 54.711 85.2236 54.0653 85.1961 53.3414C84.2645 53.3414 83.4156 53.3391 82.601 53.3391ZM185.696 53.3391C185.194 53.3391 184.703 53.3414 184.212 53.3437C182.954 53.3552 181.697 53.3828 180.609 53.4012C180.33 70.6631 180.054 87.7044 179.774 104.849H189.062C189.062 103.762 189.087 102.788 189.06 101.818C188.844 94.906 188.518 87.9985 188.417 81.0887C188.291 72.5221 188.344 63.9509 188.314 55.3843C188.312 54.7363 188.273 54.0905 188.245 53.3414C187.334 53.3414 186.499 53.3391 185.696 53.3391ZM173.212 53.3391C172.71 53.3391 172.219 53.3414 171.727 53.3437C170.472 53.3552 169.217 53.3851 167.859 53.4103C168.027 70.3276 167.9 87.0242 167.074 103.705C167.061 104.006 167.074 104.309 167.074 104.847H176.59C176.59 103.815 176.615 102.905 176.585 101.993C176.369 95.145 176.05 88.2995 175.949 81.4495C175.819 72.7611 175.867 64.0704 175.835 55.3797C175.83 54.7317 175.791 54.086 175.768 53.3414C174.853 53.3414 174.017 53.3391 173.212 53.3391ZM205.314 53.4425C205.594 70.6654 205.222 87.6883 204.499 104.84H213.882C213.606 87.6906 213.333 70.6171 213.058 53.4425H205.314ZM215.894 93.5801C215.894 95.3288 215.889 96.8501 215.896 98.369C215.901 99.9293 215.914 101.49 215.926 102.93C233.226 102.632 250.27 102.335 267.382 102.039V94.3178C262.13 94.3178 256.912 94.3522 251.708 94.3522C248.374 94.3522 245.047 94.3384 241.72 94.2902C233.151 94.1684 224.59 93.8283 215.894 93.5801ZM112.945 93.7479V102.926C130.108 102.629 147.158 102.337 164.312 102.041V94.6211C147.138 94.3293 130.09 94.0397 112.945 93.7479ZM112.847 81.0404C112.847 82.8259 112.842 84.3471 112.849 85.8683C112.854 87.4263 112.867 88.9866 112.879 90.4297C130.184 90.1287 147.229 89.8322 164.33 89.5358V81.9136C160.762 81.9136 157.231 81.9297 153.716 81.9297C151.499 81.9297 149.29 81.9228 147.083 81.9044C141.408 81.8562 135.734 81.7574 130.062 81.6126C124.365 81.4655 118.67 81.238 112.847 81.0404ZM112.922 68.7512V77.9268C130.138 77.628 147.188 77.3316 164.282 77.0352V69.6152C147.087 69.3257 130.044 69.0384 112.922 68.7512ZM112.948 56.0047V65.5617C113.498 65.5617 114.01 65.5732 114.508 65.5732C114.802 65.5732 115.088 65.5686 115.375 65.5571C119.154 65.4146 122.931 65.1665 126.712 65.1182C138.795 64.9643 150.878 64.8792 162.963 64.762C163.422 64.7574 163.878 64.6586 164.36 64.6012V56.8526C160.712 56.9032 157.073 56.9262 153.438 56.9262C139.905 56.9262 126.451 56.593 112.948 56.0047ZM127.164 1.88428C127.164 2.71613 127.137 3.4377 127.169 4.15465C127.346 8.06339 127.648 11.9675 127.699 15.8763C127.85 27.6784 127.903 39.4804 127.993 51.2825C127.997 51.9328 127.993 52.5831 127.993 53.2771H135.7C135.977 36.0565 136.25 19.0267 136.526 1.88428H127.164ZM114.696 1.89809C114.696 2.80576 114.669 3.58934 114.698 4.37064C114.889 9.01471 115.201 13.6542 115.261 18.2983C115.401 29.365 115.426 40.4364 115.497 51.5054C115.501 52.0891 115.529 52.6704 115.547 53.2725H123.22C123.495 36.0427 123.773 19.0106 124.048 1.89809H114.696ZM152.344 1.89348C152.642 19.0933 152.94 36.1186 153.236 53.2265H160.657C160.939 36.0795 161.221 19.052 161.503 1.89348H152.344ZM139.86 1.87968C140.158 19.1301 140.454 36.153 140.75 53.215H148.175C148.457 36.0565 148.737 19.0244 149.021 1.87968H139.86ZM215.795 41.2866C198.651 41.5738 181.612 41.861 164.505 42.1483V49.6027C181.715 49.89 198.708 50.1749 215.795 50.4598V41.2866ZM112.576 41.2912C95.535 41.5761 78.5375 41.861 61.384 42.1483C61.384 43.4213 61.3817 44.6944 61.384 45.9651C61.3863 47.2221 61.3932 48.4813 61.3978 49.6027C78.6109 49.89 95.5625 50.1726 112.652 50.4575C112.998 48.5664 112.929 42.4263 112.576 41.2912ZM175.704 37.2721C189.078 37.2721 202.402 37.6329 215.788 38.1913V28.7836C198.614 29.0755 181.607 29.3627 164.56 29.6499V37.3594C168.281 37.2997 171.994 37.2721 175.704 37.2721ZM72.7807 37.2721C86.1322 37.2721 99.3851 37.6375 112.617 38.1844C112.989 36.068 112.925 29.9119 112.594 28.7882C95.5464 29.0755 78.5421 29.3627 61.4598 29.6499V37.364C65.2434 37.302 69.0155 37.2721 72.7807 37.2721ZM175.412 24.7623C188.899 24.7623 202.338 25.1461 215.77 25.6723V16.283C198.644 16.5726 181.633 16.8621 164.431 17.1539C164.431 19.1715 164.424 21.235 164.436 23.2985C164.438 23.7696 164.502 24.2407 164.548 24.8496C168.173 24.7899 171.794 24.7623 175.412 24.7623ZM215.896 3.78006C198.593 4.07419 181.587 4.36143 164.431 4.65327V12.0778C181.688 12.3743 198.69 12.6684 215.793 12.9625C215.825 12.604 215.889 12.1904 215.889 11.7768C215.901 9.09743 215.896 6.41806 215.896 3.78006ZM12.4108 150.067L9.68039 145.329V144.35L9.11367 144.346L7.36069 141.305C8.14081 141.335 8.92092 141.358 9.70104 141.39V131.985C7.14499 132.031 4.61418 132.072 2.06503 132.116L0 128.536C3.2398 128.642 6.4773 128.752 9.72398 128.881V119.482C7.62224 119.519 5.53656 119.553 3.44171 119.588L5.45856 116.093C6.86966 116.116 8.28075 116.141 9.69415 116.164V108.744L11.6353 105.378C11.6307 106.016 11.6192 106.596 11.6376 107.161C11.7615 110.337 11.9703 113.51 12.0162 116.688C12.1722 127.814 12.2892 138.941 12.4108 150.067Z" fill="#828282" fill-opacity="0.1"/>
<mask id="mask0" mask-type="alpha" maskUnits="userSpaceOnUse" x="77" y="25" width="255" height="294">
<path d="M204.21 25.7211L331.111 98.9873V245.52L204.21 318.786L77.3092 245.52V98.9873L204.21 25.7211Z" fill="#C4C4C4"/>
</mask>
<g mask="url(#mask0)">
<path d="M204.21 25.7211L331.111 98.9873V245.52L204.21 318.786L77.3092 245.52V98.9873L204.21 25.7211Z" fill="#F2F2F2"/>
</g>
<mask id="mask1" mask-type="alpha" maskUnits="userSpaceOnUse" x="335" y="25" width="255" height="294">
<path d="M462.2 25.7211L589.101 98.9873V245.52L462.2 318.786L335.3 245.52V98.9873L462.2 25.7211Z" fill="#C4C4C4"/>
</mask>
<g mask="url(#mask1)">
<path d="M462.2 25.7211L589.101 98.9873V245.52L462.2 318.786L335.3 245.52V98.9873L462.2 25.7211Z" fill="#F2F2F2"/>
</g>
<path d="M550.675 238.505H552.883V60.0159H550.675V238.505ZM581.273 238.505H583.479V60.0159H581.273V238.505ZM543.025 238.505H545.233V60.0159H543.025V238.505ZM558.324 238.505H560.532V60.0159H558.324V238.505ZM573.623 238.505H575.831V60.0159H573.623V238.505ZM565.974 238.505H568.18V60.0159H565.974V238.505ZM535.376 231.421L537.584 235.252V63.2687L535.376 67.1002V231.421ZM489.48 151.777L491.687 155.608V142.913L489.48 146.744V151.777ZM497.129 165.051L499.337 168.882V129.638L497.129 133.47V165.051ZM504.78 178.325L506.986 182.157V116.364L504.78 120.196V178.325ZM520.077 204.872L522.285 208.704V89.8172L520.077 93.6487V204.872ZM527.727 218.146L529.935 221.978V76.5429L527.727 80.3744V218.146ZM512.428 191.598L514.635 195.429V103.091L512.428 106.923V191.598ZM588.922 238.505H591.13V60.0159H588.922V238.505ZM657.767 211.695L659.975 207.863V90.6576L657.767 86.8261V211.695ZM650.117 224.969L652.324 221.137V77.3834L650.117 73.5519V224.969ZM688.363 139.922V158.599L690.573 154.768V143.753L688.363 139.922ZM673.064 185.148L675.272 181.315V117.205L673.064 113.373V185.148ZM642.468 238.243L644.676 234.41V64.1106L642.468 60.2791V238.243ZM680.715 171.873L682.924 168.042V130.479L680.715 126.647V171.873ZM665.416 198.42L667.625 194.589V103.932L665.416 100.1V198.42ZM611.87 238.505H614.078V60.0159H611.87V238.505ZM604.221 238.505H606.429V60.0159H604.221V238.505ZM634.819 238.505H637.027V60.0159H634.819V238.505ZM596.571 238.505H598.779V60.0159H596.571V238.505ZM627.169 238.505H629.377V60.0159H627.169V238.505ZM619.519 238.505H621.726V60.0159H619.519V238.505Z" fill="#F2C94C"/>
<path d="M392.885 78.4295C392.885 78.4295 375.182 82.0034 366.398 100.206C357.615 118.413 351.776 155.631 358.673 179.331C365.572 203.035 369.434 220.126 366.95 230.601C364.467 241.077 363.073 238.019 372.177 262.277C381.282 286.537 411.664 279.121 445.053 273.607C455.961 297.741 510.418 304.483 514.832 273.607C519.246 242.732 509.866 208.205 504.899 192.386C499.933 176.569 504.347 162.707 506.555 140.142C508.761 117.574 498.618 75.2431 455.961 62.5005C413.302 49.7594 392.885 78.4295 392.885 78.4295Z" fill="#214C65"/>
<path d="M486.872 206.515C486.499 206.515 486.158 206.266 486.054 205.891C485.751 204.773 478.604 178.386 478.879 166.439C479.139 155.174 477.137 139.765 470.743 130.306C467.945 126.166 463.323 121.967 458.429 117.523C452.343 111.997 445.446 105.735 440.374 98.0998C432.843 86.7653 413.287 77.813 400.298 83.6797C389.373 88.6235 389.115 97.2743 389.109 97.6407C389.103 98.1045 388.724 98.477 388.262 98.477C388.259 98.477 388.256 98.477 388.251 98.477C387.784 98.4709 387.41 98.089 387.415 97.6222C387.419 97.2125 387.65 87.5429 399.6 82.1369C411.05 76.9581 431.974 82.3935 441.786 97.1615C446.742 104.62 453.555 110.809 459.568 116.269C464.54 120.784 469.235 125.048 472.147 129.355C478.765 139.145 480.84 154.95 480.574 166.478C480.303 178.181 487.617 205.175 487.69 205.444C487.813 205.897 487.546 206.364 487.094 206.486C487.02 206.506 486.946 206.515 486.872 206.515Z" fill="#20697E"/>
<path d="M453.986 141.135C453.625 141.135 453.293 140.903 453.179 140.544C453.148 140.447 449.942 130.697 441.857 127.305C439.743 126.419 436.99 125.473 434.074 124.47C424.901 121.315 413.483 117.388 407.335 110.816C399.517 102.459 396.854 93.7714 394.714 86.7885L394.447 85.9198C394.309 85.4699 394.56 84.9969 395.008 84.8593C395.453 84.717 395.929 84.9721 396.067 85.4189L396.334 86.2923C398.423 93.1066 401.022 101.587 408.573 109.659C414.432 115.923 425.629 119.773 434.626 122.868C437.568 123.878 440.346 124.835 442.512 125.742C451.328 129.441 454.655 139.596 454.793 140.028C454.935 140.475 454.689 140.949 454.244 141.093C454.157 141.121 454.071 141.135 453.986 141.135Z" fill="#20697E"/>
<path d="M505.616 120.262C505.276 120.262 504.954 120.055 504.824 119.719C492.891 88.6977 456.337 66.4259 432.855 68.0198C408.813 69.6229 400.764 83.1912 400.685 83.3288C400.453 83.7354 399.935 83.8776 399.528 83.6426C399.122 83.4123 398.981 82.896 399.213 82.4894C399.548 81.8988 407.731 67.9966 432.742 66.3285C456.798 64.7486 494.219 87.4301 506.406 119.109C506.574 119.548 506.356 120.036 505.92 120.205C505.82 120.243 505.716 120.262 505.616 120.262Z" fill="#20697E"/>
<path d="M496.796 208.408C496.521 208.408 496.254 208.273 496.09 208.029C495.838 207.647 489.919 198.381 489.368 169.542C488.807 140.085 487.846 126.518 470.932 113.652C468.621 111.894 466.525 110.306 464.614 108.859C452.124 99.3985 447.451 95.8583 442.364 89.8C436.873 83.2639 413.967 82.2127 413.735 82.205C413.268 82.1833 412.905 81.7907 412.925 81.3207C412.945 80.8523 413.366 80.5292 413.808 80.5107C414.78 80.5524 437.694 81.6067 443.661 88.7116C448.626 94.6247 453.258 98.1324 465.636 107.508C467.548 108.957 469.646 110.544 471.958 112.305C489.461 125.618 490.506 140.266 491.064 169.51C491.602 197.73 497.447 207.004 497.504 207.095C497.759 207.485 497.651 208.01 497.26 208.265C497.118 208.361 496.956 208.408 496.796 208.408Z" fill="#20697E"/>
<path d="M383.412 238.505C383.238 238.505 383.063 238.479 382.912 238.425C382.204 238.167 365.552 232.033 365.552 224.565C365.552 220.006 370.088 208.658 373.731 199.541C376.031 193.79 378.015 188.824 378.399 186.772C379.104 183.004 377.612 180.03 375.883 176.585C375.166 175.157 374.427 173.681 373.771 172.023C371.52 166.316 372.831 160.216 372.844 160.155C372.893 159.926 373.306 159.758 373.775 159.786C374.238 159.811 374.573 160.017 374.524 160.246C374.51 160.306 373.227 166.283 375.43 171.863C376.076 173.5 376.813 174.966 377.523 176.385C379.288 179.903 380.814 182.94 380.082 186.849C379.69 188.944 377.697 193.929 375.39 199.702C371.758 208.785 367.241 220.088 367.241 224.565C367.241 231.608 383.747 237.691 383.913 237.752C384.29 237.889 384.37 238.15 384.094 238.335C383.927 238.447 383.671 238.505 383.412 238.505Z" fill="#20697E"/>
<path d="M396.382 208.106C396.355 208.106 396.328 208.104 396.302 208.103C395.835 208.058 395.494 207.645 395.537 207.178C396.638 195.437 394.45 184.919 394.427 184.812C394.331 184.356 394.623 183.907 395.081 183.809C395.54 183.723 395.988 184.005 396.086 184.463C396.109 184.57 398.349 195.328 397.225 207.338C397.185 207.777 396.815 208.106 396.382 208.106Z" fill="#20697E"/>
<path d="M472.399 203.992C472.133 203.992 471.873 203.869 471.708 203.635C471.451 203.275 465.401 194.715 463.178 186.935C460.97 179.213 459.874 166.075 459.828 165.518C459.789 165.051 460.135 164.643 460.602 164.604C461.086 164.574 461.479 164.914 461.517 165.379C461.528 165.513 462.646 178.91 464.807 186.47C466.95 193.97 473.028 202.567 473.088 202.652C473.359 203.035 473.271 203.563 472.889 203.835C472.741 203.94 472.569 203.992 472.399 203.992Z" fill="#20697E"/>
<path d="M388.344 97.9975C388.344 97.9975 373.995 109.001 372.524 135.414C371.051 161.826 373.627 187.504 421.087 189.338C421.087 189.338 424.029 195.208 424.029 198.876C424.029 202.543 424.764 204.745 415.2 205.845C405.635 206.946 392.021 204.745 379.513 214.65C367.004 224.554 343.826 237.759 343.826 237.759C343.826 237.759 346.034 220.517 345.667 200.343C345.299 180.167 348.61 161.663 354.496 156.058C360.383 150.454 364.062 137.064 363.325 128.077C362.59 119.088 356.888 122.757 356.888 122.757C356.888 122.757 360.015 110.47 360.935 103.866C361.854 97.2626 357.072 97.9975 357.072 97.9975C357.072 97.9975 358.543 89.9272 356.152 88.4589C353.76 86.9921 350.449 89.7423 348.426 96.5292C348.426 96.5292 343.276 97.2626 341.62 101.666C340.333 104.049 339.413 107.739 339.413 107.739C339.413 107.739 335.365 107.535 333.71 112.67C332.055 117.805 328.743 130.095 326.719 140.182C324.697 150.271 329.811 157.24 329.811 157.24C329.811 157.24 315.039 222.995 308.141 245.463C301.242 267.931 315.314 286.091 326.628 284.713C337.941 283.338 379.513 257.211 379.513 257.211L502.341 291.896L539.364 274.748C539.364 274.748 535.136 263.204 527.777 245.896C520.419 228.589 514.533 210.247 492.459 206.58C470.385 202.911 462.659 202.543 457.141 194.839C451.622 187.136 451.254 173.199 451.989 166.593C451.989 166.593 464.314 168.612 470.017 157.056C475.719 145.501 468.177 138.899 460.819 137.981C453.462 137.064 449.415 145.868 449.23 155.406L444.265 155.223C444.265 155.223 444.447 143.851 442.792 140.182C441.137 136.514 422.374 133.764 409.314 124.775C396.254 115.788 388.344 97.9975 388.344 97.9975Z" fill="#FAB8A9"/>
<path d="M392.052 134.841C391.979 136.341 391.786 137.876 391.29 139.332C390.844 140.804 390.166 142.218 389.327 143.529C388.513 144.861 387.495 146.064 386.385 147.173C385.234 148.258 384.048 149.249 382.595 150.056L382.891 149.03C383.208 149.618 383.641 150.245 384.069 150.829C384.51 151.415 385.004 151.961 385.519 152.494C386.041 153.02 386.611 153.501 387.218 153.952C387.826 154.408 388.509 154.747 389.211 155.106C387.652 154.882 386.116 154.221 384.825 153.268C384.168 152.8 383.571 152.259 383.014 151.678C382.45 151.092 381.968 150.487 381.506 149.761L381.14 149.184L381.802 148.732C382.95 147.949 384.131 147.003 385.152 145.976C386.215 144.974 387.156 143.855 388.025 142.687C388.883 141.511 389.674 140.279 390.323 138.959C391.021 137.656 391.528 136.268 392.052 134.841Z" fill="#DF5443"/>
<path d="M397.151 169.915C393.557 169.915 390.971 167.868 390.823 167.748C390.447 167.444 390.383 166.886 390.68 166.501C390.976 166.114 391.526 166.044 391.905 166.351C392.073 166.486 396.096 169.634 400.817 167.221C405.44 164.858 404.161 159.387 404.149 159.33C404.031 158.854 404.316 158.371 404.783 158.249C405.248 158.135 405.721 158.421 405.839 158.899C406.423 161.283 406.284 166.421 401.598 168.814C400.022 169.623 398.515 169.915 397.151 169.915Z" fill="#5C263D"/>
<path d="M465.318 146.143C464.047 145.297 462.636 144.638 461.361 144.698C460.735 144.754 460.158 144.934 459.664 145.327C459.212 145.678 458.83 146.155 458.541 146.754C457.935 147.937 457.604 149.346 457.276 150.75L456.419 155.106C456.03 153.633 455.917 152.114 455.983 150.594C456.063 149.073 456.321 147.531 457.044 146.037C457.432 145.309 457.989 144.571 458.784 144.058C459.537 143.59 460.509 143.328 461.413 143.441C463.237 143.675 464.537 144.853 465.318 146.143Z" fill="#DF5443"/>
<path d="M420.891 189.15C420.891 189.15 438.261 186.91 451.289 166.018C451.289 166.018 450.565 172.617 451.289 177.885C451.289 177.885 447.79 190.482 422.307 192.519L420.891 189.15Z" fill="#F7967B"/>
<path d="M386.522 144.974C386.078 144.974 385.703 144.61 385.674 144.138C385.43 140.224 383.805 130.174 379.173 130.399C373.52 130.738 372.715 140.906 372.707 141.007C372.671 141.498 372.263 141.869 371.795 141.83C371.326 141.794 370.974 141.366 371.01 140.874C371.043 140.392 371.936 129.044 379.075 128.617C386.347 128.13 387.333 143.377 387.374 144.024C387.403 144.516 387.049 144.939 386.58 144.972C386.559 144.974 386.541 144.974 386.522 144.974Z" fill="#5C263D"/>
<path d="M401.494 150.43C401.037 150.43 400.658 150.07 400.641 149.608C400.62 149.136 400.233 137.999 405.102 132.8C406.687 131.105 408.655 130.22 410.947 130.167C413.396 130.115 415.426 130.929 417.094 132.598C421.835 137.343 421.677 147.382 421.668 147.807C421.658 148.281 421.273 148.68 420.794 148.647C420.323 148.637 419.948 148.245 419.958 147.771C419.959 147.674 420.107 138.033 415.884 133.811C414.542 132.467 412.911 131.833 410.987 131.883C409.143 131.924 407.626 132.609 406.35 133.972C401.972 138.644 402.345 149.431 402.349 149.539C402.368 150.012 402 150.411 401.528 150.43C401.518 150.43 401.505 150.43 401.494 150.43Z" fill="#5C263D"/>
<path d="M378.111 118.772C378.111 118.772 375.021 120.5 374.272 123.473C373.523 126.447 375.721 125.583 378.929 124.337C382.138 123.09 385.041 123.954 386.82 123.857C388.6 123.762 388.6 119.827 386.82 118.772C385.041 117.718 380.288 116.995 378.111 118.772Z" fill="#214C65"/>
<path d="M402.802 120.032C402.802 120.032 401.394 120.282 401.405 121.997C401.418 123.711 402.802 124.708 404.735 124.708C406.67 124.708 409.2 124.626 409.2 124.626C409.2 124.626 405.302 122.025 402.802 120.032Z" fill="#214C65"/>
<path d="M340.599 149.317C340.571 149.317 340.543 149.315 340.515 149.314C340.05 149.266 339.708 148.852 339.755 148.386C340.767 138.142 348.962 134.936 350.995 134.294C351.278 133.493 351.933 131.477 352.386 128.733C353.042 124.76 356.095 121.964 356.225 121.846C356.574 121.534 357.106 121.562 357.421 121.908C357.735 122.255 357.707 122.789 357.361 123.103C357.335 123.13 354.615 125.631 354.057 129.009C353.434 132.784 352.467 135.206 352.426 135.307C352.324 135.562 352.102 135.75 351.834 135.814C351.452 135.905 342.471 138.137 341.441 148.552C341.398 148.991 341.028 149.317 340.599 149.317Z" fill="#F7967B"/>
<path d="M336.596 120.262C336.534 120.262 336.473 120.256 336.409 120.24C335.953 120.138 335.667 119.685 335.769 119.228L338.482 107.219C338.586 106.762 339.04 106.469 339.496 106.581C339.952 106.683 340.24 107.136 340.136 107.593L337.422 119.602C337.334 119.996 336.984 120.262 336.596 120.262Z" fill="#F7967B"/>
<path d="M342.945 117.433C342.916 117.433 342.885 117.433 342.856 117.428C342.39 117.379 342.052 116.961 342.103 116.496C343.207 106.139 347.504 95.9294 347.547 95.829C347.731 95.3992 348.231 95.1967 348.659 95.3806C349.09 95.5615 349.29 96.0593 349.107 96.4906C349.065 96.5895 344.864 106.574 343.788 116.675C343.741 117.11 343.373 117.433 342.945 117.433Z" fill="#F7967B"/>
<path d="M349.846 120.262C349.789 120.262 349.73 120.257 349.672 120.243C349.214 120.146 348.92 119.696 349.016 119.238C349.041 119.121 351.513 107.388 352.395 103.56C353.343 99.451 356.327 97.0656 356.453 96.9652C356.818 96.6761 357.35 96.7395 357.641 97.1058C357.93 97.4707 357.868 98.004 357.503 98.2962C357.477 98.3147 354.856 100.43 354.048 103.94C353.168 107.754 350.7 119.47 350.675 119.589C350.59 119.988 350.239 120.262 349.846 120.262Z" fill="#F7967B"/>
<mask id="mask2" mask-type="alpha" maskUnits="userSpaceOnUse" x="335" y="25" width="255" height="294">
<path d="M462.2 25.7211L589.101 98.9873V245.52L462.2 318.786L335.3 245.52V98.9873L462.2 25.7211Z" fill="#C4C4C4"/>
</mask>
<g mask="url(#mask2)">
<path d="M411.445 206.411C411.445 206.411 391.561 232.675 384.194 248.531C376.829 264.386 374.987 269.55 377.566 281.719C380.144 293.888 386.773 306.425 386.773 306.425L379.474 335.926C379.474 335.926 458.227 343.669 490.271 339.244C490.271 339.244 485.483 313.799 485.849 310.481C486.219 307.163 495.716 286.951 495.716 286.951C495.716 286.951 479.589 262.912 478.484 250.375C477.378 237.837 486.923 205.951 486.923 205.951L481.006 204.989C481.006 204.989 472.406 237.285 463.751 243.185C455.096 249.084 416.054 244.66 407.03 240.049C398.007 235.442 404.82 223.087 408.873 217.741C412.924 212.394 417.174 205.846 417.174 205.846L411.445 206.411Z" fill="#EF286B"/>
</g>
<path d="M201.157 99.211C201.157 99.211 198.263 115.853 185.601 121.641C185.601 121.641 188.495 140.816 187.409 156.735H180.897C180.897 156.735 184.515 141.178 170.405 137.56C156.295 133.942 156.295 155.65 159.189 161.8C162.084 167.951 171.49 169.759 171.49 169.759C171.49 169.759 168.234 178.805 162.807 186.764L159.912 197.98C159.912 197.98 187.409 194.724 215.991 197.98C215.991 197.98 241.316 190.744 244.572 157.82C247.827 124.897 233.718 106.446 226.12 94.508C226.12 94.508 217.799 100.658 201.157 99.211Z" fill="#CE715C"/>
<path d="M237.089 147.124C236.643 147.124 236.274 146.77 236.257 146.322C235.919 136.595 232.487 130.916 229.234 129.604C227.801 129.029 226.427 129.318 225.257 130.448C221.038 134.531 221.562 145.481 221.568 145.592C221.592 146.051 221.24 146.443 220.779 146.467C220.32 146.513 219.927 146.138 219.904 145.68C219.88 145.199 219.34 133.855 224.1 129.251C225.753 127.651 227.797 127.228 229.859 128.06C233.335 129.464 237.532 135.072 237.923 146.262C237.938 146.723 237.579 147.109 237.119 147.124C237.11 147.124 237.099 147.124 237.089 147.124Z" fill="#5C263D"/>
<path d="M228.222 117.178C228.222 117.178 225.139 118.257 221.414 120.541C217.69 122.825 215.265 118.015 218.649 114.417C222.033 110.82 226.748 110.412 229.052 111.945C231.355 113.477 230.339 116.303 228.222 117.178Z" fill="#6D2822"/>
<path d="M221.667 158.859C221.667 158.859 222.897 164.802 231.094 167.352C239.289 169.904 237.257 179.674 227.81 181.23C218.363 182.788 209.633 172.268 210.577 163.682C211.521 155.099 219.206 152.274 221.667 158.859Z" fill="#A4204B"/>
<path d="M221.667 158.859C221.667 158.859 222.897 164.802 231.094 167.352C232.171 167.688 233.062 168.155 233.793 168.705L230.667 172.361C230.667 172.361 223.211 170.657 218.925 164.54C216.126 160.542 216.215 157.162 216.61 155.293C218.626 154.963 220.62 156.056 221.667 158.859Z" fill="white"/>
<path d="M210.577 163.683C210.68 162.743 210.867 161.877 211.116 161.081C212.683 161.598 215.479 163.09 218.149 167.421C222.075 173.786 220.589 179.917 220.534 180.139C214.376 177.275 209.885 169.964 210.577 163.683Z" fill="#F35C62"/>
<path d="M171.49 169.759C171.49 169.759 162.084 167.951 159.189 161.8C156.295 155.65 156.295 133.942 170.405 137.56C184.515 141.178 180.897 156.735 180.897 156.735H187.409C188.494 140.816 185.601 121.641 185.601 121.641C198.263 115.853 201.157 99.2111 201.157 99.2111C217.799 100.658 226.12 94.5081 226.12 94.5081C227.403 96.5215 228.872 98.7264 230.409 101.152C230.431 101.135 248.906 88.3448 238.06 69.905C227.205 51.4547 192.474 64.4787 192.474 64.4787C192.474 64.4787 174.384 69.1818 152.677 76.4178C130.97 83.6539 124.096 98.4878 131.331 113.682C131.331 113.682 123.98 127.792 128.561 144.434C133.14 161.078 162.807 186.764 162.807 186.764C168.234 178.805 171.49 169.759 171.49 169.759Z" fill="#6D2822"/>
<path d="M244.626 139.744L244.624 139.75C245.171 145.241 245.223 151.237 244.572 157.82C244.364 159.917 244.066 161.906 243.693 163.799H243.694C251.59 161.546 251.807 153.57 251.807 153.57C246.381 147.872 244.626 139.744 244.626 139.744Z" fill="#CE715C"/>
<path d="M163.35 149.499C163.557 148.288 164.011 147.125 164.624 146.018C165.269 144.945 166.163 143.895 167.468 143.337C170.186 142.195 173.305 143.925 174.448 146.395C175.592 148.847 175.649 151.436 175.495 153.895C175.299 156.364 174.765 158.78 173.932 161.081C174.131 158.647 174.22 156.234 174.196 153.859C174.099 151.512 173.915 149.089 172.957 147.136C172.527 146.117 171.773 145.436 170.88 144.939C169.932 144.415 168.894 144.249 167.916 144.553C166.936 144.858 166.033 145.597 165.288 146.486C164.503 147.361 163.91 148.414 163.35 149.499Z" fill="#893D38"/>
<path d="M180.897 156.735C180.897 156.735 172.575 189.843 188.856 196.534C188.856 196.534 199.709 195.99 215.991 197.98C215.991 197.98 222.717 195.535 226.526 192.306C226.526 192.306 222.946 194.335 223.362 187.758C223.362 187.758 220.256 187.758 215.681 182.874C215.681 182.874 207.036 190.971 196.725 180.139C186.414 169.308 187.409 156.735 187.409 156.735H180.897Z" fill="#6D2822"/>
<path d="M356.004 106.899C355.732 96.0459 351.049 97.1293 351.049 97.1293C351.049 97.1293 352.747 88.7186 351.049 85.4638C349.351 82.2059 344.065 82.7499 344.065 82.7499C344.065 82.7499 344.607 74.8801 341.079 74.3376C337.552 73.7952 336.195 81.6649 336.195 81.6649C336.195 81.6649 331.854 80.3064 330.226 85.7327C328.597 91.1606 325.341 111.103 325.341 111.103C325.341 111.103 323.441 101.744 319.372 103.1C315.303 104.457 318.015 116.124 319.372 128.481C320.729 140.838 325.613 142.445 326.698 146.244C327.783 150.043 326.698 161.081 326.698 161.081C329.346 159.312 343.238 161.127 348.725 165.178C348.772 152.365 351.661 144.345 353.56 139.744C355.46 135.144 356.274 117.753 356.004 106.899Z" fill="#CE715C"/>
<path d="M306.795 249.463C306.629 249.463 306.461 249.411 306.315 249.308C306.204 249.225 303.545 247.266 300.954 240.234C300.794 239.804 301.014 239.326 301.446 239.166C301.879 239.007 302.356 239.228 302.516 239.658C304.897 246.121 307.266 247.94 307.29 247.955C307.656 248.229 307.738 248.748 307.47 249.118C307.305 249.341 307.052 249.463 306.795 249.463Z" fill="#3843A1"/>
<path d="M312.587 240.781C312.51 240.781 312.428 240.769 312.349 240.745C308.41 239.564 305.439 232.968 305.315 232.687C305.129 232.267 305.318 231.775 305.739 231.588C306.158 231.403 306.652 231.591 306.837 232.011C307.6 233.725 310.167 238.352 312.827 239.149C313.268 239.282 313.517 239.747 313.385 240.187C313.279 240.547 312.946 240.781 312.587 240.781Z" fill="#3843A1"/>
<path d="M324.168 121.57C324.134 121.57 324.099 121.57 324.066 121.565C323.609 121.507 323.283 121.094 323.34 120.637L324.516 111.001C324.57 110.545 324.982 110.213 325.443 110.276C325.898 110.331 326.224 110.746 326.167 111.203L324.991 120.839C324.941 121.261 324.581 121.57 324.168 121.57Z" fill="#893D38"/>
<path d="M333.391 102.758C333.355 102.758 333.315 102.755 333.277 102.75C332.82 102.686 332.502 102.265 332.566 101.811L335.371 81.5508C335.435 81.0965 335.855 80.7774 336.309 80.8397C336.766 80.9035 337.084 81.3229 337.02 81.7788L334.215 102.039C334.159 102.455 333.802 102.758 333.391 102.758Z" fill="#893D38"/>
<path d="M342.799 102.758C342.779 102.758 342.761 102.758 342.743 102.756C342.284 102.724 341.936 102.328 341.966 101.87L343.232 82.6935C343.264 82.2377 343.683 81.879 344.118 81.9185C344.578 81.9489 344.925 82.3456 344.896 82.8045L343.629 101.98C343.6 102.419 343.234 102.758 342.799 102.758Z" fill="#893D38"/>
<path d="M349.31 111.936C349.277 111.936 349.242 111.934 349.208 111.93C348.751 111.872 348.426 111.456 348.484 111L350.222 97.029C350.278 96.5731 350.707 96.2449 351.152 96.3057C351.609 96.3619 351.931 96.7782 351.875 97.2341L350.137 111.205C350.084 111.627 349.725 111.936 349.31 111.936Z" fill="#893D38"/>
<mask id="mask3" mask-type="alpha" maskUnits="userSpaceOnUse" x="77" y="25" width="255" height="294">
<path d="M204.21 25.7211L331.111 98.9873V245.52L204.21 318.786L77.3092 245.52V98.9873L204.21 25.7211Z" fill="#C4C4C4"/>
</mask>
<g mask="url(#mask3)">
<path d="M97.4285 316.137C97.4285 316.137 105.388 263.677 120.945 233.648C136.502 203.619 158.932 198.917 158.932 198.917C158.932 198.917 188.961 195.299 215.011 198.917C241.059 202.535 284.112 235.819 288.092 239.074C292.072 242.331 294.603 239.074 300.755 240.884C300.755 240.884 300.393 235.458 305.096 233.286C305.096 233.286 308.714 215.237 315.227 197.308C321.738 179.379 322.461 164.194 325.718 162.018C328.974 159.843 349.234 163.086 349.958 169.242C350.681 175.401 347.788 182.275 343.808 218.091C339.828 253.908 339.105 286.471 309.437 290.81C279.771 295.153 246.769 292.62 246.769 292.62C246.769 292.62 241.372 312.518 240.492 316.137C240.492 316.137 163.274 327.713 97.4285 316.137Z" fill="#434FAA"/>
</g>
<path d="M130.164 250.196C130.164 250.196 105.388 263.677 120.945 233.648C136.502 203.619 158.932 198.917 158.932 198.917C158.932 198.917 188.961 195.299 215.011 198.917C241.059 202.535 284.112 235.819 288.092 239.074C292.072 242.331 294.603 239.074 300.754 240.884C300.754 240.884 300.393 235.458 305.096 233.286C305.096 233.286 308.714 215.237 315.227 197.308C321.738 179.379 322.461 164.194 325.718 162.018C328.974 159.844 349.234 163.086 349.958 169.242C350.681 175.401 347.788 182.275 343.808 218.091C339.828 253.908 339.105 286.471 309.437 290.81C279.771 295.153 246.769 292.62 246.769 292.62C246.769 292.62 188.583 203.352 203.431 257.211C203.431 257.211 196.01 261.772 130.164 250.196Z" fill="#434FAA"/>
<path d="M319.683 33.1587C319.292 33.1587 318.932 32.9053 318.814 32.513L314.667 18.7253C314.524 18.246 314.794 17.7408 315.274 17.5973C315.755 17.4523 316.259 17.7256 316.404 18.2033L320.551 31.991C320.696 32.4702 320.423 32.9755 319.944 33.1205C319.857 33.1465 319.768 33.1587 319.683 33.1587Z" fill="white"/>
<path d="M333.492 30.402C332.991 30.402 332.585 29.996 332.585 29.4938V16.4952C332.585 15.9946 332.991 15.5886 333.492 15.5886C333.994 15.5886 334.398 15.9946 334.398 16.4952V29.4938C334.398 29.996 333.994 30.402 333.492 30.402Z" fill="white"/>
<path d="M348.682 33.1587C348.534 33.1587 348.385 33.122 348.246 33.0457C347.806 32.8045 347.647 32.2535 347.89 31.8139L354.192 20.3905C354.435 19.9525 354.983 19.7922 355.424 20.0334C355.862 20.2776 356.022 20.8286 355.781 21.2667L349.477 32.69C349.313 32.9892 349.003 33.1587 348.682 33.1587Z" fill="white"/>
<path d="M626.188 339L599.19 309.318L572.159 339L540.923 304.663L549.415 296.948L572.159 321.968L599.19 292.285L626.188 321.968L648.973 296.948L657.449 304.663L626.188 339Z" fill="url(#paint0_linear)"/>
<path d="M58.0657 14.0297L35.8536 52.5019H80.281L58.0657 14.0297ZM58.0657 24.2516L71.4281 47.3924H44.7066L58.0657 24.2516Z" fill="url(#paint1_linear)"/>
<defs>
<linearGradient id="paint0_linear" x1="251.63" y1="478.055" x2="840.47" y2="197.655" gradientUnits="userSpaceOnUse">
<stop stop-color="#9B51E0"/>
<stop offset="1" stop-color="#2F80ED"/>
</linearGradient>
<linearGradient id="paint1_linear" x1="35.8536" y1="33.2674" x2="80.28" y2="33.2674" gradientUnits="userSpaceOnUse">
<stop stop-color="#9B51E0"/>
<stop offset="1" stop-color="#2F80ED"/>
</linearGradient>
</defs>
</svg>
