<svg width="691" height="339" viewBox="0 0 691 339" fill="none" xmlns="http://www.w3.org/2000/svg">
<path d="M218.516 254.093H215.786V247.692C212.505 247.747 209.231 247.8 205.961 247.855L206.422 247.03C206.732 246.476 206.535 245.775 205.982 245.465C205.805 245.367 205.612 245.32 205.422 245.32C205.02 245.32 204.63 245.532 204.419 245.909L203.306 247.901C190.345 248.117 177.464 248.333 164.564 248.549V254.093H160.751C160.996 238.806 161.244 223.568 161.49 208.29H152.142C152.142 209.062 152.117 209.719 152.147 210.376C152.319 214.223 152.615 218.067 152.665 221.914C152.807 232.64 152.876 243.367 152.968 254.093H148.267C148.519 238.79 148.769 223.584 149.021 208.388C148.191 208.216 146.477 208.138 144.74 208.138C142.64 208.138 140.504 208.253 139.862 208.464C140.128 223.674 140.39 238.859 140.653 254.093H135.789C136.035 238.794 136.283 223.573 136.528 208.299H127.167C127.167 209.142 127.137 209.866 127.171 210.587C127.346 214.494 127.648 218.398 127.699 222.307C127.834 232.902 127.894 243.498 127.967 254.093H123.417C123.408 250.206 123.404 246.341 123.436 242.487C123.489 236.74 123.67 230.993 123.713 225.246C123.757 219.593 124.262 213.947 124.193 208.278H114.694C114.694 209.158 114.664 209.937 114.696 210.718C114.87 214.687 115.169 218.653 115.219 222.624C115.355 233.114 115.407 243.604 115.479 254.093H112.743V247.69C98.1598 247.933 83.645 248.177 69.1118 248.42L66.4066 243.726C68.5313 243.71 70.656 243.701 72.7784 243.701C86.123 243.701 99.4241 244.045 112.737 244.585V235.028C104.089 235.274 95.5602 235.591 87.0271 235.736C78.6476 235.878 70.2659 235.853 61.8911 235.894L58.103 229.32C58.2131 222.307 58.3255 215.3 58.4402 208.283H49.3013C49.3335 210.275 49.3679 212.244 49.4046 214.232L44.3889 205.532C50.0195 205.436 55.6525 205.337 61.2877 205.24V197.613C57.7473 197.613 54.2436 197.627 50.7538 197.627C48.5121 197.627 46.2772 197.623 44.0424 197.602C42.6176 197.588 41.195 197.547 39.7724 197.528L37.2622 193.174C44.7514 193.105 52.2406 193.045 59.7297 192.974C60.2483 192.969 60.7645 192.887 61.2647 192.841V185.32C51.6394 185.159 42.0462 184.996 32.4553 184.835L30.0989 180.749C39.9766 180.641 49.852 180.565 59.7297 180.471C60.246 180.464 60.7668 180.381 61.2601 180.335V172.817C49.2004 172.614 37.1934 172.412 25.1795 172.21L22.9791 168.396C35.7548 168.177 48.4914 167.959 61.2372 167.743V160.311C46.7292 160.066 32.3245 159.824 17.8969 159.581L16.1141 156.485H20.3795C20.3795 150.63 20.3428 144.952 20.391 139.274C20.4392 133.527 20.6227 127.78 20.6663 122.033C20.7122 116.382 21.217 110.734 21.1459 105.081H11.8051L13.0785 102.871C29.1696 102.595 45.1782 102.319 61.2624 102.041V94.6211C46.8875 94.3775 32.5884 94.1339 18.2571 93.8881L20.3589 90.2436C33.9743 90.0092 47.5575 89.7748 61.2372 89.5381V82.1205C49.2348 81.9159 37.3104 81.7114 25.3952 81.5092L27.6369 77.6188C38.85 77.4235 50.0402 77.2305 61.2395 77.0352V69.6152C51.6371 69.4544 42.0783 69.2912 32.5287 69.1327L34.915 64.9918C43.6845 64.8425 52.4585 64.6908 61.2831 64.5391V56.8733C58.314 56.9055 55.3496 56.9193 52.3851 56.9193C48.1266 56.9193 43.8726 56.8894 39.6187 56.8365L41.6332 53.3414C42.8539 53.3368 44.0745 53.3253 45.13 53.3184C45.1644 51.2319 45.1965 49.1776 45.2309 47.1003L49.9415 38.9289C50.0241 43.7017 50.1067 48.4676 50.1893 53.2518H57.6119C57.7657 43.7362 57.9194 34.2711 58.0754 24.8221L61.384 19.0773C61.384 20.456 61.3817 21.8371 61.3886 23.2066C61.3886 23.6892 61.4368 24.1694 61.4712 24.8542C65.1607 24.7922 68.8388 24.7646 72.5122 24.7646C85.9647 24.7646 99.3323 25.1415 112.753 25.6815V16.283C95.9847 16.568 79.3039 16.8506 62.5037 17.1355L65.28 12.3191C67.7076 12.2939 70.1283 12.2823 72.5489 12.2823C86.0106 12.2823 99.3667 12.65 112.739 13.1716V3.78006C98.4168 4.02593 84.1452 4.26725 69.7818 4.51083L71.404 1.69589C72.3608 1.63385 73.1593 1.54188 73.547 1.4155C73.547 0.951319 73.5424 0.473374 73.5447 4.27875e-06H76.7547C76.7455 0.556099 76.7363 1.11219 76.7272 1.66599H86.0129C86.0129 1.07083 86.0198 0.523928 86.0221 4.27875e-06H89.0301C89.0072 0.560695 88.9911 1.1168 88.9682 1.67519H98.504C98.504 1.06395 98.5109 0.519332 98.5132 4.27875e-06H101.512C101.491 0.553801 101.478 1.10299 101.452 1.65679H110.835C110.825 1.10299 110.816 0.553801 110.809 4.27875e-06H167.327C167.32 0.553801 167.311 1.10759 167.302 1.66139H176.587C176.587 1.06853 176.594 0.526226 176.596 4.27875e-06H179.802C179.793 0.556099 179.783 1.10989 179.774 1.66369H189.06C189.06 1.07083 189.067 0.526226 189.069 4.27875e-06H192.073C192.05 0.489459 192.041 0.978946 192.018 1.4684C192.86 1.67751 194.727 1.77628 196.611 1.77628C198.704 1.77628 200.815 1.65448 201.549 1.4155C201.549 0.951319 201.547 0.473374 201.547 4.27875e-06H204.568C204.548 0.558397 204.532 1.1122 204.509 1.67059H214.024C214.024 1.07084 214.031 0.523928 214.033 4.27875e-06H218.863L219.96 1.89808H217.743C217.743 2.81035 217.718 3.59395 217.748 4.37754C217.936 9.01932 218.248 13.6588 218.308 18.3029C218.448 29.3719 218.47 40.4409 218.544 51.5123C218.549 52.0913 218.576 52.6727 218.594 53.2702H226.265C226.478 40.0848 226.689 27.0142 226.9 13.9414L230.792 20.6927C230.902 30.9069 230.962 41.1211 231.044 51.3354C231.046 51.9788 231.079 52.6199 231.102 53.3391C231.409 53.3391 231.716 53.3391 232.019 53.3391C232.653 53.3391 233.272 53.3414 233.882 53.3437C234.5 53.346 235.105 53.3483 235.7 53.3483C236.751 53.3483 237.765 53.3391 238.747 53.307C238.845 47.1692 238.942 41.0889 239.04 34.9995L243.618 42.9434C243.678 46.3742 243.737 49.798 243.797 53.2357H249.554L251.662 56.894C239.761 56.8273 227.917 56.5332 216.02 55.9978V65.4238C229.447 65.1917 242.806 64.9619 256.18 64.7299L258.915 69.475C244.614 69.2292 230.36 68.9856 216.11 68.742C215.772 70.3368 215.807 76.6813 216.142 77.9199C231.836 77.6487 247.519 77.3776 263.314 77.1064L266.193 82.1021C249.395 81.8125 232.724 81.5276 215.976 81.2403V90.4228C233.185 90.1264 250.235 89.8346 267.338 89.5381V84.0875L270.583 89.7173C270.505 94.7796 270.429 99.8282 270.346 104.92C271.845 104.955 273.37 104.975 274.915 104.975C276.374 104.975 277.854 104.957 279.341 104.909L280.91 107.627C276.472 107.703 272.037 107.777 267.6 107.852V115.282C273.581 115.383 279.538 115.486 285.499 115.59L288.044 120.006C281.229 120.121 274.419 120.236 267.607 120.353V128.051C271.083 127.996 274.552 127.971 278.019 127.971C282.518 127.971 287.013 128.012 291.506 128.086L289 132.431C282.307 132.493 275.617 132.562 268.926 132.626C268.465 132.631 268.004 132.72 267.581 132.769V140.568C270.924 140.51 274.261 140.487 277.592 140.487C279.843 140.487 282.094 140.499 284.34 140.515L281.69 145.111C276.961 145.191 272.237 145.269 267.497 145.35C267.476 147.889 267.458 150.414 267.501 152.804C270.741 152.859 273.939 152.912 277.163 152.965L275.05 156.628H271.145C271.108 158.956 271.074 161.27 271.037 163.591L265.734 172.789C249.081 172.509 232.582 172.233 215.992 171.955V181.298C216.502 181.298 216.977 181.31 217.436 181.31C217.704 181.31 217.968 181.305 218.234 181.296C222.073 181.137 225.909 180.869 229.752 180.818C240.261 180.68 250.772 180.604 261.283 180.51L258.594 185.173C244.391 184.934 230.23 184.697 216.004 184.458V193.806C216.541 193.806 217.048 193.817 217.546 193.817C217.835 193.817 218.122 193.813 218.409 193.801C222.431 193.64 226.451 193.362 230.475 193.309C238.329 193.204 246.183 193.139 254.042 193.075L251.428 197.607C250.983 197.602 250.538 197.607 250.093 197.602C244.419 197.551 238.747 197.388 233.073 197.317C227.446 197.248 221.825 196.798 216.103 196.798C216.034 196.798 215.963 196.8 215.894 196.8C215.894 198.569 215.878 200.093 215.898 201.616C215.919 203.174 215.804 204.742 215.979 206.318C216.594 206.318 217.112 206.327 217.596 206.327C217.874 206.327 218.14 206.325 218.406 206.316C223.16 206.136 227.912 205.845 232.671 205.78C237.379 205.716 242.09 205.675 246.8 205.635L245.27 208.292H242.909C242.932 209.618 242.955 210.937 242.978 212.265L239.41 218.453C239.463 215.066 239.518 211.684 239.573 208.29H230.211C230.211 209.119 230.186 209.841 230.216 210.56C230.39 214.469 230.695 218.373 230.746 222.282C230.792 225.954 230.819 229.626 230.854 233.297L226.51 240.828C226.577 235.632 226.721 230.437 226.76 225.241C226.804 219.588 227.311 213.942 227.24 208.28H217.729C217.729 209.046 217.709 209.7 217.734 210.358C217.858 213.533 218.062 216.707 218.108 219.885C218.271 231.287 218.388 242.689 218.516 254.093V254.093ZM175.626 243.675C189.062 243.675 202.405 244.034 215.802 244.592V235.188C198.665 235.478 181.619 235.766 164.507 236.056V243.76C168.222 243.702 171.927 243.675 175.626 243.675ZM175.695 231.167C189.101 231.167 202.425 231.549 215.802 232.085V222.686C198.658 222.975 181.612 223.265 164.431 223.557C164.431 225.588 164.427 227.599 164.433 229.607C164.436 230.087 164.482 230.568 164.518 231.26C168.254 231.195 171.978 231.167 175.695 231.167V231.167ZM72.6292 231.165C86.0473 231.165 99.3759 231.553 112.746 232.082V222.686C95.5946 222.975 78.5467 223.265 61.384 223.557C61.384 225.731 61.3794 227.865 61.3886 230C61.3909 230.357 61.446 230.712 61.4896 231.26C65.2112 231.195 68.9237 231.165 72.6292 231.165ZM175.369 218.662C188.909 218.662 202.34 219.051 215.781 219.572V210.185C198.658 210.475 181.649 210.764 164.534 211.054V218.75C168.157 218.69 171.767 218.662 175.369 218.662ZM112.743 210.185C95.5556 210.477 78.5467 210.767 61.5056 211.056V218.483C78.6339 218.777 95.6359 219.069 112.743 219.363V210.185V210.185ZM65.0506 156.646C64.7867 173.796 64.5206 190.839 64.2567 207.986C65.1997 208.129 66.7646 208.198 68.3615 208.198C70.5413 208.198 72.7761 208.071 73.547 207.839C73.547 207.005 73.5723 206.152 73.5447 205.302C73.3268 198.454 73.0055 191.609 72.9046 184.759C72.7738 176.011 72.8197 167.258 72.7898 158.505C72.7876 157.912 72.7898 157.317 72.7898 156.646H65.0506V156.646ZM89.7735 156.674C90.0558 173.874 89.6978 190.931 88.9728 208.078H98.504C98.504 206.945 98.5293 206.033 98.4994 205.123C98.2746 197.857 97.9487 190.591 97.8363 183.323C97.7078 175.135 97.7744 166.943 97.7514 158.756C97.7491 158.048 97.717 157.345 97.701 156.674H89.7735ZM173.292 156.541C172.751 156.541 172.228 156.541 171.702 156.547C170.45 156.557 169.199 156.591 168.1 156.612C167.832 173.89 167.57 190.927 167.302 208.067H176.596C176.596 207.053 176.619 206.203 176.594 205.353C176.374 198.443 176.053 191.538 175.949 184.628C175.819 175.937 175.867 167.247 175.835 158.556C175.83 157.91 175.791 157.267 175.766 156.543C174.878 156.543 174.068 156.541 173.292 156.541ZM192.821 156.653C193.094 173.835 192.756 190.899 192.015 208.064H201.556C201.556 206.998 201.579 206.088 201.551 205.178C201.324 197.79 200.996 190.403 200.879 183.013C200.75 174.945 200.819 166.877 200.801 158.809C200.799 158.099 200.801 157.389 200.801 156.653H192.821V156.653ZM185.692 156.541C185.18 156.541 184.682 156.541 184.184 156.545C182.931 156.557 181.676 156.589 180.609 156.61C180.33 173.883 180.052 190.922 179.774 208.064H189.062C189.062 206.934 189.085 205.962 189.058 204.99C188.842 197.958 188.518 190.927 188.413 183.893C188.289 175.45 188.344 167.001 188.314 158.556C188.312 157.912 188.271 157.267 188.241 156.543C187.328 156.543 186.495 156.541 185.692 156.541ZM102.267 156.69C102.547 173.874 102.175 190.897 101.452 208.044H110.828C110.557 190.885 110.286 173.814 110.015 156.69H102.267ZM81.6557 156.545C80.5521 156.545 79.4737 156.545 78.3953 156.547C78.0993 156.55 77.8056 156.6 77.5624 156.623C77.2824 173.878 77.0071 190.915 76.7272 208.044H86.0152C86.0152 206.945 86.0405 205.971 86.0106 204.999C85.7949 198.091 85.4714 191.182 85.3705 184.272C85.2443 175.705 85.297 167.134 85.2695 158.565C85.2672 157.922 85.2236 157.276 85.1961 156.545C83.9708 156.545 82.7983 156.545 81.6557 156.545V156.545ZM210.678 156.541C210.155 156.541 209.646 156.541 209.139 156.545C207.884 156.557 206.631 156.587 205.314 156.607C205.592 173.862 205.225 190.885 204.497 208.039H213.964C214.001 207.499 214.074 207.023 214.054 206.552C213.955 203.988 213.785 201.428 213.73 198.864C213.551 190.92 213.372 182.978 213.276 175.034C213.209 169.535 213.278 164.034 213.278 158.533C213.278 157.892 213.232 157.253 213.205 156.543C212.296 156.543 211.47 156.541 210.678 156.541V156.541ZM112.943 196.947V206.318C113.494 206.318 114.012 206.329 114.515 206.329C114.802 206.329 115.084 206.325 115.366 206.316C120.118 206.136 124.872 205.845 129.626 205.78C140.731 205.626 151.839 205.58 162.947 205.481C163.403 205.477 163.86 205.378 164.319 205.321V197.823C147.158 197.531 130.11 197.239 112.943 196.947V196.947ZM112.932 184.442V193.624C130.138 193.328 147.188 193.034 164.291 192.742V185.322C147.103 185.028 130.058 184.736 112.932 184.442V184.442ZM112.987 171.941V181.124C130.175 180.825 147.223 180.533 164.328 180.237V172.821C147.177 172.527 130.129 172.235 112.987 171.941V171.941ZM215.988 159.206V168.763C216.541 168.763 217.055 168.775 217.553 168.775C217.846 168.775 218.136 168.77 218.425 168.759C222.204 168.616 225.983 168.368 229.762 168.32C241.844 168.166 253.927 168.083 266.01 167.964C266.469 167.959 266.925 167.86 267.354 167.81V160.054C263.722 160.105 260.095 160.128 256.472 160.128C242.959 160.128 229.502 159.794 215.988 159.206V159.206ZM112.964 159.441V168.621C130.129 168.327 147.181 168.035 164.332 167.741V160.314C147.092 160.022 130.048 159.73 112.964 159.441V159.441ZM255.189 105.086C255.189 105.858 255.161 106.515 255.191 107.17C255.366 111.017 255.662 114.861 255.712 118.708C255.873 130.815 255.939 142.923 256.049 155.031C256.054 155.495 256.127 155.959 256.18 156.545C257.029 156.545 257.837 156.545 258.624 156.545C259.129 156.545 259.624 156.545 260.12 156.543C261.37 156.538 262.621 156.525 263.706 156.515C263.984 139.21 264.259 122.182 264.534 105.086H255.189V105.086ZM49.2991 105.079C49.5973 122.35 49.891 139.373 50.1893 156.545C51.0382 156.545 51.8849 156.545 52.7339 156.545C53.1584 156.545 53.5805 156.545 54.005 156.545C55.2601 156.541 56.5175 156.527 57.6142 156.52C57.8919 139.228 58.1649 122.198 58.4379 105.079H49.2991V105.079ZM114.682 105.081C114.682 105.846 114.662 106.504 114.687 107.158C114.809 110.334 115.017 113.508 115.063 116.686C115.238 128.977 115.361 141.269 115.501 153.558C115.513 154.516 115.501 155.472 115.501 156.485H123.427C123.427 150.633 123.388 144.955 123.438 139.276C123.489 133.529 123.67 127.782 123.713 122.035C123.757 116.385 124.262 110.736 124.193 105.081H114.682ZM235.273 104.911C233.068 104.911 231.074 105.047 230.434 105.272C230.723 122.35 231.01 139.38 231.299 156.476H238.949C238.949 150.635 238.91 144.959 238.96 139.281C239.008 133.534 239.176 127.787 239.233 122.04C239.288 116.389 239.779 110.746 239.729 105.116C238.387 104.973 236.78 104.911 235.273 104.911V104.911ZM247.872 104.927C245.71 104.927 243.522 105.054 242.909 105.277C243.205 122.35 243.501 139.371 243.797 156.467H251.222C251.506 139.24 251.782 122.207 252.059 105.166C251.162 105.001 249.526 104.927 247.872 104.927ZM157.208 104.941C155.12 104.941 152.991 105.051 152.346 105.251C152.642 122.315 152.94 139.341 153.236 156.456H160.659C160.939 139.263 161.214 122.23 161.492 105.185C160.703 105.019 158.968 104.941 157.208 104.941ZM139.651 105.051C139.651 105.888 139.626 106.55 139.653 107.209C139.832 111.115 140.135 115.022 140.183 118.928C140.337 130.914 140.397 142.9 140.5 154.886C140.504 155.405 140.587 155.925 140.635 156.451H148.175C148.457 139.281 148.739 122.207 149.026 105.051H139.651V105.051ZM38.6779 104.923C38.0355 104.923 37.4091 104.971 36.8148 105.143C37.1108 122.313 37.4068 139.338 37.7028 156.426H45.3893C45.3893 147.756 45.2883 139.203 45.4145 130.655C45.5453 122.129 45.9009 113.609 46.1602 104.966C45.0956 104.966 44.1181 104.952 43.1728 104.952C42.5579 104.952 41.959 104.959 41.3602 104.98C41.2225 104.985 41.0871 104.985 40.9495 104.985C40.5686 104.985 40.1854 104.971 39.8068 104.955C39.4259 104.939 39.0496 104.923 38.6779 104.923V104.923ZM217.743 105.088C217.743 105.984 217.716 106.766 217.745 107.547C217.934 112.189 218.246 116.828 218.308 121.472C218.448 132.541 218.473 143.613 218.542 154.682C218.546 155.268 218.542 155.854 218.542 156.421H226.265C226.545 139.263 226.82 122.228 227.098 105.088H217.743ZM127.385 105.086C127.674 122.274 127.963 139.35 128.252 156.421H135.7C135.977 139.263 136.25 122.233 136.523 105.086H127.385ZM24.1195 105.095C24.1195 105.936 24.0897 106.658 24.1241 107.379C24.2985 111.286 24.6036 115.19 24.6518 119.098C24.8033 130.9 24.856 142.705 24.9455 154.507C24.9501 155.155 24.9455 155.803 24.9455 156.41H32.6504C32.9326 139.244 33.2125 122.212 33.4947 105.095H24.1195ZM215.793 144.488C198.649 144.775 181.61 145.063 164.504 145.347V152.806C181.718 153.094 198.711 153.376 215.793 153.661V144.488ZM112.741 144.488C95.5419 144.778 78.5421 145.063 61.5217 145.347V152.809C78.6522 153.094 95.6428 153.376 112.741 153.661V144.488ZM175.649 140.474C189.076 140.474 202.411 140.834 215.802 141.39V131.985C198.667 132.275 181.621 132.564 164.504 132.851V140.559C168.228 140.501 171.941 140.474 175.649 140.474ZM72.5008 140.471C85.951 140.471 99.353 140.841 112.787 141.384V131.985C95.5969 132.275 78.5926 132.564 61.4942 132.851V140.559C65.1699 140.499 68.8365 140.471 72.5008 140.471V140.471ZM175.541 127.966C188.977 127.966 202.356 128.341 215.795 128.885V119.484C198.582 119.776 181.58 120.064 164.566 120.353V128.053C168.231 127.994 171.888 127.966 175.541 127.966V127.966ZM72.6155 127.964C86.029 127.964 99.3897 128.354 112.78 128.876V119.482C95.5877 119.774 78.5811 120.064 61.4965 120.353V128.06C65.2089 127.994 68.9122 127.964 72.6155 127.964V127.964ZM215.784 106.984C198.616 107.276 181.605 107.563 164.548 107.852V115.282C181.672 115.576 198.674 115.87 215.784 116.164V106.984V106.984ZM112.748 106.984C95.5464 107.276 78.5398 107.565 61.5102 107.852V115.282C78.6408 115.576 95.6428 115.868 112.748 116.162V106.984V106.984ZM106.943 53.3414C105.778 53.3414 104.612 53.3437 103.446 53.346C103.098 53.3483 102.747 53.4058 102.267 53.4494C102.545 70.578 102.182 87.601 101.452 104.709C102.526 104.918 104.261 105.01 105.956 105.01C108.145 105.01 110.27 104.856 110.832 104.599C110.557 87.5274 110.284 70.5114 110.009 53.3414C108.985 53.3414 107.964 53.3414 106.943 53.3414V53.3414ZM89.7735 53.3414C90.0466 70.6769 89.707 87.7366 88.9705 104.874H98.504C98.504 103.735 98.5293 102.822 98.4994 101.912C98.2746 94.6441 97.9487 87.3804 97.8363 80.1121C97.7078 71.9246 97.7744 63.7326 97.7514 55.5428C97.7491 54.8397 97.7193 54.1342 97.6987 53.3414H89.7735V53.3414ZM192.823 53.4563C193.089 70.6378 192.761 87.7044 192.013 104.865H201.553C201.553 103.79 201.579 102.88 201.551 101.97C201.322 94.52 200.991 87.0725 200.874 79.6203C200.746 71.6144 200.817 63.6085 200.801 55.6003C200.799 54.8902 200.801 54.1802 200.801 53.4563H192.823V53.4563ZM70.1237 53.3391C69.6258 53.3391 69.1417 53.3391 68.6552 53.3437C67.4047 53.3552 66.1519 53.3897 65.0506 53.4103C64.7844 70.6883 64.5183 87.7251 64.2544 104.865H73.5493C73.5493 103.854 73.5746 103.004 73.547 102.154C73.3291 95.2438 73.0056 88.3363 72.9023 81.4265C72.7715 72.7358 72.822 64.0451 72.7876 55.3544C72.7853 54.711 72.744 54.0653 72.7187 53.3414C71.7849 53.3414 70.9382 53.3391 70.1237 53.3391ZM82.601 53.3391C82.1054 53.3391 81.6213 53.3391 81.1371 53.3437C79.8844 53.3552 78.6316 53.3874 77.5624 53.408C77.2824 70.6814 77.0048 87.7205 76.7272 104.863H86.0152C86.0152 103.735 86.0382 102.76 86.0106 101.788C85.7949 94.7567 85.4737 87.7273 85.3682 80.6934C85.242 72.2486 85.297 63.8015 85.2695 55.3544C85.2672 54.711 85.2236 54.0653 85.1961 53.3414C84.2645 53.3414 83.4156 53.3391 82.601 53.3391ZM185.696 53.3391C185.194 53.3391 184.703 53.3414 184.212 53.3437C182.954 53.3552 181.697 53.3828 180.609 53.4012C180.33 70.6631 180.054 87.7044 179.774 104.849H189.062C189.062 103.762 189.087 102.788 189.06 101.818C188.844 94.906 188.518 87.9985 188.417 81.0887C188.291 72.5221 188.344 63.9509 188.314 55.3843C188.312 54.7363 188.273 54.0905 188.245 53.3414C187.334 53.3414 186.499 53.3391 185.696 53.3391V53.3391ZM173.212 53.3391C172.71 53.3391 172.219 53.3414 171.727 53.3437C170.472 53.3552 169.217 53.3851 167.859 53.4103C168.027 70.3276 167.9 87.0242 167.074 103.705C167.061 104.006 167.074 104.309 167.074 104.847H176.59C176.59 103.815 176.615 102.905 176.585 101.993C176.369 95.145 176.05 88.2995 175.949 81.4495C175.819 72.7611 175.867 64.0704 175.835 55.3797C175.83 54.7317 175.791 54.0859 175.768 53.3414C174.853 53.3414 174.017 53.3391 173.212 53.3391ZM205.314 53.4425C205.594 70.6654 205.222 87.6883 204.499 104.84H213.882C213.606 87.6906 213.333 70.6171 213.058 53.4425H205.314V53.4425ZM215.894 93.5801C215.894 95.3288 215.889 96.8501 215.896 98.369C215.901 99.9293 215.914 101.49 215.926 102.93C233.226 102.632 250.27 102.335 267.382 102.039V94.3178C262.13 94.3178 256.912 94.3522 251.708 94.3522C248.374 94.3522 245.047 94.3384 241.72 94.2902C233.151 94.1684 224.59 93.8283 215.894 93.5801V93.5801ZM112.945 93.7479V102.926C130.108 102.629 147.158 102.337 164.312 102.041V94.6211C147.138 94.3293 130.09 94.0397 112.945 93.7479V93.7479ZM112.847 81.0404C112.847 82.8259 112.842 84.3471 112.849 85.8683C112.854 87.4263 112.867 88.9866 112.879 90.4297C130.184 90.1287 147.229 89.8323 164.33 89.5358V81.9136C160.762 81.9136 157.231 81.9297 153.716 81.9297C151.499 81.9297 149.29 81.9228 147.083 81.9044C141.408 81.8562 135.734 81.7574 130.062 81.6126C124.365 81.4655 118.67 81.238 112.847 81.0404V81.0404ZM112.922 68.7512V77.9268C130.138 77.628 147.188 77.3316 164.282 77.0352V69.6152C147.087 69.3257 130.044 69.0384 112.922 68.7512V68.7512ZM112.948 56.0047V65.5617C113.498 65.5617 114.01 65.5732 114.508 65.5732C114.802 65.5732 115.088 65.5686 115.375 65.5571C119.154 65.4146 122.931 65.1665 126.712 65.1182C138.795 64.9643 150.878 64.8792 162.963 64.762C163.422 64.7574 163.878 64.6586 164.36 64.6012V56.8526C160.712 56.9032 157.073 56.9262 153.438 56.9262C139.905 56.9262 126.451 56.593 112.948 56.0047V56.0047ZM127.164 1.88428C127.164 2.71612 127.137 3.4377 127.169 4.15465C127.346 8.06339 127.648 11.9675 127.699 15.8763C127.85 27.6784 127.903 39.4804 127.993 51.2825C127.997 51.9328 127.993 52.5831 127.993 53.2771H135.7C135.977 36.0565 136.25 19.0267 136.526 1.88428H127.164V1.88428ZM114.696 1.89808C114.696 2.80576 114.669 3.58935 114.698 4.37064C114.889 9.01471 115.201 13.6542 115.261 18.2983C115.401 29.365 115.426 40.4364 115.497 51.5054C115.501 52.0891 115.529 52.6704 115.547 53.2725H123.22C123.495 36.0427 123.773 19.0106 124.048 1.89808H114.696ZM152.344 1.89348C152.642 19.0933 152.94 36.1186 153.236 53.2265H160.657C160.939 36.0795 161.221 19.052 161.503 1.89348H152.344V1.89348ZM139.86 1.87968C140.158 19.1301 140.454 36.153 140.75 53.215H148.175C148.457 36.0565 148.737 19.0244 149.021 1.87968H139.86V1.87968ZM215.795 41.2866C198.651 41.5738 181.612 41.861 164.504 42.1483V49.6027C181.715 49.89 198.708 50.1749 215.795 50.4598V41.2866ZM112.576 41.2912C95.535 41.5761 78.5375 41.861 61.384 42.1483C61.384 43.4213 61.3817 44.6944 61.384 45.9651C61.3863 47.2221 61.3932 48.4813 61.3978 49.6027C78.6109 49.89 95.5625 50.1726 112.652 50.4575C112.998 48.5664 112.929 42.4263 112.576 41.2912V41.2912ZM175.704 37.2721C189.078 37.2721 202.402 37.6329 215.788 38.1913V28.7837C198.614 29.0755 181.607 29.3627 164.56 29.6499V37.3594C168.281 37.2997 171.994 37.2721 175.704 37.2721V37.2721ZM72.7807 37.2721C86.1322 37.2721 99.3851 37.6375 112.617 38.1844C112.989 36.068 112.925 29.9119 112.594 28.7882C95.5464 29.0755 78.5421 29.3627 61.4598 29.6499V37.364C65.2434 37.302 69.0155 37.2721 72.7807 37.2721V37.2721ZM175.412 24.7623C188.899 24.7623 202.338 25.1461 215.77 25.6723V16.283C198.644 16.5726 181.633 16.8621 164.431 17.1539C164.431 19.1715 164.424 21.235 164.436 23.2985C164.438 23.7696 164.502 24.2407 164.548 24.8496C168.173 24.7899 171.794 24.7623 175.412 24.7623V24.7623ZM215.896 3.78006C198.593 4.07419 181.587 4.36144 164.431 4.65327V12.0778C181.688 12.3743 198.69 12.6684 215.793 12.9625C215.825 12.604 215.889 12.1904 215.889 11.7768C215.901 9.09743 215.896 6.41806 215.896 3.78006V3.78006ZM12.4108 150.067L9.68039 145.329V144.35L9.11367 144.346L7.36069 141.305C8.14081 141.335 8.92092 141.358 9.70104 141.39V131.985C7.14499 132.031 4.61418 132.072 2.06503 132.116L0 128.536C3.2398 128.642 6.4773 128.752 9.72398 128.881V119.482C7.62224 119.519 5.53656 119.553 3.44171 119.588L5.45856 116.093C6.86966 116.116 8.28075 116.141 9.69415 116.164V108.744L11.6353 105.378C11.6307 106.016 11.6192 106.596 11.6376 107.161C11.7615 110.337 11.9703 113.51 12.0162 116.688C12.1722 127.814 12.2892 138.941 12.4108 150.067" fill="#828282" fill-opacity="0.1"/>
<mask id="mask0" mask-type="alpha" maskUnits="userSpaceOnUse" x="77" y="25" width="255" height="294">
<path d="M204.336 25.737L331.316 99.0485V245.672L204.336 318.983L77.3571 245.672V99.0485L204.336 25.737Z" fill="white"/>
</mask>
<g mask="url(#mask0)">
<path d="M204.336 25.737L331.316 99.0485V245.672L204.336 318.983L77.3571 245.672V99.0485L204.336 25.737Z" fill="#F2F2F2"/>
<path d="M327.172 201.631C325.201 182.723 325.595 153.574 325.595 139.394C325.595 125.213 321.655 118.123 321.655 118.123C321.655 118.123 300.582 115.76 297.333 117.237C294.083 118.713 294.378 126.396 294.23 136.145C294.083 145.894 294.822 175.731 291.572 181.641C288.321 187.55 284.481 189.026 284.925 195.525C284.925 195.525 280.64 195.525 278.574 199.958C276.505 204.389 263.507 204.389 250.803 206.013C238.099 207.638 227.32 204.743 227.32 204.743L227.213 204.769C224.171 205.717 220.871 206.52 217.271 207.145C217.271 207.145 221.603 217.387 217.271 226.052C212.938 234.719 192.849 240.628 180.638 226.052C180.638 226.052 157.398 244.172 152.277 249.688C147.156 255.202 140.066 263.475 134.945 279.231C129.825 294.986 126.673 317.439 126.673 317.439C126.673 317.439 193.637 334.376 262.57 315.075C262.57 315.075 261.388 306.016 265.722 296.562C270.055 287.109 273.599 276.473 272.418 267.413C271.236 258.354 265.722 248.899 265.722 248.899C265.722 248.899 299.992 244.544 314.172 234.904C328.352 225.265 329.141 220.538 327.172 201.631" fill="#EF286B"/>
<path d="M203.359 243.43C193.176 243.43 186.567 240.361 182.635 237.532C177.542 233.864 175.731 229.856 175.655 229.687C175.453 229.229 175.661 228.696 176.117 228.492C176.574 228.289 177.109 228.495 177.314 228.951C177.331 228.989 179.049 232.747 183.789 236.126C188.174 239.252 196.127 242.691 209.101 241.301C215.087 240.661 219.678 238.167 222.743 233.889C230.328 223.303 226.369 205.149 226.327 204.967C226.217 204.479 226.526 203.995 227.014 203.885C227.506 203.773 227.988 204.082 228.096 204.57C228.272 205.346 232.271 223.706 224.218 234.945C220.839 239.662 215.815 242.407 209.293 243.105C207.194 243.329 205.216 243.43 203.359 243.43" fill="#D22155"/>
<path d="M169.688 324.467C169.595 324.467 169.5 324.451 169.406 324.421C168.93 324.264 168.671 323.752 168.827 323.276C168.885 323.099 174.68 305.419 177.785 292.219C180.899 278.988 174.154 270.877 167.589 264.312C167.235 263.958 167.235 263.384 167.589 263.03C167.943 262.676 168.517 262.676 168.871 263.03C175.783 269.94 182.878 278.497 179.551 292.634C176.427 305.912 170.609 323.664 170.551 323.842C170.425 324.224 170.07 324.467 169.688 324.467" fill="#D22155"/>
<path d="M265.721 249.806C265.47 249.806 265.221 249.702 265.041 249.499C256.423 239.706 247.9 225.877 247.814 225.739C247.552 225.312 247.686 224.753 248.112 224.492C248.538 224.23 249.095 224.363 249.36 224.79C249.444 224.927 257.888 238.625 266.402 248.299C266.732 248.676 266.695 249.249 266.32 249.58C266.149 249.731 265.935 249.806 265.721 249.806" fill="#D22155"/>
</g>
<path d="M550.675 238.505H552.883V60.0159H550.675V238.505ZM581.273 238.505H583.479V60.0159H581.273V238.505ZM543.025 238.505H545.233V60.0159H543.025V238.505ZM558.324 238.505H560.532V60.0159H558.324V238.505ZM573.623 238.505H575.831V60.0159H573.623V238.505ZM565.974 238.505H568.18V60.0159H565.974V238.505ZM535.376 231.421L537.584 235.252V63.2687L535.376 67.1002V231.421ZM489.48 151.777L491.687 155.608V142.913L489.48 146.744V151.777V151.777ZM497.129 165.051L499.337 168.882V129.638L497.129 133.47V165.051V165.051ZM504.78 178.325L506.986 182.157V116.364L504.78 120.196V178.325V178.325ZM520.077 204.872L522.285 208.704V89.8172L520.077 93.6487V204.872ZM527.727 218.146L529.935 221.978V76.5429L527.727 80.3744V218.146V218.146ZM512.428 191.598L514.635 195.429V103.091L512.428 106.923V191.598ZM588.922 238.505H591.13V60.0159H588.922V238.505V238.505ZM657.767 211.695L659.975 207.863V90.6576L657.767 86.8261V211.695V211.695ZM650.117 224.969L652.324 221.137V77.3834L650.117 73.5519V224.969V224.969ZM688.364 139.922V158.599L690.573 154.768V143.753L688.364 139.922V139.922ZM673.064 185.148L675.272 181.315V117.205L673.064 113.373V185.148ZM642.468 238.243L644.676 234.41V64.1107L642.468 60.2791V238.243V238.243ZM680.715 171.873L682.924 168.042V130.479L680.715 126.647V171.873V171.873ZM665.416 198.42L667.625 194.589V103.932L665.416 100.1V198.42V198.42ZM611.87 238.505H614.078V60.0159H611.87V238.505ZM604.221 238.505H606.429V60.0159H604.221V238.505ZM634.819 238.505H637.027V60.0159H634.819V238.505ZM596.571 238.505H598.779V60.0159H596.571V238.505ZM627.169 238.505H629.377V60.0159H627.169V238.505ZM619.519 238.505H621.726V60.0159H619.519V238.505Z" fill="#F2C94C"/>
<mask id="mask1" mask-type="alpha" maskUnits="userSpaceOnUse" x="335" y="25" width="255" height="294">
<path d="M462.486 25.737L589.466 99.0485V245.672L462.486 318.983L335.507 245.672V99.0485L462.486 25.737Z" fill="#C4C4C4"/>
</mask>
<g mask="url(#mask1)">
<path d="M462.486 25.737L589.466 99.0485V245.672L462.486 318.983L335.507 245.672V99.0485L462.486 25.737Z" fill="#F2F2F2"/>
</g>
<mask id="mask2" mask-type="alpha" maskUnits="userSpaceOnUse" x="335" y="25" width="255" height="294">
<path d="M462.486 25.737L589.466 99.0485V245.672L462.486 318.983L335.507 245.672V99.0485L462.486 25.737Z" fill="white"/>
</mask>
<g mask="url(#mask2)">
<path d="M517.284 222.543C482.423 247.655 439.585 244.405 439.585 244.405C431.314 219.59 436.926 194.182 436.926 194.182C436.926 194.182 411.027 198.22 403.937 197.431C396.847 196.644 393.816 192.706 391.195 192.706C388.576 192.706 384.947 193.493 384.947 193.493C384.947 193.493 383.913 188.116 380.139 187.063C380.139 187.063 366.91 193.099 361.395 211.219C355.882 229.339 359.426 231.308 362.972 232.49C366.516 233.67 388.954 237.216 401.96 237.216C401.96 237.216 394.878 248.639 396.059 258.092C397.241 267.547 404.726 278.97 405.908 282.91C407.089 286.848 405.908 305.756 405.908 305.756L403.937 318.361C403.937 318.361 438.297 327.42 474.492 327.42C510.685 327.42 510.685 327.42 510.685 327.42C510.685 327.42 542.197 325.451 546.137 304.575C550.076 283.697 535.104 227.405 517.284 222.543" fill="#16B1B3"/>
<path d="M449.827 295.908L493.353 293.939C493.353 293.939 505.627 304.975 504.612 323.485L504.618 325.451C504.618 325.451 486.657 323.088 470.113 318.952C453.57 314.815 446.48 314.225 439.585 313.437C432.692 312.649 429.343 309.696 425.602 305.756C421.86 301.817 420.678 301.817 420.678 301.817C420.678 301.817 422.45 305.559 420.678 307.331C418.906 309.104 415.953 306.347 414.179 303.392C412.407 300.438 411.422 296.105 414.179 293.939C416.937 291.772 416.937 291.772 416.937 291.772C416.937 291.772 415.36 286.848 417.725 285.666C420.088 284.485 424.618 279.954 430.133 278.576C435.647 277.198 437.813 278.182 439.782 282.516C441.753 286.848 449.827 295.908 449.827 295.908" fill="#FAB8A9"/>
<path d="M379.121 195.187C378.674 195.187 378.285 194.858 378.222 194.401C378.155 193.907 378.503 193.449 379.001 193.382L384.825 192.594C385.326 192.529 385.778 192.875 385.845 193.371C385.912 193.867 385.564 194.325 385.068 194.392L379.243 195.18C379.202 195.184 379.161 195.187 379.121 195.187" fill="#0FA39C"/>
<path d="M401.96 238.123C401.748 238.123 401.535 238.049 401.364 237.898C400.987 237.569 400.948 236.995 401.28 236.619C401.426 236.451 416 219.823 421.28 212.651C421.577 212.246 422.144 212.161 422.547 212.458C422.951 212.754 423.037 213.322 422.74 213.725C417.413 220.96 402.789 237.646 402.643 237.814C402.463 238.019 402.212 238.123 401.96 238.123" fill="#0FA39C"/>
<path d="M504.186 328.328C504.087 328.328 503.986 328.311 503.887 328.276C503.414 328.111 503.165 327.594 503.331 327.121C503.34 327.09 504.578 323.134 502.507 311.828C501.107 304.193 497.415 300.307 494.973 297.737C493.611 296.302 492.628 295.267 492.456 294.067C492.351 293.327 492.554 292.639 493.041 292.075C494.136 290.815 496.545 290.434 497.977 290.322C497.807 288.574 498.619 287.579 499.351 286.683C500.192 285.651 500.987 284.676 500.724 282.218C500.15 276.862 492.569 253.882 492.494 253.65C492.335 253.176 492.593 252.663 493.07 252.506C493.544 252.345 494.057 252.606 494.214 253.083C494.53 254.034 501.933 276.477 502.527 282.024C502.87 285.234 501.698 286.674 500.756 287.829C499.967 288.795 499.493 289.377 499.938 290.932C500.016 291.205 499.961 291.5 499.79 291.727C499.618 291.955 499.351 292.088 499.067 292.088C497.556 292.089 495.11 292.457 494.411 293.264C494.266 293.431 494.22 293.59 494.252 293.811C494.341 294.438 495.243 295.388 496.287 296.487C498.879 299.213 502.794 303.335 504.291 311.5C506.476 323.418 505.102 327.55 505.042 327.719C504.911 328.093 504.56 328.328 504.186 328.328" fill="#0FA39C"/>
<path d="M505.763 296.815C505.482 296.815 505.206 296.685 505.029 296.441C505.004 296.409 502.586 293.13 498.818 292.054C498.336 291.915 498.056 291.413 498.194 290.932C498.331 290.45 498.832 290.175 499.314 290.309C503.702 291.564 506.386 295.223 506.497 295.377C506.79 295.783 506.7 296.348 506.294 296.641C506.134 296.758 505.948 296.815 505.763 296.815" fill="#0FA39C"/>
<path d="M416.936 292.678C416.539 292.678 416.176 292.416 416.063 292.016C415.928 291.534 416.211 291.033 416.693 290.899L425.163 288.536C425.644 288.398 426.146 288.684 426.279 289.166C426.414 289.648 426.132 290.148 425.65 290.282L417.18 292.645C417.097 292.668 417.017 292.678 416.936 292.678" fill="#F7967B"/>
<path d="M421.17 284.221C420.759 284.221 420.388 283.94 420.289 283.525C420.173 283.036 420.474 282.546 420.961 282.432C421.011 282.42 425.967 281.24 428.646 280.283C431.909 279.117 434.411 281.572 434.515 281.678C434.87 282.032 434.87 282.606 434.515 282.96C434.162 283.312 433.591 283.314 433.236 282.961C433.158 282.887 431.419 281.218 429.255 281.991C426.482 282.98 421.587 284.147 421.38 284.196C421.31 284.213 421.239 284.221 421.17 284.221" fill="#F7967B"/>
</g>
<path d="M319.683 33.1587C319.292 33.1587 318.932 32.9053 318.814 32.513L314.667 18.7253C314.524 18.246 314.794 17.7408 315.275 17.5973C315.755 17.4523 316.259 17.7255 316.404 18.2033L320.551 31.9909C320.696 32.4702 320.423 32.9755 319.944 33.1205C319.857 33.1464 319.768 33.1587 319.683 33.1587Z" fill="white"/>
<path d="M333.492 30.402C332.991 30.402 332.585 29.996 332.585 29.4938V16.4952C332.585 15.9945 332.991 15.5885 333.492 15.5885C333.994 15.5885 334.398 15.9945 334.398 16.4952V29.4938C334.398 29.996 333.994 30.402 333.492 30.402Z" fill="white"/>
<path d="M348.682 33.1587C348.534 33.1587 348.385 33.122 348.246 33.0457C347.806 32.8045 347.647 32.2535 347.89 31.8139L354.193 20.3905C354.435 19.9524 354.983 19.7922 355.424 20.0334C355.862 20.2776 356.023 20.8286 355.781 21.2667L349.478 32.69C349.313 32.9892 349.003 33.1587 348.682 33.1587" fill="white"/>
<path d="M432.808 90.0573C432.808 90.0573 416.265 93.8976 407.696 119.306C399.129 144.712 394.698 163.609 409.764 179.271C424.831 194.934 437.239 194.047 437.239 194.047C437.239 194.047 431.627 219.455 439.898 244.271C439.898 244.271 482.736 247.521 517.597 222.409C517.597 222.409 504.302 217.978 495.44 216.796C486.576 215.615 475.94 211.182 472.987 205.57C470.033 199.958 473.874 186.072 477.123 177.209C477.123 177.209 487.757 182.232 496.325 174.255C504.893 166.278 502.53 152.689 496.03 150.915C489.531 149.143 483.032 155.939 478.895 164.801L472.987 163.325C472.987 163.325 478.599 153.87 471.509 146.188C464.419 138.507 433.399 113.988 432.808 90.0573" fill="#FAB8A9"/>
<path d="M517.597 136.439C519.665 117.237 521.437 87.8287 498.099 72.3986C474.759 56.9685 447.58 64.9454 435.467 74.3997C435.467 74.3997 415.082 69.6725 403.856 86.5114C392.631 103.352 396.471 114.577 388.791 128.464C381.108 142.348 379.631 140.872 380.812 145.008C381.737 148.246 389.378 152.941 400.159 159.501C398.744 148.05 402.435 134.907 407.696 119.306C416.265 93.8976 432.808 90.0573 432.808 90.0573C433.399 113.988 464.419 138.507 471.509 146.188C478.599 153.87 472.987 163.325 472.987 163.325L478.895 164.801C483.032 155.938 489.531 149.143 496.03 150.915C502.53 152.689 504.893 166.278 496.325 174.255C487.757 182.232 477.123 177.208 477.123 177.208C476.192 179.748 475.217 182.703 474.362 185.753C481.557 186.838 487.825 187.244 492.19 186.663C509.914 184.298 520.55 174.846 520.55 171.891C520.55 168.937 515.528 155.642 517.597 136.439" fill="#F9B02E"/>
<path d="M494.848 160.37C494.203 159.005 492.604 158.944 491.802 159.438C490.909 160.049 490.062 161.188 489.316 162.282C487.762 164.512 486.382 166.907 484.656 169.233C484.831 167.785 485.251 166.402 485.79 165.071C486.321 163.734 487.008 162.461 487.828 161.247C488.704 160.083 489.594 158.848 491.222 158.153C492.155 157.816 492.988 158.001 493.736 158.39C494.481 158.823 494.907 159.637 494.848 160.37" fill="#DF5443"/>
<path d="M415.527 140.743C415.464 140.743 415.401 140.737 415.337 140.724C414.847 140.62 414.534 140.137 414.638 139.648C415.027 137.822 415.661 132.568 413.954 130.233C413.446 129.538 412.772 129.158 411.891 129.07C406.718 128.569 403.154 137.504 403.117 137.595C402.934 138.062 402.407 138.288 401.942 138.107C401.476 137.924 401.246 137.399 401.429 136.932C401.594 136.511 405.536 126.612 412.071 127.266C413.475 127.406 414.602 128.046 415.42 129.166C417.952 132.635 416.478 139.727 416.412 140.026C416.322 140.452 415.946 140.743 415.527 140.743Z" fill="#5C263D"/>
<path d="M424.537 131.86C423.761 133.058 422.879 134.174 421.945 135.241C421.014 136.314 420.023 137.337 418.966 138.294C417.923 139.267 416.801 140.16 415.604 140.982C414.396 141.775 413.135 142.545 411.654 142.992L412.198 141.992C412.538 143.383 412.991 144.828 413.564 146.177C414.153 147.528 414.834 148.852 415.992 149.882C414.53 149.305 413.405 148.024 412.564 146.712C411.706 145.37 411.07 143.95 410.581 142.409L410.363 141.72L411.126 141.409C413.507 140.434 415.739 138.724 417.929 137.062C420.13 135.375 422.269 133.579 424.537 131.86Z" fill="#F7967B"/>
<path d="M443.444 156.697C443.366 156.697 443.287 156.686 443.207 156.667C442.723 156.535 442.438 156.038 442.568 155.554C443.804 150.982 444.17 144.448 442.055 140.908C441.235 139.535 440.124 138.7 438.657 138.356C433.545 137.158 428.078 146.542 426.397 150.256C426.19 150.711 425.653 150.915 425.198 150.708C424.741 150.502 424.538 149.964 424.744 149.508C425.016 148.908 431.485 134.806 439.071 136.59C441.014 137.045 442.542 138.185 443.612 139.979C446.355 144.567 445.347 152.226 444.319 156.027C444.21 156.432 443.844 156.697 443.444 156.697" fill="#5C263D"/>
<path d="M416.781 115.169C416.781 115.169 413.826 114.356 411.908 115.465C409.986 116.572 409.47 118.861 412.498 119.379C415.527 119.895 418.48 121.372 419.81 121.224C421.139 121.078 421.582 116.72 416.781 115.169Z" fill="#F9B02E"/>
<path d="M446.176 127.652C446.176 127.652 443.74 125.059 440.341 125.321C436.945 125.582 436.797 128.464 437.535 129.203C438.274 129.941 441.45 130.9 443.296 132.231C445.143 133.559 447.654 136.809 448.687 135.997C449.722 135.184 451.051 131.787 446.176 127.652Z" fill="#F9B02E"/>
<path d="M437.239 194.047C437.239 194.047 456.836 198.874 477.123 177.208C477.123 177.208 473.213 187.418 472.576 193.463C472.576 193.463 461.548 205.478 436.543 198.065C436.543 198.065 437.093 195.821 437.239 194.047" fill="#F7967B"/>
<path d="M413.791 160.266C413.791 160.266 417.306 161.853 423.299 159.993C429.291 158.133 432.123 159.408 433.042 162.865C433.959 166.321 429.201 173.141 417.837 171.878C406.474 170.618 408.449 162.706 409.369 161.067C410.29 159.428 411.882 159.78 413.791 160.266" fill="#A4204B"/>
<path d="M413.791 160.266C413.791 160.266 417.306 161.853 423.299 159.993C428.107 158.501 430.877 159.031 432.26 161.082C420.332 167.988 413.402 164.321 413.402 164.321L412.385 159.954C412.831 160.029 413.298 160.141 413.791 160.266" fill="white"/>
<path d="M421.005 172.007C424.025 164.448 433.042 162.865 433.042 162.865C433.869 165.979 430.07 171.801 421.005 172.007Z" fill="#F35C62"/>
<path d="M358.866 225.039C358.93 221.986 359.729 217.587 361.708 211.085C367.223 192.965 380.452 186.928 380.452 186.928C380.452 186.928 376.48 177.799 372.541 167.435C368.601 157.071 361.905 125.016 360.133 118.123C358.359 111.229 355.012 90.1549 352.254 79.1177C349.497 68.0774 347.134 53.7189 344.573 52.5375C342.013 51.3561 339.657 56.4771 339.657 56.4771C339.657 56.4771 336.499 56.0832 335.595 62.7794C334.691 69.4756 335.908 75.8772 335.908 75.8772C335.12 79.1268 335.908 83.0649 337.286 90.0572C338.665 97.0496 336.499 99.0186 337.286 107.29C338.074 115.563 343.885 121.235 343.885 121.235C343.885 121.235 348.021 152.689 349.793 183.413C351.566 214.137 358.849 225.068 358.849 225.068L358.866 225.039" fill="#FAB8A9"/>
<path d="M432.807 90.964C432.332 90.964 431.932 90.593 431.903 90.1137C431.886 89.8451 431.534 83.4313 434.606 74.1158C434.764 73.6396 435.273 73.3786 435.753 73.5389C436.227 73.6961 436.487 74.209 436.328 74.6837C433.364 83.6709 433.71 89.9398 433.713 90.0008C433.744 90.503 433.364 90.9319 432.865 90.9624C432.845 90.9639 432.827 90.964 432.807 90.964" fill="#E29420"/>
<path d="M391.508 155.064C391.389 155.064 391.268 155.039 391.15 154.991C390.691 154.794 390.477 154.261 390.674 153.8C390.689 153.765 392.223 150.137 395.702 138.735C399.246 127.119 409.726 111.546 410.17 110.886C410.45 110.474 411.015 110.364 411.43 110.645C411.845 110.924 411.953 111.488 411.672 111.904C411.566 112.063 400.901 127.91 397.436 139.264C393.918 150.799 392.404 154.368 392.341 154.514C392.194 154.858 391.86 155.064 391.508 155.064" fill="#E29420"/>
<path d="M385.26 150.789C385.216 150.789 385.168 150.786 385.123 150.778C384.628 150.702 384.288 150.241 384.364 149.746C384.436 149.261 386.219 137.784 390.729 130.248C395.655 122.02 400.246 111.747 404.376 99.7101C409.273 85.4476 422.421 80.6167 433.278 82.1674C433.776 82.2392 434.119 82.6971 434.049 83.1932C433.979 83.6893 433.524 84.0388 433.023 83.964C422.905 82.5216 410.651 87.0168 406.092 100.298C401.92 112.454 397.274 122.844 392.286 131.178C387.957 138.413 386.173 149.903 386.155 150.018C386.087 150.467 385.701 150.789 385.26 150.789Z" fill="#E29420"/>
<path d="M488.231 153.509C487.751 153.509 487.353 153.135 487.325 152.652C487.042 147.498 477.164 124.81 456.302 109.798C435.142 94.5738 433.297 79.8367 433.228 79.2155C433.173 78.7194 433.532 78.2722 434.029 78.2172C434.53 78.1653 434.972 78.5179 435.031 79.0171C435.047 79.1621 436.919 93.6183 457.361 108.326C478.514 123.546 488.798 146.425 489.136 152.552C489.165 153.052 488.782 153.48 488.281 153.507C488.264 153.507 488.247 153.509 488.231 153.509" fill="#E29420"/>
<path d="M499.454 186.126C499.37 186.126 499.288 186.115 499.204 186.092C498.721 185.953 498.444 185.452 498.581 184.97C498.634 184.782 503.952 165.886 502.218 148.545C500.419 130.55 490.942 114.899 477.482 107.696C474.092 105.881 470.279 104.112 466.242 102.239C453.826 96.4787 439.753 89.9489 433.358 79.594C433.095 79.1681 433.226 78.6079 433.654 78.3454C434.08 78.0813 434.638 78.2142 434.901 78.6416C441.009 88.5325 454.822 94.9401 467.005 100.594C471.067 102.479 474.902 104.259 478.337 106.098C492.323 113.582 502.165 129.777 504.023 148.363C505.792 166.057 500.379 185.275 500.326 185.468C500.211 185.868 499.848 186.126 499.454 186.126" fill="#E29420"/>
<path d="M514.365 179.522C514.309 179.522 514.251 179.516 514.194 179.506C513.701 179.411 513.381 178.936 513.474 178.443C514.815 171.448 513.15 159.582 511.68 149.116C510.801 142.85 509.969 136.932 509.894 132.791L509.872 131.01C509.742 119.144 509.502 97.0587 484.23 83.5961C457.805 69.526 435.275 77.5746 435.05 77.657C434.577 77.8325 434.06 77.5914 433.884 77.1213C433.712 76.6511 433.95 76.1306 434.42 75.9566C434.652 75.8711 457.908 67.5234 485.082 81.9965C511.305 95.9628 511.561 119.62 511.685 130.988L511.708 132.761C511.781 136.79 512.604 142.654 513.475 148.862C514.965 159.471 516.653 171.494 515.255 178.785C515.173 179.22 514.793 179.522 514.365 179.522" fill="#E29420"/>
<path d="M417.248 292.544C416.851 292.544 416.488 292.282 416.375 291.882C416.241 291.399 416.523 290.899 417.006 290.764L425.475 288.402C425.956 288.264 426.458 288.55 426.591 289.032C426.727 289.514 426.445 290.013 425.962 290.148L417.493 292.511C417.41 292.534 417.329 292.544 417.248 292.544" fill="#F7967B"/>
<path d="M421.483 284.087C421.072 284.087 420.701 283.806 420.602 283.391C420.486 282.902 420.786 282.412 421.273 282.298C421.324 282.285 426.28 281.106 428.959 280.149C432.222 278.982 434.724 281.438 434.828 281.544C435.183 281.898 435.183 282.472 434.828 282.826C434.475 283.178 433.904 283.18 433.548 282.827C433.471 282.752 431.732 281.084 429.568 281.857C426.794 282.846 421.899 284.013 421.693 284.062C421.623 284.079 421.551 284.087 421.483 284.087" fill="#F7967B"/>
<path d="M341.963 75.2529C341.56 75.2529 341.192 74.9827 341.087 74.5737C341.073 74.5218 339.739 69.3764 338.768 64.5332C337.753 59.484 338.752 56.329 338.794 56.1962C338.95 55.723 339.458 55.462 339.935 55.6162C340.409 55.7688 340.672 56.2786 340.521 56.7548C340.511 56.7838 339.634 59.6305 340.547 64.1761C341.507 68.9704 342.829 74.0669 342.841 74.1188C342.967 74.6027 342.677 75.0972 342.192 75.2239C342.116 75.2438 342.039 75.2529 341.963 75.2529Z" fill="#F7967B"/>
<path d="M348.642 98.4813C348.642 98.4813 346.719 93.0077 345.536 89.4574C345.132 88.2485 344.912 86.5038 344.679 84.6538C344.216 80.9951 343.641 76.442 341.49 75.1171C338.599 73.345 336.754 76.2329 336.677 76.3565C336.415 76.7824 335.853 76.9106 335.429 76.6465C335.004 76.3824 334.873 75.8238 335.137 75.398C336.12 73.8197 338.912 71.4065 342.438 73.5739C345.332 75.3506 345.941 80.1724 346.478 84.4279C346.699 86.1848 346.909 87.8455 347.255 88.8834C348.436 92.4231 350.352 97.8783 350.352 97.8814L348.642 98.4813" fill="#F7967B"/>
<path d="M246.814 123.637C246.814 123.637 253.51 137.03 257.056 157.12C260.6 177.209 253.51 200.843 217.271 207.145C217.271 207.145 221.603 217.387 217.271 226.052C212.938 234.719 192.849 240.628 180.638 226.052C180.638 226.052 186.547 217.387 182.607 203.995C178.669 190.602 178.669 190.602 178.669 190.602C178.669 190.602 169.215 195.328 157.398 184.298C151.489 179.271 153.065 162.635 163.7 164.21C174.335 165.785 173.942 175.239 173.942 175.239L181.426 173.27C181.426 173.27 177.486 163.816 178.274 152.787C178.274 152.787 206.636 144.909 226.724 134.273C246.814 123.637 246.814 123.637 246.814 123.637" fill="#F7967B"/>
<path d="M132.189 288.29C132.239 288.281 132.321 288.231 132.383 288.208C133.169 285.112 134.025 282.063 134.945 279.231C140.066 263.474 147.156 255.202 152.277 249.688C157.398 244.172 180.638 226.052 180.638 226.052C180.638 226.052 186.547 217.387 182.608 203.995C178.669 190.602 178.669 190.602 178.669 190.602C178.669 190.602 169.215 195.328 157.398 184.298C151.489 179.271 153.065 162.635 163.7 164.21C174.335 165.785 173.942 175.24 173.942 175.24L181.426 173.27C181.426 173.27 177.487 163.816 178.274 152.787C178.274 152.787 206.636 144.909 226.724 134.273C246.814 123.637 246.814 123.637 246.814 123.637C246.814 123.637 247.948 125.921 249.521 129.961L249.522 129.96C249.522 129.96 252.723 127.183 253.511 123.637C254.298 120.093 253.117 111.033 237.754 97.2465C222.392 83.4588 208.605 87.3983 208.605 87.3983C180.638 72.8245 157.004 91.3379 157.004 91.3379C157.004 91.3379 145.581 82.2774 133.764 86.8779C121.946 91.4784 104.221 106.307 102.251 134.667C100.282 163.029 118.795 174.058 121.159 187.618C123.522 201.179 108.554 208.327 109.341 234.904C110.129 261.483 121.159 261.11 127.461 271.352C133.764 281.594 122.34 282.775 122.34 282.775C122.34 282.775 127.461 289.078 132.189 288.29" fill="#2B2C5A"/>
<path d="M217.271 207.145C217.271 207.145 204.863 208.377 194.08 202.911C183.297 197.445 178.669 190.602 178.669 190.602L182.607 203.995C182.607 203.995 195.119 220.922 219.12 219.155C219.12 219.155 219.93 213.448 217.271 207.145" fill="#F46B54"/>
<path d="M209.737 166.3C209.343 166.3 208.982 166.042 208.866 165.645C208.73 165.17 205.552 153.986 208.943 147.82C210.093 145.73 212.086 144.648 214.559 144.814C218.961 145.083 225.047 149.435 228.162 157.227C228.347 157.691 228.121 158.219 227.655 158.405C227.191 158.588 226.663 158.365 226.477 157.9C223.673 150.883 218.187 146.852 214.449 146.625C212.663 146.516 211.348 147.211 210.532 148.694C207.503 154.201 210.577 165.031 210.609 165.139C210.748 165.622 210.47 166.122 209.989 166.263C209.905 166.287 209.821 166.3 209.737 166.3" fill="#5C263D"/>
<path d="M240.313 150.492C239.888 150.492 239.509 150.192 239.425 149.758C237.868 141.74 238.056 136.618 239.997 134.102C240.855 132.991 242.035 132.38 243.507 132.284C248.512 131.959 253.663 140.235 254.235 141.178C254.497 141.607 254.359 142.165 253.932 142.424C253.504 142.685 252.947 142.549 252.686 142.12C251.283 139.815 246.894 133.879 243.623 134.095C242.682 134.156 241.965 134.52 241.432 135.21C239.851 137.26 239.773 142.039 241.205 149.413C241.301 149.905 240.979 150.381 240.487 150.476C240.429 150.488 240.371 150.492 240.313 150.492" fill="#5C263D"/>
<path d="M227.945 181.401C220.788 181.401 219.205 174.22 219.19 174.144C219.088 173.655 219.401 173.176 219.891 173.072C220.382 172.973 220.86 173.283 220.964 173.771C221.02 174.029 222.369 180.075 228.719 179.555C231.064 179.364 232.717 178.691 233.631 177.556C234.553 176.413 234.402 175.172 234.394 175.12C234.329 174.627 234.672 174.169 235.165 174.099C235.66 174.031 236.114 174.365 236.188 174.858C236.2 174.939 236.476 176.883 235.073 178.657C233.839 180.217 231.751 181.128 228.867 181.363C228.55 181.388 228.243 181.401 227.945 181.401" fill="#5C263D"/>
<path d="M321.655 118.123C321.655 118.123 323.035 109.851 322 106.896C320.967 103.943 318.308 105.124 311.366 104.976C304.423 104.829 296.446 103.943 296.742 106.75C297.036 109.555 297.333 117.237 297.333 117.237C300.582 115.76 321.655 118.123 321.655 118.123" fill="#D22155"/>
<path d="M299.071 104.978C301.9 104.477 306.845 104.881 311.366 104.976C315.469 105.063 318.05 104.703 319.709 104.99L319.721 104.978C319.721 104.978 322.887 95.2271 322.385 89.4666C321.884 83.706 321.41 76.7625 321.115 68.195C320.819 59.6275 317.569 59.9236 317.569 59.9236C318.308 52.2429 319.489 40.2777 316.24 39.8351C312.99 39.3909 310.331 44.4142 310.331 44.4142C310.331 44.4142 308.411 42.7886 305.454 50.3228C302.499 57.8554 299.695 65.8323 298.071 71.7408C296.446 77.6494 298.662 85.3301 299.071 90.0573C299.48 94.7845 299.071 104.978 299.071 104.978" fill="#F7967B"/>
<path d="M302.797 76.7839C302.364 76.7839 301.98 76.471 301.904 76.0314C301.258 72.2933 301.906 69.9946 303.467 64.4386C303.797 63.2679 304.168 61.946 304.58 60.4258C306.923 51.785 309.446 44.202 309.47 44.1272C309.629 43.651 310.143 43.393 310.618 43.5532C311.093 43.712 311.349 44.2264 311.191 44.7011C311.166 44.7759 308.658 52.3116 306.331 60.8989C305.917 62.4253 305.544 63.7548 305.213 64.9286C303.687 70.3579 303.116 72.3895 303.691 75.7231C303.775 76.2161 303.446 76.6862 302.951 76.7717C302.899 76.7794 302.847 76.7839 302.797 76.7839" fill="#DF5443"/>
<path d="M311.365 82.7107C310.879 82.7107 310.478 82.3276 310.459 81.8392C310.453 81.6682 310.316 77.657 311.082 74.8958C311.771 72.42 312.354 69.0894 312.973 64.0951C313.221 62.1063 313.915 60.6639 315.039 59.8045C316.279 58.8551 317.554 59.0062 317.697 59.026C318.194 59.0963 318.539 59.5557 318.467 60.0518C318.397 60.5418 317.937 60.8821 317.453 60.8226C317.221 60.8043 315.223 60.6929 314.773 64.3195C314.141 69.4039 313.541 72.8153 312.83 75.3811C312.137 77.8752 312.27 81.7324 312.271 81.7705C312.29 82.2712 311.899 82.6924 311.4 82.7107C311.387 82.7107 311.375 82.7107 311.365 82.7107" fill="#DF5443"/>
<path d="M161.337 176.815C160.911 176.032 160.719 175.174 160.708 174.232C160.75 173.335 160.97 172.155 162.094 171.282C163.257 170.445 164.716 170.534 165.654 170.807C166.688 171.097 167.638 171.639 168.347 172.297C169.822 173.611 170.647 175.232 171.174 176.859C171.673 178.498 171.89 180.199 171.578 181.936C170.429 180.617 169.54 179.326 168.621 178.13C167.728 176.935 166.849 175.806 165.94 175.009C165.499 174.575 165.043 174.313 164.59 174.072C164.058 173.814 163.778 173.765 163.542 173.727C163.296 173.708 162.782 174.069 162.422 174.681C162.009 175.275 161.706 176.016 161.337 176.815" fill="#DF5443"/>
<path d="M231.303 143.234C234.025 145.089 236.372 147.118 238.746 149.036C239.952 149.966 241.09 150.952 242.287 151.793C243.478 152.637 244.656 153.464 245.869 154.049L246.996 154.591L246.929 155.549C246.866 156.476 246.662 157.189 246.416 157.969C246.179 158.729 245.847 159.46 245.437 160.142C244.651 161.514 243.476 162.7 242.087 163.325C242.438 162.642 242.753 162.009 242.968 161.342C243.201 160.689 243.362 160.032 243.491 159.379C243.606 158.72 243.682 158.065 243.739 157.414C243.78 156.783 243.769 156.064 243.745 155.549L244.804 157.05C243.058 156.544 241.538 155.705 240.17 154.728C238.802 153.748 237.574 152.651 236.485 151.431C235.366 150.247 234.382 148.954 233.506 147.592C232.621 146.24 231.857 144.796 231.303 143.234" fill="#DF5443"/>
<path d="M153.99 180.179C153.84 180.179 153.688 180.141 153.548 180.063C153.266 179.906 125.335 163.938 130.902 133.324C136.426 102.94 156.337 90.6816 156.537 90.561C156.966 90.303 157.523 90.4419 157.781 90.8708C158.038 91.2997 157.9 91.8569 157.471 92.1148C157.278 92.2308 138.056 104.112 132.686 133.647C127.349 163.001 154.161 178.329 154.432 178.48C154.87 178.723 155.026 179.275 154.782 179.713C154.617 180.011 154.308 180.179 153.99 180.179" fill="#353D74"/>
<path d="M171.578 139.119C171.116 139.119 170.722 138.768 170.676 138.3C170.561 137.121 168.042 109.303 183.044 97.9029C197.887 86.6215 208.176 86.4902 208.605 86.4902C209.105 86.4902 209.51 86.8962 209.511 87.3968C209.513 87.896 209.107 88.3019 208.606 88.305C208.507 88.3065 198.445 88.476 184.142 99.3468C169.937 110.143 172.454 137.845 172.481 138.124C172.53 138.622 172.165 139.064 171.666 139.115C171.636 139.116 171.607 139.119 171.578 139.119" fill="#353D74"/>
<path d="M136.579 275.531C136.38 275.531 136.178 275.466 136.009 275.33C135.48 274.901 123.019 264.552 121.534 241.67C120.666 228.31 124.784 218.393 128.415 209.642C131.069 203.25 133.576 197.212 133.942 190.552C134.49 180.562 128.971 173.971 123.129 166.991C119.746 162.951 116.249 158.773 113.655 153.692C106.649 139.973 109.485 119.361 120.25 105.745C130.619 92.6307 146.86 99.9314 147.022 100.008C147.477 100.217 147.674 100.754 147.464 101.21C147.254 101.665 146.715 101.862 146.262 101.653C145.65 101.372 131.147 94.8882 121.673 106.869C111.488 119.75 108.676 139.954 115.27 152.866C117.772 157.764 121.203 161.862 124.52 165.826C130.598 173.087 136.34 179.947 135.752 190.651C135.37 197.621 132.806 203.798 130.09 210.338C126.361 219.323 122.503 228.615 123.344 241.553C124.775 263.597 137.029 273.82 137.153 273.921C137.541 274.237 137.6 274.808 137.284 275.195C137.105 275.417 136.843 275.531 136.579 275.531" fill="#353D74"/>
<path d="M147.58 256.01C147.223 256.01 146.885 255.798 146.741 255.447C146.446 254.73 139.557 237.66 143.148 220.347C146.702 203.215 145.735 198.772 143.15 186.896C140.556 174.982 138.167 165.71 138.144 165.619C138.042 165.228 138.212 164.817 138.559 164.611C138.765 164.491 159.205 152.202 170.572 130.476C170.805 130.033 171.353 129.859 171.795 130.092C172.239 130.324 172.41 130.872 172.178 131.317C161.656 151.43 143.533 163.609 140.064 165.811C140.65 168.119 142.713 176.361 144.922 186.51C147.567 198.66 148.556 203.206 144.925 220.716C141.444 237.489 148.348 254.588 148.419 254.759C148.61 255.223 148.388 255.753 147.924 255.942C147.812 255.988 147.695 256.01 147.58 256.01" fill="#353D74"/>
<path d="M156.797 246.365C156.763 246.365 156.73 246.362 156.695 246.359C156.197 246.304 155.84 245.854 155.894 245.358C155.909 245.236 157.232 233.005 154.654 223.836C152.045 214.56 145.879 201.06 145.817 200.925C145.609 200.469 145.808 199.932 146.263 199.722C146.72 199.513 147.257 199.716 147.466 200.17C147.529 200.307 153.753 213.933 156.4 223.346C159.076 232.86 157.755 245.045 157.697 245.559C157.646 246.022 157.253 246.365 156.797 246.365" fill="#353D74"/>
<path d="M169.58 235.739C169.56 235.739 169.541 235.739 169.52 235.737C169.021 235.705 168.643 235.273 168.674 234.774C168.684 234.618 169.627 219.159 165.602 208.247C161.349 196.716 165.523 190.357 165.703 190.093C165.985 189.679 166.55 189.571 166.962 189.851C167.376 190.132 167.484 190.694 167.204 191.109C167.135 191.214 163.412 197.071 167.303 207.621C171.463 218.897 170.526 234.243 170.484 234.892C170.453 235.371 170.054 235.739 169.58 235.739" fill="#353D74"/>
<path d="M183.387 152.184C183.014 152.184 182.664 151.952 182.533 151.578C182.447 151.335 173.99 126.982 175.679 107.168C175.721 106.67 176.146 106.28 176.66 106.342C177.158 106.385 177.528 106.823 177.486 107.324C175.83 126.751 184.16 150.737 184.244 150.978C184.41 151.449 184.161 151.967 183.688 152.132C183.589 152.168 183.488 152.184 183.387 152.184" fill="#353D74"/>
<path d="M204.271 145.323C203.824 145.323 203.436 144.993 203.374 144.54C199.616 117.082 183.101 99.4246 182.936 99.249C182.591 98.8857 182.606 98.3118 182.968 97.9684C183.334 97.6219 183.906 97.6371 184.25 98.0004C184.421 98.179 201.335 116.262 205.17 144.292C205.237 144.788 204.891 145.246 204.395 145.315C204.354 145.321 204.313 145.323 204.271 145.323" fill="#353D74"/>
<path d="M233.104 131.802C232.702 131.802 232.334 131.533 232.228 131.126C222.089 92.533 193.755 93.6412 192.55 93.6992C192.047 93.7175 191.622 93.345 191.595 92.8444C191.567 92.3453 191.949 91.9179 192.448 91.8889C192.756 91.8599 223.455 90.5991 233.981 130.665C234.109 131.149 233.819 131.646 233.335 131.773C233.259 131.793 233.179 131.802 233.104 131.802" fill="#353D74"/>
<path d="M242.603 126.774C242.218 126.774 241.863 126.528 241.739 126.144C241.626 125.793 230.123 91.022 199.048 94.3357C198.546 94.3983 198.105 94.0289 198.051 93.5298C197.998 93.0322 198.36 92.5849 198.857 92.5331C231.413 89.0697 243.351 125.225 243.467 125.591C243.618 126.067 243.356 126.579 242.879 126.73C242.788 126.76 242.695 126.774 242.603 126.774Z" fill="#353D74"/>
<path d="M135.675 160.873C135.579 160.873 135.482 160.858 135.386 160.824C134.911 160.666 134.655 160.151 134.815 159.678C134.915 159.382 145.086 129.921 173.122 114.325C173.56 114.082 174.111 114.241 174.355 114.678C174.598 115.116 174.44 115.667 174.003 115.911C146.598 131.156 136.632 159.967 136.534 160.255C136.406 160.634 136.054 160.873 135.675 160.873Z" fill="#353D74"/>
<path d="M135.674 120.488C135.497 120.488 135.32 120.437 135.163 120.33C134.749 120.047 134.644 119.483 134.926 119.069C135.133 118.768 155.927 88.914 186.904 95.4835C187.394 95.5873 187.707 96.0696 187.603 96.5596C187.501 97.0495 187.019 97.364 186.529 97.2586C171.002 93.9678 158.234 100.321 150.255 106.229C141.547 112.678 136.474 120.02 136.423 120.093C136.248 120.35 135.963 120.488 135.674 120.488Z" fill="#353D74"/>
<path d="M626.188 339L599.19 309.318L572.159 339L540.923 304.663L549.415 296.948L572.159 321.968L599.19 292.285L626.188 321.968L648.973 296.948L657.449 304.663L626.188 339Z" fill="url(#paint0_linear)"/>
<path d="M58.0657 14.0297L35.8537 52.5019H80.281L58.0657 14.0297ZM58.0657 24.2516L71.4281 47.3924H44.7066L58.0657 24.2516Z" fill="url(#paint1_linear)"/>
<defs>
<linearGradient id="paint0_linear" x1="251.63" y1="478.055" x2="840.47" y2="197.655" gradientUnits="userSpaceOnUse">
<stop stop-color="#9B51E0"/>
<stop offset="1" stop-color="#2F80ED"/>
</linearGradient>
<linearGradient id="paint1_linear" x1="35.8537" y1="33.2674" x2="80.2801" y2="33.2674" gradientUnits="userSpaceOnUse">
<stop stop-color="#9B51E0"/>
<stop offset="1" stop-color="#2F80ED"/>
</linearGradient>
</defs>
</svg>
