<svg width="252" height="150" viewBox="0 0 252 150" fill="none" xmlns="http://www.w3.org/2000/svg">
<g filter="url(#filter0_d)">
<path d="M15 51C15 42.7157 21.7157 36 30 36H222C230.284 36 237 42.7157 237 51V135H30C21.7157 135 15 128.284 15 120V51Z" fill="white"/>
</g>
<path d="M73.0956 54.3281C73.0064 54.9921 72.8066 55.6364 72.5047 56.2344C71.9689 57.3742 71.1197 58.3381 70.0563 59.0132C68.993 59.6883 67.7595 60.0468 66.5 60.0468C65.2405 60.0468 64.0069 59.6883 62.9436 59.0132C61.8803 58.3381 61.0311 57.3742 60.4953 56.2344C60.1933 55.6364 59.9936 54.9921 59.9044 54.3281H73.0956Z" fill="#FBBF13"/>
<path d="M66.5 8.57812C68.6056 8.57812 70.3125 6.87121 70.3125 4.76562C70.3125 2.66004 68.6056 0.953125 66.5 0.953125C64.3944 0.953125 62.6875 2.66004 62.6875 4.76562C62.6875 6.87121 64.3944 8.57812 66.5 8.57812Z" fill="#FBBF13"/>
<path d="M64.5937 4.76561C64.5952 3.92236 64.8769 3.10352 65.3945 2.43781C65.9121 1.77209 66.6362 1.29726 67.4531 1.08796C66.9296 0.951645 66.3831 0.928478 65.8499 1.02C65.3167 1.11153 64.8092 1.31564 64.3611 1.61874C63.9131 1.92183 63.5348 2.31696 63.2514 2.77777C62.968 3.23857 62.7862 3.75449 62.7179 4.29112C62.6496 4.82775 62.6965 5.37277 62.8554 5.88986C63.0143 6.40695 63.2816 6.88423 63.6395 7.28988C63.9974 7.69554 64.4376 8.02025 64.9308 8.24239C65.4241 8.46452 65.959 8.57897 66.5 8.57811C66.8221 8.57396 67.1424 8.52865 67.4531 8.44326C66.6363 8.23394 65.9121 7.75911 65.3945 7.0934C64.8769 6.42769 64.5952 5.60886 64.5937 4.76561ZM61.8106 54.3281H59.9044C60.1341 55.9143 60.9269 57.365 62.1379 58.415C63.3489 59.4649 64.8972 60.0442 66.5 60.0469C66.8194 60.0406 67.138 60.0111 67.4531 59.9587C66.0316 59.7532 64.7144 59.0941 63.6977 58.0796C62.6809 57.065 62.0191 55.7492 61.8106 54.3281Z" fill="#EAB220"/>
<path d="M90.3281 54.3281H42.6719V50.5156C42.6719 49.5045 43.0735 48.5348 43.7885 47.8198C44.5035 47.1048 45.4732 46.7031 46.4844 46.7031H86.5156C87.5268 46.7031 88.4965 47.1048 89.2115 47.8198C89.9265 48.5348 90.3281 49.5045 90.3281 50.5156V54.3281Z" fill="#FDD402"/>
<path d="M48.3906 46.7031H46.4844C45.4732 46.7031 44.5035 47.1048 43.7885 47.8198C43.0735 48.5348 42.6719 49.5045 42.6719 50.5156V54.3281H44.5781V50.5156C44.5781 49.5045 44.9798 48.5348 45.6948 47.8198C46.4098 47.1048 47.3795 46.7031 48.3906 46.7031Z" fill="#FBBF13"/>
<path d="M86.5156 46.7031H46.4844C47.4946 46.7002 48.4626 46.2975 49.1769 45.5832C49.8913 44.8688 50.2939 43.9008 50.2969 42.8906V24.7812C50.2969 20.4839 52.004 16.3626 55.0427 13.3239C58.0813 10.2852 62.2027 8.57813 66.5 8.57812C70.7973 8.57813 74.9187 10.2852 77.9573 13.3239C80.996 16.3626 82.7031 20.4839 82.7031 24.7812V42.8906C82.7061 43.9008 83.1087 44.8688 83.8231 45.5832C84.5374 46.2975 85.5054 46.7002 86.5156 46.7031Z" fill="#FDD402"/>
<path d="M52.2031 42.8906V24.7812C52.1998 20.65 53.778 16.6742 56.6139 13.67C59.4497 10.6657 63.328 8.86103 67.4525 8.6263C67.1356 8.60779 66.8216 8.57812 66.5 8.57812C62.2029 8.57881 58.0819 10.2861 55.0434 13.3247C52.0049 16.3632 50.2976 20.4841 50.2969 24.7812V42.8906C50.2939 43.9008 49.8913 44.8688 49.1769 45.5832C48.4626 46.2975 47.4946 46.7002 46.4844 46.7031H48.3906C49.4008 46.7002 50.3688 46.2975 51.0832 45.5832C51.7975 44.8688 52.2002 43.9008 52.2031 42.8906Z" fill="#FBBF13"/>
<path d="M86.5156 46.7031H46.4844C47.4946 46.7002 48.4626 46.2975 49.1769 45.5832C49.8913 44.8688 50.2939 43.9008 50.2969 42.8906V40.9844H82.7031V42.8906C82.7061 43.9008 83.1087 44.8688 83.8231 45.5832C84.5374 46.2975 85.5054 46.7002 86.5156 46.7031Z" fill="#FBBF13"/>
<path d="M93.7776 39.3564C93.6007 39.3563 93.4273 39.3069 93.2769 39.2139C93.1264 39.1209 93.0048 38.9878 92.9256 38.8296C92.8464 38.6714 92.8127 38.4943 92.8284 38.3181C92.8441 38.1419 92.9085 37.9735 93.0144 37.8318C94.6318 35.6433 95.3423 32.915 94.9975 30.2156C94.6528 27.5162 93.2795 25.054 91.164 23.3423C90.9662 23.1848 90.8392 22.9552 90.8107 22.704C90.7822 22.4528 90.8547 22.2006 91.0122 22.0029C91.1697 21.8052 91.3993 21.6781 91.6504 21.6496C91.9016 21.6212 92.1538 21.6937 92.3516 21.8511C94.8519 23.8739 96.4751 26.7835 96.883 29.9736C97.2909 33.1636 96.4519 36.3881 94.5409 38.9748C94.4521 39.0934 94.3369 39.1896 94.2044 39.2559C94.0719 39.3221 93.9257 39.3565 93.7776 39.3564Z" fill="#8B8891"/>
<path d="M89.2019 35.9246C89.0249 35.9245 88.8514 35.8751 88.7009 35.7819C88.5504 35.6887 88.4288 35.5555 88.3498 35.3971C88.2708 35.2387 88.2374 35.0615 88.2534 34.8852C88.2694 34.7089 88.3342 34.5406 88.4405 34.3991C89.1772 33.4029 89.5 32.1603 89.3415 30.9315C89.1829 29.7027 88.5552 28.5829 87.5898 27.8063C87.3925 27.6491 87.2656 27.42 87.2369 27.1693C87.2083 26.9187 87.2802 26.6669 87.437 26.4692C87.5937 26.2715 87.8225 26.1441 88.0731 26.1148C88.3237 26.0856 88.5757 26.157 88.7737 26.3133C90.126 27.4003 91.0051 28.9684 91.2268 30.6892C91.4486 32.4099 90.9957 34.1497 89.9632 35.5439C89.8748 35.6623 89.7599 35.7584 89.6277 35.8245C89.4955 35.8906 89.3497 35.9249 89.2019 35.9246ZM39.2224 39.3564C39.0743 39.3566 38.9281 39.3221 38.7956 39.2559C38.6631 39.1896 38.5479 39.0934 38.4591 38.9748C36.5481 36.3881 35.7091 33.1637 36.1169 29.9736C36.5248 26.7835 38.148 23.8739 40.6483 21.8511C40.846 21.6937 41.0982 21.6212 41.3494 21.6496C41.6006 21.6781 41.8302 21.8052 41.9877 22.0029C42.1452 22.2006 42.2176 22.4528 42.1892 22.704C42.1607 22.9552 42.0336 23.1848 41.8359 23.3423C39.7203 25.054 38.3471 27.5162 38.0023 30.2156C37.6576 32.915 38.368 35.6433 39.9855 37.8318C40.0914 37.9735 40.1558 38.1419 40.1714 38.3181C40.1871 38.4943 40.1535 38.6714 40.0743 38.8296C39.9951 38.9878 39.8735 39.1208 39.723 39.2139C39.5725 39.3069 39.3992 39.3563 39.2223 39.3564L39.2224 39.3564Z" fill="#8B8891"/>
<path d="M43.7981 35.9246C43.6503 35.9249 43.5045 35.8906 43.3723 35.8245C43.2401 35.7584 43.1252 35.6623 43.0367 35.5439C42.0042 34.1496 41.5514 32.4099 41.7732 30.6892C41.9949 28.9684 42.874 27.4003 44.2262 26.3133C44.4243 26.157 44.6762 26.0856 44.9268 26.1148C45.1775 26.1441 45.4062 26.2715 45.563 26.4692C45.7198 26.6669 45.7917 26.9187 45.7631 27.1693C45.7344 27.42 45.6075 27.6491 45.4102 27.8063C44.4448 28.5829 43.8171 29.7027 43.6585 30.9315C43.4999 32.1603 43.8228 33.4029 44.5594 34.3991C44.6658 34.5406 44.7306 34.7089 44.7466 34.8852C44.7626 35.0615 44.7292 35.2387 44.6502 35.3971C44.5711 35.5555 44.4496 35.6887 44.2991 35.7819C44.1486 35.8751 43.9751 35.9245 43.7981 35.9246L43.7981 35.9246Z" fill="#8B8891"/>
<path d="M50.32 76.14V78.32H46.06V90H43.52V78.32H39.26V76.14H50.32ZM60.038 89.68C59.5713 89.8 58.9646 89.92 58.218 90.04C57.4713 90.1733 56.6513 90.24 55.758 90.24C54.918 90.24 54.2113 90.12 53.638 89.88C53.078 89.64 52.6246 89.3067 52.278 88.88C51.9446 88.4533 51.7046 87.9467 51.558 87.36C51.4113 86.76 51.338 86.1067 51.338 85.4V79.54H53.758V85.02C53.758 86.14 53.918 86.94 54.238 87.42C54.5713 87.9 55.1446 88.14 55.958 88.14C56.2513 88.14 56.558 88.1267 56.878 88.1C57.2113 88.0733 57.458 88.04 57.618 88V79.54H60.038V89.68ZM73.7461 81.72C73.5461 81.6533 73.2661 81.5867 72.9061 81.52C72.5594 81.44 72.1528 81.4 71.6861 81.4C71.4194 81.4 71.1328 81.4267 70.8261 81.48C70.5328 81.5333 70.3261 81.58 70.2061 81.62V90H67.7861V80.04C68.2528 79.8667 68.8328 79.7067 69.5261 79.56C70.2328 79.4 71.0128 79.32 71.8661 79.32C72.0261 79.32 72.2128 79.3333 72.4261 79.36C72.6394 79.3733 72.8528 79.4 73.0661 79.44C73.2794 79.4667 73.4861 79.5067 73.6861 79.56C73.8861 79.6 74.0461 79.64 74.1661 79.68L73.7461 81.72ZM75.2725 84.82C75.2725 83.9 75.4058 83.0933 75.6725 82.4C75.9525 81.7067 76.3192 81.1333 76.7725 80.68C77.2258 80.2133 77.7458 79.8667 78.3325 79.64C78.9192 79.4 79.5192 79.28 80.1325 79.28C81.5725 79.28 82.6925 79.7267 83.4925 80.62C84.3058 81.5133 84.7125 82.8467 84.7125 84.62C84.7125 84.7533 84.7058 84.9067 84.6925 85.08C84.6925 85.24 84.6858 85.3867 84.6725 85.52H77.7725C77.8392 86.36 78.1325 87.0133 78.6525 87.48C79.1858 87.9333 79.9525 88.16 80.9525 88.16C81.5392 88.16 82.0725 88.1067 82.5525 88C83.0458 87.8933 83.4325 87.78 83.7125 87.66L84.0325 89.64C83.8992 89.7067 83.7125 89.78 83.4725 89.86C83.2458 89.9267 82.9792 89.9867 82.6725 90.04C82.3792 90.1067 82.0592 90.16 81.7125 90.2C81.3658 90.24 81.0125 90.26 80.6525 90.26C79.7325 90.26 78.9325 90.1267 78.2525 89.86C77.5725 89.58 77.0125 89.2 76.5725 88.72C76.1325 88.2267 75.8058 87.6533 75.5925 87C75.3792 86.3333 75.2725 85.6067 75.2725 84.82ZM82.2925 83.74C82.2925 83.4067 82.2458 83.0933 82.1525 82.8C82.0592 82.4933 81.9192 82.2333 81.7325 82.02C81.5592 81.7933 81.3392 81.62 81.0725 81.5C80.8192 81.3667 80.5125 81.3 80.1525 81.3C79.7792 81.3 79.4525 81.3733 79.1725 81.52C78.8925 81.6533 78.6525 81.8333 78.4525 82.06C78.2658 82.2867 78.1192 82.5467 78.0125 82.84C77.9058 83.1333 77.8325 83.4333 77.7925 83.74H82.2925ZM95.8583 89.68C95.3916 89.8 94.7849 89.92 94.0383 90.04C93.2916 90.1733 92.4716 90.24 91.5783 90.24C90.7383 90.24 90.0316 90.12 89.4583 89.88C88.8983 89.64 88.4449 89.3067 88.0983 88.88C87.7649 88.4533 87.5249 87.9467 87.3783 87.36C87.2316 86.76 87.1583 86.1067 87.1583 85.4V79.54H89.5783V85.02C89.5783 86.14 89.7383 86.94 90.0583 87.42C90.3916 87.9 90.9649 88.14 91.7783 88.14C92.0716 88.14 92.3783 88.1267 92.6983 88.1C93.0316 88.0733 93.2783 88.04 93.4383 88V79.54H95.8583V89.68ZM98.9384 79.88C99.4051 79.7467 100.012 79.62 100.758 79.5C101.505 79.38 102.332 79.32 103.238 79.32C104.092 79.32 104.805 79.44 105.378 79.68C105.952 79.9067 106.405 80.2333 106.738 80.66C107.085 81.0733 107.325 81.58 107.458 82.18C107.605 82.7667 107.678 83.4133 107.678 84.12V90H105.258V84.5C105.258 83.94 105.218 83.4667 105.138 83.08C105.072 82.68 104.952 82.36 104.778 82.12C104.618 81.8667 104.392 81.6867 104.098 81.58C103.818 81.46 103.472 81.4 103.058 81.4C102.752 81.4 102.432 81.42 102.098 81.46C101.765 81.5 101.518 81.5333 101.358 81.56V90H98.9384V79.88ZM113.078 90H110.658V79.54H113.078V90ZM113.338 76.48C113.338 76.9333 113.191 77.2933 112.898 77.56C112.604 77.8267 112.258 77.96 111.858 77.96C111.444 77.96 111.091 77.8267 110.798 77.56C110.504 77.2933 110.358 76.9333 110.358 76.48C110.358 76.0133 110.504 75.6467 110.798 75.38C111.091 75.1133 111.444 74.98 111.858 74.98C112.258 74.98 112.604 75.1133 112.898 75.38C113.191 75.6467 113.338 76.0133 113.338 76.48ZM125.625 84.76C125.625 85.5867 125.505 86.34 125.265 87.02C125.025 87.7 124.685 88.28 124.245 88.76C123.805 89.24 123.272 89.6133 122.645 89.88C122.032 90.1467 121.352 90.28 120.605 90.28C119.858 90.28 119.178 90.1467 118.565 89.88C117.952 89.6133 117.425 89.24 116.985 88.76C116.545 88.28 116.198 87.7 115.945 87.02C115.705 86.34 115.585 85.5867 115.585 84.76C115.585 83.9333 115.705 83.1867 115.945 82.52C116.198 81.84 116.545 81.26 116.985 80.78C117.438 80.3 117.972 79.9333 118.585 79.68C119.198 79.4133 119.872 79.28 120.605 79.28C121.338 79.28 122.012 79.4133 122.625 79.68C123.252 79.9333 123.785 80.3 124.225 80.78C124.665 81.26 125.005 81.84 125.245 82.52C125.498 83.1867 125.625 83.9333 125.625 84.76ZM123.145 84.76C123.145 83.72 122.918 82.9 122.465 82.3C122.025 81.6867 121.405 81.38 120.605 81.38C119.805 81.38 119.178 81.6867 118.725 82.3C118.285 82.9 118.065 83.72 118.065 84.76C118.065 85.8133 118.285 86.6467 118.725 87.26C119.178 87.8733 119.805 88.18 120.605 88.18C121.405 88.18 122.025 87.8733 122.465 87.26C122.918 86.6467 123.145 85.8133 123.145 84.76ZM123.225 75.26L119.965 78.42L118.765 77.34L121.705 73.84L123.225 75.26ZM128.118 79.88C128.585 79.7467 129.191 79.62 129.938 79.5C130.685 79.38 131.511 79.32 132.418 79.32C133.271 79.32 133.985 79.44 134.558 79.68C135.131 79.9067 135.585 80.2333 135.918 80.66C136.265 81.0733 136.505 81.58 136.638 82.18C136.785 82.7667 136.858 83.4133 136.858 84.12V90H134.438V84.5C134.438 83.94 134.398 83.4667 134.318 83.08C134.251 82.68 134.131 82.36 133.958 82.12C133.798 81.8667 133.571 81.6867 133.278 81.58C132.998 81.46 132.651 81.4 132.238 81.4C131.931 81.4 131.611 81.42 131.278 81.46C130.945 81.5 130.698 81.5333 130.538 81.56V90H128.118V79.88ZM143.905 84.82C143.905 83.9 144.039 83.0933 144.305 82.4C144.585 81.7067 144.952 81.1333 145.405 80.68C145.859 80.2133 146.379 79.8667 146.965 79.64C147.552 79.4 148.152 79.28 148.765 79.28C150.205 79.28 151.325 79.7267 152.125 80.62C152.939 81.5133 153.345 82.8467 153.345 84.62C153.345 84.7533 153.339 84.9067 153.325 85.08C153.325 85.24 153.319 85.3867 153.305 85.52H146.405C146.472 86.36 146.765 87.0133 147.285 87.48C147.819 87.9333 148.585 88.16 149.585 88.16C150.172 88.16 150.705 88.1067 151.185 88C151.679 87.8933 152.065 87.78 152.345 87.66L152.665 89.64C152.532 89.7067 152.345 89.78 152.105 89.86C151.879 89.9267 151.612 89.9867 151.305 90.04C151.012 90.1067 150.692 90.16 150.345 90.2C149.999 90.24 149.645 90.26 149.285 90.26C148.365 90.26 147.565 90.1267 146.885 89.86C146.205 89.58 145.645 89.2 145.205 88.72C144.765 88.2267 144.439 87.6533 144.225 87C144.012 86.3333 143.905 85.6067 143.905 84.82ZM150.925 83.74C150.925 83.4067 150.879 83.0933 150.785 82.8C150.692 82.4933 150.552 82.2333 150.365 82.02C150.192 81.7933 149.972 81.62 149.705 81.5C149.452 81.3667 149.145 81.3 148.785 81.3C148.412 81.3 148.085 81.3733 147.805 81.52C147.525 81.6533 147.285 81.8333 147.085 82.06C146.899 82.2867 146.752 82.5467 146.645 82.84C146.539 83.1333 146.465 83.4333 146.425 83.74H150.925ZM158.531 88.26C159.171 88.26 159.638 88.1867 159.931 88.04C160.224 87.88 160.371 87.6133 160.371 87.24C160.371 86.8933 160.211 86.6067 159.891 86.38C159.584 86.1533 159.071 85.9067 158.351 85.64C157.911 85.48 157.504 85.3133 157.131 85.14C156.771 84.9533 156.458 84.74 156.191 84.5C155.924 84.26 155.711 83.9733 155.551 83.64C155.404 83.2933 155.331 82.8733 155.331 82.38C155.331 81.42 155.684 80.6667 156.391 80.12C157.098 79.56 158.058 79.28 159.271 79.28C159.884 79.28 160.471 79.34 161.031 79.46C161.591 79.5667 162.011 79.6733 162.291 79.78L161.851 81.74C161.584 81.62 161.244 81.5133 160.831 81.42C160.418 81.3133 159.938 81.26 159.391 81.26C158.898 81.26 158.498 81.3467 158.191 81.52C157.884 81.68 157.731 81.9333 157.731 82.28C157.731 82.4533 157.758 82.6067 157.811 82.74C157.878 82.8733 157.984 83 158.131 83.12C158.278 83.2267 158.471 83.34 158.711 83.46C158.951 83.5667 159.244 83.68 159.591 83.8C160.164 84.0133 160.651 84.2267 161.051 84.44C161.451 84.64 161.778 84.8733 162.031 85.14C162.298 85.3933 162.491 85.6867 162.611 86.02C162.731 86.3533 162.791 86.7533 162.791 87.22C162.791 88.22 162.418 88.98 161.671 89.5C160.938 90.0067 159.884 90.26 158.511 90.26C157.591 90.26 156.851 90.18 156.291 90.02C155.731 89.8733 155.338 89.7533 155.111 89.66L155.531 87.64C155.891 87.7867 156.318 87.9267 156.811 88.06C157.318 88.1933 157.891 88.26 158.531 88.26ZM164.932 76.78L167.352 76.38V79.54H171.072V81.56H167.352V85.82C167.352 86.66 167.485 87.26 167.752 87.62C168.018 87.98 168.472 88.16 169.112 88.16C169.552 88.16 169.938 88.1133 170.272 88.02C170.618 87.9267 170.892 87.84 171.092 87.76L171.492 89.68C171.212 89.8 170.845 89.92 170.392 90.04C169.938 90.1733 169.405 90.24 168.792 90.24C168.045 90.24 167.418 90.14 166.912 89.94C166.418 89.74 166.025 89.4533 165.732 89.08C165.438 88.6933 165.232 88.2333 165.112 87.7C164.992 87.1533 164.932 86.5333 164.932 85.84V76.78ZM177.091 88.3C177.838 88.3 178.404 88.26 178.791 88.18V85.5C178.658 85.46 178.464 85.42 178.211 85.38C177.958 85.34 177.678 85.32 177.371 85.32C177.104 85.32 176.831 85.34 176.551 85.38C176.284 85.42 176.038 85.4933 175.811 85.6C175.598 85.7067 175.424 85.86 175.291 86.06C175.158 86.2467 175.091 86.4867 175.091 86.78C175.091 87.3533 175.271 87.7533 175.631 87.98C175.991 88.1933 176.478 88.3 177.091 88.3ZM176.891 79.28C177.691 79.28 178.364 79.38 178.911 79.58C179.458 79.78 179.891 80.06 180.211 80.42C180.544 80.78 180.778 81.22 180.911 81.74C181.058 82.2467 181.131 82.8067 181.131 83.42V89.76C180.758 89.84 180.191 89.9333 179.431 90.04C178.684 90.16 177.838 90.22 176.891 90.22C176.264 90.22 175.691 90.16 175.171 90.04C174.651 89.92 174.204 89.7267 173.831 89.46C173.471 89.1933 173.184 88.8467 172.971 88.42C172.771 87.9933 172.671 87.4667 172.671 86.84C172.671 86.24 172.784 85.7333 173.011 85.32C173.251 84.9067 173.571 84.5733 173.971 84.32C174.371 84.0533 174.831 83.8667 175.351 83.76C175.884 83.64 176.438 83.58 177.011 83.58C177.278 83.58 177.558 83.6 177.851 83.64C178.144 83.6667 178.458 83.72 178.791 83.8V83.4C178.791 83.12 178.758 82.8533 178.691 82.6C178.624 82.3467 178.504 82.1267 178.331 81.94C178.171 81.74 177.951 81.5867 177.671 81.48C177.404 81.3733 177.064 81.32 176.651 81.32C176.091 81.32 175.578 81.36 175.111 81.44C174.644 81.52 174.264 81.6133 173.971 81.72L173.671 79.76C173.978 79.6533 174.424 79.5467 175.011 79.44C175.598 79.3333 176.224 79.28 176.891 79.28ZM179.911 75.26L176.651 78.42L175.451 77.34L178.391 73.84L179.911 75.26ZM192.443 88.3C193.189 88.3 193.756 88.26 194.143 88.18V85.5C194.009 85.46 193.816 85.42 193.563 85.38C193.309 85.34 193.029 85.32 192.723 85.32C192.456 85.32 192.183 85.34 191.903 85.38C191.636 85.42 191.389 85.4933 191.163 85.6C190.949 85.7067 190.776 85.86 190.643 86.06C190.509 86.2467 190.443 86.4867 190.443 86.78C190.443 87.3533 190.623 87.7533 190.983 87.98C191.343 88.1933 191.829 88.3 192.443 88.3ZM192.243 79.28C193.043 79.28 193.716 79.38 194.263 79.58C194.809 79.78 195.243 80.06 195.563 80.42C195.896 80.78 196.129 81.22 196.263 81.74C196.409 82.2467 196.483 82.8067 196.483 83.42V89.76C196.109 89.84 195.543 89.9333 194.783 90.04C194.036 90.16 193.189 90.22 192.243 90.22C191.616 90.22 191.043 90.16 190.523 90.04C190.003 89.92 189.556 89.7267 189.183 89.46C188.823 89.1933 188.536 88.8467 188.323 88.42C188.123 87.9933 188.023 87.4667 188.023 86.84C188.023 86.24 188.136 85.7333 188.363 85.32C188.603 84.9067 188.923 84.5733 189.323 84.32C189.723 84.0533 190.183 83.8667 190.703 83.76C191.236 83.64 191.789 83.58 192.363 83.58C192.629 83.58 192.909 83.6 193.203 83.64C193.496 83.6667 193.809 83.72 194.143 83.8V83.4C194.143 83.12 194.109 82.8533 194.043 82.6C193.976 82.3467 193.856 82.1267 193.683 81.94C193.523 81.74 193.303 81.5867 193.023 81.48C192.756 81.3733 192.416 81.32 192.003 81.32C191.443 81.32 190.929 81.36 190.463 81.44C189.996 81.52 189.616 81.6133 189.323 81.72L189.023 79.76C189.329 79.6533 189.776 79.5467 190.363 79.44C190.949 79.3333 191.576 79.28 192.243 79.28ZM47.48 107.82C47.48 106.74 47.2333 105.9 46.74 105.3C46.26 104.7 45.48 104.4 44.4 104.4C44.1733 104.4 43.9333 104.413 43.68 104.44C43.44 104.453 43.2 104.493 42.96 104.56V110.54C43.1733 110.687 43.4533 110.827 43.8 110.96C44.16 111.08 44.54 111.14 44.94 111.14C45.82 111.14 46.46 110.84 46.86 110.24C47.2733 109.64 47.48 108.833 47.48 107.82ZM49.96 107.78C49.96 108.58 49.8533 109.313 49.64 109.98C49.44 110.647 49.1467 111.22 48.76 111.7C48.3733 112.18 47.8867 112.553 47.3 112.82C46.7267 113.087 46.0733 113.22 45.34 113.22C44.8467 113.22 44.3933 113.16 43.98 113.04C43.5667 112.92 43.2267 112.787 42.96 112.64V116.7H40.54V102.88C41.0333 102.747 41.64 102.62 42.36 102.5C43.08 102.38 43.84 102.32 44.64 102.32C45.4667 102.32 46.2067 102.447 46.86 102.7C47.5133 102.953 48.0667 103.32 48.52 103.8C48.9867 104.267 49.34 104.84 49.58 105.52C49.8333 106.187 49.96 106.94 49.96 107.78ZM61.0341 112.68C60.5674 112.8 59.9607 112.92 59.2141 113.04C58.4674 113.173 57.6474 113.24 56.7541 113.24C55.9141 113.24 55.2074 113.12 54.6341 112.88C54.0741 112.64 53.6207 112.307 53.2741 111.88C52.9407 111.453 52.7007 110.947 52.5541 110.36C52.4074 109.76 52.3341 109.107 52.3341 108.4V102.54H54.7541V108.02C54.7541 109.14 54.9141 109.94 55.2341 110.42C55.5674 110.9 56.1407 111.14 56.9541 111.14C57.2474 111.14 57.5541 111.127 57.8741 111.1C58.2074 111.073 58.4541 111.04 58.6141 111V102.54H61.0341V112.68ZM64.1142 102.88C64.5809 102.747 65.1876 102.62 65.9342 102.5C66.6809 102.38 67.5076 102.32 68.4142 102.32C69.2676 102.32 69.9809 102.44 70.5542 102.68C71.1276 102.907 71.5809 103.233 71.9142 103.66C72.2609 104.073 72.5009 104.58 72.6342 105.18C72.7809 105.767 72.8542 106.413 72.8542 107.12V113H70.4342V107.5C70.4342 106.94 70.3942 106.467 70.3142 106.08C70.2476 105.68 70.1276 105.36 69.9542 105.12C69.7942 104.867 69.5676 104.687 69.2742 104.58C68.9942 104.46 68.6476 104.4 68.2342 104.4C67.9276 104.4 67.6076 104.42 67.2742 104.46C66.9409 104.5 66.6942 104.533 66.5342 104.56V113H64.1142V102.88ZM75.6934 99.78L78.1134 99.38V102.54H81.8334V104.56H78.1134V108.82C78.1134 109.66 78.2468 110.26 78.5134 110.62C78.7801 110.98 79.2334 111.16 79.8734 111.16C80.3134 111.16 80.7001 111.113 81.0334 111.02C81.3801 110.927 81.6534 110.84 81.8534 110.76L82.2534 112.68C81.9734 112.8 81.6068 112.92 81.1534 113.04C80.7001 113.173 80.1668 113.24 79.5534 113.24C78.8068 113.24 78.1801 113.14 77.6734 112.94C77.1801 112.74 76.7868 112.453 76.4934 112.08C76.2001 111.693 75.9934 111.233 75.8734 110.7C75.7534 110.153 75.6934 109.533 75.6934 108.84V99.78ZM93.3984 107.76C93.3984 108.587 93.2784 109.34 93.0384 110.02C92.7984 110.7 92.4584 111.28 92.0184 111.76C91.5784 112.24 91.0451 112.613 90.4184 112.88C89.8051 113.147 89.1251 113.28 88.3784 113.28C87.6318 113.28 86.9518 113.147 86.3384 112.88C85.7251 112.613 85.1984 112.24 84.7584 111.76C84.3184 111.28 83.9718 110.7 83.7184 110.02C83.4784 109.34 83.3584 108.587 83.3584 107.76C83.3584 106.933 83.4784 106.187 83.7184 105.52C83.9718 104.84 84.3184 104.26 84.7584 103.78C85.2118 103.3 85.7451 102.933 86.3584 102.68C86.9718 102.413 87.6451 102.28 88.3784 102.28C89.1118 102.28 89.7851 102.413 90.3984 102.68C91.0251 102.933 91.5584 103.3 91.9984 103.78C92.4384 104.26 92.7784 104.84 93.0184 105.52C93.2718 106.187 93.3984 106.933 93.3984 107.76ZM90.9184 107.76C90.9184 106.72 90.6918 105.9 90.2384 105.3C89.7984 104.687 89.1784 104.38 88.3784 104.38C87.5784 104.38 86.9518 104.687 86.4984 105.3C86.0584 105.9 85.8384 106.72 85.8384 107.76C85.8384 108.813 86.0584 109.647 86.4984 110.26C86.9518 110.873 87.5784 111.18 88.3784 111.18C89.1784 111.18 89.7984 110.873 90.2384 110.26C90.6918 109.647 90.9184 108.813 90.9184 107.76ZM102.46 107.74C102.46 108.807 102.713 109.647 103.22 110.26C103.726 110.86 104.426 111.16 105.32 111.16C105.706 111.16 106.033 111.147 106.3 111.12C106.58 111.08 106.806 111.04 106.98 111V105C106.766 104.853 106.48 104.72 106.12 104.6C105.773 104.467 105.4 104.4 105 104.4C104.12 104.4 103.473 104.7 103.06 105.3C102.66 105.9 102.46 106.713 102.46 107.74ZM109.4 112.68C108.92 112.827 108.313 112.96 107.58 113.08C106.86 113.2 106.1 113.26 105.3 113.26C104.473 113.26 103.733 113.133 103.08 112.88C102.426 112.627 101.866 112.267 101.4 111.8C100.946 111.32 100.593 110.747 100.34 110.08C100.1 109.4 99.9795 108.64 99.9795 107.8C99.9795 106.973 100.08 106.227 100.28 105.56C100.493 104.88 100.8 104.3 101.2 103.82C101.6 103.34 102.086 102.973 102.66 102.72C103.233 102.453 103.893 102.32 104.64 102.32C105.146 102.32 105.593 102.38 105.98 102.5C106.366 102.62 106.7 102.753 106.98 102.9V97.88L109.4 97.48V112.68ZM111.894 107.82C111.894 106.9 112.027 106.093 112.294 105.4C112.574 104.707 112.94 104.133 113.394 103.68C113.847 103.213 114.367 102.867 114.954 102.64C115.54 102.4 116.14 102.28 116.754 102.28C118.194 102.28 119.314 102.727 120.114 103.62C120.927 104.513 121.334 105.847 121.334 107.62C121.334 107.753 121.327 107.907 121.314 108.08C121.314 108.24 121.307 108.387 121.294 108.52H114.394C114.46 109.36 114.754 110.013 115.274 110.48C115.807 110.933 116.574 111.16 117.574 111.16C118.16 111.16 118.694 111.107 119.174 111C119.667 110.893 120.054 110.78 120.334 110.66L120.654 112.64C120.52 112.707 120.334 112.78 120.094 112.86C119.867 112.927 119.6 112.987 119.294 113.04C119 113.107 118.68 113.16 118.334 113.2C117.987 113.24 117.634 113.26 117.274 113.26C116.354 113.26 115.554 113.127 114.874 112.86C114.194 112.58 113.634 112.2 113.194 111.72C112.754 111.227 112.427 110.653 112.214 110C112 109.333 111.894 108.607 111.894 107.82ZM118.914 106.74C118.914 106.407 118.867 106.093 118.774 105.8C118.68 105.493 118.54 105.233 118.354 105.02C118.18 104.793 117.96 104.62 117.694 104.5C117.44 104.367 117.134 104.3 116.774 104.3C116.4 104.3 116.074 104.373 115.794 104.52C115.514 104.653 115.274 104.833 115.074 105.06C114.887 105.287 114.74 105.547 114.634 105.84C114.527 106.133 114.454 106.433 114.414 106.74H118.914ZM127.987 107.78C127.987 107.007 128.107 106.287 128.347 105.62C128.587 104.94 128.927 104.353 129.367 103.86C129.821 103.367 130.367 102.98 131.007 102.7C131.647 102.42 132.367 102.28 133.167 102.28C134.154 102.28 135.087 102.46 135.967 102.82L135.447 104.8C135.167 104.68 134.847 104.58 134.487 104.5C134.141 104.42 133.767 104.38 133.367 104.38C132.421 104.38 131.701 104.68 131.207 105.28C130.714 105.867 130.467 106.7 130.467 107.78C130.467 108.82 130.701 109.647 131.167 110.26C131.634 110.86 132.421 111.16 133.527 111.16C133.941 111.16 134.347 111.12 134.747 111.04C135.147 110.96 135.494 110.86 135.787 110.74L136.127 112.74C135.861 112.873 135.454 112.993 134.907 113.1C134.374 113.207 133.821 113.26 133.247 113.26C132.354 113.26 131.574 113.127 130.907 112.86C130.254 112.58 129.707 112.2 129.267 111.72C128.841 111.227 128.521 110.647 128.307 109.98C128.094 109.3 127.987 108.567 127.987 107.78ZM147.246 107.76C147.246 108.587 147.126 109.34 146.886 110.02C146.646 110.7 146.306 111.28 145.866 111.76C145.426 112.24 144.893 112.613 144.266 112.88C143.653 113.147 142.973 113.28 142.226 113.28C141.479 113.28 140.799 113.147 140.186 112.88C139.573 112.613 139.046 112.24 138.606 111.76C138.166 111.28 137.819 110.7 137.566 110.02C137.326 109.34 137.206 108.587 137.206 107.76C137.206 106.933 137.326 106.187 137.566 105.52C137.819 104.84 138.166 104.26 138.606 103.78C139.059 103.3 139.593 102.933 140.206 102.68C140.819 102.413 141.493 102.28 142.226 102.28C142.959 102.28 143.633 102.413 144.246 102.68C144.873 102.933 145.406 103.3 145.846 103.78C146.286 104.26 146.626 104.84 146.866 105.52C147.119 106.187 147.246 106.933 147.246 107.76ZM144.766 107.76C144.766 106.72 144.539 105.9 144.086 105.3C143.646 104.687 143.026 104.38 142.226 104.38C141.426 104.38 140.799 104.687 140.346 105.3C139.906 105.9 139.686 106.72 139.686 107.76C139.686 108.813 139.906 109.647 140.346 110.26C140.799 110.873 141.426 111.18 142.226 111.18C143.026 111.18 143.646 110.873 144.086 110.26C144.539 109.647 144.766 108.813 144.766 107.76ZM155.699 107.5C155.699 106.407 155.559 105.62 155.279 105.14C155.013 104.647 154.506 104.4 153.759 104.4C153.493 104.4 153.199 104.42 152.879 104.46C152.559 104.5 152.319 104.533 152.159 104.56V113H149.739V102.88C150.206 102.747 150.813 102.62 151.559 102.5C152.319 102.38 153.119 102.32 153.959 102.32C154.679 102.32 155.266 102.413 155.719 102.6C156.186 102.787 156.573 103.033 156.879 103.34C157.026 103.233 157.213 103.12 157.439 103C157.666 102.88 157.919 102.773 158.199 102.68C158.479 102.573 158.773 102.487 159.079 102.42C159.399 102.353 159.719 102.32 160.039 102.32C160.853 102.32 161.519 102.44 162.039 102.68C162.573 102.907 162.986 103.233 163.279 103.66C163.586 104.073 163.793 104.58 163.899 105.18C164.019 105.767 164.079 106.413 164.079 107.12V113H161.659V107.5C161.659 106.407 161.526 105.62 161.259 105.14C160.993 104.647 160.479 104.4 159.719 104.4C159.333 104.4 158.966 104.467 158.619 104.6C158.273 104.72 158.013 104.84 157.839 104.96C157.946 105.293 158.019 105.647 158.059 106.02C158.099 106.393 158.119 106.793 158.119 107.22V113H155.699V107.5ZM166.464 107.82C166.464 106.9 166.597 106.093 166.864 105.4C167.144 104.707 167.511 104.133 167.964 103.68C168.417 103.213 168.937 102.867 169.524 102.64C170.111 102.4 170.711 102.28 171.324 102.28C172.764 102.28 173.884 102.727 174.684 103.62C175.497 104.513 175.904 105.847 175.904 107.62C175.904 107.753 175.897 107.907 175.884 108.08C175.884 108.24 175.877 108.387 175.864 108.52H168.964C169.031 109.36 169.324 110.013 169.844 110.48C170.377 110.933 171.144 111.16 172.144 111.16C172.731 111.16 173.264 111.107 173.744 111C174.237 110.893 174.624 110.78 174.904 110.66L175.224 112.64C175.091 112.707 174.904 112.78 174.664 112.86C174.437 112.927 174.171 112.987 173.864 113.04C173.571 113.107 173.251 113.16 172.904 113.2C172.557 113.24 172.204 113.26 171.844 113.26C170.924 113.26 170.124 113.127 169.444 112.86C168.764 112.58 168.204 112.2 167.764 111.72C167.324 111.227 166.997 110.653 166.784 110C166.571 109.333 166.464 108.607 166.464 107.82ZM173.484 106.74C173.484 106.407 173.437 106.093 173.344 105.8C173.251 105.493 173.111 105.233 172.924 105.02C172.751 104.793 172.531 104.62 172.264 104.5C172.011 104.367 171.704 104.3 171.344 104.3C170.971 104.3 170.644 104.373 170.364 104.52C170.084 104.653 169.844 104.833 169.644 105.06C169.457 105.287 169.311 105.547 169.204 105.84C169.097 106.133 169.024 106.433 168.984 106.74H173.484ZM178.47 102.88C178.936 102.747 179.543 102.62 180.29 102.5C181.036 102.38 181.863 102.32 182.77 102.32C183.623 102.32 184.336 102.44 184.91 102.68C185.483 102.907 185.936 103.233 186.27 103.66C186.616 104.073 186.856 104.58 186.99 105.18C187.136 105.767 187.21 106.413 187.21 107.12V113H184.79V107.5C184.79 106.94 184.75 106.467 184.67 106.08C184.603 105.68 184.483 105.36 184.31 105.12C184.15 104.867 183.923 104.687 183.63 104.58C183.35 104.46 183.003 104.4 182.59 104.4C182.283 104.4 181.963 104.42 181.63 104.46C181.296 104.5 181.05 104.533 180.89 104.56V113H178.47V102.88ZM197.489 104.24C197.222 104.52 196.869 104.913 196.429 105.42C196.002 105.927 195.542 106.493 195.049 107.12C194.556 107.733 194.056 108.38 193.549 109.06C193.056 109.727 192.609 110.367 192.209 110.98H197.609V113H189.289V111.5C189.582 110.967 189.949 110.387 190.389 109.76C190.829 109.133 191.282 108.507 191.749 107.88C192.216 107.24 192.676 106.633 193.129 106.06C193.596 105.487 194.009 104.987 194.369 104.56H189.549V102.54H197.489V104.24ZM203.536 111.3C204.283 111.3 204.85 111.26 205.236 111.18V108.5C205.103 108.46 204.91 108.42 204.656 108.38C204.403 108.34 204.123 108.32 203.816 108.32C203.55 108.32 203.276 108.34 202.996 108.38C202.73 108.42 202.483 108.493 202.256 108.6C202.043 108.707 201.87 108.86 201.736 109.06C201.603 109.247 201.536 109.487 201.536 109.78C201.536 110.353 201.716 110.753 202.076 110.98C202.436 111.193 202.923 111.3 203.536 111.3ZM203.336 102.28C204.136 102.28 204.81 102.38 205.356 102.58C205.903 102.78 206.336 103.06 206.656 103.42C206.99 103.78 207.223 104.22 207.356 104.74C207.503 105.247 207.576 105.807 207.576 106.42V112.76C207.203 112.84 206.636 112.933 205.876 113.04C205.13 113.16 204.283 113.22 203.336 113.22C202.71 113.22 202.136 113.16 201.616 113.04C201.096 112.92 200.65 112.727 200.276 112.46C199.916 112.193 199.63 111.847 199.416 111.42C199.216 110.993 199.116 110.467 199.116 109.84C199.116 109.24 199.23 108.733 199.456 108.32C199.696 107.907 200.016 107.573 200.416 107.32C200.816 107.053 201.276 106.867 201.796 106.76C202.33 106.64 202.883 106.58 203.456 106.58C203.723 106.58 204.003 106.6 204.296 106.64C204.59 106.667 204.903 106.72 205.236 106.8V106.4C205.236 106.12 205.203 105.853 205.136 105.6C205.07 105.347 204.95 105.127 204.776 104.94C204.616 104.74 204.396 104.587 204.116 104.48C203.85 104.373 203.51 104.32 203.096 104.32C202.536 104.32 202.023 104.36 201.556 104.44C201.09 104.52 200.71 104.613 200.416 104.72L200.116 102.76C200.423 102.653 200.87 102.547 201.456 102.44C202.043 102.333 202.67 102.28 203.336 102.28ZM216.5 104.72C216.3 104.653 216.02 104.587 215.66 104.52C215.313 104.44 214.907 104.4 214.44 104.4C214.173 104.4 213.887 104.427 213.58 104.48C213.287 104.533 213.08 104.58 212.96 104.62V113H210.54V103.04C211.007 102.867 211.587 102.707 212.28 102.56C212.987 102.4 213.767 102.32 214.62 102.32C214.78 102.32 214.967 102.333 215.18 102.36C215.393 102.373 215.607 102.4 215.82 102.44C216.033 102.467 216.24 102.507 216.44 102.56C216.64 102.6 216.8 102.64 216.92 102.68L216.5 104.72Z" fill="#4F4F4F"/>
<defs>
<filter id="filter0_d" x="0" y="21" width="252" height="129" filterUnits="userSpaceOnUse" color-interpolation-filters="sRGB">
<feFlood flood-opacity="0" result="BackgroundImageFix"/>
<feColorMatrix in="SourceAlpha" type="matrix" values="0 0 0 0 0 0 0 0 0 0 0 0 0 0 0 0 0 0 127 0"/>
<feOffset/>
<feGaussianBlur stdDeviation="7.5"/>
<feColorMatrix type="matrix" values="0 0 0 0 0 0 0 0 0 0 0 0 0 0 0 0 0 0 0.25 0"/>
<feBlend mode="normal" in2="BackgroundImageFix" result="effect1_dropShadow"/>
<feBlend mode="normal" in="SourceGraphic" in2="effect1_dropShadow" result="shape"/>
</filter>
</defs>
</svg>
