<svg width="252" height="150" viewBox="0 0 252 150" fill="none" xmlns="http://www.w3.org/2000/svg">
<g filter="url(#filter0_d)">
<path d="M15 51C15 42.7157 21.7157 36 30 36H222C230.284 36 237 42.7157 237 51V135H30C21.7157 135 15 128.284 15 120V51Z" fill="white"/>
</g>
<path d="M73.0955 54.3281C73.0063 54.9921 72.8066 55.6364 72.5046 56.2344C71.9688 57.3742 71.1196 58.3381 70.0563 59.0132C68.993 59.6883 67.7594 60.0468 66.4999 60.0468C65.2404 60.0468 64.0069 59.6883 62.9436 59.0132C61.8802 58.3381 61.0311 57.3742 60.4952 56.2344C60.1933 55.6364 59.9935 54.9921 59.9043 54.3281H73.0955Z" fill="#FBBF13"/>
<path d="M66.5 8.57812C68.6056 8.57812 70.3125 6.87121 70.3125 4.76562C70.3125 2.66004 68.6056 0.953125 66.5 0.953125C64.3944 0.953125 62.6875 2.66004 62.6875 4.76562C62.6875 6.87121 64.3944 8.57812 66.5 8.57812Z" fill="#FBBF13"/>
<path d="M64.5937 4.76561C64.5952 3.92236 64.8769 3.10352 65.3944 2.43781C65.912 1.77209 66.6362 1.29726 67.453 1.08796C66.9295 0.951645 66.383 0.928478 65.8498 1.02C65.3167 1.11153 64.8092 1.31564 64.3611 1.61874C63.913 1.92183 63.5347 2.31696 63.2513 2.77777C62.968 3.23857 62.7861 3.75449 62.7178 4.29112C62.6495 4.82775 62.6964 5.37277 62.8553 5.88986C63.0142 6.40695 63.2815 6.88423 63.6394 7.28988C63.9973 7.69554 64.4375 8.02025 64.9308 8.24239C65.424 8.46452 65.959 8.57897 66.4999 8.57811C66.8221 8.57396 67.1424 8.52865 67.453 8.44326C66.6362 8.23395 65.9121 7.75911 65.3945 7.0934C64.8769 6.42769 64.5952 5.60886 64.5937 4.76561V4.76561ZM61.8105 54.3281H59.9043C60.134 55.9143 60.9268 57.365 62.1378 58.415C63.3488 59.4649 64.8971 60.0442 66.4999 60.0469C66.8193 60.0406 67.1379 60.0111 67.453 59.9587C66.0315 59.7532 64.7143 59.0941 63.6976 58.0796C62.6809 57.065 62.019 55.7492 61.8105 54.3281V54.3281Z" fill="#EAB220"/>
<path d="M90.3281 54.3281H42.6719V50.5156C42.6719 49.5045 43.0735 48.5348 43.7885 47.8198C44.5035 47.1048 45.4732 46.7031 46.4844 46.7031H86.5156C87.5268 46.7031 88.4965 47.1048 89.2115 47.8198C89.9265 48.5348 90.3281 49.5045 90.3281 50.5156V54.3281Z" fill="#FDD402"/>
<path d="M48.3906 46.7031H46.4844C45.4732 46.7031 44.5035 47.1048 43.7885 47.8198C43.0735 48.5348 42.6719 49.5045 42.6719 50.5156V54.3281H44.5781V50.5156C44.5781 49.5045 44.9798 48.5348 45.6948 47.8198C46.4098 47.1048 47.3795 46.7031 48.3906 46.7031V46.7031Z" fill="#FBBF13"/>
<path d="M86.5156 46.7031H46.4844C47.4946 46.7002 48.4626 46.2975 49.1769 45.5832C49.8913 44.8688 50.2939 43.9008 50.2969 42.8906V24.7812C50.2969 20.4839 52.004 16.3626 55.0427 13.3239C58.0813 10.2852 62.2027 8.57813 66.5 8.57812C70.7973 8.57813 74.9187 10.2852 77.9573 13.3239C80.996 16.3626 82.7031 20.4839 82.7031 24.7812V42.8906C82.7061 43.9008 83.1087 44.8688 83.8231 45.5832C84.5374 46.2975 85.5054 46.7002 86.5156 46.7031V46.7031Z" fill="#FDD402"/>
<path d="M52.2031 42.8906V24.7812C52.1998 20.65 53.778 16.6742 56.6139 13.67C59.4497 10.6657 63.328 8.86103 67.4525 8.6263C67.1356 8.60779 66.8216 8.57812 66.5 8.57812C62.2029 8.57881 58.0819 10.2861 55.0434 13.3247C52.0049 16.3632 50.2976 20.4841 50.2969 24.7812V42.8906C50.2939 43.9008 49.8913 44.8688 49.1769 45.5832C48.4626 46.2975 47.4946 46.7002 46.4844 46.7031H48.3906C49.4008 46.7002 50.3688 46.2975 51.0832 45.5832C51.7975 44.8688 52.2002 43.9008 52.2031 42.8906V42.8906Z" fill="#FBBF13"/>
<path d="M86.5156 46.7031H46.4844C47.4946 46.7002 48.4626 46.2975 49.1769 45.5832C49.8913 44.8688 50.2939 43.9008 50.2969 42.8906V40.9844H82.7031V42.8906C82.7061 43.9008 83.1087 44.8688 83.8231 45.5832C84.5374 46.2975 85.5054 46.7002 86.5156 46.7031V46.7031Z" fill="#FBBF13"/>
<path d="M93.7777 39.3564C93.6008 39.3563 93.4274 39.3069 93.2769 39.2139C93.1264 39.1209 93.0048 38.9878 92.9256 38.8296C92.8464 38.6714 92.8128 38.4943 92.8285 38.3181C92.8442 38.1419 92.9085 37.9735 93.0144 37.8318C94.6319 35.6433 95.3423 32.915 94.9976 30.2156C94.6529 27.5162 93.2796 25.054 91.164 23.3423C90.9663 23.1848 90.8392 22.9552 90.8108 22.704C90.7823 22.4528 90.8548 22.2006 91.0123 22.0029C91.1697 21.8052 91.3993 21.6781 91.6505 21.6496C91.9017 21.6212 92.1539 21.6937 92.3516 21.8511C94.8519 23.8739 96.4752 26.7835 96.883 29.9736C97.2909 33.1636 96.4519 36.3881 94.541 38.9748C94.4522 39.0934 94.3369 39.1896 94.2044 39.2559C94.0719 39.3221 93.9258 39.3565 93.7777 39.3564V39.3564Z" fill="#8B8891"/>
<path d="M89.2019 35.9246C89.0249 35.9245 88.8514 35.8751 88.7009 35.7819C88.5504 35.6887 88.4288 35.5555 88.3498 35.3971C88.2708 35.2387 88.2374 35.0615 88.2534 34.8852C88.2694 34.7089 88.3342 34.5406 88.4405 34.3991C89.1772 33.4029 89.5 32.1603 89.3415 30.9315C89.1829 29.7027 88.5552 28.5829 87.5898 27.8063C87.3925 27.6491 87.2656 27.42 87.2369 27.1693C87.2083 26.9187 87.2802 26.6669 87.437 26.4692C87.5937 26.2715 87.8225 26.1441 88.0731 26.1148C88.3237 26.0856 88.5757 26.157 88.7737 26.3133C90.126 27.4003 91.0051 28.9684 91.2268 30.6892C91.4485 32.4099 90.9957 34.1497 89.9632 35.5439C89.8748 35.6623 89.7599 35.7584 89.6277 35.8245C89.4955 35.8906 89.3497 35.9249 89.2019 35.9246V35.9246ZM39.2224 39.3564C39.0743 39.3566 38.9281 39.3221 38.7956 39.2559C38.6631 39.1896 38.5479 39.0934 38.4591 38.9748C36.5481 36.3881 35.7091 33.1637 36.1169 29.9736C36.5248 26.7835 38.148 23.8739 40.6483 21.8511C40.846 21.6937 41.0982 21.6212 41.3494 21.6496C41.6006 21.6781 41.8302 21.8052 41.9877 22.0029C42.1452 22.2006 42.2176 22.4528 42.1892 22.704C42.1607 22.9552 42.0336 23.1848 41.8359 23.3423C39.7203 25.054 38.3471 27.5162 38.0023 30.2156C37.6576 32.915 38.368 35.6433 39.9855 37.8318C40.0914 37.9735 40.1558 38.1419 40.1714 38.3181C40.1871 38.4943 40.1535 38.6714 40.0743 38.8296C39.9951 38.9878 39.8735 39.1208 39.723 39.2139C39.5725 39.3069 39.3992 39.3563 39.2223 39.3564L39.2224 39.3564Z" fill="#8B8891"/>
<path d="M43.7981 35.9246C43.6503 35.9249 43.5044 35.8906 43.3723 35.8245C43.2401 35.7584 43.1251 35.6623 43.0367 35.5439C42.0042 34.1496 41.5514 32.4099 41.7731 30.6892C41.9949 28.9684 42.8739 27.4003 44.2262 26.3133C44.4242 26.157 44.6762 26.0856 44.9268 26.1148C45.1774 26.1441 45.4062 26.2715 45.5629 26.4692C45.7197 26.6669 45.7917 26.9187 45.763 27.1693C45.7344 27.42 45.6075 27.6491 45.4101 27.8063C44.4447 28.5829 43.817 29.7027 43.6584 30.9315C43.4999 32.1603 43.8227 33.4029 44.5594 34.3991C44.6657 34.5406 44.7305 34.7089 44.7465 34.8852C44.7625 35.0615 44.7292 35.2387 44.6501 35.3971C44.5711 35.5555 44.4495 35.6887 44.299 35.7819C44.1485 35.8751 43.975 35.9245 43.798 35.9246L43.7981 35.9246Z" fill="#8B8891"/>
<path d="M45.32 82.28C45.92 81.28 46.5067 80.2667 47.08 79.24C47.6533 78.2133 48.1733 77.18 48.64 76.14H51.44C50.6933 77.5533 49.9133 78.96 49.1 80.36C48.3 81.7467 47.44 83.1467 46.52 84.56V90H44V84.6C43.08 83.1733 42.2133 81.76 41.4 80.36C40.5867 78.96 39.8067 77.5533 39.06 76.14H42.02C42.4867 77.18 43 78.2133 43.56 79.24C44.12 80.2667 44.7067 81.28 45.32 82.28ZM61.4844 84.76C61.4844 85.5867 61.3644 86.34 61.1244 87.02C60.8844 87.7 60.5444 88.28 60.1044 88.76C59.6644 89.24 59.131 89.6133 58.5044 89.88C57.891 90.1467 57.211 90.28 56.4644 90.28C55.7177 90.28 55.0377 90.1467 54.4244 89.88C53.811 89.6133 53.2844 89.24 52.8444 88.76C52.4044 88.28 52.0577 87.7 51.8044 87.02C51.5644 86.34 51.4444 85.5867 51.4444 84.76C51.4444 83.9333 51.5644 83.1867 51.8044 82.52C52.0577 81.84 52.4044 81.26 52.8444 80.78C53.2977 80.3 53.831 79.9333 54.4444 79.68C55.0577 79.4133 55.731 79.28 56.4644 79.28C57.1977 79.28 57.871 79.4133 58.4844 79.68C59.111 79.9333 59.6444 80.3 60.0844 80.78C60.5244 81.26 60.8644 81.84 61.1044 82.52C61.3577 83.1867 61.4844 83.9333 61.4844 84.76ZM59.0044 84.76C59.0044 83.72 58.7777 82.9 58.3244 82.3C57.8844 81.6867 57.2644 81.38 56.4644 81.38C55.6644 81.38 55.0377 81.6867 54.5844 82.3C54.1444 82.9 53.9244 83.72 53.9244 84.76C53.9244 85.8133 54.1444 86.6467 54.5844 87.26C55.0377 87.8733 55.6644 88.18 56.4644 88.18C57.2644 88.18 57.8844 87.8733 58.3244 87.26C58.7777 86.6467 59.0044 85.8133 59.0044 84.76ZM72.5575 89.68C72.0908 89.8 71.4842 89.92 70.7375 90.04C69.9908 90.1733 69.1708 90.24 68.2775 90.24C67.4375 90.24 66.7308 90.12 66.1575 89.88C65.5975 89.64 65.1442 89.3067 64.7975 88.88C64.4642 88.4533 64.2242 87.9467 64.0775 87.36C63.9308 86.76 63.8575 86.1067 63.8575 85.4V79.54H66.2775V85.02C66.2775 86.14 66.4375 86.94 66.7575 87.42C67.0908 87.9 67.6642 88.14 68.4775 88.14C68.7708 88.14 69.0775 88.1267 69.3975 88.1C69.7308 88.0733 69.9775 88.04 70.1375 88V79.54H72.5575V89.68ZM81.5977 81.72C81.3977 81.6533 81.1177 81.5867 80.7577 81.52C80.411 81.44 80.0043 81.4 79.5377 81.4C79.271 81.4 78.9843 81.4267 78.6777 81.48C78.3843 81.5333 78.1777 81.58 78.0577 81.62V90H75.6377V80.04C76.1043 79.8667 76.6843 79.7067 77.3777 79.56C78.0843 79.4 78.8643 79.32 79.7177 79.32C79.8777 79.32 80.0643 79.3333 80.2777 79.36C80.491 79.3733 80.7043 79.4 80.9177 79.44C81.131 79.4667 81.3377 79.5067 81.5377 79.56C81.7377 79.6 81.8977 79.64 82.0177 79.68L81.5977 81.72ZM94.332 84.5C94.332 83.4067 94.192 82.62 93.912 82.14C93.6454 81.6467 93.1387 81.4 92.392 81.4C92.1254 81.4 91.832 81.42 91.512 81.46C91.192 81.5 90.952 81.5333 90.792 81.56V90H88.372V79.88C88.8387 79.7467 89.4454 79.62 90.192 79.5C90.952 79.38 91.752 79.32 92.592 79.32C93.312 79.32 93.8987 79.4133 94.352 79.6C94.8187 79.7867 95.2054 80.0333 95.512 80.34C95.6587 80.2333 95.8454 80.12 96.072 80C96.2987 79.88 96.552 79.7733 96.832 79.68C97.112 79.5733 97.4054 79.4867 97.712 79.42C98.032 79.3533 98.352 79.32 98.672 79.32C99.4854 79.32 100.152 79.44 100.672 79.68C101.205 79.9067 101.619 80.2333 101.912 80.66C102.219 81.0733 102.425 81.58 102.532 82.18C102.652 82.7667 102.712 83.4133 102.712 84.12V90H100.292V84.5C100.292 83.4067 100.159 82.62 99.892 82.14C99.6254 81.6467 99.112 81.4 98.352 81.4C97.9654 81.4 97.5987 81.4667 97.252 81.6C96.9054 81.72 96.6454 81.84 96.472 81.96C96.5787 82.2933 96.652 82.6467 96.692 83.02C96.732 83.3933 96.752 83.7933 96.752 84.22V90H94.332V84.5ZM105.097 84.82C105.097 83.9 105.23 83.0933 105.497 82.4C105.777 81.7067 106.143 81.1333 106.597 80.68C107.05 80.2133 107.57 79.8667 108.157 79.64C108.743 79.4 109.343 79.28 109.957 79.28C111.397 79.28 112.517 79.7267 113.317 80.62C114.13 81.5133 114.537 82.8467 114.537 84.62C114.537 84.7533 114.53 84.9067 114.517 85.08C114.517 85.24 114.51 85.3867 114.497 85.52H107.597C107.663 86.36 107.957 87.0133 108.477 87.48C109.01 87.9333 109.777 88.16 110.777 88.16C111.363 88.16 111.897 88.1067 112.377 88C112.87 87.8933 113.257 87.78 113.537 87.66L113.857 89.64C113.723 89.7067 113.537 89.78 113.297 89.86C113.07 89.9267 112.803 89.9867 112.497 90.04C112.203 90.1067 111.883 90.16 111.537 90.2C111.19 90.24 110.837 90.26 110.477 90.26C109.557 90.26 108.757 90.1267 108.077 89.86C107.397 89.58 106.837 89.2 106.397 88.72C105.957 88.2267 105.63 87.6533 105.417 87C105.203 86.3333 105.097 85.6067 105.097 84.82ZM112.117 83.74C112.117 83.4067 112.07 83.0933 111.977 82.8C111.883 82.4933 111.743 82.2333 111.557 82.02C111.383 81.7933 111.163 81.62 110.897 81.5C110.643 81.3667 110.337 81.3 109.977 81.3C109.603 81.3 109.277 81.3733 108.997 81.52C108.717 81.6533 108.477 81.8333 108.277 82.06C108.09 82.2867 107.943 82.5467 107.837 82.84C107.73 83.1333 107.657 83.4333 107.617 83.74H112.117ZM116.523 84.82C116.523 83.9 116.656 83.0933 116.923 82.4C117.203 81.7067 117.569 81.1333 118.023 80.68C118.476 80.2133 118.996 79.8667 119.583 79.64C120.169 79.4 120.769 79.28 121.383 79.28C122.823 79.28 123.943 79.7267 124.743 80.62C125.556 81.5133 125.963 82.8467 125.963 84.62C125.963 84.7533 125.956 84.9067 125.943 85.08C125.943 85.24 125.936 85.3867 125.923 85.52H119.023C119.089 86.36 119.383 87.0133 119.903 87.48C120.436 87.9333 121.203 88.16 122.203 88.16C122.789 88.16 123.323 88.1067 123.803 88C124.296 87.8933 124.683 87.78 124.963 87.66L125.283 89.64C125.149 89.7067 124.963 89.78 124.723 89.86C124.496 89.9267 124.229 89.9867 123.923 90.04C123.629 90.1067 123.309 90.16 122.963 90.2C122.616 90.24 122.263 90.26 121.903 90.26C120.983 90.26 120.183 90.1267 119.503 89.86C118.823 89.58 118.263 89.2 117.823 88.72C117.383 88.2267 117.056 87.6533 116.843 87C116.629 86.3333 116.523 85.6067 116.523 84.82ZM123.543 83.74C123.543 83.4067 123.496 83.0933 123.403 82.8C123.309 82.4933 123.169 82.2333 122.983 82.02C122.809 81.7933 122.589 81.62 122.323 81.5C122.069 81.3667 121.763 81.3 121.403 81.3C121.029 81.3 120.703 81.3733 120.423 81.52C120.143 81.6533 119.903 81.8333 119.703 82.06C119.516 82.2867 119.369 82.5467 119.263 82.84C119.156 83.1333 119.083 83.4333 119.043 83.74H123.543ZM128.408 76.78L130.828 76.38V79.54H134.548V81.56H130.828V85.82C130.828 86.66 130.962 87.26 131.228 87.62C131.495 87.98 131.948 88.16 132.588 88.16C133.028 88.16 133.415 88.1133 133.748 88.02C134.095 87.9267 134.368 87.84 134.568 87.76L134.968 89.68C134.688 89.8 134.322 89.92 133.868 90.04C133.415 90.1733 132.882 90.24 132.268 90.24C131.522 90.24 130.895 90.14 130.388 89.94C129.895 89.74 129.502 89.4533 129.208 89.08C128.915 88.6933 128.708 88.2333 128.588 87.7C128.468 87.1533 128.408 86.5333 128.408 85.84V76.78ZM139.328 90H136.908V79.54H139.328V90ZM139.588 76.48C139.588 76.9333 139.441 77.2933 139.148 77.56C138.854 77.8267 138.508 77.96 138.108 77.96C137.694 77.96 137.341 77.8267 137.048 77.56C136.754 77.2933 136.608 76.9333 136.608 76.48C136.608 76.0133 136.754 75.6467 137.048 75.38C137.341 75.1133 137.694 74.98 138.108 74.98C138.508 74.98 138.854 75.1133 139.148 75.38C139.441 75.6467 139.588 76.0133 139.588 76.48ZM142.415 79.88C142.882 79.7467 143.488 79.62 144.235 79.5C144.982 79.38 145.808 79.32 146.715 79.32C147.568 79.32 148.282 79.44 148.855 79.68C149.428 79.9067 149.882 80.2333 150.215 80.66C150.562 81.0733 150.802 81.58 150.935 82.18C151.082 82.7667 151.155 83.4133 151.155 84.12V90H148.735V84.5C148.735 83.94 148.695 83.4667 148.615 83.08C148.548 82.68 148.428 82.36 148.255 82.12C148.095 81.8667 147.868 81.6867 147.575 81.58C147.295 81.46 146.948 81.4 146.535 81.4C146.228 81.4 145.908 81.42 145.575 81.46C145.242 81.5 144.995 81.5333 144.835 81.56V90H142.415V79.88ZM156.014 84.5C156.014 85.5267 156.234 86.28 156.674 86.76C157.128 87.2267 157.708 87.46 158.414 87.46C158.801 87.46 159.161 87.4067 159.494 87.3C159.841 87.1933 160.121 87.0667 160.334 86.92V81.5C160.161 81.46 159.948 81.4267 159.694 81.4C159.441 81.36 159.121 81.34 158.734 81.34C157.854 81.34 157.181 81.6333 156.714 82.22C156.248 82.7933 156.014 83.5533 156.014 84.5ZM162.754 88.94C162.754 90.6067 162.328 91.8267 161.474 92.6C160.634 93.3733 159.341 93.76 157.594 93.76C156.954 93.76 156.328 93.7067 155.714 93.6C155.114 93.4933 154.568 93.3533 154.074 93.18L154.514 91.12C154.928 91.2933 155.394 91.4333 155.914 91.54C156.448 91.6467 157.021 91.7 157.634 91.7C158.608 91.7 159.301 91.5 159.714 91.1C160.128 90.7 160.334 90.1067 160.334 89.32V88.92C160.094 89.04 159.774 89.16 159.374 89.28C158.988 89.4 158.541 89.46 158.034 89.46C157.368 89.46 156.754 89.3533 156.194 89.14C155.648 88.9267 155.174 88.6133 154.774 88.2C154.388 87.7867 154.081 87.2733 153.854 86.66C153.641 86.0333 153.534 85.3133 153.534 84.5C153.534 83.74 153.648 83.04 153.874 82.4C154.114 81.76 154.454 81.2133 154.894 80.76C155.348 80.3067 155.894 79.9533 156.534 79.7C157.174 79.4467 157.901 79.32 158.714 79.32C159.501 79.32 160.248 79.38 160.954 79.5C161.661 79.62 162.261 79.7467 162.754 79.88V88.94ZM172.941 90H170.521V79.54H172.941V90ZM173.201 76.48C173.201 76.9333 173.054 77.2933 172.761 77.56C172.468 77.8267 172.121 77.96 171.721 77.96C171.308 77.96 170.954 77.8267 170.661 77.56C170.368 77.2933 170.221 76.9333 170.221 76.48C170.221 76.0133 170.368 75.6467 170.661 75.38C170.954 75.1133 171.308 74.98 171.721 74.98C172.121 74.98 172.468 75.1133 172.761 75.38C173.054 75.6467 173.201 76.0133 173.201 76.48ZM178.648 88.26C179.288 88.26 179.755 88.1867 180.048 88.04C180.342 87.88 180.488 87.6133 180.488 87.24C180.488 86.8933 180.328 86.6067 180.008 86.38C179.702 86.1533 179.188 85.9067 178.468 85.64C178.028 85.48 177.622 85.3133 177.248 85.14C176.888 84.9533 176.575 84.74 176.308 84.5C176.042 84.26 175.828 83.9733 175.668 83.64C175.522 83.2933 175.448 82.8733 175.448 82.38C175.448 81.42 175.802 80.6667 176.508 80.12C177.215 79.56 178.175 79.28 179.388 79.28C180.002 79.28 180.588 79.34 181.148 79.46C181.708 79.5667 182.128 79.6733 182.408 79.78L181.968 81.74C181.702 81.62 181.362 81.5133 180.948 81.42C180.535 81.3133 180.055 81.26 179.508 81.26C179.015 81.26 178.615 81.3467 178.308 81.52C178.002 81.68 177.848 81.9333 177.848 82.28C177.848 82.4533 177.875 82.6067 177.928 82.74C177.995 82.8733 178.102 83 178.248 83.12C178.395 83.2267 178.588 83.34 178.828 83.46C179.068 83.5667 179.362 83.68 179.708 83.8C180.282 84.0133 180.768 84.2267 181.168 84.44C181.568 84.64 181.895 84.8733 182.148 85.14C182.415 85.3933 182.608 85.6867 182.728 86.02C182.848 86.3533 182.908 86.7533 182.908 87.22C182.908 88.22 182.535 88.98 181.788 89.5C181.055 90.0067 180.002 90.26 178.628 90.26C177.708 90.26 176.968 90.18 176.408 90.02C175.848 89.8733 175.455 89.7533 175.228 89.66L175.648 87.64C176.008 87.7867 176.435 87.9267 176.928 88.06C177.435 88.1933 178.008 88.26 178.648 88.26ZM44.22 111.3C44.9667 111.3 45.5333 111.26 45.92 111.18V108.5C45.7867 108.46 45.5933 108.42 45.34 108.38C45.0867 108.34 44.8067 108.32 44.5 108.32C44.2333 108.32 43.96 108.34 43.68 108.38C43.4133 108.42 43.1667 108.493 42.94 108.6C42.7267 108.707 42.5533 108.86 42.42 109.06C42.2867 109.247 42.22 109.487 42.22 109.78C42.22 110.353 42.4 110.753 42.76 110.98C43.12 111.193 43.6067 111.3 44.22 111.3ZM44.02 102.28C44.82 102.28 45.4933 102.38 46.04 102.58C46.5867 102.78 47.02 103.06 47.34 103.42C47.6733 103.78 47.9067 104.22 48.04 104.74C48.1867 105.247 48.26 105.807 48.26 106.42V112.76C47.8867 112.84 47.32 112.933 46.56 113.04C45.8133 113.16 44.9667 113.22 44.02 113.22C43.3933 113.22 42.82 113.16 42.3 113.04C41.78 112.92 41.3333 112.727 40.96 112.46C40.6 112.193 40.3133 111.847 40.1 111.42C39.9 110.993 39.8 110.467 39.8 109.84C39.8 109.24 39.9133 108.733 40.14 108.32C40.38 107.907 40.7 107.573 41.1 107.32C41.5 107.053 41.96 106.867 42.48 106.76C43.0133 106.64 43.5667 106.58 44.14 106.58C44.4067 106.58 44.6867 106.6 44.98 106.64C45.2733 106.667 45.5867 106.72 45.92 106.8V106.4C45.92 106.12 45.8867 105.853 45.82 105.6C45.7533 105.347 45.6333 105.127 45.46 104.94C45.3 104.74 45.08 104.587 44.8 104.48C44.5333 104.373 44.1933 104.32 43.78 104.32C43.22 104.32 42.7067 104.36 42.24 104.44C41.7733 104.52 41.3933 104.613 41.1 104.72L40.8 102.76C41.1067 102.653 41.5533 102.547 42.14 102.44C42.7267 102.333 43.3533 102.28 44.02 102.28ZM58.1636 107.74C58.1636 106.713 57.9569 105.9 57.5436 105.3C57.1436 104.7 56.5036 104.4 55.6236 104.4C55.2236 104.4 54.8436 104.46 54.4836 104.58C54.1369 104.7 53.8569 104.833 53.6436 104.98V111C53.8169 111.04 54.0369 111.08 54.3036 111.12C54.5836 111.147 54.9169 111.16 55.3036 111.16C56.1969 111.16 56.8969 110.86 57.4036 110.26C57.9103 109.647 58.1636 108.807 58.1636 107.74ZM60.6436 107.78C60.6436 108.62 60.5169 109.38 60.2636 110.06C60.0236 110.727 59.6703 111.3 59.2036 111.78C58.7503 112.26 58.1969 112.627 57.5436 112.88C56.8903 113.133 56.1503 113.26 55.3236 113.26C54.5236 113.26 53.7569 113.2 53.0236 113.08C52.3036 112.96 51.7036 112.827 51.2236 112.68V97.88L53.6436 97.48V102.9C53.9236 102.753 54.2636 102.62 54.6636 102.5C55.0769 102.38 55.5303 102.32 56.0236 102.32C56.7569 102.32 57.4103 102.453 57.9836 102.72C58.5703 102.973 59.0569 103.34 59.4436 103.82C59.8303 104.3 60.1236 104.88 60.3236 105.56C60.5369 106.227 60.6436 106.967 60.6436 107.78ZM72.5977 107.76C72.5977 108.587 72.4777 109.34 72.2377 110.02C71.9977 110.7 71.6577 111.28 71.2177 111.76C70.7777 112.24 70.2443 112.613 69.6177 112.88C69.0043 113.147 68.3243 113.28 67.5777 113.28C66.831 113.28 66.151 113.147 65.5377 112.88C64.9243 112.613 64.3977 112.24 63.9577 111.76C63.5177 111.28 63.171 110.7 62.9177 110.02C62.6777 109.34 62.5577 108.587 62.5577 107.76C62.5577 106.933 62.6777 106.187 62.9177 105.52C63.171 104.84 63.5177 104.26 63.9577 103.78C64.411 103.3 64.9443 102.933 65.5577 102.68C66.171 102.413 66.8443 102.28 67.5777 102.28C68.311 102.28 68.9843 102.413 69.5977 102.68C70.2243 102.933 70.7577 103.3 71.1977 103.78C71.6377 104.26 71.9777 104.84 72.2177 105.52C72.471 106.187 72.5977 106.933 72.5977 107.76ZM70.1177 107.76C70.1177 106.72 69.891 105.9 69.4377 105.3C68.9977 104.687 68.3777 104.38 67.5777 104.38C66.7777 104.38 66.151 104.687 65.6977 105.3C65.2577 105.9 65.0377 106.72 65.0377 107.76C65.0377 108.813 65.2577 109.647 65.6977 110.26C66.151 110.873 66.7777 111.18 67.5777 111.18C68.3777 111.18 68.9977 110.873 69.4377 110.26C69.891 109.647 70.1177 108.813 70.1177 107.76ZM83.6708 112.68C83.2041 112.8 82.5974 112.92 81.8508 113.04C81.1041 113.173 80.2841 113.24 79.3908 113.24C78.5508 113.24 77.8441 113.12 77.2708 112.88C76.7108 112.64 76.2574 112.307 75.9108 111.88C75.5774 111.453 75.3374 110.947 75.1908 110.36C75.0441 109.76 74.9708 109.107 74.9708 108.4V102.54H77.3908V108.02C77.3908 109.14 77.5508 109.94 77.8708 110.42C78.2041 110.9 78.7774 111.14 79.5908 111.14C79.8841 111.14 80.1908 111.127 80.5108 111.1C80.8441 111.073 81.0908 111.04 81.2508 111V102.54H83.6708V112.68ZM86.6309 99.78L89.0509 99.38V102.54H92.7709V104.56H89.0509V108.82C89.0509 109.66 89.1843 110.26 89.4509 110.62C89.7176 110.98 90.1709 111.16 90.8109 111.16C91.2509 111.16 91.6376 111.113 91.9709 111.02C92.3176 110.927 92.5909 110.84 92.7909 110.76L93.1909 112.68C92.9109 112.8 92.5443 112.92 92.0909 113.04C91.6376 113.173 91.1043 113.24 90.4909 113.24C89.7443 113.24 89.1176 113.14 88.6109 112.94C88.1176 112.74 87.7243 112.453 87.4309 112.08C87.1376 111.693 86.9309 111.233 86.8109 110.7C86.6909 110.153 86.6309 109.533 86.6309 108.84V99.78ZM99.6583 99.78L102.078 99.38V102.54H105.798V104.56H102.078V108.82C102.078 109.66 102.212 110.26 102.478 110.62C102.745 110.98 103.198 111.16 103.838 111.16C104.278 111.16 104.665 111.113 104.998 111.02C105.345 110.927 105.618 110.84 105.818 110.76L106.218 112.68C105.938 112.8 105.572 112.92 105.118 113.04C104.665 113.173 104.132 113.24 103.518 113.24C102.772 113.24 102.145 113.14 101.638 112.94C101.145 112.74 100.752 112.453 100.458 112.08C100.165 111.693 99.9583 111.233 99.8383 110.7C99.7183 110.153 99.6583 109.533 99.6583 108.84V99.78ZM117.363 107.76C117.363 108.587 117.243 109.34 117.003 110.02C116.763 110.7 116.423 111.28 115.983 111.76C115.543 112.24 115.01 112.613 114.383 112.88C113.77 113.147 113.09 113.28 112.343 113.28C111.597 113.28 110.917 113.147 110.303 112.88C109.69 112.613 109.163 112.24 108.723 111.76C108.283 111.28 107.937 110.7 107.683 110.02C107.443 109.34 107.323 108.587 107.323 107.76C107.323 106.933 107.443 106.187 107.683 105.52C107.937 104.84 108.283 104.26 108.723 103.78C109.177 103.3 109.71 102.933 110.323 102.68C110.937 102.413 111.61 102.28 112.343 102.28C113.077 102.28 113.75 102.413 114.363 102.68C114.99 102.933 115.523 103.3 115.963 103.78C116.403 104.26 116.743 104.84 116.983 105.52C117.237 106.187 117.363 106.933 117.363 107.76ZM114.883 107.76C114.883 106.72 114.657 105.9 114.203 105.3C113.763 104.687 113.143 104.38 112.343 104.38C111.543 104.38 110.917 104.687 110.463 105.3C110.023 105.9 109.803 106.72 109.803 107.76C109.803 108.813 110.023 109.647 110.463 110.26C110.917 110.873 111.543 111.18 112.343 111.18C113.143 111.18 113.763 110.873 114.203 110.26C114.657 109.647 114.883 108.813 114.883 107.76ZM131.464 107.74C131.464 106.713 131.258 105.9 130.844 105.3C130.444 104.7 129.804 104.4 128.924 104.4C128.524 104.4 128.144 104.46 127.784 104.58C127.438 104.7 127.158 104.833 126.944 104.98V111C127.118 111.04 127.338 111.08 127.604 111.12C127.884 111.147 128.218 111.16 128.604 111.16C129.498 111.16 130.198 110.86 130.704 110.26C131.211 109.647 131.464 108.807 131.464 107.74ZM133.944 107.78C133.944 108.62 133.818 109.38 133.564 110.06C133.324 110.727 132.971 111.3 132.504 111.78C132.051 112.26 131.498 112.627 130.844 112.88C130.191 113.133 129.451 113.26 128.624 113.26C127.824 113.26 127.058 113.2 126.324 113.08C125.604 112.96 125.004 112.827 124.524 112.68V97.88L126.944 97.48V102.9C127.224 102.753 127.564 102.62 127.964 102.5C128.378 102.38 128.831 102.32 129.324 102.32C130.058 102.32 130.711 102.453 131.284 102.72C131.871 102.973 132.358 103.34 132.744 103.82C133.131 104.3 133.424 104.88 133.624 105.56C133.838 106.227 133.944 106.967 133.944 107.78ZM135.858 107.82C135.858 106.9 135.992 106.093 136.258 105.4C136.538 104.707 136.905 104.133 137.358 103.68C137.812 103.213 138.332 102.867 138.918 102.64C139.505 102.4 140.105 102.28 140.718 102.28C142.158 102.28 143.278 102.727 144.078 103.62C144.892 104.513 145.298 105.847 145.298 107.62C145.298 107.753 145.292 107.907 145.278 108.08C145.278 108.24 145.272 108.387 145.258 108.52H138.358C138.425 109.36 138.718 110.013 139.238 110.48C139.772 110.933 140.538 111.16 141.538 111.16C142.125 111.16 142.658 111.107 143.138 111C143.632 110.893 144.018 110.78 144.298 110.66L144.618 112.64C144.485 112.707 144.298 112.78 144.058 112.86C143.832 112.927 143.565 112.987 143.258 113.04C142.965 113.107 142.645 113.16 142.298 113.2C141.952 113.24 141.598 113.26 141.238 113.26C140.318 113.26 139.518 113.127 138.838 112.86C138.158 112.58 137.598 112.2 137.158 111.72C136.718 111.227 136.392 110.653 136.178 110C135.965 109.333 135.858 108.607 135.858 107.82ZM142.878 106.74C142.878 106.407 142.832 106.093 142.738 105.8C142.645 105.493 142.505 105.233 142.318 105.02C142.145 104.793 141.925 104.62 141.658 104.5C141.405 104.367 141.098 104.3 140.738 104.3C140.365 104.3 140.038 104.373 139.758 104.52C139.478 104.653 139.238 104.833 139.038 105.06C138.852 105.287 138.705 105.547 138.598 105.84C138.492 106.133 138.418 106.433 138.378 106.74H142.878ZM149.764 107.5C149.764 108.527 149.984 109.28 150.424 109.76C150.878 110.227 151.458 110.46 152.164 110.46C152.551 110.46 152.911 110.407 153.244 110.3C153.591 110.193 153.871 110.067 154.084 109.92V104.5C153.911 104.46 153.698 104.427 153.444 104.4C153.191 104.36 152.871 104.34 152.484 104.34C151.604 104.34 150.931 104.633 150.464 105.22C149.998 105.793 149.764 106.553 149.764 107.5ZM156.504 111.94C156.504 113.607 156.078 114.827 155.224 115.6C154.384 116.373 153.091 116.76 151.344 116.76C150.704 116.76 150.078 116.707 149.464 116.6C148.864 116.493 148.318 116.353 147.824 116.18L148.264 114.12C148.678 114.293 149.144 114.433 149.664 114.54C150.198 114.647 150.771 114.7 151.384 114.7C152.358 114.7 153.051 114.5 153.464 114.1C153.878 113.7 154.084 113.107 154.084 112.32V111.92C153.844 112.04 153.524 112.16 153.124 112.28C152.738 112.4 152.291 112.46 151.784 112.46C151.118 112.46 150.504 112.353 149.944 112.14C149.398 111.927 148.924 111.613 148.524 111.2C148.138 110.787 147.831 110.273 147.604 109.66C147.391 109.033 147.284 108.313 147.284 107.5C147.284 106.74 147.398 106.04 147.624 105.4C147.864 104.76 148.204 104.213 148.644 103.76C149.098 103.307 149.644 102.953 150.284 102.7C150.924 102.447 151.651 102.32 152.464 102.32C153.251 102.32 153.998 102.38 154.704 102.5C155.411 102.62 156.011 102.747 156.504 102.88V111.94ZM162.023 113H159.603V102.54H162.023V113ZM162.283 99.48C162.283 99.9333 162.136 100.293 161.843 100.56C161.55 100.827 161.203 100.96 160.803 100.96C160.39 100.96 160.036 100.827 159.743 100.56C159.45 100.293 159.303 99.9333 159.303 99.48C159.303 99.0133 159.45 98.6467 159.743 98.38C160.036 98.1133 160.39 97.98 160.803 97.98C161.203 97.98 161.55 98.1133 161.843 98.38C162.136 98.6467 162.283 99.0133 162.283 99.48ZM165.11 102.88C165.577 102.747 166.184 102.62 166.93 102.5C167.677 102.38 168.504 102.32 169.41 102.32C170.264 102.32 170.977 102.44 171.55 102.68C172.124 102.907 172.577 103.233 172.91 103.66C173.257 104.073 173.497 104.58 173.63 105.18C173.777 105.767 173.85 106.413 173.85 107.12V113H171.43V107.5C171.43 106.94 171.39 106.467 171.31 106.08C171.244 105.68 171.124 105.36 170.95 105.12C170.79 104.867 170.564 104.687 170.27 104.58C169.99 104.46 169.644 104.4 169.23 104.4C168.924 104.4 168.604 104.42 168.27 104.46C167.937 104.5 167.69 104.533 167.53 104.56V113H165.11V102.88ZM179.63 102.86C179.63 103.967 179.59 104.98 179.51 105.9C179.43 106.82 179.33 107.747 179.21 108.68H177.49C177.356 107.747 177.25 106.82 177.17 105.9C177.09 104.967 177.05 103.953 177.05 102.86V99.14H179.63V102.86ZM179.93 111.68C179.93 112.147 179.776 112.527 179.47 112.82C179.163 113.113 178.783 113.26 178.33 113.26C177.89 113.26 177.51 113.113 177.19 112.82C176.883 112.527 176.73 112.147 176.73 111.68C176.73 111.213 176.883 110.833 177.19 110.54C177.51 110.233 177.89 110.08 178.33 110.08C178.783 110.08 179.163 110.233 179.47 110.54C179.776 110.833 179.93 111.213 179.93 111.68Z" fill="#4F4F4F"/>
<defs>
<filter id="filter0_d" x="0" y="21" width="252" height="129" filterUnits="userSpaceOnUse" color-interpolation-filters="sRGB">
<feFlood flood-opacity="0" result="BackgroundImageFix"/>
<feColorMatrix in="SourceAlpha" type="matrix" values="0 0 0 0 0 0 0 0 0 0 0 0 0 0 0 0 0 0 127 0"/>
<feOffset/>
<feGaussianBlur stdDeviation="7.5"/>
<feColorMatrix type="matrix" values="0 0 0 0 0 0 0 0 0 0 0 0 0 0 0 0 0 0 0.25 0"/>
<feBlend mode="normal" in2="BackgroundImageFix" result="effect1_dropShadow"/>
<feBlend mode="normal" in="SourceGraphic" in2="effect1_dropShadow" result="shape"/>
</filter>
</defs>
</svg>
