<svg width="334" height="77" viewBox="0 0 334 77" fill="none" xmlns="http://www.w3.org/2000/svg">
<path fill-rule="evenodd" clip-rule="evenodd" d="M172.987 79.2655C218.068 110.707 290.413 112.666 310.68 163.646C330.404 213.26 285.332 263.442 265.721 312.531C246.712 360.113 242.56 422.246 197.597 446.702C152.365 471.305 97.6314 432.546 45.8247 432.138C-0.803085 431.771 -45.8298 458.508 -90.4833 444.434C-139.144 429.097 -184.715 396.815 -208.988 351.827C-233.189 306.973 -231.41 252.562 -220.631 203.22C-210.778 158.121 -186.742 116.321 -151.172 87.1893C-119.438 61.1988 -73.9763 66.357 -35.5801 51.6645C3.57321 36.6823 34.4285 -5.3782 76.2674 0.158613C118.19 5.70649 138.129 54.9545 172.987 79.2655Z" fill="#2F80ED"/>
<path fill-rule="evenodd" clip-rule="evenodd" d="M250.791 27.8546C302.768 29.9279 357.764 14.2863 403.259 39.141C449.688 64.5053 484.86 111.252 496.764 162.232C507.949 210.136 476.139 255.367 464.931 303.266C454.858 346.317 464.108 396.619 434.217 429.548C404.401 462.394 351.402 455.507 310.518 473.371C261.205 494.918 222.795 554.42 169.681 545.136C117.533 536.022 99.4206 471.196 66.0779 430.647C34.0159 391.657 -8.55577 359.936 -22.3366 311.623C-37.0584 260.012 -32.4672 204.293 -12.74 154.33C7.67297 102.63 39.5665 50.9431 90.1795 26.6527C139.308 3.07456 196.191 25.6767 250.791 27.8546Z" fill="#9B51E0"/>
</svg>
