<svg width="48" height="54" viewBox="0 0 48 54" fill="none" xmlns="http://www.w3.org/2000/svg">
<path d="M32.5 47.25C32.5 50.0113 30.2613 52.25 27.5 52.25H20C17.2387 52.25 15 50.0113 15 47.25V12.25C15 9.48875 17.2387 7.25 20 7.25H27.5C30.2613 7.25 32.5 9.48875 32.5 12.25V47.25Z" fill="#414042"/>
<path d="M41.25 29.75C41.25 28.37 40.13 27.25 38.75 27.25H37.5C36.12 27.25 35 28.37 35 29.75C35 31.13 36.12 32.25 37.5 32.25H38.75C40.13 32.25 41.25 31.13 41.25 29.75Z" fill="#939598"/>
<path d="M8.75061 29.75C8.75061 21.4663 15.4669 14.75 23.7506 14.75C32.0344 14.75 38.7506 21.4663 38.7506 29.75C38.7506 38.0337 32.0344 44.75 23.7506 44.75C15.4669 44.75 8.75061 38.0337 8.75061 29.75Z" fill="#D1D3D4"/>
<path d="M13.7506 29.75C13.7506 24.2275 18.2281 19.75 23.7506 19.75C29.2731 19.75 33.7506 24.2275 33.7506 29.75C33.7506 35.2725 29.2731 39.75 23.7506 39.75C18.2281 39.75 13.7506 35.2725 13.7506 29.75Z" fill="#F1F2F2"/>
<path d="M30 34.75C29.7813 34.75 29.5588 34.6925 29.3575 34.5712L23.1075 30.8225C22.7313 30.5963 22.5 30.19 22.5 29.75V21C22.5 20.31 23.06 19.75 23.75 19.75C24.44 19.75 25 20.31 25 21V29.0425L30.645 32.4288C31.2362 32.7838 31.4287 33.5512 31.0725 34.1437C30.8387 34.5337 30.425 34.75 30 34.75Z" fill="#58595B"/>
<path d="M40.5625 21.5595C40.4002 21.5595 40.2403 21.52 40.0967 21.4443L35 18.7646L29.9033 21.4443C29.7382 21.5312 29.5521 21.5702 29.3659 21.5568C29.1798 21.5434 29.0012 21.4782 28.8502 21.3685C28.6992 21.2589 28.5819 21.1092 28.5116 20.9364C28.4412 20.7636 28.4206 20.5745 28.4522 20.3906L29.4258 14.7148L25.3018 10.6953C25.1682 10.565 25.0737 10.4 25.0291 10.2189C24.9844 10.0377 24.9913 9.84771 25.049 9.6703C25.1068 9.49288 25.213 9.33516 25.3557 9.21497C25.4983 9.09478 25.6718 9.01692 25.8565 8.9902L31.5547 8.16208L34.1035 2.99802C34.1954 2.84189 34.3264 2.71246 34.4837 2.62253C34.6409 2.5326 34.8189 2.48529 35 2.48529C35.1812 2.48529 35.3592 2.5326 35.5164 2.62253C35.6737 2.71246 35.8047 2.84189 35.8965 2.99802L38.4454 8.16208L44.1436 8.9902C44.3283 9.01692 44.5017 9.09478 44.6444 9.21497C44.7871 9.33516 44.8933 9.49288 44.951 9.6703C45.0088 9.84771 45.0157 10.0377 44.971 10.2189C44.9263 10.4 44.8319 10.565 44.6983 10.6953L40.5743 14.7148L41.5479 20.3906C41.5725 20.5341 41.5654 20.6812 41.5272 20.8217C41.4891 20.9622 41.4207 21.0927 41.3268 21.204C41.233 21.3153 41.116 21.4048 40.984 21.4662C40.852 21.5277 40.7082 21.5595 40.5626 21.5596L40.5625 21.5595Z" fill="#6563FF"/>
</svg>
