<svg width="90" height="32" viewBox="0 0 90 32" fill="none" xmlns="http://www.w3.org/2000/svg">
<g clip-path="url(#clip0)">
<path d="M35.5361 25.102V7.39615H38.7735V14.7674H46.7175V7.39615H49.9548V25.102H46.7175V17.3821H38.7735V25.102H35.5361Z" fill="#5D6DE8"/>
<path d="M58.7203 25.4008C57.5001 25.4008 56.4044 25.1268 55.4332 24.5541C54.4619 24.0062 53.69 23.2342 53.1421 22.2381C52.5693 21.242 52.2954 20.0965 52.2954 18.8016C52.2954 17.5066 52.5942 16.3611 53.167 15.365C53.7398 14.3689 54.5118 13.5969 55.483 13.049C56.4542 12.5012 57.5499 12.2023 58.7701 12.2023C59.9654 12.2023 61.0612 12.4763 62.0324 13.049C63.0036 13.5969 63.7756 14.3689 64.3234 15.365C64.8962 16.3611 65.1701 17.5066 65.1701 18.8016C65.1701 20.0965 64.8962 21.242 64.3234 22.2381C63.7507 23.2342 62.9787 24.0062 62.0075 24.5541C61.0114 25.1268 59.9156 25.4008 58.7203 25.4008ZM58.7203 22.5868C59.567 22.5868 60.2892 22.263 60.9118 21.6405C61.5343 21.0179 61.8581 20.0716 61.8581 18.8265C61.8581 17.5813 61.5343 16.635 60.9118 16.0124C60.2892 15.3899 59.567 15.0661 58.7452 15.0661C57.8736 15.0661 57.1514 15.3899 56.5289 16.0124C55.9063 16.635 55.6075 17.5813 55.6075 18.8265C55.6075 20.0716 55.9063 21.0179 56.5289 21.6405C57.1514 22.2879 57.8736 22.5868 58.7203 22.5868Z" fill="#5D6DE8"/>
<path d="M67.4116 25.102V6.87317H70.649V25.102H67.4116Z" fill="#5D6DE8"/>
<path d="M75.0816 10.6086C74.4839 10.6086 74.0108 10.4343 73.6372 10.0856C73.2637 9.73698 73.0645 9.28873 73.0645 8.74087C73.0645 8.19301 73.2637 7.76967 73.6372 7.42103C74.0108 7.07239 74.5088 6.89807 75.0816 6.89807C75.6792 6.89807 76.1524 7.07239 76.5259 7.42103C76.8995 7.76967 77.0987 8.21792 77.0987 8.74087C77.0987 9.28873 76.8995 9.73698 76.5259 10.0856C76.1524 10.4343 75.6543 10.6086 75.0816 10.6086ZM73.4629 25.102V12.551H76.7002V25.102H73.4629Z" fill="#5D6DE8"/>
<path d="M84.6441 25.4008C83.5235 25.4008 82.5523 25.2265 81.7056 24.8529C80.8589 24.4794 80.1865 23.9813 79.6885 23.3588C79.1904 22.7113 78.8667 21.9642 78.7671 21.1424H82.0294C82.129 21.6405 82.4029 22.0389 82.8511 22.3876C83.2994 22.7362 83.8722 22.9105 84.5943 22.9105C85.2916 22.9105 85.8146 22.7611 86.1383 22.4872C86.462 22.1884 86.6364 21.8646 86.6364 21.4911C86.6364 20.9432 86.4122 20.5946 85.9391 20.3954C85.4659 20.1961 84.8185 20.0218 83.9718 19.8226C83.4239 19.6981 82.876 19.5736 82.3282 19.3992C81.7803 19.2249 81.2574 19.0257 80.8091 18.7518C80.336 18.5027 79.9624 18.1541 79.6885 17.7308C79.3897 17.3074 79.2651 16.8094 79.2651 16.2117C79.2651 15.0911 79.7134 14.1697 80.585 13.3977C81.4566 12.6257 82.7266 12.2522 84.3204 12.2522C85.8146 12.2522 86.985 12.6008 87.8815 13.2981C88.778 13.9954 89.3009 14.9417 89.4753 16.1619H86.4122C86.2379 15.2405 85.5157 14.7673 84.3204 14.7673C83.7227 14.7673 83.2496 14.8919 82.9259 15.116C82.6021 15.3401 82.4278 15.6389 82.4278 16.0125C82.4278 16.386 82.6768 16.6849 83.15 16.909C83.648 17.1331 84.2955 17.3323 85.0924 17.5066C85.964 17.7059 86.7858 17.93 87.508 18.179C88.2301 18.428 88.8278 18.7767 89.276 19.2747C89.7243 19.7479 89.9235 20.4452 89.9235 21.3417C89.9484 22.1136 89.7492 22.8109 89.3259 23.4335C88.9025 24.0561 88.3048 24.5541 87.508 24.9027C86.6613 25.2265 85.715 25.4008 84.6441 25.4008Z" fill="#5D6DE8"/>
<path d="M26.0482 6.52451L15.5393 0.448249C14.4934 -0.149416 13.2233 -0.149416 12.1774 0.448249L1.66848 6.52451C0.647471 7.12218 0 8.2179 0 9.41323V21.5409C0 22.7362 0.647471 23.8319 1.66848 24.4545L12.1774 30.5307C13.2233 31.1284 14.4934 31.1284 15.5393 30.5307L21.6156 27.0195L27.0444 31.9004C27.1938 32.0498 27.4428 32.0249 27.5922 31.8755C27.6669 31.8008 27.6918 31.7012 27.6918 31.6016V21.8397C27.6918 21.7401 27.7167 21.6405 27.7167 21.5409V9.41323C27.7167 8.2179 27.0942 7.12218 26.0482 6.52451ZM13.8708 29.0117C13.6218 29.0117 13.3728 28.9619 13.1486 28.8374L2.66459 22.7611C2.24125 22.5121 1.96732 22.0638 1.96732 21.5658V9.46303L13.8708 16.3113C13.8708 20.4202 13.8708 24.8778 13.8708 29.0117ZM13.9704 14.3191L3.01323 8.01868L13.1735 2.14163C13.5969 1.89261 14.1198 1.89261 14.5681 2.14163L24.8529 8.06848L13.9704 14.3191Z" fill="#5D6DE8"/>
</g>
<defs>
<clipPath id="clip0">
<rect width="89.8739" height="32" fill="white"/>
</clipPath>
</defs>
</svg>
