<svg xmlns="http://www.w3.org/2000/svg" viewBox="0 0 2004.71 704.28"><defs><style>.cls-1{fill:#556deb;}</style></defs><title>Logo-horizontal-purple</title><g id="Capa_2" data-name="Capa 2"><g id="Capa_1-2" data-name="Capa 1"><path class="cls-1" d="M573.14,143.38,341.86,9.86a73.88,73.88,0,0,0-73.73,0L36.86,143.39A73.94,73.94,0,0,0,0,207.24v267a74,74,0,0,0,36.86,63.86L268.13,671.67a73.91,73.91,0,0,0,73.73,0l133.81-77.26L595.22,702.05a8.6,8.6,0,0,0,14.36-6.39v-215c.18-2.1.42-4.2.42-6.34v-267A73.94,73.94,0,0,0,573.14,143.38ZM305.47,638.24a30.27,30.27,0,0,1-15.72-4L58.47,500.7a30.6,30.6,0,0,1-15.24-26.42s0-266.18,0-266.26L305.15,358.81C305.25,449.49,305.36,547.56,305.47,638.24Zm2-323.21L66.57,176.21,289.75,47.3a30.52,30.52,0,0,1,30.49,0L546.52,177.94Z"/><path class="cls-1" d="M1004,193.14h79.84v354.7H1004V397.36H869.9V547.84H790.07V193.14H869.9V328.78H1004Z"/><path class="cls-1" d="M1412.46,405.55q0,31.74-9.22,58.09t-26.62,45a119.79,119.79,0,0,1-41.71,28.92q-24.33,10.24-54.51,10.24-29.7,0-54-10.24a119.51,119.51,0,0,1-41.71-28.92q-17.42-18.68-27.13-45t-9.73-58.09q0-31.73,10-57.84t27.64-44.52a124.06,124.06,0,0,1,42-28.67q24.32-10.23,53-10.23,29.17,0,53.49,10.23a121.59,121.59,0,0,1,41.71,28.67q17.39,18.42,27.12,44.52T1412.46,405.55Zm-77.8,0q0-35.31-14.08-55.54T1280.4,329.8q-26.1,0-40.44,20.21t-14.33,55.54q0,35.31,14.33,56t40.44,20.73q26.1,0,40.18-20.73T1334.66,405.55Z"/><path class="cls-1" d="M1592.67,548.19c-12.56.68-38.26,1-63.9-7.52-18.51-6.12-27.92-13.84-32.76-18.68a61.72,61.72,0,0,1-16.37-29.17,157.45,157.45,0,0,1-4.36-38.64V157.83l76.27.11V438.82a100.84,100.84,0,0,0,1.53,18.43,31.68,31.68,0,0,0,5.89,13.82,31.2,31.2,0,0,0,12.54,9.22q8.19,3.57,22,4.6Q1593.09,516.54,1592.67,548.19Z"/><path class="cls-1" d="M1744.5,200.82q0,21-13.57,33a48.57,48.57,0,0,1-64,0q-13.59-12-13.57-33t13.57-33a48.54,48.54,0,0,1,64,0Q1744.49,179.84,1744.5,200.82Zm-7.17,347h-76.27V278.62h76.27Z"/><path class="cls-1" d="M1890.58,485.9q21,0,29.68-4.09T1929,466q0-9.21-11.27-16.13t-34.28-15.61a346.56,346.56,0,0,1-32.5-13.81,95.59,95.59,0,0,1-24.84-17.16,69.21,69.21,0,0,1-15.86-23.79q-5.64-13.83-5.63-33.27,0-37.86,28.15-59.89t77.3-22a248.8,248.8,0,0,1,47.08,4.34q22.52,4.37,35.83,9.48l-13.31,59.36a284.39,284.39,0,0,0-28.92-8.18,157.11,157.11,0,0,0-35.06-3.59q-35.84,0-35.83,20a20.54,20.54,0,0,0,1.54,8.2q1.53,3.58,6.14,6.91A87.61,87.61,0,0,0,1900,368q7.93,3.87,20.22,8.52,25.07,9.27,41.46,18.32t25.85,19.49a60.25,60.25,0,0,1,13.29,23.24q3.86,12.77,3.85,29.61,0,39.86-30,60.27t-84.7,20.43q-35.83,0-59.63-6.14t-33-10.24l12.79-61.93a249.5,249.5,0,0,0,39.93,12A194.1,194.1,0,0,0,1890.58,485.9Z"/></g></g></svg>