<svg width="168" height="69" viewBox="0 0 168 69" fill="none" xmlns="http://www.w3.org/2000/svg">
<path d="M87.3929 31.1686C89.8614 31.1686 91.8157 32.0043 93.2557 33.6757C94.7214 35.3214 95.4543 37.5586 95.4543 40.3871V53H87.8943V41.39C87.8943 40.1557 87.5729 39.1914 86.93 38.4971C86.2871 37.7771 85.4257 37.4171 84.3457 37.4171C83.2143 37.4171 82.3271 37.7771 81.6843 38.4971C81.0414 39.1914 80.72 40.1557 80.72 41.39V53H73.16V24.4571H80.72V34.4471C81.3886 33.47 82.2886 32.6857 83.42 32.0943C84.5771 31.4771 85.9014 31.1686 87.3929 31.1686ZM109.67 53.27C107.51 53.27 105.568 52.82 103.845 51.92C102.148 51.02 100.811 49.7343 99.8339 48.0629C98.8568 46.3914 98.3682 44.4243 98.3682 42.1614C98.3682 39.9243 98.8568 37.97 99.8339 36.2986C100.837 34.6271 102.187 33.3414 103.884 32.4414C105.607 31.5414 107.548 31.0914 109.708 31.0914C111.868 31.0914 113.797 31.5414 115.494 32.4414C117.217 33.3414 118.567 34.6271 119.544 36.2986C120.547 37.97 121.048 39.9243 121.048 42.1614C121.048 44.3986 120.547 46.3657 119.544 48.0629C118.567 49.7343 117.217 51.02 115.494 51.92C113.771 52.82 111.83 53.27 109.67 53.27ZM109.67 46.7129C110.724 46.7129 111.598 46.3271 112.293 45.5557C113.013 44.7586 113.373 43.6271 113.373 42.1614C113.373 40.6957 113.013 39.5771 112.293 38.8057C111.598 38.0343 110.737 37.6486 109.708 37.6486C108.68 37.6486 107.818 38.0343 107.124 38.8057C106.43 39.5771 106.083 40.6957 106.083 42.1614C106.083 43.6529 106.417 44.7843 107.085 45.5557C107.754 46.3271 108.615 46.7129 109.67 46.7129ZM131.684 24.4571V53H124.124V24.4571H131.684ZM139.808 29.3557C138.471 29.3557 137.391 28.9957 136.568 28.2757C135.771 27.53 135.372 26.6043 135.372 25.4986C135.372 24.3671 135.771 23.4286 136.568 22.6829C137.391 21.9371 138.471 21.5643 139.808 21.5643C141.119 21.5643 142.174 21.9371 142.971 22.6829C143.794 23.4286 144.205 24.3671 144.205 25.4986C144.205 26.6043 143.794 27.53 142.971 28.2757C142.174 28.9957 141.119 29.3557 139.808 29.3557ZM143.549 31.3614V53H135.989V31.3614H143.549ZM157.073 53.27C155.119 53.27 153.37 52.9486 151.827 52.3057C150.31 51.6371 149.102 50.7371 148.202 49.6057C147.327 48.4486 146.839 47.15 146.736 45.71H154.064C154.167 46.4043 154.489 46.9443 155.029 47.33C155.569 47.7157 156.237 47.9086 157.034 47.9086C157.652 47.9086 158.14 47.78 158.5 47.5229C158.86 47.2657 159.04 46.9314 159.04 46.52C159.04 45.98 158.744 45.5814 158.153 45.3243C157.562 45.0671 156.584 44.7843 155.222 44.4757C153.679 44.1671 152.393 43.82 151.364 43.4343C150.336 43.0486 149.436 42.4186 148.664 41.5443C147.919 40.67 147.546 39.4871 147.546 37.9957C147.546 36.71 147.893 35.5529 148.587 34.5243C149.282 33.47 150.297 32.6343 151.634 32.0171C152.997 31.4 154.63 31.0914 156.533 31.0914C159.362 31.0914 161.586 31.7857 163.206 33.1743C164.826 34.5629 165.764 36.3886 166.022 38.6514H159.194C159.066 37.9571 158.757 37.43 158.269 37.07C157.806 36.6843 157.176 36.4914 156.379 36.4914C155.762 36.4914 155.286 36.6071 154.952 36.8386C154.643 37.07 154.489 37.3914 154.489 37.8029C154.489 38.3171 154.784 38.7157 155.376 38.9986C155.967 39.2557 156.919 39.5257 158.23 39.8086C159.799 40.1429 161.097 40.5157 162.126 40.9271C163.18 41.3386 164.093 42.0071 164.864 42.9329C165.662 43.8329 166.06 45.0671 166.06 46.6357C166.06 47.8957 165.687 49.0271 164.942 50.03C164.222 51.0329 163.18 51.83 161.817 52.4214C160.48 52.9871 158.899 53.27 157.073 53.27Z" fill="url(#paint0_linear)"/>
<path d="M28.4818 0.510997C29.6619 -0.170333 31.1158 -0.170332 32.2959 0.510998L58.8707 15.8539C60.0508 16.5353 60.7778 17.7944 60.7778 19.1571V49.8429C60.7778 51.2056 60.0508 52.4647 58.8707 53.1461L32.2959 68.489C31.1158 69.1703 29.6619 69.1703 28.4818 68.489L1.90707 53.1461C0.726969 52.4647 0 51.2056 0 49.8429V19.1571C0 17.7944 0.72697 16.5353 1.90707 15.8539L28.4818 0.510997Z" fill="url(#paint1_linear)"/>
<path d="M33.9481 26.1552C36.8262 26.1552 39.1048 27.1323 40.7837 29.0867C42.4925 31.0109 43.347 33.6267 43.347 36.934V51.6815H34.5327V38.1066C34.5327 36.6634 34.158 35.5359 33.4085 34.7241C32.659 33.8822 31.6546 33.4613 30.3955 33.4613C29.0763 33.4613 28.042 33.8822 27.2925 34.7241C26.543 35.5359 26.1682 36.6634 26.1682 38.1066V51.6815H17.354V18.3079H26.1682V29.9887C26.9477 28.8461 27.997 27.9291 29.3162 27.2376C30.6653 26.516 32.2093 26.1552 33.9481 26.1552Z" fill="white"/>
<defs>
<linearGradient id="paint0_linear" x1="-176.819" y1="-285.154" x2="413.386" y2="-162.069" gradientUnits="userSpaceOnUse">
<stop stop-color="#9B51E0"/>
<stop offset="1" stop-color="#2F80ED"/>
</linearGradient>
<linearGradient id="paint1_linear" x1="-155.277" y1="-351.131" x2="226.014" y2="-309.251" gradientUnits="userSpaceOnUse">
<stop stop-color="#9B51E0"/>
<stop offset="1" stop-color="#2F80ED"/>
</linearGradient>
</defs>
</svg>
