<svg width="80" height="80" viewBox="0 0 80 80" fill="none" xmlns="http://www.w3.org/2000/svg">
<g clip-path="url(#clip0)">
<path d="M74.925 6.51251H5.075C2.275 6.51251 0 8.78751 0 11.575V68.4125C0 71.2125 2.275 73.4875 5.075 73.4875H74.9375C77.7375 73.4875 80.0125 71.2125 80.0125 68.4125V11.575C80 8.78751 77.725 6.51251 74.925 6.51251ZM5.075 8.93751H74.9375C76.4 8.93751 77.5875 10.125 77.5875 11.5875V20.8125H2.425V11.575C2.425 10.125 3.6125 8.93751 5.075 8.93751ZM74.925 71.0625H5.075C3.6125 71.0625 2.425 69.875 2.425 68.4125V23.2375H77.575V68.425C77.575 69.875 76.3875 71.0625 74.925 71.0625Z" fill="#626AE7"/>
<path d="M11.2 18.55C13.225 18.55 14.875 16.9 14.875 14.875C14.875 12.85 13.225 11.2 11.2 11.2C9.17502 11.2 7.52502 12.85 7.52502 14.875C7.52502 16.9 9.17502 18.55 11.2 18.55ZM11.2 13.6125C11.8875 13.6125 12.45 14.175 12.45 14.8625C12.45 15.55 11.8875 16.1125 11.2 16.1125C10.5125 16.1125 9.95002 15.55 9.95002 14.8625C9.95002 14.175 10.5125 13.6125 11.2 13.6125ZM20.45 18.3875C22.3875 18.3875 23.9625 16.8125 23.9625 14.875C23.9625 12.9375 22.3875 11.3625 20.45 11.3625C18.5125 11.3625 16.9375 12.9375 16.9375 14.875C16.925 16.8125 18.5 18.3875 20.45 18.3875ZM20.45 13.7875C21.05 13.7875 21.5375 14.275 21.5375 14.875C21.5375 15.475 21.05 15.9625 20.45 15.9625C19.85 15.9625 19.3625 15.475 19.3625 14.875C19.35 14.275 19.8375 13.7875 20.45 13.7875ZM29.6875 18.3875C31.625 18.3875 33.2 16.8125 33.2 14.875C33.2 12.9375 31.625 11.3625 29.6875 11.3625C27.75 11.3625 26.175 12.9375 26.175 14.875C26.175 16.8125 27.75 18.3875 29.6875 18.3875ZM29.6875 13.7875C30.2875 13.7875 30.775 14.275 30.775 14.875C30.775 15.475 30.2875 15.9625 29.6875 15.9625C29.0875 15.9625 28.6 15.475 28.6 14.875C28.6 14.275 29.0875 13.7875 29.6875 13.7875ZM39.1625 16.0875H71.2625C71.9375 16.0875 72.475 15.55 72.475 14.875C72.475 14.2 71.9375 13.6625 71.2625 13.6625H39.1625C38.4875 13.6625 37.95 14.2 37.95 14.875C37.95 15.5375 38.5 16.0875 39.1625 16.0875ZM32.1 47.3375H25.675C25 47.3375 24.4625 47.875 24.4625 48.55V59.7125C24.4625 60.3875 25 60.925 25.675 60.925H32.1C32.775 60.925 33.3125 60.3875 33.3125 59.7125V48.55C33.3125 47.875 32.775 47.3375 32.1 47.3375ZM30.8875 58.5H26.8875V49.75H30.8875V58.5ZM43.2125 41.75H36.8C36.125 41.75 35.5875 42.2875 35.5875 42.9625V59.7125C35.5875 60.3875 36.125 60.925 36.8 60.925H43.2125C43.8875 60.925 44.425 60.3875 44.425 59.7125V42.9625C44.425 42.2875 43.875 41.75 43.2125 41.75ZM42 58.5H38V44.175H42V58.5ZM54.3125 33.375H47.9C47.225 33.375 46.6875 33.9125 46.6875 34.5875V59.7125C46.6875 60.3875 47.225 60.925 47.9 60.925H54.3125C54.9875 60.925 55.525 60.3875 55.525 59.7125V34.5875C55.525 33.925 54.9875 33.375 54.3125 33.375ZM53.1 58.5H49.1V35.8H53.1V58.5Z" fill="#626AE7"/>
</g>
<defs>
<clipPath id="clip0">
<rect width="80" height="80" fill="white"/>
</clipPath>
</defs>
</svg>
