<svg width="80" height="80" viewBox="0 0 80 80" fill="none" xmlns="http://www.w3.org/2000/svg">
<path d="M41.8016 25.7812H69.368C69.6788 25.7812 69.9769 25.6578 70.1966 25.438C70.4164 25.2182 70.5399 24.9202 70.5399 24.6094C70.5399 24.2986 70.4164 24.0005 70.1966 23.7807C69.9769 23.561 69.6788 23.4375 69.368 23.4375H41.8016C41.4908 23.4375 41.1927 23.561 40.973 23.7807C40.7532 24.0005 40.6297 24.2986 40.6297 24.6094C40.6297 24.9202 40.7532 25.2182 40.973 25.438C41.1927 25.6578 41.4908 25.7812 41.8016 25.7812ZM5.85938 21.0938C6.01327 21.0938 6.16566 21.0634 6.30784 21.0046C6.45002 20.9457 6.57921 20.8593 6.68803 20.7505C6.79685 20.6417 6.88317 20.5125 6.94206 20.3703C7.00095 20.2282 7.03126 20.0758 7.03125 19.9219V16.4062H10.5469C10.8577 16.4062 11.1557 16.2828 11.3755 16.063C11.5953 15.8432 11.7188 15.5452 11.7188 15.2344C11.7188 14.9236 11.5953 14.6255 11.3755 14.4057C11.1557 14.186 10.8577 14.0625 10.5469 14.0625H5.85938C5.70548 14.0625 5.55309 14.0928 5.41091 14.1517C5.26873 14.2106 5.13954 14.2969 5.03072 14.4057C4.9219 14.5145 4.83558 14.6437 4.77669 14.7859C4.7178 14.9281 4.68749 15.0805 4.6875 15.2344V19.9219C4.68749 20.0758 4.7178 20.2282 4.77669 20.3703C4.83558 20.5125 4.9219 20.6417 5.03072 20.7505C5.13954 20.8593 5.26873 20.9457 5.41091 21.0046C5.55309 21.0634 5.70548 21.0938 5.85938 21.0938ZM41.8016 21.0938H69.368C69.6788 21.0938 69.9769 20.9703 70.1966 20.7505C70.4164 20.5307 70.5399 20.2327 70.5399 19.9219C70.5399 19.6111 70.4164 19.313 70.1966 19.0932C69.9769 18.8735 69.6788 18.75 69.368 18.75H41.8016C41.4908 18.75 41.1927 18.8735 40.973 19.0932C40.7532 19.313 40.6297 19.6111 40.6297 19.9219C40.6297 20.2327 40.7532 20.5307 40.973 20.7505C41.1927 20.9703 41.4908 21.0938 41.8016 21.0938ZM76.4844 9.375H72.9688V7.03125H75.2344C75.3883 7.03126 75.5407 7.00095 75.6828 6.94206C75.825 6.88317 75.9542 6.79685 76.063 6.68803C76.1718 6.57921 76.2582 6.45002 76.3171 6.30784C76.3759 6.16566 76.4063 6.01327 76.4062 5.85938V4.29688C76.405 3.15767 75.9518 2.0655 75.1463 1.25996C74.3408 0.454422 73.2486 0.00129978 72.1094 0L66.7969 0C65.6577 0.00129978 64.5655 0.454422 63.76 1.25996C62.9544 2.0655 62.5013 3.15767 62.5 4.29688V5.85938C62.5 6.01327 62.5303 6.16566 62.5892 6.30784C62.6481 6.45002 62.7344 6.57921 62.8432 6.68803C62.952 6.79685 63.0812 6.88317 63.2234 6.94206C63.3656 7.00095 63.518 7.03126 63.6719 7.03125H65.9375V9.375H14.0625V7.03125H16.3281C16.482 7.03126 16.6344 7.00095 16.7766 6.94206C16.9188 6.88317 17.048 6.79685 17.1568 6.68803C17.2656 6.57921 17.3519 6.45002 17.4108 6.30784C17.4697 6.16566 17.5 6.01327 17.5 5.85938V4.29688C17.4987 3.15767 17.0456 2.0655 16.24 1.25996C15.4345 0.454422 14.3423 0.00129978 13.2031 0L7.89062 0C6.75142 0.00129978 5.65925 0.454422 4.85371 1.25996C4.04817 2.0655 3.59505 3.15767 3.59375 4.29688V5.85938C3.59374 6.01327 3.62405 6.16566 3.68294 6.30784C3.74183 6.45002 3.82815 6.57921 3.93697 6.68803C4.04579 6.79685 4.17498 6.88317 4.31716 6.94206C4.45934 7.00095 4.61173 7.03126 4.76562 7.03125H7.03125V9.375H3.51562C2.58355 9.37606 1.68995 9.74679 1.03087 10.4059C0.371791 11.0649 0.00105621 11.9585 0 12.8906L0 48.2031C0.00105621 49.1352 0.371791 50.0288 1.03087 50.6879C1.68995 51.347 2.58355 51.7177 3.51562 51.7188H7.03125V78.8281C7.03125 79.1389 7.15471 79.437 7.37448 79.6568C7.59425 79.8765 7.89232 80 8.20312 80C8.51393 80 8.812 79.8765 9.03177 79.6568C9.25154 79.437 9.375 79.1389 9.375 78.8281V51.7188H11.7188V78.8281C11.7188 79.1389 11.8422 79.437 12.062 79.6568C12.2818 79.8765 12.5798 80 12.8906 80C13.2014 80 13.4995 79.8765 13.7193 79.6568C13.939 79.437 14.0625 79.1389 14.0625 78.8281V51.7188H65.9375V78.8281C65.9375 79.1389 66.061 79.437 66.2807 79.6568C66.5005 79.8765 66.7986 80 67.1094 80C67.4202 80 67.7182 79.8765 67.938 79.6568C68.1578 79.437 68.2812 79.1389 68.2812 78.8281V51.7188H70.625V78.8281C70.625 79.1389 70.7485 79.437 70.9682 79.6568C71.188 79.8765 71.4861 80 71.7969 80C72.1077 80 72.4057 79.8765 72.6255 79.6568C72.8453 79.437 72.9688 79.1389 72.9688 78.8281V51.7188H76.4844C77.4165 51.7177 78.3101 51.347 78.9691 50.6879C79.6282 50.0288 79.9989 49.1352 80 48.2031V12.8906C79.9989 11.9585 79.6282 11.0649 78.9691 10.4059C78.3101 9.74679 77.4165 9.37606 76.4844 9.375ZM64.8438 4.6875V4.29688C64.8443 3.77905 65.0503 3.28261 65.4165 2.91645C65.7826 2.55029 66.2791 2.34433 66.7969 2.34375H72.1094C72.6272 2.34433 73.1236 2.55029 73.4898 2.91645C73.856 3.28261 74.0619 3.77905 74.0625 4.29688V4.6875H64.8438ZM70.625 7.03125V9.375H68.2812V7.03125H70.625ZM5.9375 4.6875V4.29688C5.93808 3.77905 6.14404 3.28261 6.5102 2.91645C6.87636 2.55029 7.3728 2.34433 7.89062 2.34375H13.2031C13.7209 2.34433 14.2174 2.55029 14.5835 2.91645C14.9497 3.28261 15.1557 3.77905 15.1562 4.29688V4.6875H5.9375ZM11.7188 7.03125V9.375H9.375V7.03125H11.7188ZM77.6562 48.2031C77.6559 48.5138 77.5323 48.8117 77.3126 49.0314C77.0929 49.2511 76.7951 49.3747 76.4844 49.375H3.51562C3.20493 49.3747 2.90705 49.2511 2.68736 49.0314C2.46766 48.8117 2.34409 48.5138 2.34375 48.2031V12.8906C2.34409 12.5799 2.46766 12.2821 2.68736 12.0624C2.90705 11.8427 3.20493 11.7191 3.51562 11.7188H76.4844C76.7951 11.7191 77.0929 11.8427 77.3126 12.0624C77.5323 12.2821 77.6559 12.5799 77.6562 12.8906V48.2031ZM74.1406 40C73.9867 40 73.8343 40.0303 73.6922 40.0892C73.55 40.1481 73.4208 40.2344 73.312 40.3432C73.2032 40.452 73.1168 40.5812 73.0579 40.7234C72.9991 40.8656 72.9687 41.018 72.9688 41.1719V44.6875H69.4531C69.1423 44.6875 68.8443 44.811 68.6245 45.0307C68.4047 45.2505 68.2812 45.5486 68.2812 45.8594C68.2812 46.1702 68.4047 46.4682 68.6245 46.688C68.8443 46.9078 69.1423 47.0312 69.4531 47.0312H74.1406C74.2945 47.0313 74.4469 47.0009 74.5891 46.9421C74.7313 46.8832 74.8605 46.7968 74.9693 46.688C75.0781 46.5792 75.1644 46.45 75.2233 46.3078C75.2822 46.1657 75.3125 46.0133 75.3125 45.8594V41.1719C75.3125 41.018 75.2822 40.8656 75.2233 40.7234C75.1644 40.5812 75.0781 40.452 74.9693 40.3432C74.8605 40.2344 74.7313 40.1481 74.5891 40.0892C74.4469 40.0303 74.2945 40 74.1406 40V40ZM74.1406 14.0625H69.4531C69.1423 14.0625 68.8443 14.186 68.6245 14.4057C68.4047 14.6255 68.2812 14.9236 68.2812 15.2344C68.2812 15.5452 68.4047 15.8432 68.6245 16.063C68.8443 16.2828 69.1423 16.4062 69.4531 16.4062H72.9688V19.9219C72.9688 20.2327 73.0922 20.5307 73.312 20.7505C73.5318 20.9703 73.8298 21.0938 74.1406 21.0938C74.4514 21.0938 74.7495 20.9703 74.9693 20.7505C75.189 20.5307 75.3125 20.2327 75.3125 19.9219V15.2344C75.3125 15.0805 75.2822 14.9281 75.2233 14.7859C75.1644 14.6437 75.0781 14.5145 74.9693 14.4057C74.8605 14.2969 74.7313 14.2106 74.5891 14.1517C74.4469 14.0928 74.2945 14.0625 74.1406 14.0625ZM70.8109 41.0156C70.8109 40.8617 70.7806 40.7093 70.7217 40.5672C70.6628 40.425 70.5764 40.2958 70.4676 40.187C70.3588 40.0782 70.2296 39.9918 70.0874 39.9329C69.9453 39.8741 69.7929 39.8437 69.639 39.8438H67.5829C67.2721 39.8438 66.974 39.9672 66.7542 40.187C66.5344 40.4068 66.411 40.7048 66.411 41.0156C66.411 41.3264 66.5344 41.6245 66.7542 41.8443C66.974 42.064 67.2721 42.1875 67.5829 42.1875H69.639C69.7929 42.1875 69.9453 42.1572 70.0874 42.0983C70.2296 42.0394 70.3588 41.9531 70.4676 41.8443C70.5764 41.7355 70.6628 41.6063 70.7217 41.4641C70.7806 41.3219 70.8109 41.1695 70.8109 41.0156ZM10.5469 44.6875H7.03125V41.1719C7.03125 40.8611 6.90779 40.563 6.68802 40.3432C6.46825 40.1235 6.17018 40 5.85938 40C5.54857 40 5.2505 40.1235 5.03073 40.3432C4.81096 40.563 4.6875 40.8611 4.6875 41.1719V45.8594C4.68749 46.0133 4.7178 46.1657 4.77669 46.3078C4.83558 46.45 4.9219 46.5792 5.03072 46.688C5.13954 46.7968 5.26873 46.8832 5.41091 46.9421C5.55309 47.0009 5.70548 47.0313 5.85938 47.0312H10.5469C10.8577 47.0312 11.1557 46.9078 11.3755 46.688C11.5953 46.4682 11.7188 46.1702 11.7188 45.8594C11.7188 45.5486 11.5953 45.2505 11.3755 45.0307C11.1557 44.811 10.8577 44.6875 10.5469 44.6875ZM35.2344 18.75H11.7969C11.1548 18.7507 10.5392 19.0061 10.0851 19.4601C9.63111 19.9142 9.37572 20.5298 9.375 21.1719V39.9219C9.37486 40.4966 9.58014 41.0525 9.9538 41.4891C9.97931 41.521 10.0064 41.5515 10.0351 41.5805C10.0385 41.5839 10.0422 41.5868 10.0457 41.5902C10.2711 41.8281 10.5426 42.0177 10.8437 42.1472C11.1448 42.2768 11.4691 42.3437 11.7969 42.3438H35.2344C35.6734 42.3435 36.104 42.223 36.4794 41.9954C36.5042 41.9814 36.5286 41.9668 36.5524 41.9509C36.8909 41.7315 37.1692 41.4309 37.362 41.0766C37.5548 40.7222 37.6559 40.3253 37.6562 39.9219V21.1719C37.6555 20.5298 37.4001 19.9142 36.9461 19.4601C36.4921 19.0061 35.8765 18.7507 35.2344 18.75V18.75ZM13.3022 40L18.6308 34.7352L23.8956 40H13.3022ZM27.2103 40L26.2183 39.008L28.8261 36.9212L32.7572 40H27.2103ZM35.3125 39.0243L29.5409 34.504C29.333 34.3412 29.0762 34.2534 28.8122 34.2548C28.5482 34.2562 28.2924 34.3467 28.0862 34.5116L24.5509 37.3405L19.4646 32.2543C19.2456 32.0353 18.949 31.912 18.6394 31.911C18.3298 31.9101 18.0324 32.0317 17.8122 32.2493L11.7188 38.2697V21.1719C11.7188 21.1512 11.727 21.1313 11.7417 21.1167C11.7563 21.102 11.7762 21.0938 11.7969 21.0938H35.2344C35.2551 21.0938 35.2749 21.102 35.2896 21.1167C35.3042 21.1313 35.3125 21.1512 35.3125 21.1719V39.0243ZM60.264 28.125H41.8016C41.4908 28.125 41.1927 28.2485 40.973 28.4682C40.7532 28.688 40.6297 28.9861 40.6297 29.2969C40.6297 29.6077 40.7532 29.9057 40.973 30.1255C41.1927 30.3453 41.4908 30.4688 41.8016 30.4688H60.264C60.5748 30.4688 60.8728 30.3453 61.0926 30.1255C61.3124 29.9057 61.4359 29.6077 61.4359 29.2969C61.4359 28.9861 61.3124 28.688 61.0926 28.4682C60.8728 28.2485 60.5748 28.125 60.264 28.125ZM50.889 39.8438H41.8016C41.4908 39.8438 41.1927 39.9672 40.973 40.187C40.7532 40.4068 40.6297 40.7048 40.6297 41.0156C40.6297 41.3264 40.7532 41.6245 40.973 41.8443C41.1927 42.064 41.4908 42.1875 41.8016 42.1875H50.889C51.1998 42.1875 51.4978 42.064 51.7176 41.8443C51.9374 41.6245 52.0609 41.3264 52.0609 41.0156C52.0609 40.7048 51.9374 40.4068 51.7176 40.187C51.4978 39.9672 51.1998 39.8438 50.889 39.8438V39.8438Z" fill="#626AE7"/>
</svg>
