<svg width="80" height="80" viewBox="0 0 80 80" fill="none" xmlns="http://www.w3.org/2000/svg">
<path d="M71.25 8.75H31.25C29.593 8.75198 28.0044 9.4111 26.8328 10.5828C25.6611 11.7544 25.002 13.343 25 15V17.7663C12.9925 19.3113 3.75 28.125 3.75 38.75C3.75 48.4188 11.5737 56.93 22.5 59.3225V70C22.5001 70.2611 22.5819 70.5156 22.734 70.7278C22.886 70.9401 23.1008 71.0993 23.348 71.1833C23.5952 71.2673 23.8625 71.2717 24.1124 71.196C24.3623 71.1203 24.5822 70.9683 24.7412 70.7613L33.3088 59.6238C42.1488 58.2488 49.1488 53.06 52.1525 46.2487H54.5337L63.9837 59.4737C64.099 59.636 64.2514 59.7685 64.4281 59.86C64.6049 59.9515 64.8009 59.9995 65 60C65.1298 59.9997 65.2588 59.9795 65.3825 59.94C65.6344 59.859 65.8542 59.7002 66.0101 59.4863C66.166 59.2725 66.25 59.0146 66.25 58.75V46.25H71.25C72.907 46.248 74.4956 45.5889 75.6672 44.4172C76.8389 43.2456 77.498 41.657 77.5 40V15C77.498 13.343 76.8389 11.7544 75.6672 10.5828C74.4956 9.4111 72.907 8.75198 71.25 8.75ZM32.455 57.2225C32.1302 57.2677 31.8361 57.4387 31.6362 57.6987L25 66.325V58.2975C25.0003 58.0044 24.8975 57.7205 24.7097 57.4954C24.5219 57.2703 24.261 57.1184 23.9725 57.0662C13.7037 55.2125 6.25 47.51 6.25 38.75C6.25 28.4113 16.3438 20 28.75 20C41.1562 20 51.25 28.4113 51.25 38.75C51.25 47.9437 43.3463 55.7137 32.455 57.2225ZM75 40C75 40.9946 74.6049 41.9484 73.9016 42.6516C73.1984 43.3549 72.2446 43.75 71.25 43.75H66.25C65.587 43.75 64.9511 44.0134 64.4822 44.4822C64.0134 44.9511 63.75 45.587 63.75 46.25V54.85L56.5588 44.7862C56.3263 44.4675 56.0224 44.2077 55.6714 44.0277C55.3203 43.8478 54.932 43.7527 54.5375 43.75H53.0375C53.5042 42.1241 53.7439 40.4415 53.75 38.75C53.75 27.0325 42.535 17.5 28.75 17.5C28.3275 17.5 27.9163 17.5363 27.5 17.5538V15C27.5 14.0054 27.8951 13.0516 28.5983 12.3483C29.3016 11.6451 30.2554 11.25 31.25 11.25H71.25C72.2446 11.25 73.1984 11.6451 73.9016 12.3483C74.6049 13.0516 75 14.0054 75 15V40Z" fill="#626AE7"/>
<path d="M22.5 32.5C22.5 31.7583 22.2801 31.0333 21.868 30.4166C21.456 29.7999 20.8703 29.3193 20.1851 29.0355C19.4998 28.7516 18.7458 28.6774 18.0184 28.8221C17.291 28.9667 16.6228 29.3239 16.0983 29.8483C15.5739 30.3728 15.2167 31.041 15.0721 31.7684C14.9274 32.4958 15.0016 33.2498 15.2855 33.9351C15.5693 34.6203 16.0499 35.206 16.6666 35.618C17.2833 36.0301 18.0083 36.25 18.75 36.25C19.7446 36.25 20.6984 35.8549 21.4017 35.1517C22.1049 34.4484 22.5 33.4946 22.5 32.5ZM17.5 32.5C17.5 32.2528 17.5733 32.0111 17.7107 31.8055C17.848 31.6 18.0432 31.4398 18.2716 31.3452C18.5001 31.2505 18.7514 31.2258 18.9939 31.274C19.2363 31.3222 19.4591 31.4413 19.6339 31.6161C19.8087 31.7909 19.9278 32.0137 19.976 32.2561C20.0242 32.4986 19.9995 32.7499 19.9048 32.9784C19.8102 33.2068 19.65 33.402 19.4445 33.5393C19.2389 33.6767 18.9972 33.75 18.75 33.75C18.4185 33.75 18.1005 33.6183 17.8661 33.3839C17.6317 33.1495 17.5 32.8315 17.5 32.5ZM37.5 28.75C36.7583 28.75 36.0333 28.9699 35.4166 29.382C34.7999 29.794 34.3193 30.3797 34.0355 31.0649C33.7516 31.7502 33.6774 32.5042 33.8221 33.2316C33.9667 33.959 34.3239 34.6272 34.8483 35.1517C35.3728 35.6761 36.041 36.0333 36.7684 36.1779C37.4958 36.3226 38.2498 36.2484 38.9351 35.9645C39.6203 35.6807 40.206 35.2001 40.618 34.5834C41.0301 33.9667 41.25 33.2417 41.25 32.5C41.25 31.5054 40.8549 30.5516 40.1516 29.8483C39.4484 29.1451 38.4946 28.75 37.5 28.75ZM37.5 33.75C37.2528 33.75 37.0111 33.6767 36.8055 33.5393C36.6 33.402 36.4398 33.2068 36.3452 32.9784C36.2505 32.7499 36.2258 32.4986 36.274 32.2561C36.3223 32.0137 36.4413 31.7909 36.6161 31.6161C36.7909 31.4413 37.0137 31.3222 37.2561 31.274C37.4986 31.2258 37.7499 31.2505 37.9784 31.3452C38.2068 31.4398 38.402 31.6 38.5393 31.8055C38.6767 32.0111 38.75 32.2528 38.75 32.5C38.75 32.8315 38.6183 33.1495 38.3839 33.3839C38.1495 33.6183 37.8315 33.75 37.5 33.75ZM27.5 48.75C22.6763 48.75 18.75 45.3862 18.75 41.25H16.25C16.25 46.7638 21.2963 51.25 27.5 51.25C33.7038 51.25 38.75 46.7638 38.75 41.25H36.25C36.25 45.3862 32.3237 48.75 27.5 48.75ZM56.25 23.75C55.5083 23.75 54.7833 23.9699 54.1666 24.382C53.5499 24.794 53.0693 25.3797 52.7855 26.0649C52.5016 26.7502 52.4274 27.5042 52.5721 28.2316C52.7167 28.959 53.0739 29.6272 53.5984 30.1517C54.1228 30.6761 54.791 31.0333 55.5184 31.1779C56.2458 31.3226 56.9998 31.2484 57.6851 30.9645C58.3703 30.6807 58.956 30.2001 59.368 29.5834C59.7801 28.9667 60 28.2417 60 27.5C60 26.5054 59.6049 25.5516 58.9016 24.8483C58.1984 24.1451 57.2446 23.75 56.25 23.75ZM56.25 28.75C56.0028 28.75 55.7611 28.6767 55.5555 28.5393C55.35 28.402 55.1898 28.2068 55.0952 27.9784C55.0005 27.7499 54.9758 27.4986 55.024 27.2561C55.0722 27.0137 55.1913 26.7909 55.3661 26.6161C55.5409 26.4413 55.7637 26.3222 56.0061 26.274C56.2486 26.2258 56.4999 26.2505 56.7284 26.3452C56.9568 26.4398 57.152 26.6 57.2893 26.8055C57.4267 27.0111 57.5 27.2528 57.5 27.5C57.5 27.8315 57.3683 28.1495 57.1339 28.3839C56.8995 28.6183 56.5815 28.75 56.25 28.75ZM66.25 23.75C65.5083 23.75 64.7833 23.9699 64.1666 24.382C63.5499 24.794 63.0693 25.3797 62.7855 26.0649C62.5016 26.7502 62.4274 27.5042 62.5721 28.2316C62.7167 28.959 63.0739 29.6272 63.5983 30.1517C64.1228 30.6761 64.791 31.0333 65.5184 31.1779C66.2458 31.3226 66.9998 31.2484 67.6851 30.9645C68.3703 30.6807 68.956 30.2001 69.368 29.5834C69.7801 28.9667 70 28.2417 70 27.5C70 26.5054 69.6049 25.5516 68.9016 24.8483C68.1984 24.1451 67.2446 23.75 66.25 23.75ZM66.25 28.75C66.0028 28.75 65.7611 28.6767 65.5555 28.5393C65.35 28.402 65.1898 28.2068 65.0952 27.9784C65.0005 27.7499 64.9758 27.4986 65.024 27.2561C65.0722 27.0137 65.1913 26.7909 65.3661 26.6161C65.5409 26.4413 65.7637 26.3222 66.0061 26.274C66.2486 26.2258 66.4999 26.2505 66.7284 26.3452C66.9568 26.4398 67.152 26.6 67.2893 26.8055C67.4267 27.0111 67.5 27.2528 67.5 27.5C67.5 27.8315 67.3683 28.1495 67.1339 28.3839C66.8995 28.6183 66.5815 28.75 66.25 28.75Z" fill="#626AE7"/>
</svg>
