<svg width="80" height="80" viewBox="0 0 80 80" fill="none" xmlns="http://www.w3.org/2000/svg">
<path d="M14.1909 23.0469H44.5643C44.8945 23.0469 45.2111 22.9234 45.4445 22.7036C45.678 22.4839 45.8091 22.1858 45.8091 21.875C45.8091 21.5642 45.678 21.2661 45.4445 21.0464C45.2111 20.8266 44.8945 20.7031 44.5643 20.7031H14.1909C13.8607 20.7031 13.5441 20.8266 13.3107 21.0464C13.0772 21.2661 12.9461 21.5642 12.9461 21.875C12.9461 22.1858 13.0772 22.4839 13.3107 22.7036C13.5441 22.9234 13.8607 23.0469 14.1909 23.0469V23.0469ZM75.6846 40.2828V5.85938C75.6829 4.30588 75.0266 2.81649 73.8597 1.718C72.6929 0.619511 71.1108 0.00165442 69.4606 0L34.1079 0C32.4577 0.00165442 30.8756 0.619511 29.7087 1.718C28.5419 2.81649 27.8856 4.30588 27.8838 5.85938V8.16562H21.6598C20.0096 8.16728 18.4275 8.78514 17.2606 9.88362C16.0938 10.9821 15.4374 12.4715 15.4357 14.025V15.1969H11.7012C10.0511 15.1985 8.46896 15.8164 7.30211 16.9149C6.13525 18.0134 5.47894 19.5028 5.47718 21.0562V30.6687C3.96776 30.8422 2.57778 31.5292 1.56898 32.6003C0.560178 33.6715 0.00215922 35.0529 0 36.4844V74.1406C0.00175739 75.6941 0.65807 77.1835 1.82493 78.282C2.99179 79.3805 4.57388 79.9983 6.22407 80H73.7759C75.4261 79.9983 77.0082 79.3805 78.1751 78.282C79.3419 77.1835 79.9982 75.6941 80 74.1406V45.8594C79.9984 44.62 79.5799 43.4128 78.8047 42.4111C78.0295 41.4093 76.9373 40.6643 75.6846 40.2828V40.2828ZM30.3734 5.85938C30.3743 4.92723 30.7681 4.0335 31.4682 3.37437C32.1684 2.71524 33.1177 2.34458 34.1079 2.34375H69.4606C70.4507 2.34458 71.4001 2.71524 72.1003 3.37437C72.8004 4.0335 73.1941 4.92723 73.195 5.85938V40H63.2365V14.025C63.2348 12.4715 62.5784 10.9821 61.4116 9.88362C60.2447 8.78514 58.6626 8.16728 57.0124 8.16562H30.3734V5.85938ZM17.9253 14.025C17.9262 13.0929 18.3199 12.1991 19.0201 11.54C19.7202 10.8809 20.6696 10.5102 21.6598 10.5094H57.0124C58.0026 10.5102 58.952 10.8809 59.6521 11.54C60.3523 12.1991 60.746 13.0929 60.7469 14.025V40H53.278V21.0562C53.2763 19.5028 52.6199 18.0134 51.4531 16.9149C50.2862 15.8164 48.7041 15.1985 47.0539 15.1969H17.9253V14.025ZM7.96681 21.0562C7.96768 20.1241 8.36142 19.2304 9.06157 18.5712C9.76172 17.9121 10.7111 17.5415 11.7012 17.5406H47.0539C48.0441 17.5415 48.9935 17.9121 49.6936 18.5712C50.3938 19.2304 50.7875 20.1241 50.7884 21.0562V40H45.0938C44.5956 39.9991 44.1026 39.9048 43.6435 39.7227C43.1844 39.5405 42.7685 39.2741 42.4199 38.9391L35.6349 32.3922C35.0538 31.8344 34.3607 31.3909 33.596 31.0875C32.8312 30.7841 32.01 30.6269 31.1801 30.625H7.96681V21.0562ZM77.5104 74.1406C77.5095 75.0728 77.1158 75.9665 76.4156 76.6256C75.7155 77.2848 74.7661 77.6554 73.7759 77.6562H6.22407C5.2339 77.6554 4.28454 77.2848 3.58439 76.6256C2.88424 75.9665 2.49051 75.0728 2.48963 74.1406V36.4844C2.49051 35.5522 2.88424 34.6585 3.58439 33.9994C4.28454 33.3402 5.2339 32.9696 6.22407 32.9688H31.1801C31.678 32.9699 32.1707 33.0642 32.6294 33.2464C33.0882 33.4285 33.5039 33.6948 33.8523 34.0297L40.639 40.5766C41.2199 41.1346 41.9129 41.5782 42.6777 41.8816C43.4425 42.185 44.2638 42.3421 45.0938 42.3438H73.7759C74.7661 42.3446 75.7155 42.7152 76.4156 43.3744C77.1158 44.0335 77.5095 44.9272 77.5104 45.8594V74.1406ZM50.9544 51.8922H47.9187V50.6844C47.9178 49.8463 47.5638 49.0428 46.9343 48.4502C46.3048 47.8576 45.4512 47.5243 44.561 47.5234H35.4324C34.5421 47.5243 33.6886 47.8576 33.0591 48.4502C32.4296 49.0428 32.0756 49.8463 32.0747 50.6844V51.8922H29.0456C28.2093 51.8922 27.4072 52.205 26.8158 52.7617C26.2244 53.3185 25.8921 54.0736 25.8921 54.8609V69.5016C25.8921 70.2889 26.2244 71.044 26.8158 71.6008C27.4072 72.1575 28.2093 72.4703 29.0456 72.4703H50.9544C51.7907 72.4703 52.5928 72.1575 53.1842 71.6008C53.7756 71.044 54.1079 70.2889 54.1079 69.5016V54.8609C54.1079 54.0736 53.7756 53.3185 53.1842 52.7617C52.5928 52.205 51.7907 51.8922 50.9544 51.8922V51.8922ZM34.5726 50.6844C34.5726 50.5771 34.5951 50.4708 34.6387 50.3717C34.6823 50.2725 34.7463 50.1824 34.8269 50.1065C34.9075 50.0307 35.0032 49.9705 35.1085 49.9294C35.2138 49.8883 35.3267 49.8672 35.4407 49.8672H44.5693C44.6833 49.8672 44.7962 49.8883 44.9015 49.9294C45.0068 49.9705 45.1025 50.0307 45.1831 50.1065C45.2637 50.1824 45.3276 50.2725 45.3713 50.3717C45.4149 50.4708 45.4373 50.5771 45.4373 50.6844V51.8922H34.571L34.5726 50.6844ZM51.6183 69.5047C51.6183 69.6704 51.5483 69.8294 51.4238 69.9466C51.2993 70.0638 51.1304 70.1297 50.9544 70.1297H29.0456C28.8696 70.1297 28.7007 70.0638 28.5762 69.9466C28.4517 69.8294 28.3817 69.6704 28.3817 69.5047V60.4313L36.1544 64.0828V65.5891C36.1552 66.1897 36.4091 66.7655 36.8602 67.1902C37.3114 67.6149 37.923 67.8539 38.561 67.8547H41.4423C42.0803 67.8539 42.692 67.6149 43.1431 67.1902C43.5942 66.7655 43.8481 66.1897 43.849 65.5891V64.0828L51.6183 60.4313V69.5047ZM38.6407 65.5109V62.9563H41.356V65.5109H38.6407ZM51.6183 57.8125L43.4556 61.6469C43.2378 61.3298 42.9391 61.0691 42.5869 60.8885C42.2347 60.7078 41.8401 60.6129 41.439 60.6125H38.5593C38.1582 60.6129 37.7636 60.7078 37.4114 60.8885C37.0592 61.0691 36.7606 61.3298 36.5427 61.6469L28.3817 57.8125V54.8641C28.3817 54.6983 28.4517 54.5393 28.5762 54.4221C28.7007 54.3049 28.8696 54.2391 29.0456 54.2391H50.9544C51.1304 54.2391 51.2993 54.3049 51.4238 54.4221C51.5483 54.5393 51.6183 54.6983 51.6183 54.8641V57.8125ZM45.8091 26.5625C45.8091 26.2517 45.678 25.9536 45.4445 25.7339C45.2111 25.5141 44.8945 25.3906 44.5643 25.3906H14.1909C13.8607 25.3906 13.5441 25.5141 13.3107 25.7339C13.0772 25.9536 12.9461 26.2517 12.9461 26.5625C12.9461 26.8733 13.0772 27.1714 13.3107 27.3911C13.5441 27.6109 13.8607 27.7344 14.1909 27.7344H44.5643C44.8945 27.7344 45.2111 27.6109 45.4445 27.3911C45.678 27.1714 45.8091 26.8733 45.8091 26.5625Z" fill="#626AE7"/>
</svg>
