<svg width="80" height="80" viewBox="0 0 80 80" fill="none" xmlns="http://www.w3.org/2000/svg">
<g clip-path="url(#clip0)">
<path d="M50.0017 66.6667C49.0817 66.6667 48.335 67.4134 48.335 68.3334C48.335 72.9267 44.5983 76.6667 40.0017 76.6667C35.4052 76.6667 31.6685 72.9267 31.6685 68.3334C31.6685 67.4134 30.9217 66.6667 30.0017 66.6667C29.0817 66.6667 28.335 67.4134 28.335 68.3334C28.335 74.7667 33.5683 80.0002 40.0017 80.0002C46.4352 80.0002 51.6685 74.7669 51.6685 68.3334C51.6683 67.4133 50.9217 66.6667 50.0017 66.6667Z" fill="#626AE7"/>
<path d="M40.0017 0C35.405 0 31.6685 3.74 31.6685 8.33328C31.6685 9.25328 32.4152 10 33.3352 10C34.2552 10 35.0019 9.25328 35.0019 8.33328C35.0019 5.57656 37.2452 3.33328 40.0019 3.33328C42.7586 3.33328 45.0019 5.57656 45.0019 8.33328C45.0019 9.25328 45.7486 10 46.6686 10C47.5886 10 48.3353 9.25328 48.3353 8.33328C48.335 3.74 44.5983 0 40.0017 0Z" fill="#626AE7"/>
<path d="M77.845 77.1567L4.5117 3.82328C3.8617 3.17328 2.80498 3.17328 2.15498 3.82328C1.50498 4.47328 1.50498 5.53 2.15498 6.18L75.4883 79.5133C75.815 79.8366 76.2415 80 76.6683 80C77.095 80 77.5215 79.8367 77.845 79.5133C78.495 78.8633 78.495 77.8067 77.845 77.1567Z" fill="#626AE7"/>
<path d="M68.195 67.96C68.055 67.05 67.2318 66.4367 66.295 66.5667C66.2283 66.5767 66.0183 66.65 65.9518 66.6667H14.0518C12.735 66.6667 11.6685 65.5967 11.6685 64.2834C11.6685 63.9167 11.7485 63.5667 11.9118 63.2334C14.2018 58.5367 21.6685 42.1367 21.6685 28.3334C21.6685 26.5334 21.9352 24.7467 22.4585 23.0134C22.7252 22.1334 22.2285 21.2002 21.3452 20.9334C20.4752 20.6634 19.5352 21.1702 19.2685 22.0467C18.6518 24.0934 18.3352 26.2067 18.3352 28.3334C18.3352 41.7602 10.4885 58.5434 8.91849 61.7702C8.53177 62.5569 8.33521 63.4034 8.33521 64.2834C8.33521 67.4367 10.9019 70.0002 14.0519 70.0002H65.9519C66.3086 70.0002 66.5952 69.9202 66.8019 69.8602C67.7083 69.72 68.335 68.87 68.195 67.96Z" fill="#626AE7"/>
<path d="M70.4883 60.5067C67.835 54.85 61.6683 40.3867 61.6683 28.3334C61.6683 16.3867 51.9483 6.66672 40.0016 6.66672C33.1683 6.66672 26.8748 9.81 22.7283 15.2867C22.1716 16.0234 22.3183 17.0667 23.0516 17.6234C23.7883 18.1802 24.8316 18.0367 25.3848 17.3002C28.895 12.66 34.225 10 40.0017 10C50.1084 10 58.335 18.2233 58.335 28.3333C58.335 41.0566 64.7217 56.06 67.465 61.92C67.7483 62.5267 68.3483 62.88 68.975 62.88C69.215 62.88 69.455 62.83 69.685 62.7233C70.5183 62.33 70.8783 61.34 70.4883 60.5067Z" fill="#626AE7"/>
<path d="M40.0017 13.3333C34.9317 13.3333 30.235 15.89 27.4484 20.17C26.9451 20.9433 27.1651 21.9733 27.9351 22.4767C28.2151 22.66 28.5284 22.7467 28.8419 22.7467C29.3851 22.7467 29.9219 22.48 30.2386 21.99C32.4119 18.6567 36.0586 16.6667 40.0019 16.6667C40.9219 16.6667 41.6686 15.92 41.6686 15C41.6686 14.08 40.9217 13.3333 40.0017 13.3333Z" fill="#626AE7"/>
<path d="M26.6683 26.6667C25.7483 26.6667 25.0016 27.4134 25.0016 28.3334C25.0016 40.2734 19.7516 53.9202 16.6216 60.9934C16.2483 61.8334 16.6283 62.8201 17.4716 63.1901C17.6883 63.2869 17.9183 63.3334 18.1449 63.3334C18.7849 63.3334 19.3949 62.9634 19.6681 62.3401C22.9049 55.0269 28.3349 40.8869 28.3349 28.3334C28.335 27.4133 27.5883 26.6667 26.6683 26.6667Z" fill="#626AE7"/>
</g>
<defs>
<clipPath id="clip0">
<rect width="80" height="80" fill="white"/>
</clipPath>
</defs>
</svg>
