<svg width="80" height="80" viewBox="0 0 80 80" fill="none" xmlns="http://www.w3.org/2000/svg">
<path d="M40 73.3333C43.6667 73.3333 46.6667 70.3333 46.6667 66.6667H33.3333C33.3333 70.3333 36.3333 73.3333 40 73.3333ZM40 21.6667C48.3 21.6667 53.3333 28.4 53.3333 36.6667V37L60 43.6667V36.6667C60 26.4333 54.5667 17.8667 45 15.6V13.3333C45 10.5667 42.7667 8.33333 40 8.33333C37.2333 8.33333 35 10.5667 35 13.3333V15.6C34.2 15.8 33.4333 16.1 32.7 16.3667L38.1667 21.8333C38.7667 21.7667 39.3667 21.6667 40 21.6667V21.6667ZM18.0333 11.1667L13.3333 15.8667L22.7 25.2333C20.9667 28.5667 20 32.4667 20 36.6667V53.3333L13.3333 60V63.3333H60.8L66.6 69.1333L71.3 64.4333L18.0333 11.1667ZM53.3333 56.6667H26.6667V36.6667C26.6667 34.4 27.0667 32.2667 27.8 30.3333L53.3333 55.8667V56.6667Z" fill="#626AE7"/>
</svg>
