<svg width="80" height="80" viewBox="0 0 80 80" fill="none" xmlns="http://www.w3.org/2000/svg">
<path d="M1.13019 71.6588C0.679943 71.9538 0.336923 72.3862 0.15214 72.8918C-0.0326432 73.3973 -0.0493197 73.949 0.10459 74.4648C0.2585 74.9806 0.574775 75.433 1.00639 75.7546C1.438 76.0762 1.96189 76.25 2.50016 76.25H77.4998C78.0381 76.25 78.562 76.0763 78.9936 75.7547C79.4253 75.433 79.7415 74.9807 79.8955 74.4649C80.0494 73.9491 80.0327 73.3974 79.8479 72.8918C79.6631 72.3862 79.3201 71.9538 78.8699 71.6588L73.146 67.9088C73.127 67.8964 73.1062 67.8879 73.087 67.876C73.1091 67.7518 73.1218 67.6261 73.1249 67.5V30.625C73.1234 29.2994 72.5961 28.0285 71.6588 27.0911C70.7214 26.1538 69.4505 25.6265 68.1249 25.625H53.1249V28.125C53.1249 31.606 51.7421 34.9443 49.2807 37.4057C46.8193 39.8671 43.4809 41.2499 40 41.2499C36.519 41.2499 33.1807 39.8671 30.7193 37.4057C28.2579 34.9443 26.8751 31.606 26.8751 28.125V25.625H11.8751C10.5495 25.6265 9.27861 26.1538 8.34126 27.0911C7.40391 28.0285 6.87665 29.2994 6.87516 30.625V67.5C6.87822 67.6261 6.89088 67.7518 6.91304 67.876C6.89382 67.8879 6.87299 67.8964 6.85407 67.9088L1.13019 71.6588ZM9.37516 30.625C9.37516 29.962 9.63855 29.3261 10.1074 28.8572C10.5762 28.3884 11.2121 28.125 11.8751 28.125H24.3751C24.3803 32.0507 25.8613 35.8309 28.5242 38.7153C31.1871 41.5997 34.8372 43.3774 38.75 43.6955V49.375H34.3751C34.0435 49.375 33.7256 49.5067 33.4912 49.7411C33.2567 49.9755 33.1251 50.2935 33.1251 50.625C33.1251 50.9565 33.2567 51.2745 33.4912 51.5089C33.7256 51.7433 34.0435 51.875 34.3751 51.875H45.625C45.9565 51.875 46.2744 51.7433 46.5089 51.5089C46.7433 51.2745 46.875 50.9565 46.875 50.625C46.875 50.2935 46.7433 49.9755 46.5089 49.7411C46.2744 49.5067 45.9565 49.375 45.625 49.375H41.25V43.6955C45.1628 43.3774 48.8129 41.5997 51.4758 38.7153C54.1387 35.8309 55.6198 32.0507 55.6249 28.125H68.1249C68.7879 28.125 69.4238 28.3884 69.8926 28.8572C70.3615 29.3261 70.6249 29.962 70.6249 30.625V67.5H9.37516V30.625ZM8.22407 70H71.776L77.4998 73.75H2.50016L8.22407 70Z" fill="#626AE7"/>
<path d="M29.375 14.375V28.125C29.375 30.9429 30.4944 33.6454 32.487 35.638C34.4796 37.6306 37.1821 38.75 40 38.75C42.8179 38.75 45.5204 37.6306 47.513 35.638C49.5055 33.6454 50.625 30.9429 50.625 28.125V14.375C50.625 11.5571 49.5055 8.85461 47.513 6.86204C45.5204 4.86947 42.8179 3.75006 40 3.75006C37.1821 3.75006 34.4796 4.86947 32.487 6.86204C30.4944 8.85461 29.375 11.5571 29.375 14.375ZM31.875 14.375C31.8784 12.4388 32.5728 10.5673 33.8331 9.0973C35.0934 7.62734 36.8369 6.65542 38.75 6.35642V15.625H31.875V14.375ZM48.125 28.125C48.125 29.192 47.9148 30.2485 47.5065 31.2343C47.0982 32.2201 46.4997 33.1158 45.7452 33.8702C44.9907 34.6247 44.095 35.2232 43.1093 35.6315C42.1235 36.0398 41.067 36.25 40 36.25C38.933 36.25 37.8765 36.0398 36.8907 35.6315C35.9049 35.2232 35.0092 34.6247 34.2548 33.8702C33.5003 33.1158 32.9018 32.2201 32.4935 31.2343C32.0852 30.2485 31.875 29.192 31.875 28.125V18.125H48.125V28.125ZM41.25 6.35642C43.163 6.65542 44.9066 7.62734 46.1669 9.0973C47.4272 10.5673 48.1215 12.4388 48.125 14.375V15.625H41.25V6.35642ZM15.0001 54.375C14.6686 54.375 14.3506 54.5067 14.1162 54.7412C13.8818 54.9756 13.7501 55.2935 13.7501 55.625V63.75C13.7501 64.0815 13.8818 64.3995 14.1162 64.6339C14.3506 64.8683 14.6686 65 15.0001 65C15.3316 65 15.6496 64.8683 15.884 64.6339C16.1184 64.3995 16.2501 64.0815 16.2501 63.75V55.625C16.2501 55.2935 16.1184 54.9756 15.884 54.7412C15.6495 54.5067 15.3316 54.375 15.0001 54.375ZM20.0001 55.625C19.6685 55.625 19.3506 55.7567 19.1162 55.9912C18.8818 56.2256 18.7501 56.5435 18.7501 56.875V62.5C18.7501 62.8315 18.8818 63.1495 19.1162 63.3839C19.3506 63.6183 19.6685 63.75 20.0001 63.75C20.3316 63.75 20.6495 63.6183 20.8839 63.3839C21.1184 63.1495 21.2501 62.8315 21.2501 62.5V56.875C21.25 56.5435 21.1183 56.2256 20.8839 55.9912C20.6495 55.7567 20.3316 55.625 20.0001 55.625ZM25.0001 54.375C24.6685 54.375 24.3506 54.5067 24.1162 54.7412C23.8818 54.9756 23.7501 55.2935 23.7501 55.625V63.75C23.7501 64.0815 23.8818 64.3995 24.1162 64.6339C24.3506 64.8683 24.6685 65 25.0001 65C25.3316 65 25.6495 64.8683 25.8839 64.6339C26.1184 64.3995 26.2501 64.0815 26.2501 63.75V55.625C26.25 55.2935 26.1183 54.9756 25.8839 54.7412C25.6495 54.5067 25.3316 54.375 25.0001 54.375ZM30 54.375C29.6685 54.375 29.3506 54.5067 29.1162 54.7412C28.8817 54.9756 28.75 55.2935 28.75 55.625V63.75C28.75 64.0815 28.8817 64.3995 29.1161 64.6339C29.3506 64.8683 29.6685 65 30 65C30.3315 65 30.6495 64.8683 30.8839 64.6339C31.1183 64.3995 31.25 64.0815 31.25 63.75V55.625C31.25 55.2935 31.1183 54.9756 30.8839 54.7412C30.6495 54.5067 30.3315 54.375 30 54.375ZM35 56.25C34.6685 56.25 34.3506 56.3817 34.1162 56.6162C33.8817 56.8506 33.75 57.1685 33.75 57.5V61.875C33.7491 62.0397 33.7808 62.203 33.8432 62.3555C33.9056 62.5079 33.9975 62.6465 34.1137 62.7633C34.2299 62.8801 34.368 62.9728 34.5201 63.0361C34.6722 63.0993 34.8353 63.1319 35 63.1319C35.1647 63.1319 35.3278 63.0993 35.4799 63.0361C35.632 62.9728 35.7701 62.8801 35.8863 62.7633C36.0025 62.6465 36.0944 62.5079 36.1568 62.3555C36.2192 62.203 36.2509 62.0397 36.25 61.875V57.5C36.25 57.1685 36.1183 56.8506 35.8839 56.6162C35.6495 56.3818 35.3315 56.25 35 56.25ZM40 54.375C39.6685 54.375 39.3505 54.5067 39.1161 54.7412C38.8817 54.9756 38.75 55.2935 38.75 55.625V63.75C38.75 64.0815 38.8817 64.3995 39.1161 64.6339C39.3505 64.8683 39.6685 65 40 65C40.3315 65 40.6495 64.8683 40.8839 64.6339C41.1183 64.3995 41.25 64.0815 41.25 63.75V55.625C41.25 55.2935 41.1183 54.9756 40.8839 54.7412C40.6494 54.5067 40.3315 54.375 40 54.375ZM45 56.875C44.6684 56.875 44.3505 57.0067 44.1161 57.2412C43.8817 57.4756 43.75 57.7935 43.75 58.125V61.25C43.75 61.5815 43.8816 61.8995 44.1161 62.1339C44.3505 62.3683 44.6684 62.5 45 62.5C45.3315 62.5 45.6494 62.3683 45.8838 62.1339C46.1183 61.8995 46.25 61.5815 46.25 61.25V58.125C46.2499 57.7935 46.1182 57.4756 45.8838 57.2412C45.6494 57.0067 45.3315 56.875 45 56.875ZM50 54.6875C49.6684 54.6875 49.3505 54.8192 49.1161 55.0537C48.8817 55.2881 48.75 55.606 48.75 55.9375V63.4375C48.75 63.769 48.8816 64.087 49.1161 64.3214C49.3505 64.5558 49.6684 64.6875 50 64.6875C50.3315 64.6875 50.6494 64.5558 50.8838 64.3214C51.1183 64.087 51.25 63.769 51.25 63.4375V55.9375C51.2499 55.606 51.1182 55.2881 50.8838 55.0537C50.6494 54.8192 50.3315 54.6875 50 54.6875ZM54.9999 54.375C54.6684 54.375 54.3505 54.5067 54.116 54.7412C53.8816 54.9756 53.7499 55.2935 53.7499 55.625V63.75C53.7499 64.0815 53.8816 64.3995 54.116 64.6339C54.3504 64.8683 54.6684 65 54.9999 65C55.3314 65 55.6494 64.8683 55.8838 64.6339C56.1182 64.3995 56.2499 64.0815 56.2499 63.75V55.625C56.2499 55.2935 56.1182 54.9756 55.8838 54.7412C55.6494 54.5067 55.3314 54.375 54.9999 54.375ZM59.9999 56.25C59.6684 56.25 59.3505 56.3817 59.116 56.6162C58.8816 56.8506 58.7499 57.1685 58.7499 57.5V61.875C58.749 62.0397 58.7807 62.203 58.8431 62.3555C58.9055 62.5079 58.9974 62.6465 59.1136 62.7633C59.2298 62.8801 59.3679 62.9728 59.52 63.0361C59.6721 63.0993 59.8352 63.1319 59.9999 63.1319C60.1646 63.1319 60.3277 63.0993 60.4798 63.0361C60.6319 62.9728 60.77 62.8801 60.8862 62.7633C61.0024 62.6465 61.0943 62.5079 61.1567 62.3555C61.2191 62.203 61.2508 62.0397 61.2499 61.875V57.5C61.2499 57.1685 61.1182 56.8506 60.8838 56.6162C60.6494 56.3818 60.3314 56.25 59.9999 56.25ZM64.9999 54.375C64.6684 54.375 64.3504 54.5067 64.116 54.7412C63.8816 54.9756 63.7499 55.2935 63.7499 55.625V63.75C63.7499 64.0815 63.8816 64.3995 64.116 64.6339C64.3504 64.8683 64.6684 65 64.9999 65C65.3314 65 65.6493 64.8683 65.8838 64.6339C66.1182 64.3995 66.2499 64.0815 66.2499 63.75V55.625C66.2499 55.2935 66.1182 54.9756 65.8837 54.7412C65.6493 54.5067 65.3314 54.375 64.9999 54.375Z" fill="#626AE7"/>
</svg>
