<svg width="1365" height="580" fill="none" xmlns="http://www.w3.org/2000/svg"><g opacity=".457"><path fill-rule="evenodd" clip-rule="evenodd" d="M1201.95 6.407c1.74 0 3.17-1.424 3.17-3.177a3.179 3.179 0 00-6.36 0 3.186 3.186 0 003.19 3.177zm31.82 0c1.76 0 3.19-1.424 3.19-3.177a3.179 3.179 0 00-6.36 0 3.182 3.182 0 003.17 3.177zm31.84 0c1.75 0 3.18-1.424 3.18-3.177a3.181 3.181 0 00-6.36 0 3.184 3.184 0 003.18 3.177zm31.83 0a3.178 3.178 0 100-6.354c-1.75 0-3.18 1.42-3.18 3.177a3.184 3.184 0 003.18 3.177zm31.84 0c1.75 0 3.17-1.424 3.17-3.177a3.173 3.173 0 00-3.17-3.177c-1.75 0-3.18 1.42-3.18 3.177a3.184 3.184 0 003.18 3.177zm31.83 0c1.75 0 3.18-1.424 3.18-3.177a3.181 3.181 0 00-6.36 0 3.184 3.184 0 003.18 3.177zm-159.16 31.818a3.18 3.18 0 003.17-3.177 3.182 3.182 0 00-3.17-3.177 3.186 3.186 0 00-3.19 3.177 3.183 3.183 0 003.19 3.177zm31.82 0c1.76 0 3.19-1.42 3.19-3.177a3.186 3.186 0 00-3.19-3.177 3.182 3.182 0 00-3.17 3.177 3.18 3.18 0 003.17 3.177zm31.84 0c1.75 0 3.18-1.42 3.18-3.177a3.184 3.184 0 00-3.18-3.177 3.184 3.184 0 00-3.18 3.177 3.181 3.181 0 003.18 3.177zm31.83 0a3.178 3.178 0 100-6.355 3.184 3.184 0 00-3.18 3.178 3.181 3.181 0 003.18 3.177zm31.84 0c1.75 0 3.17-1.42 3.17-3.177a3.176 3.176 0 00-3.17-3.177 3.184 3.184 0 00-3.18 3.177 3.181 3.181 0 003.18 3.177zm31.83 0c1.75 0 3.18-1.42 3.18-3.177a3.184 3.184 0 00-3.18-3.177 3.184 3.184 0 00-3.18 3.177 3.181 3.181 0 003.18 3.177zm-159.16 31.827a3.18 3.18 0 003.17-3.177 3.179 3.179 0 00-6.36 0 3.183 3.183 0 003.19 3.177zm31.82 0c1.76 0 3.19-1.42 3.19-3.177a3.179 3.179 0 00-6.36 0 3.18 3.18 0 003.17 3.177zm31.84 0c1.75 0 3.18-1.42 3.18-3.177a3.181 3.181 0 00-6.36 0 3.181 3.181 0 003.18 3.177zm31.83 0c1.76 0 3.18-1.42 3.18-3.177a3.181 3.181 0 00-6.36 0 3.181 3.181 0 003.18 3.177zm31.84 0c1.75 0 3.17-1.42 3.17-3.177a3.173 3.173 0 00-3.17-3.178c-1.75 0-3.18 1.42-3.18 3.178a3.181 3.181 0 003.18 3.177zm31.83 0c1.75 0 3.18-1.42 3.18-3.177a3.181 3.181 0 00-6.36 0 3.181 3.181 0 003.18 3.177zm-159.16 31.822c1.74 0 3.17-1.425 3.17-3.177a3.178 3.178 0 00-3.17-3.172c-1.76 0-3.19 1.42-3.19 3.172a3.186 3.186 0 003.19 3.177zm31.82 0c1.76 0 3.19-1.425 3.19-3.177a3.182 3.182 0 00-3.19-3.172c-1.74 0-3.17 1.42-3.17 3.172a3.182 3.182 0 003.17 3.177zm31.84 0c1.75 0 3.18-1.425 3.18-3.177a3.18 3.18 0 00-6.36 0 3.184 3.184 0 003.18 3.177zm31.83 0a3.174 3.174 0 100-6.35 3.18 3.18 0 00-3.18 3.173 3.184 3.184 0 003.18 3.177zm31.84 0a3.176 3.176 0 000-6.35 3.18 3.18 0 00-3.18 3.173 3.184 3.184 0 003.18 3.177zm31.83 0c1.75 0 3.18-1.425 3.18-3.177a3.18 3.18 0 00-6.36 0 3.184 3.184 0 003.18 3.177zm-159.16 31.822c1.74 0 3.17-1.42 3.17-3.177a3.182 3.182 0 00-3.17-3.177 3.186 3.186 0 00-3.19 3.177 3.183 3.183 0 003.19 3.177zm31.82 0c1.76 0 3.19-1.42 3.19-3.177a3.186 3.186 0 00-3.19-3.177 3.182 3.182 0 00-3.17 3.177 3.179 3.179 0 003.17 3.177zm31.84 0c1.75 0 3.18-1.42 3.18-3.177a3.184 3.184 0 00-3.18-3.177 3.184 3.184 0 00-3.18 3.177 3.181 3.181 0 003.18 3.177zm31.83 0a3.178 3.178 0 100-6.354 3.184 3.184 0 00-3.18 3.177 3.181 3.181 0 003.18 3.177zm31.84 0c1.75 0 3.17-1.42 3.17-3.177a3.176 3.176 0 00-3.17-3.177 3.184 3.184 0 00-3.18 3.177 3.181 3.181 0 003.18 3.177zm31.83 0c1.75 0 3.18-1.42 3.18-3.177a3.184 3.184 0 00-3.18-3.177 3.184 3.184 0 00-3.18 3.177 3.181 3.181 0 003.18 3.177zm-159.16 31.827c1.74 0 3.17-1.42 3.17-3.177a3.179 3.179 0 00-3.17-3.177c-1.76 0-3.19 1.42-3.19 3.177a3.183 3.183 0 003.19 3.177zm31.82 0c1.76 0 3.19-1.42 3.19-3.177a3.183 3.183 0 00-3.19-3.177c-1.74 0-3.17 1.42-3.17 3.177a3.179 3.179 0 003.17 3.177zm31.84 0c1.75 0 3.18-1.42 3.18-3.177a3.181 3.181 0 00-6.36 0 3.181 3.181 0 003.18 3.177zm31.83 0c1.76 0 3.18-1.42 3.18-3.177a3.181 3.181 0 00-6.36 0 3.181 3.181 0 003.18 3.177zm31.84 0c1.75 0 3.17-1.42 3.17-3.177a3.172 3.172 0 00-3.17-3.177c-1.75 0-3.18 1.42-3.18 3.177a3.181 3.181 0 003.18 3.177zm31.83 0c1.75 0 3.18-1.42 3.18-3.177a3.181 3.181 0 00-6.36 0 3.181 3.181 0 003.18 3.177zm-159.16 31.823c1.74 0 3.17-1.425 3.17-3.178a3.182 3.182 0 00-3.17-3.177 3.186 3.186 0 00-3.19 3.177 3.187 3.187 0 003.19 3.178zm31.82 0c1.76 0 3.19-1.425 3.19-3.178a3.186 3.186 0 00-3.19-3.177 3.182 3.182 0 00-3.17 3.177 3.182 3.182 0 003.17 3.178zm31.84 0c1.75 0 3.18-1.425 3.18-3.178a3.184 3.184 0 00-3.18-3.177 3.184 3.184 0 00-3.18 3.177 3.184 3.184 0 003.18 3.178zm31.83 0a3.178 3.178 0 100-6.355 3.184 3.184 0 00-3.18 3.177 3.184 3.184 0 003.18 3.178zm31.84 0c1.75 0 3.17-1.425 3.17-3.178a3.176 3.176 0 00-3.17-3.177 3.184 3.184 0 00-3.18 3.177 3.184 3.184 0 003.18 3.178zm31.83 0c1.75 0 3.18-1.425 3.18-3.178a3.184 3.184 0 00-3.18-3.177 3.184 3.184 0 00-3.18 3.177 3.184 3.184 0 003.18 3.178zm-159.16 31.822a3.18 3.18 0 003.17-3.178 3.179 3.179 0 00-3.17-3.177c-1.76 0-3.19 1.42-3.19 3.177a3.183 3.183 0 003.19 3.178zm31.82 0c1.76 0 3.19-1.42 3.19-3.178a3.183 3.183 0 00-3.19-3.177c-1.74 0-3.17 1.42-3.17 3.177a3.18 3.18 0 003.17 3.178zm31.84 0c1.75 0 3.18-1.42 3.18-3.178a3.181 3.181 0 00-6.36 0 3.181 3.181 0 003.18 3.178zm31.83 0c1.76 0 3.18-1.42 3.18-3.178a3.181 3.181 0 00-6.36 0 3.181 3.181 0 003.18 3.178zm31.84 0c1.75 0 3.17-1.42 3.17-3.178a3.172 3.172 0 00-3.17-3.177c-1.75 0-3.18 1.42-3.18 3.177a3.181 3.181 0 003.18 3.178zm31.83 0c1.75 0 3.18-1.42 3.18-3.178a3.181 3.181 0 00-6.36 0 3.181 3.181 0 003.18 3.178zm-159.16 31.827c1.74 0 3.17-1.425 3.17-3.177a3.179 3.179 0 00-3.17-3.177c-1.76 0-3.19 1.42-3.19 3.177a3.186 3.186 0 003.19 3.177zm31.82 0c1.76 0 3.19-1.425 3.19-3.177a3.183 3.183 0 00-3.19-3.177c-1.74 0-3.17 1.42-3.17 3.177a3.182 3.182 0 003.17 3.177zm31.84 0c1.75 0 3.18-1.425 3.18-3.177a3.181 3.181 0 00-6.36 0 3.184 3.184 0 003.18 3.177zm31.83 0a3.178 3.178 0 100-6.354c-1.75 0-3.18 1.42-3.18 3.177a3.184 3.184 0 003.18 3.177zm31.84 0c1.75 0 3.17-1.425 3.17-3.177a3.172 3.172 0 00-3.17-3.177c-1.75 0-3.18 1.42-3.18 3.177a3.184 3.184 0 003.18 3.177zm31.83 0c1.75 0 3.18-1.425 3.18-3.177a3.181 3.181 0 00-6.36 0 3.184 3.184 0 003.18 3.177zm-159.16 31.818a3.18 3.18 0 003.17-3.178 3.185 3.185 0 00-3.17-3.177 3.19 3.19 0 00-3.19 3.177 3.183 3.183 0 003.19 3.178zm31.82 0c1.76 0 3.19-1.42 3.19-3.178a3.19 3.19 0 00-3.19-3.177c-1.74 0-3.17 1.43-3.17 3.177a3.18 3.18 0 003.17 3.178zm31.84 0c1.75 0 3.18-1.42 3.18-3.178a3.187 3.187 0 00-3.18-3.177c-1.75 0-3.18 1.43-3.18 3.177a3.181 3.181 0 003.18 3.178zm31.83 0c1.76 0 3.18-1.42 3.18-3.178a3.181 3.181 0 00-3.18-3.177c-1.75 0-3.18 1.43-3.18 3.177a3.181 3.181 0 003.18 3.178zm31.84 0c1.75 0 3.17-1.42 3.17-3.178a3.179 3.179 0 00-3.17-3.177c-1.75 0-3.18 1.43-3.18 3.177a3.181 3.181 0 003.18 3.178zm31.83 0c1.75 0 3.18-1.42 3.18-3.178a3.187 3.187 0 00-3.18-3.177c-1.75 0-3.18 1.43-3.18 3.177a3.181 3.181 0 003.18 3.178zm-159.16 31.827a3.18 3.18 0 003.17-3.178 3.179 3.179 0 00-3.17-3.177c-1.76 0-3.19 1.42-3.19 3.177a3.184 3.184 0 003.19 3.178zm31.82 0c1.76 0 3.19-1.421 3.19-3.178a3.183 3.183 0 00-3.19-3.177c-1.74 0-3.17 1.42-3.17 3.177a3.18 3.18 0 003.17 3.178zm31.84 0c1.75 0 3.18-1.421 3.18-3.178a3.181 3.181 0 00-6.36 0 3.182 3.182 0 003.18 3.178zm31.83 0c1.76 0 3.18-1.421 3.18-3.178a3.181 3.181 0 00-6.36 0 3.182 3.182 0 003.18 3.178zm31.84 0c1.75 0 3.17-1.421 3.17-3.178a3.172 3.172 0 00-3.17-3.177c-1.75 0-3.18 1.42-3.18 3.177a3.182 3.182 0 003.18 3.178zm31.83 0c1.75 0 3.18-1.421 3.18-3.178a3.181 3.181 0 00-6.36 0 3.182 3.182 0 003.18 3.178zm-159.16 31.822c1.74 0 3.17-1.425 3.17-3.173a3.179 3.179 0 00-3.17-3.177c-1.76 0-3.19 1.42-3.19 3.177a3.186 3.186 0 003.19 3.173zm31.82 0c1.76 0 3.19-1.425 3.19-3.173a3.183 3.183 0 00-3.19-3.177c-1.74 0-3.17 1.42-3.17 3.177a3.181 3.181 0 003.17 3.173zm31.84 0c1.75 0 3.18-1.425 3.18-3.173a3.181 3.181 0 00-6.36 0 3.183 3.183 0 003.18 3.173zm31.83 0a3.175 3.175 0 100-6.35c-1.75 0-3.18 1.42-3.18 3.177a3.183 3.183 0 003.18 3.173zm31.84 0a3.175 3.175 0 10-3.18-3.173 3.183 3.183 0 003.18 3.173zm31.83 0c1.75 0 3.18-1.425 3.18-3.173a3.181 3.181 0 00-6.36 0 3.183 3.183 0 003.18 3.173zm-159.16 31.822c1.74 0 3.17-1.42 3.17-3.177a3.182 3.182 0 00-3.17-3.177 3.186 3.186 0 00-3.19 3.177 3.183 3.183 0 003.19 3.177zm31.82 0c1.76 0 3.19-1.42 3.19-3.177a3.186 3.186 0 00-3.19-3.177 3.182 3.182 0 00-3.17 3.177 3.179 3.179 0 003.17 3.177zm31.84 0c1.75 0 3.18-1.42 3.18-3.177a3.184 3.184 0 00-3.18-3.177 3.184 3.184 0 00-3.18 3.177 3.181 3.181 0 003.18 3.177zm31.83 0a3.178 3.178 0 100-6.354 3.184 3.184 0 00-3.18 3.177 3.181 3.181 0 003.18 3.177zm31.84 0c1.75 0 3.17-1.42 3.17-3.177a3.176 3.176 0 00-3.17-3.177 3.184 3.184 0 00-3.18 3.177 3.181 3.181 0 003.18 3.177zm31.83 0c1.75 0 3.18-1.42 3.18-3.177a3.184 3.184 0 00-3.18-3.177 3.184 3.184 0 00-3.18 3.177 3.181 3.181 0 003.18 3.177zm-159.16 31.827c1.74 0 3.17-1.42 3.17-3.177a3.18 3.18 0 00-6.36 0 3.183 3.183 0 003.19 3.177zm31.82 0c1.76 0 3.19-1.42 3.19-3.177a3.18 3.18 0 00-6.36 0 3.179 3.179 0 003.17 3.177zm31.84 0c1.75 0 3.18-1.42 3.18-3.177a3.182 3.182 0 00-3.18-3.178 3.182 3.182 0 00-3.18 3.178 3.181 3.181 0 003.18 3.177zm31.83 0c1.76 0 3.18-1.42 3.18-3.177a3.175 3.175 0 00-3.18-3.178 3.182 3.182 0 00-3.18 3.178 3.181 3.181 0 003.18 3.177zm31.84 0c1.75 0 3.17-1.42 3.17-3.177a3.173 3.173 0 00-3.17-3.178 3.182 3.182 0 00-3.18 3.178 3.181 3.181 0 003.18 3.177zm31.83 0c1.75 0 3.18-1.42 3.18-3.177a3.182 3.182 0 00-3.18-3.178 3.182 3.182 0 00-3.18 3.178 3.181 3.181 0 003.18 3.177zm-159.16 31.822c1.74 0 3.17-1.425 3.17-3.177a3.182 3.182 0 00-3.17-3.177 3.186 3.186 0 00-3.19 3.177 3.186 3.186 0 003.19 3.177zm31.82 0c1.76 0 3.19-1.425 3.19-3.177a3.186 3.186 0 00-3.19-3.177 3.182 3.182 0 00-3.17 3.177 3.182 3.182 0 003.17 3.177zm31.84 0c1.75 0 3.18-1.425 3.18-3.177a3.184 3.184 0 00-3.18-3.177 3.184 3.184 0 00-3.18 3.177 3.184 3.184 0 003.18 3.177zm31.83 0a3.178 3.178 0 100-6.354 3.184 3.184 0 00-3.18 3.177 3.184 3.184 0 003.18 3.177zm31.84 0c1.75 0 3.17-1.425 3.17-3.177a3.176 3.176 0 00-3.17-3.177 3.184 3.184 0 00-3.18 3.177 3.184 3.184 0 003.18 3.177zm31.83 0c1.75 0 3.18-1.425 3.18-3.177a3.184 3.184 0 00-3.18-3.177 3.184 3.184 0 00-3.18 3.177 3.184 3.184 0 003.18 3.177zm-159.16 31.822c1.74 0 3.17-1.42 3.17-3.177a3.179 3.179 0 00-3.17-3.177c-1.76 0-3.19 1.42-3.19 3.177a3.183 3.183 0 003.19 3.177zm31.82 0c1.76 0 3.19-1.42 3.19-3.177a3.183 3.183 0 00-3.19-3.177c-1.74 0-3.17 1.42-3.17 3.177a3.179 3.179 0 003.17 3.177zm31.84 0c1.75 0 3.18-1.42 3.18-3.177a3.181 3.181 0 00-6.36 0 3.181 3.181 0 003.18 3.177zm31.83 0c1.76 0 3.18-1.42 3.18-3.177a3.181 3.181 0 00-6.36 0 3.181 3.181 0 003.18 3.177zm31.84 0c1.75 0 3.17-1.42 3.17-3.177a3.172 3.172 0 00-3.17-3.177c-1.75 0-3.18 1.42-3.18 3.177a3.181 3.181 0 003.18 3.177zm31.83 0c1.75 0 3.18-1.42 3.18-3.177a3.181 3.181 0 00-6.36 0 3.181 3.181 0 003.18 3.177zm-159.16 31.828c1.74 0 3.17-1.425 3.17-3.178a3.179 3.179 0 00-3.17-3.177c-1.76 0-3.19 1.42-3.19 3.177a3.187 3.187 0 003.19 3.178zm31.82 0c1.76 0 3.19-1.425 3.19-3.178a3.183 3.183 0 00-3.19-3.177c-1.74 0-3.17 1.42-3.17 3.177a3.182 3.182 0 003.17 3.178zm31.84 0c1.75 0 3.18-1.425 3.18-3.178a3.181 3.181 0 00-6.36 0 3.184 3.184 0 003.18 3.178zm31.83 0a3.178 3.178 0 100-6.355c-1.75 0-3.18 1.42-3.18 3.177a3.184 3.184 0 003.18 3.178zm31.84 0c1.75 0 3.17-1.425 3.17-3.178a3.172 3.172 0 00-3.17-3.177c-1.75 0-3.18 1.42-3.18 3.177a3.184 3.184 0 003.18 3.178zm31.83 0c1.75 0 3.18-1.425 3.18-3.178a3.181 3.181 0 00-6.36 0 3.184 3.184 0 003.18 3.178zM1201.95 547.4c1.74 0 3.17-1.42 3.17-3.177a3.186 3.186 0 00-3.17-3.178 3.19 3.19 0 00-3.19 3.178 3.183 3.183 0 003.19 3.177zm31.82 0c1.76 0 3.19-1.42 3.19-3.177a3.19 3.19 0 00-3.19-3.178c-1.74 0-3.17 1.43-3.17 3.178a3.179 3.179 0 003.17 3.177zm31.84 0c1.75 0 3.18-1.42 3.18-3.177a3.188 3.188 0 00-3.18-3.178c-1.75 0-3.18 1.43-3.18 3.178a3.181 3.181 0 003.18 3.177zm31.83 0c1.76 0 3.18-1.42 3.18-3.177a3.181 3.181 0 00-3.18-3.178c-1.75 0-3.18 1.43-3.18 3.178a3.181 3.181 0 003.18 3.177zm31.84 0c1.75 0 3.17-1.42 3.17-3.177a3.18 3.18 0 00-3.17-3.178c-1.75 0-3.18 1.43-3.18 3.178a3.181 3.181 0 003.18 3.177zm31.83 0c1.75 0 3.18-1.42 3.18-3.177a3.188 3.188 0 00-3.18-3.178c-1.75 0-3.18 1.43-3.18 3.178a3.181 3.181 0 003.18 3.177zm-159.16 31.827c1.74 0 3.17-1.42 3.17-3.177a3.179 3.179 0 00-3.17-3.177c-1.76 0-3.19 1.42-3.19 3.177a3.183 3.183 0 003.19 3.177zm31.82 0c1.76 0 3.19-1.42 3.19-3.177a3.183 3.183 0 00-3.19-3.177c-1.74 0-3.17 1.42-3.17 3.177a3.179 3.179 0 003.17 3.177zm31.84 0c1.75 0 3.18-1.42 3.18-3.177a3.181 3.181 0 00-6.36 0 3.181 3.181 0 003.18 3.177zm31.83 0c1.76 0 3.18-1.42 3.18-3.177a3.181 3.181 0 00-6.36 0 3.181 3.181 0 003.18 3.177zm31.84 0c1.75 0 3.17-1.42 3.17-3.177a3.172 3.172 0 00-3.17-3.177c-1.75 0-3.18 1.42-3.18 3.177a3.181 3.181 0 003.18 3.177zm31.83 0c1.75 0 3.18-1.42 3.18-3.177a3.181 3.181 0 00-6.36 0 3.181 3.181 0 003.18 3.177z" fill="#4A90E2"/><mask id="a" maskUnits="userSpaceOnUse" x="-26" y="436" width="200" height="16"><path fill-rule="evenodd" clip-rule="evenodd" d="M-25.27 436.935h199.16v14.639H-25.27v-14.639z" fill="#fff"/></mask><g mask="url(#a)"><path fill-rule="evenodd" clip-rule="evenodd" d="M102.078 436.935h.006c5.962 0 11.538 2.104 15.699 5.921 3.209 2.942 7.474 4.559 12.016 4.559 4.543 0 8.814-1.617 12.023-4.559 4.167-3.817 9.748-5.921 15.71-5.921h.012c5.962 0 11.537 2.104 15.698 5.921.924.852.855 2.171-.173 2.942-1.016.765-2.597.707-3.521-.14-3.203-2.941-7.468-4.559-12.004-4.559h-.012c-4.536 0-8.807 1.618-12.022 4.559-4.167 3.818-9.748 5.916-15.711 5.916-5.967 0-11.543-2.098-15.71-5.916-3.203-2.941-7.463-4.559-12.005-4.559h-.006c-4.542 0-8.813 1.618-12.028 4.559-4.167 3.818-9.742 5.916-15.71 5.916h-.006c-5.962 0-11.543-2.098-15.71-5.916-6.424-5.883-17.627-5.883-24.062 0-4.161 3.818-9.748 5.916-15.716 5.916s-11.555-2.098-15.722-5.916c-3.203-2.941-7.474-4.559-12.022-4.559h-.006c-4.542 0-8.813 1.618-12.028 4.559-.935.847-2.51.915-3.526.135-1.016-.77-1.091-2.089-.162-2.937 4.173-3.817 9.754-5.921 15.716-5.921h.006c5.968 0 11.549 2.104 15.722 5.921 3.203 2.942 7.474 4.559 12.022 4.559s8.82-1.617 12.034-4.559c8.334-7.63 23.098-7.63 31.432 0 3.215 2.942 7.48 4.559 12.022 4.559h.006c4.542 0 8.808-1.617 12.028-4.559 4.167-3.817 9.743-5.921 15.71-5.921z" fill="#4A90E2"/></g><path fill-rule="evenodd" clip-rule="evenodd" d="M102.079 470.989h.005c5.962 0 11.538 2.104 15.699 5.921 3.209 2.941 7.474 4.559 12.017 4.559 4.542 0 8.813-1.618 12.022-4.559 4.167-3.817 9.748-5.921 15.71-5.921h.012c5.962 0 11.537 2.104 15.698 5.921.924.852.855 2.171-.173 2.941-1.016.766-2.597.708-3.52-.139-3.204-2.942-7.469-4.559-12.005-4.559h-.012c-4.536 0-8.807 1.617-12.022 4.559-4.167 3.817-9.748 5.916-15.71 5.916-5.968 0-11.544-2.099-15.711-5.916-3.203-2.942-7.462-4.559-12.005-4.559h-.005c-4.543 0-8.814 1.617-12.028 4.559-4.168 3.817-9.743 5.916-15.71 5.916h-.007c-5.962 0-11.543-2.099-15.71-5.916-6.424-5.883-17.626-5.883-24.062 0-4.161 3.817-9.748 5.916-15.716 5.916s-11.555-2.099-15.722-5.916c-3.203-2.942-7.474-4.559-12.022-4.559h-.006c-4.542 0-8.813 1.617-12.028 4.559-.935.847-2.51.914-3.526.135-1.016-.771-1.09-2.09-.162-2.937 4.173-3.817 9.754-5.921 15.716-5.921h.006c5.968 0 11.55 2.104 15.722 5.921 3.203 2.941 7.474 4.559 12.022 4.559s8.82-1.618 12.034-4.559c8.334-7.63 23.098-7.63 31.432 0 3.215 2.941 7.48 4.559 12.022 4.559h.006c4.542 0 8.808-1.618 12.028-4.559 4.167-3.817 9.743-5.921 15.711-5.921zm0 33.93h.005c5.962 0 11.538 2.104 15.699 5.921 3.209 2.942 7.474 4.559 12.017 4.559 4.542 0 8.813-1.617 12.022-4.559 4.167-3.817 9.748-5.921 15.71-5.921h.012c5.962 0 11.537 2.104 15.698 5.921.924.852.855 2.171-.173 2.942-1.016.765-2.597.707-3.52-.14-3.204-2.941-7.469-4.559-12.005-4.559h-.012c-4.536 0-8.807 1.618-12.022 4.559-4.167 3.818-9.748 5.917-15.71 5.917-5.968 0-11.544-2.099-15.711-5.917-3.203-2.941-7.462-4.559-12.005-4.559h-.005c-4.543 0-8.814 1.618-12.028 4.559-4.168 3.818-9.743 5.917-15.71 5.917h-.007c-5.962 0-11.543-2.099-15.71-5.917-6.424-5.883-17.626-5.883-24.062 0-4.161 3.818-9.748 5.917-15.716 5.917s-11.555-2.099-15.722-5.917c-3.203-2.941-7.474-4.559-12.022-4.559h-.006c-4.542 0-8.813 1.618-12.028 4.559-.935.847-2.51.915-3.526.135-1.016-.77-1.09-2.089-.162-2.937 4.173-3.817 9.754-5.921 15.716-5.921h.006c5.968 0 11.55 2.104 15.722 5.921 3.203 2.942 7.474 4.559 12.022 4.559s8.82-1.617 12.034-4.559c8.334-7.63 23.098-7.63 31.432 0 3.215 2.942 7.48 4.559 12.022 4.559h.006c4.542 0 8.808-1.617 12.028-4.559 4.167-3.817 9.743-5.921 15.711-5.921z" fill="#4A90E2"/></g></svg>