<svg width="1365" height="580" viewBox="0 0 1365 580" fill="none" xmlns="http://www.w3.org/2000/svg">
<g opacity="0.456808">
<path fill-rule="evenodd" clip-rule="evenodd" d="M1201.95 6.40745C1203.69 6.40745 1205.12 4.98251 1205.12 3.23021C1205.12 1.47311 1203.69 0.0529785 1201.95 0.0529785C1200.19 0.0529785 1198.76 1.47311 1198.76 3.23021C1198.76 4.98251 1200.19 6.40745 1201.95 6.40745Z" fill="#4A90E2"/>
<path fill-rule="evenodd" clip-rule="evenodd" d="M1233.77 6.40745C1235.53 6.40745 1236.96 4.98251 1236.96 3.23021C1236.96 1.47311 1235.53 0.0529785 1233.77 0.0529785C1232.03 0.0529785 1230.6 1.47311 1230.6 3.23021C1230.6 4.98251 1232.03 6.40745 1233.77 6.40745Z" fill="#4A90E2"/>
<path fill-rule="evenodd" clip-rule="evenodd" d="M1265.61 6.40745C1267.36 6.40745 1268.79 4.98251 1268.79 3.23021C1268.79 1.47311 1267.36 0.0529785 1265.61 0.0529785C1263.86 0.0529785 1262.43 1.47311 1262.43 3.23021C1262.43 4.98251 1263.86 6.40745 1265.61 6.40745Z" fill="#4A90E2"/>
<path fill-rule="evenodd" clip-rule="evenodd" d="M1297.44 6.40745C1299.2 6.40745 1300.62 4.98251 1300.62 3.23021C1300.62 1.47311 1299.2 0.0529785 1297.44 0.0529785C1295.69 0.0529785 1294.26 1.47311 1294.26 3.23021C1294.26 4.98251 1295.69 6.40745 1297.44 6.40745Z" fill="#4A90E2"/>
<path fill-rule="evenodd" clip-rule="evenodd" d="M1329.28 6.40745C1331.03 6.40745 1332.45 4.98251 1332.45 3.23021C1332.45 1.47311 1331.03 0.0529785 1329.28 0.0529785C1327.53 0.0529785 1326.1 1.47311 1326.1 3.23021C1326.1 4.98251 1327.53 6.40745 1329.28 6.40745Z" fill="#4A90E2"/>
<path fill-rule="evenodd" clip-rule="evenodd" d="M1361.11 6.40745C1362.86 6.40745 1364.29 4.98251 1364.29 3.23021C1364.29 1.47311 1362.86 0.0529785 1361.11 0.0529785C1359.36 0.0529785 1357.93 1.47311 1357.93 3.23021C1357.93 4.98251 1359.36 6.40745 1361.11 6.40745Z" fill="#4A90E2"/>
<path fill-rule="evenodd" clip-rule="evenodd" d="M1201.95 38.2252C1203.69 38.2252 1205.12 36.805 1205.12 35.0479C1205.12 33.2956 1203.69 31.8707 1201.95 31.8707C1200.19 31.8707 1198.76 33.2956 1198.76 35.0479C1198.76 36.805 1200.19 38.2252 1201.95 38.2252Z" fill="#4A90E2"/>
<path fill-rule="evenodd" clip-rule="evenodd" d="M1233.77 38.2252C1235.53 38.2252 1236.96 36.805 1236.96 35.0479C1236.96 33.2956 1235.53 31.8707 1233.77 31.8707C1232.03 31.8707 1230.6 33.2956 1230.6 35.0479C1230.6 36.805 1232.03 38.2252 1233.77 38.2252Z" fill="#4A90E2"/>
<path fill-rule="evenodd" clip-rule="evenodd" d="M1265.61 38.2252C1267.36 38.2252 1268.79 36.805 1268.79 35.0479C1268.79 33.2956 1267.36 31.8707 1265.61 31.8707C1263.86 31.8707 1262.43 33.2956 1262.43 35.0479C1262.43 36.805 1263.86 38.2252 1265.61 38.2252Z" fill="#4A90E2"/>
<path fill-rule="evenodd" clip-rule="evenodd" d="M1297.44 38.2252C1299.2 38.2252 1300.62 36.805 1300.62 35.0479C1300.62 33.2956 1299.2 31.8707 1297.44 31.8707C1295.69 31.8707 1294.26 33.2956 1294.26 35.0479C1294.26 36.805 1295.69 38.2252 1297.44 38.2252Z" fill="#4A90E2"/>
<path fill-rule="evenodd" clip-rule="evenodd" d="M1329.28 38.2252C1331.03 38.2252 1332.45 36.805 1332.45 35.0479C1332.45 33.2956 1331.03 31.8707 1329.28 31.8707C1327.53 31.8707 1326.1 33.2956 1326.1 35.0479C1326.1 36.805 1327.53 38.2252 1329.28 38.2252Z" fill="#4A90E2"/>
<path fill-rule="evenodd" clip-rule="evenodd" d="M1361.11 38.2252C1362.86 38.2252 1364.29 36.805 1364.29 35.0479C1364.29 33.2956 1362.86 31.8707 1361.11 31.8707C1359.36 31.8707 1357.93 33.2956 1357.93 35.0479C1357.93 36.805 1359.36 38.2252 1361.11 38.2252Z" fill="#4A90E2"/>
<path fill-rule="evenodd" clip-rule="evenodd" d="M1201.95 70.052C1203.69 70.052 1205.12 68.6318 1205.12 66.8747C1205.12 65.1176 1203.69 63.6975 1201.95 63.6975C1200.19 63.6975 1198.76 65.1176 1198.76 66.8747C1198.76 68.6318 1200.19 70.052 1201.95 70.052Z" fill="#4A90E2"/>
<path fill-rule="evenodd" clip-rule="evenodd" d="M1233.77 70.052C1235.53 70.052 1236.96 68.6318 1236.96 66.8747C1236.96 65.1176 1235.53 63.6975 1233.77 63.6975C1232.03 63.6975 1230.6 65.1176 1230.6 66.8747C1230.6 68.6318 1232.03 70.052 1233.77 70.052Z" fill="#4A90E2"/>
<path fill-rule="evenodd" clip-rule="evenodd" d="M1265.61 70.052C1267.36 70.052 1268.79 68.6318 1268.79 66.8747C1268.79 65.1176 1267.36 63.6975 1265.61 63.6975C1263.86 63.6975 1262.43 65.1176 1262.43 66.8747C1262.43 68.6318 1263.86 70.052 1265.61 70.052Z" fill="#4A90E2"/>
<path fill-rule="evenodd" clip-rule="evenodd" d="M1297.44 70.052C1299.2 70.052 1300.62 68.6318 1300.62 66.8747C1300.62 65.1176 1299.2 63.6975 1297.44 63.6975C1295.69 63.6975 1294.26 65.1176 1294.26 66.8747C1294.26 68.6318 1295.69 70.052 1297.44 70.052Z" fill="#4A90E2"/>
<path fill-rule="evenodd" clip-rule="evenodd" d="M1329.28 70.052C1331.03 70.052 1332.45 68.6318 1332.45 66.8747C1332.45 65.1176 1331.03 63.6975 1329.28 63.6975C1327.53 63.6975 1326.1 65.1176 1326.1 66.8747C1326.1 68.6318 1327.53 70.052 1329.28 70.052Z" fill="#4A90E2"/>
<path fill-rule="evenodd" clip-rule="evenodd" d="M1361.11 70.052C1362.86 70.052 1364.29 68.6318 1364.29 66.8747C1364.29 65.1176 1362.86 63.6975 1361.11 63.6975C1359.36 63.6975 1357.93 65.1176 1357.93 66.8747C1357.93 68.6318 1359.36 70.052 1361.11 70.052Z" fill="#4A90E2"/>
<path fill-rule="evenodd" clip-rule="evenodd" d="M1201.95 101.874C1203.69 101.874 1205.12 100.449 1205.12 98.6972C1205.12 96.9449 1203.69 95.5247 1201.95 95.5247C1200.19 95.5247 1198.76 96.9449 1198.76 98.6972C1198.76 100.449 1200.19 101.874 1201.95 101.874Z" fill="#4A90E2"/>
<path fill-rule="evenodd" clip-rule="evenodd" d="M1233.77 101.874C1235.53 101.874 1236.96 100.449 1236.96 98.6972C1236.96 96.9449 1235.53 95.5247 1233.77 95.5247C1232.03 95.5247 1230.6 96.9449 1230.6 98.6972C1230.6 100.449 1232.03 101.874 1233.77 101.874Z" fill="#4A90E2"/>
<path fill-rule="evenodd" clip-rule="evenodd" d="M1265.61 101.874C1267.36 101.874 1268.79 100.449 1268.79 98.6972C1268.79 96.9449 1267.36 95.5247 1265.61 95.5247C1263.86 95.5247 1262.43 96.9449 1262.43 98.6972C1262.43 100.449 1263.86 101.874 1265.61 101.874Z" fill="#4A90E2"/>
<path fill-rule="evenodd" clip-rule="evenodd" d="M1297.44 101.874C1299.2 101.874 1300.62 100.449 1300.62 98.6972C1300.62 96.9449 1299.2 95.5247 1297.44 95.5247C1295.69 95.5247 1294.26 96.9449 1294.26 98.6972C1294.26 100.449 1295.69 101.874 1297.44 101.874Z" fill="#4A90E2"/>
<path fill-rule="evenodd" clip-rule="evenodd" d="M1329.28 101.874C1331.03 101.874 1332.45 100.449 1332.45 98.6972C1332.45 96.9449 1331.03 95.5247 1329.28 95.5247C1327.53 95.5247 1326.1 96.9449 1326.1 98.6972C1326.1 100.449 1327.53 101.874 1329.28 101.874Z" fill="#4A90E2"/>
<path fill-rule="evenodd" clip-rule="evenodd" d="M1361.11 101.874C1362.86 101.874 1364.29 100.449 1364.29 98.6972C1364.29 96.9449 1362.86 95.5247 1361.11 95.5247C1359.36 95.5247 1357.93 96.9449 1357.93 98.6972C1357.93 100.449 1359.36 101.874 1361.11 101.874Z" fill="#4A90E2"/>
<path fill-rule="evenodd" clip-rule="evenodd" d="M1201.95 133.696C1203.69 133.696 1205.12 132.276 1205.12 130.519C1205.12 128.767 1203.69 127.342 1201.95 127.342C1200.19 127.342 1198.76 128.767 1198.76 130.519C1198.76 132.276 1200.19 133.696 1201.95 133.696Z" fill="#4A90E2"/>
<path fill-rule="evenodd" clip-rule="evenodd" d="M1233.77 133.696C1235.53 133.696 1236.96 132.276 1236.96 130.519C1236.96 128.767 1235.53 127.342 1233.77 127.342C1232.03 127.342 1230.6 128.767 1230.6 130.519C1230.6 132.276 1232.03 133.696 1233.77 133.696Z" fill="#4A90E2"/>
<path fill-rule="evenodd" clip-rule="evenodd" d="M1265.61 133.696C1267.36 133.696 1268.79 132.276 1268.79 130.519C1268.79 128.767 1267.36 127.342 1265.61 127.342C1263.86 127.342 1262.43 128.767 1262.43 130.519C1262.43 132.276 1263.86 133.696 1265.61 133.696Z" fill="#4A90E2"/>
<path fill-rule="evenodd" clip-rule="evenodd" d="M1297.44 133.696C1299.2 133.696 1300.62 132.276 1300.62 130.519C1300.62 128.767 1299.2 127.342 1297.44 127.342C1295.69 127.342 1294.26 128.767 1294.26 130.519C1294.26 132.276 1295.69 133.696 1297.44 133.696Z" fill="#4A90E2"/>
<path fill-rule="evenodd" clip-rule="evenodd" d="M1329.28 133.696C1331.03 133.696 1332.45 132.276 1332.45 130.519C1332.45 128.767 1331.03 127.342 1329.28 127.342C1327.53 127.342 1326.1 128.767 1326.1 130.519C1326.1 132.276 1327.53 133.696 1329.28 133.696Z" fill="#4A90E2"/>
<path fill-rule="evenodd" clip-rule="evenodd" d="M1361.11 133.696C1362.86 133.696 1364.29 132.276 1364.29 130.519C1364.29 128.767 1362.86 127.342 1361.11 127.342C1359.36 127.342 1357.93 128.767 1357.93 130.519C1357.93 132.276 1359.36 133.696 1361.11 133.696Z" fill="#4A90E2"/>
<path fill-rule="evenodd" clip-rule="evenodd" d="M1201.95 165.523C1203.69 165.523 1205.12 164.103 1205.12 162.346C1205.12 160.589 1203.69 159.169 1201.95 159.169C1200.19 159.169 1198.76 160.589 1198.76 162.346C1198.76 164.103 1200.19 165.523 1201.95 165.523Z" fill="#4A90E2"/>
<path fill-rule="evenodd" clip-rule="evenodd" d="M1233.77 165.523C1235.53 165.523 1236.96 164.103 1236.96 162.346C1236.96 160.589 1235.53 159.169 1233.77 159.169C1232.03 159.169 1230.6 160.589 1230.6 162.346C1230.6 164.103 1232.03 165.523 1233.77 165.523Z" fill="#4A90E2"/>
<path fill-rule="evenodd" clip-rule="evenodd" d="M1265.61 165.523C1267.36 165.523 1268.79 164.103 1268.79 162.346C1268.79 160.589 1267.36 159.169 1265.61 159.169C1263.86 159.169 1262.43 160.589 1262.43 162.346C1262.43 164.103 1263.86 165.523 1265.61 165.523Z" fill="#4A90E2"/>
<path fill-rule="evenodd" clip-rule="evenodd" d="M1297.44 165.523C1299.2 165.523 1300.62 164.103 1300.62 162.346C1300.62 160.589 1299.2 159.169 1297.44 159.169C1295.69 159.169 1294.26 160.589 1294.26 162.346C1294.26 164.103 1295.69 165.523 1297.44 165.523Z" fill="#4A90E2"/>
<path fill-rule="evenodd" clip-rule="evenodd" d="M1329.28 165.523C1331.03 165.523 1332.45 164.103 1332.45 162.346C1332.45 160.589 1331.03 159.169 1329.28 159.169C1327.53 159.169 1326.1 160.589 1326.1 162.346C1326.1 164.103 1327.53 165.523 1329.28 165.523Z" fill="#4A90E2"/>
<path fill-rule="evenodd" clip-rule="evenodd" d="M1361.11 165.523C1362.86 165.523 1364.29 164.103 1364.29 162.346C1364.29 160.589 1362.86 159.169 1361.11 159.169C1359.36 159.169 1357.93 160.589 1357.93 162.346C1357.93 164.103 1359.36 165.523 1361.11 165.523Z" fill="#4A90E2"/>
<path fill-rule="evenodd" clip-rule="evenodd" d="M1201.95 197.346C1203.69 197.346 1205.12 195.921 1205.12 194.168C1205.12 192.416 1203.69 190.991 1201.95 190.991C1200.19 190.991 1198.76 192.416 1198.76 194.168C1198.76 195.921 1200.19 197.346 1201.95 197.346Z" fill="#4A90E2"/>
<path fill-rule="evenodd" clip-rule="evenodd" d="M1233.77 197.346C1235.53 197.346 1236.96 195.921 1236.96 194.168C1236.96 192.416 1235.53 190.991 1233.77 190.991C1232.03 190.991 1230.6 192.416 1230.6 194.168C1230.6 195.921 1232.03 197.346 1233.77 197.346Z" fill="#4A90E2"/>
<path fill-rule="evenodd" clip-rule="evenodd" d="M1265.61 197.346C1267.36 197.346 1268.79 195.921 1268.79 194.168C1268.79 192.416 1267.36 190.991 1265.61 190.991C1263.86 190.991 1262.43 192.416 1262.43 194.168C1262.43 195.921 1263.86 197.346 1265.61 197.346Z" fill="#4A90E2"/>
<path fill-rule="evenodd" clip-rule="evenodd" d="M1297.44 197.346C1299.2 197.346 1300.62 195.921 1300.62 194.168C1300.62 192.416 1299.2 190.991 1297.44 190.991C1295.69 190.991 1294.26 192.416 1294.26 194.168C1294.26 195.921 1295.69 197.346 1297.44 197.346Z" fill="#4A90E2"/>
<path fill-rule="evenodd" clip-rule="evenodd" d="M1329.28 197.346C1331.03 197.346 1332.45 195.921 1332.45 194.168C1332.45 192.416 1331.03 190.991 1329.28 190.991C1327.53 190.991 1326.1 192.416 1326.1 194.168C1326.1 195.921 1327.53 197.346 1329.28 197.346Z" fill="#4A90E2"/>
<path fill-rule="evenodd" clip-rule="evenodd" d="M1361.11 197.346C1362.86 197.346 1364.29 195.921 1364.29 194.168C1364.29 192.416 1362.86 190.991 1361.11 190.991C1359.36 190.991 1357.93 192.416 1357.93 194.168C1357.93 195.921 1359.36 197.346 1361.11 197.346Z" fill="#4A90E2"/>
<path fill-rule="evenodd" clip-rule="evenodd" d="M1201.95 229.168C1203.69 229.168 1205.12 227.748 1205.12 225.99C1205.12 224.233 1203.69 222.813 1201.95 222.813C1200.19 222.813 1198.76 224.233 1198.76 225.99C1198.76 227.748 1200.19 229.168 1201.95 229.168Z" fill="#4A90E2"/>
<path fill-rule="evenodd" clip-rule="evenodd" d="M1233.77 229.168C1235.53 229.168 1236.96 227.748 1236.96 225.99C1236.96 224.233 1235.53 222.813 1233.77 222.813C1232.03 222.813 1230.6 224.233 1230.6 225.99C1230.6 227.748 1232.03 229.168 1233.77 229.168Z" fill="#4A90E2"/>
<path fill-rule="evenodd" clip-rule="evenodd" d="M1265.61 229.168C1267.36 229.168 1268.79 227.748 1268.79 225.99C1268.79 224.233 1267.36 222.813 1265.61 222.813C1263.86 222.813 1262.43 224.233 1262.43 225.99C1262.43 227.748 1263.86 229.168 1265.61 229.168Z" fill="#4A90E2"/>
<path fill-rule="evenodd" clip-rule="evenodd" d="M1297.44 229.168C1299.2 229.168 1300.62 227.748 1300.62 225.99C1300.62 224.233 1299.2 222.813 1297.44 222.813C1295.69 222.813 1294.26 224.233 1294.26 225.99C1294.26 227.748 1295.69 229.168 1297.44 229.168Z" fill="#4A90E2"/>
<path fill-rule="evenodd" clip-rule="evenodd" d="M1329.28 229.168C1331.03 229.168 1332.45 227.748 1332.45 225.99C1332.45 224.233 1331.03 222.813 1329.28 222.813C1327.53 222.813 1326.1 224.233 1326.1 225.99C1326.1 227.748 1327.53 229.168 1329.28 229.168Z" fill="#4A90E2"/>
<path fill-rule="evenodd" clip-rule="evenodd" d="M1361.11 229.168C1362.86 229.168 1364.29 227.748 1364.29 225.99C1364.29 224.233 1362.86 222.813 1361.11 222.813C1359.36 222.813 1357.93 224.233 1357.93 225.99C1357.93 227.748 1359.36 229.168 1361.11 229.168Z" fill="#4A90E2"/>
<path fill-rule="evenodd" clip-rule="evenodd" d="M1201.95 260.995C1203.69 260.995 1205.12 259.57 1205.12 257.818C1205.12 256.061 1203.69 254.641 1201.95 254.641C1200.19 254.641 1198.76 256.061 1198.76 257.818C1198.76 259.57 1200.19 260.995 1201.95 260.995Z" fill="#4A90E2"/>
<path fill-rule="evenodd" clip-rule="evenodd" d="M1233.77 260.995C1235.53 260.995 1236.96 259.57 1236.96 257.818C1236.96 256.061 1235.53 254.641 1233.77 254.641C1232.03 254.641 1230.6 256.061 1230.6 257.818C1230.6 259.57 1232.03 260.995 1233.77 260.995Z" fill="#4A90E2"/>
<path fill-rule="evenodd" clip-rule="evenodd" d="M1265.61 260.995C1267.36 260.995 1268.79 259.57 1268.79 257.818C1268.79 256.061 1267.36 254.641 1265.61 254.641C1263.86 254.641 1262.43 256.061 1262.43 257.818C1262.43 259.57 1263.86 260.995 1265.61 260.995Z" fill="#4A90E2"/>
<path fill-rule="evenodd" clip-rule="evenodd" d="M1297.44 260.995C1299.2 260.995 1300.62 259.57 1300.62 257.818C1300.62 256.061 1299.2 254.641 1297.44 254.641C1295.69 254.641 1294.26 256.061 1294.26 257.818C1294.26 259.57 1295.69 260.995 1297.44 260.995Z" fill="#4A90E2"/>
<path fill-rule="evenodd" clip-rule="evenodd" d="M1329.28 260.995C1331.03 260.995 1332.45 259.57 1332.45 257.818C1332.45 256.061 1331.03 254.641 1329.28 254.641C1327.53 254.641 1326.1 256.061 1326.1 257.818C1326.1 259.57 1327.53 260.995 1329.28 260.995Z" fill="#4A90E2"/>
<path fill-rule="evenodd" clip-rule="evenodd" d="M1361.11 260.995C1362.86 260.995 1364.29 259.57 1364.29 257.818C1364.29 256.061 1362.86 254.641 1361.11 254.641C1359.36 254.641 1357.93 256.061 1357.93 257.818C1357.93 259.57 1359.36 260.995 1361.11 260.995Z" fill="#4A90E2"/>
<path fill-rule="evenodd" clip-rule="evenodd" d="M1201.95 292.813C1203.69 292.813 1205.12 291.393 1205.12 289.635C1205.12 287.888 1203.69 286.458 1201.95 286.458C1200.19 286.458 1198.76 287.888 1198.76 289.635C1198.76 291.393 1200.19 292.813 1201.95 292.813Z" fill="#4A90E2"/>
<path fill-rule="evenodd" clip-rule="evenodd" d="M1233.77 292.813C1235.53 292.813 1236.96 291.393 1236.96 289.635C1236.96 287.888 1235.53 286.458 1233.77 286.458C1232.03 286.458 1230.6 287.888 1230.6 289.635C1230.6 291.393 1232.03 292.813 1233.77 292.813Z" fill="#4A90E2"/>
<path fill-rule="evenodd" clip-rule="evenodd" d="M1265.61 292.813C1267.36 292.813 1268.79 291.393 1268.79 289.635C1268.79 287.888 1267.36 286.458 1265.61 286.458C1263.86 286.458 1262.43 287.888 1262.43 289.635C1262.43 291.393 1263.86 292.813 1265.61 292.813Z" fill="#4A90E2"/>
<path fill-rule="evenodd" clip-rule="evenodd" d="M1297.44 292.813C1299.2 292.813 1300.62 291.393 1300.62 289.635C1300.62 287.888 1299.2 286.458 1297.44 286.458C1295.69 286.458 1294.26 287.888 1294.26 289.635C1294.26 291.393 1295.69 292.813 1297.44 292.813Z" fill="#4A90E2"/>
<path fill-rule="evenodd" clip-rule="evenodd" d="M1329.28 292.813C1331.03 292.813 1332.45 291.393 1332.45 289.635C1332.45 287.888 1331.03 286.458 1329.28 286.458C1327.53 286.458 1326.1 287.888 1326.1 289.635C1326.1 291.393 1327.53 292.813 1329.28 292.813Z" fill="#4A90E2"/>
<path fill-rule="evenodd" clip-rule="evenodd" d="M1361.11 292.813C1362.86 292.813 1364.29 291.393 1364.29 289.635C1364.29 287.888 1362.86 286.458 1361.11 286.458C1359.36 286.458 1357.93 287.888 1357.93 289.635C1357.93 291.393 1359.36 292.813 1361.11 292.813Z" fill="#4A90E2"/>
<path fill-rule="evenodd" clip-rule="evenodd" d="M1201.95 324.64C1203.69 324.64 1205.12 323.219 1205.12 321.462C1205.12 319.705 1203.69 318.285 1201.95 318.285C1200.19 318.285 1198.76 319.705 1198.76 321.462C1198.76 323.219 1200.19 324.64 1201.95 324.64Z" fill="#4A90E2"/>
<path fill-rule="evenodd" clip-rule="evenodd" d="M1233.77 324.64C1235.53 324.64 1236.96 323.219 1236.96 321.462C1236.96 319.705 1235.53 318.285 1233.77 318.285C1232.03 318.285 1230.6 319.705 1230.6 321.462C1230.6 323.219 1232.03 324.64 1233.77 324.64Z" fill="#4A90E2"/>
<path fill-rule="evenodd" clip-rule="evenodd" d="M1265.61 324.64C1267.36 324.64 1268.79 323.219 1268.79 321.462C1268.79 319.705 1267.36 318.285 1265.61 318.285C1263.86 318.285 1262.43 319.705 1262.43 321.462C1262.43 323.219 1263.86 324.64 1265.61 324.64Z" fill="#4A90E2"/>
<path fill-rule="evenodd" clip-rule="evenodd" d="M1297.44 324.64C1299.2 324.64 1300.62 323.219 1300.62 321.462C1300.62 319.705 1299.2 318.285 1297.44 318.285C1295.69 318.285 1294.26 319.705 1294.26 321.462C1294.26 323.219 1295.69 324.64 1297.44 324.64Z" fill="#4A90E2"/>
<path fill-rule="evenodd" clip-rule="evenodd" d="M1329.28 324.64C1331.03 324.64 1332.45 323.219 1332.45 321.462C1332.45 319.705 1331.03 318.285 1329.28 318.285C1327.53 318.285 1326.1 319.705 1326.1 321.462C1326.1 323.219 1327.53 324.64 1329.28 324.64Z" fill="#4A90E2"/>
<path fill-rule="evenodd" clip-rule="evenodd" d="M1361.11 324.64C1362.86 324.64 1364.29 323.219 1364.29 321.462C1364.29 319.705 1362.86 318.285 1361.11 318.285C1359.36 318.285 1357.93 319.705 1357.93 321.462C1357.93 323.219 1359.36 324.64 1361.11 324.64Z" fill="#4A90E2"/>
<path fill-rule="evenodd" clip-rule="evenodd" d="M1201.95 356.462C1203.69 356.462 1205.12 355.037 1205.12 353.289C1205.12 351.532 1203.69 350.112 1201.95 350.112C1200.19 350.112 1198.76 351.532 1198.76 353.289C1198.76 355.037 1200.19 356.462 1201.95 356.462Z" fill="#4A90E2"/>
<path fill-rule="evenodd" clip-rule="evenodd" d="M1233.77 356.462C1235.53 356.462 1236.96 355.037 1236.96 353.289C1236.96 351.532 1235.53 350.112 1233.77 350.112C1232.03 350.112 1230.6 351.532 1230.6 353.289C1230.6 355.037 1232.03 356.462 1233.77 356.462Z" fill="#4A90E2"/>
<path fill-rule="evenodd" clip-rule="evenodd" d="M1265.61 356.462C1267.36 356.462 1268.79 355.037 1268.79 353.289C1268.79 351.532 1267.36 350.112 1265.61 350.112C1263.86 350.112 1262.43 351.532 1262.43 353.289C1262.43 355.037 1263.86 356.462 1265.61 356.462Z" fill="#4A90E2"/>
<path fill-rule="evenodd" clip-rule="evenodd" d="M1297.44 356.462C1299.2 356.462 1300.62 355.037 1300.62 353.289C1300.62 351.532 1299.2 350.112 1297.44 350.112C1295.69 350.112 1294.26 351.532 1294.26 353.289C1294.26 355.037 1295.69 356.462 1297.44 356.462Z" fill="#4A90E2"/>
<path fill-rule="evenodd" clip-rule="evenodd" d="M1329.28 356.462C1331.03 356.462 1332.45 355.037 1332.45 353.289C1332.45 351.532 1331.03 350.112 1329.28 350.112C1327.53 350.112 1326.1 351.532 1326.1 353.289C1326.1 355.037 1327.53 356.462 1329.28 356.462Z" fill="#4A90E2"/>
<path fill-rule="evenodd" clip-rule="evenodd" d="M1361.11 356.462C1362.86 356.462 1364.29 355.037 1364.29 353.289C1364.29 351.532 1362.86 350.112 1361.11 350.112C1359.36 350.112 1357.93 351.532 1357.93 353.289C1357.93 355.037 1359.36 356.462 1361.11 356.462Z" fill="#4A90E2"/>
<path fill-rule="evenodd" clip-rule="evenodd" d="M1201.95 388.284C1203.69 388.284 1205.12 386.864 1205.12 385.107C1205.12 383.355 1203.69 381.93 1201.95 381.93C1200.19 381.93 1198.76 383.355 1198.76 385.107C1198.76 386.864 1200.19 388.284 1201.95 388.284Z" fill="#4A90E2"/>
<path fill-rule="evenodd" clip-rule="evenodd" d="M1233.77 388.284C1235.53 388.284 1236.96 386.864 1236.96 385.107C1236.96 383.355 1235.53 381.93 1233.77 381.93C1232.03 381.93 1230.6 383.355 1230.6 385.107C1230.6 386.864 1232.03 388.284 1233.77 388.284Z" fill="#4A90E2"/>
<path fill-rule="evenodd" clip-rule="evenodd" d="M1265.61 388.284C1267.36 388.284 1268.79 386.864 1268.79 385.107C1268.79 383.355 1267.36 381.93 1265.61 381.93C1263.86 381.93 1262.43 383.355 1262.43 385.107C1262.43 386.864 1263.86 388.284 1265.61 388.284Z" fill="#4A90E2"/>
<path fill-rule="evenodd" clip-rule="evenodd" d="M1297.44 388.284C1299.2 388.284 1300.62 386.864 1300.62 385.107C1300.62 383.355 1299.2 381.93 1297.44 381.93C1295.69 381.93 1294.26 383.355 1294.26 385.107C1294.26 386.864 1295.69 388.284 1297.44 388.284Z" fill="#4A90E2"/>
<path fill-rule="evenodd" clip-rule="evenodd" d="M1329.28 388.284C1331.03 388.284 1332.45 386.864 1332.45 385.107C1332.45 383.355 1331.03 381.93 1329.28 381.93C1327.53 381.93 1326.1 383.355 1326.1 385.107C1326.1 386.864 1327.53 388.284 1329.28 388.284Z" fill="#4A90E2"/>
<path fill-rule="evenodd" clip-rule="evenodd" d="M1361.11 388.284C1362.86 388.284 1364.29 386.864 1364.29 385.107C1364.29 383.355 1362.86 381.93 1361.11 381.93C1359.36 381.93 1357.93 383.355 1357.93 385.107C1357.93 386.864 1359.36 388.284 1361.11 388.284Z" fill="#4A90E2"/>
<path fill-rule="evenodd" clip-rule="evenodd" d="M1201.95 420.111C1203.69 420.111 1205.12 418.691 1205.12 416.934C1205.12 415.177 1203.69 413.756 1201.95 413.756C1200.19 413.756 1198.76 415.177 1198.76 416.934C1198.76 418.691 1200.19 420.111 1201.95 420.111Z" fill="#4A90E2"/>
<path fill-rule="evenodd" clip-rule="evenodd" d="M1233.77 420.111C1235.53 420.111 1236.96 418.691 1236.96 416.934C1236.96 415.177 1235.53 413.756 1233.77 413.756C1232.03 413.756 1230.6 415.177 1230.6 416.934C1230.6 418.691 1232.03 420.111 1233.77 420.111Z" fill="#4A90E2"/>
<path fill-rule="evenodd" clip-rule="evenodd" d="M1265.61 420.111C1267.36 420.111 1268.79 418.691 1268.79 416.934C1268.79 415.177 1267.36 413.756 1265.61 413.756C1263.86 413.756 1262.43 415.177 1262.43 416.934C1262.43 418.691 1263.86 420.111 1265.61 420.111Z" fill="#4A90E2"/>
<path fill-rule="evenodd" clip-rule="evenodd" d="M1297.44 420.111C1299.2 420.111 1300.62 418.691 1300.62 416.934C1300.62 415.177 1299.2 413.756 1297.44 413.756C1295.69 413.756 1294.26 415.177 1294.26 416.934C1294.26 418.691 1295.69 420.111 1297.44 420.111Z" fill="#4A90E2"/>
<path fill-rule="evenodd" clip-rule="evenodd" d="M1329.28 420.111C1331.03 420.111 1332.45 418.691 1332.45 416.934C1332.45 415.177 1331.03 413.756 1329.28 413.756C1327.53 413.756 1326.1 415.177 1326.1 416.934C1326.1 418.691 1327.53 420.111 1329.28 420.111Z" fill="#4A90E2"/>
<path fill-rule="evenodd" clip-rule="evenodd" d="M1361.11 420.111C1362.86 420.111 1364.29 418.691 1364.29 416.934C1364.29 415.177 1362.86 413.756 1361.11 413.756C1359.36 413.756 1357.93 415.177 1357.93 416.934C1357.93 418.691 1359.36 420.111 1361.11 420.111Z" fill="#4A90E2"/>
<path fill-rule="evenodd" clip-rule="evenodd" d="M1201.95 451.933C1203.69 451.933 1205.12 450.508 1205.12 448.756C1205.12 447.004 1203.69 445.579 1201.95 445.579C1200.19 445.579 1198.76 447.004 1198.76 448.756C1198.76 450.508 1200.19 451.933 1201.95 451.933Z" fill="#4A90E2"/>
<path fill-rule="evenodd" clip-rule="evenodd" d="M1233.77 451.933C1235.53 451.933 1236.96 450.508 1236.96 448.756C1236.96 447.004 1235.53 445.579 1233.77 445.579C1232.03 445.579 1230.6 447.004 1230.6 448.756C1230.6 450.508 1232.03 451.933 1233.77 451.933Z" fill="#4A90E2"/>
<path fill-rule="evenodd" clip-rule="evenodd" d="M1265.61 451.933C1267.36 451.933 1268.79 450.508 1268.79 448.756C1268.79 447.004 1267.36 445.579 1265.61 445.579C1263.86 445.579 1262.43 447.004 1262.43 448.756C1262.43 450.508 1263.86 451.933 1265.61 451.933Z" fill="#4A90E2"/>
<path fill-rule="evenodd" clip-rule="evenodd" d="M1297.44 451.933C1299.2 451.933 1300.62 450.508 1300.62 448.756C1300.62 447.004 1299.2 445.579 1297.44 445.579C1295.69 445.579 1294.26 447.004 1294.26 448.756C1294.26 450.508 1295.69 451.933 1297.44 451.933Z" fill="#4A90E2"/>
<path fill-rule="evenodd" clip-rule="evenodd" d="M1329.28 451.933C1331.03 451.933 1332.45 450.508 1332.45 448.756C1332.45 447.004 1331.03 445.579 1329.28 445.579C1327.53 445.579 1326.1 447.004 1326.1 448.756C1326.1 450.508 1327.53 451.933 1329.28 451.933Z" fill="#4A90E2"/>
<path fill-rule="evenodd" clip-rule="evenodd" d="M1361.11 451.933C1362.86 451.933 1364.29 450.508 1364.29 448.756C1364.29 447.004 1362.86 445.579 1361.11 445.579C1359.36 445.579 1357.93 447.004 1357.93 448.756C1357.93 450.508 1359.36 451.933 1361.11 451.933Z" fill="#4A90E2"/>
<path fill-rule="evenodd" clip-rule="evenodd" d="M1201.95 483.755C1203.69 483.755 1205.12 482.335 1205.12 480.578C1205.12 478.821 1203.69 477.401 1201.95 477.401C1200.19 477.401 1198.76 478.821 1198.76 480.578C1198.76 482.335 1200.19 483.755 1201.95 483.755Z" fill="#4A90E2"/>
<path fill-rule="evenodd" clip-rule="evenodd" d="M1233.77 483.755C1235.53 483.755 1236.96 482.335 1236.96 480.578C1236.96 478.821 1235.53 477.401 1233.77 477.401C1232.03 477.401 1230.6 478.821 1230.6 480.578C1230.6 482.335 1232.03 483.755 1233.77 483.755Z" fill="#4A90E2"/>
<path fill-rule="evenodd" clip-rule="evenodd" d="M1265.61 483.755C1267.36 483.755 1268.79 482.335 1268.79 480.578C1268.79 478.821 1267.36 477.401 1265.61 477.401C1263.86 477.401 1262.43 478.821 1262.43 480.578C1262.43 482.335 1263.86 483.755 1265.61 483.755Z" fill="#4A90E2"/>
<path fill-rule="evenodd" clip-rule="evenodd" d="M1297.44 483.755C1299.2 483.755 1300.62 482.335 1300.62 480.578C1300.62 478.821 1299.2 477.401 1297.44 477.401C1295.69 477.401 1294.26 478.821 1294.26 480.578C1294.26 482.335 1295.69 483.755 1297.44 483.755Z" fill="#4A90E2"/>
<path fill-rule="evenodd" clip-rule="evenodd" d="M1329.28 483.755C1331.03 483.755 1332.45 482.335 1332.45 480.578C1332.45 478.821 1331.03 477.401 1329.28 477.401C1327.53 477.401 1326.1 478.821 1326.1 480.578C1326.1 482.335 1327.53 483.755 1329.28 483.755Z" fill="#4A90E2"/>
<path fill-rule="evenodd" clip-rule="evenodd" d="M1361.11 483.755C1362.86 483.755 1364.29 482.335 1364.29 480.578C1364.29 478.821 1362.86 477.401 1361.11 477.401C1359.36 477.401 1357.93 478.821 1357.93 480.578C1357.93 482.335 1359.36 483.755 1361.11 483.755Z" fill="#4A90E2"/>
<path fill-rule="evenodd" clip-rule="evenodd" d="M1201.95 515.583C1203.69 515.583 1205.12 514.158 1205.12 512.405C1205.12 510.648 1203.69 509.228 1201.95 509.228C1200.19 509.228 1198.76 510.648 1198.76 512.405C1198.76 514.158 1200.19 515.583 1201.95 515.583Z" fill="#4A90E2"/>
<path fill-rule="evenodd" clip-rule="evenodd" d="M1233.77 515.583C1235.53 515.583 1236.96 514.158 1236.96 512.405C1236.96 510.648 1235.53 509.228 1233.77 509.228C1232.03 509.228 1230.6 510.648 1230.6 512.405C1230.6 514.158 1232.03 515.583 1233.77 515.583Z" fill="#4A90E2"/>
<path fill-rule="evenodd" clip-rule="evenodd" d="M1265.61 515.583C1267.36 515.583 1268.79 514.158 1268.79 512.405C1268.79 510.648 1267.36 509.228 1265.61 509.228C1263.86 509.228 1262.43 510.648 1262.43 512.405C1262.43 514.158 1263.86 515.583 1265.61 515.583Z" fill="#4A90E2"/>
<path fill-rule="evenodd" clip-rule="evenodd" d="M1297.44 515.583C1299.2 515.583 1300.62 514.158 1300.62 512.405C1300.62 510.648 1299.2 509.228 1297.44 509.228C1295.69 509.228 1294.26 510.648 1294.26 512.405C1294.26 514.158 1295.69 515.583 1297.44 515.583Z" fill="#4A90E2"/>
<path fill-rule="evenodd" clip-rule="evenodd" d="M1329.28 515.583C1331.03 515.583 1332.45 514.158 1332.45 512.405C1332.45 510.648 1331.03 509.228 1329.28 509.228C1327.53 509.228 1326.1 510.648 1326.1 512.405C1326.1 514.158 1327.53 515.583 1329.28 515.583Z" fill="#4A90E2"/>
<path fill-rule="evenodd" clip-rule="evenodd" d="M1361.11 515.583C1362.86 515.583 1364.29 514.158 1364.29 512.405C1364.29 510.648 1362.86 509.228 1361.11 509.228C1359.36 509.228 1357.93 510.648 1357.93 512.405C1357.93 514.158 1359.36 515.583 1361.11 515.583Z" fill="#4A90E2"/>
<path fill-rule="evenodd" clip-rule="evenodd" d="M1201.95 547.4C1203.69 547.4 1205.12 545.98 1205.12 544.223C1205.12 542.475 1203.69 541.045 1201.95 541.045C1200.19 541.045 1198.76 542.475 1198.76 544.223C1198.76 545.98 1200.19 547.4 1201.95 547.4Z" fill="#4A90E2"/>
<path fill-rule="evenodd" clip-rule="evenodd" d="M1233.77 547.4C1235.53 547.4 1236.96 545.98 1236.96 544.223C1236.96 542.475 1235.53 541.045 1233.77 541.045C1232.03 541.045 1230.6 542.475 1230.6 544.223C1230.6 545.98 1232.03 547.4 1233.77 547.4Z" fill="#4A90E2"/>
<path fill-rule="evenodd" clip-rule="evenodd" d="M1265.61 547.4C1267.36 547.4 1268.79 545.98 1268.79 544.223C1268.79 542.475 1267.36 541.045 1265.61 541.045C1263.86 541.045 1262.43 542.475 1262.43 544.223C1262.43 545.98 1263.86 547.4 1265.61 547.4Z" fill="#4A90E2"/>
<path fill-rule="evenodd" clip-rule="evenodd" d="M1297.44 547.4C1299.2 547.4 1300.62 545.98 1300.62 544.223C1300.62 542.475 1299.2 541.045 1297.44 541.045C1295.69 541.045 1294.26 542.475 1294.26 544.223C1294.26 545.98 1295.69 547.4 1297.44 547.4Z" fill="#4A90E2"/>
<path fill-rule="evenodd" clip-rule="evenodd" d="M1329.28 547.4C1331.03 547.4 1332.45 545.98 1332.45 544.223C1332.45 542.475 1331.03 541.045 1329.28 541.045C1327.53 541.045 1326.1 542.475 1326.1 544.223C1326.1 545.98 1327.53 547.4 1329.28 547.4Z" fill="#4A90E2"/>
<path fill-rule="evenodd" clip-rule="evenodd" d="M1361.11 547.4C1362.86 547.4 1364.29 545.98 1364.29 544.223C1364.29 542.475 1362.86 541.045 1361.11 541.045C1359.36 541.045 1357.93 542.475 1357.93 544.223C1357.93 545.98 1359.36 547.4 1361.11 547.4Z" fill="#4A90E2"/>
<path fill-rule="evenodd" clip-rule="evenodd" d="M1201.95 579.227C1203.69 579.227 1205.12 577.807 1205.12 576.05C1205.12 574.293 1203.69 572.873 1201.95 572.873C1200.19 572.873 1198.76 574.293 1198.76 576.05C1198.76 577.807 1200.19 579.227 1201.95 579.227Z" fill="#4A90E2"/>
<path fill-rule="evenodd" clip-rule="evenodd" d="M1233.77 579.227C1235.53 579.227 1236.96 577.807 1236.96 576.05C1236.96 574.293 1235.53 572.873 1233.77 572.873C1232.03 572.873 1230.6 574.293 1230.6 576.05C1230.6 577.807 1232.03 579.227 1233.77 579.227Z" fill="#4A90E2"/>
<path fill-rule="evenodd" clip-rule="evenodd" d="M1265.61 579.227C1267.36 579.227 1268.79 577.807 1268.79 576.05C1268.79 574.293 1267.36 572.873 1265.61 572.873C1263.86 572.873 1262.43 574.293 1262.43 576.05C1262.43 577.807 1263.86 579.227 1265.61 579.227Z" fill="#4A90E2"/>
<path fill-rule="evenodd" clip-rule="evenodd" d="M1297.44 579.227C1299.2 579.227 1300.62 577.807 1300.62 576.05C1300.62 574.293 1299.2 572.873 1297.44 572.873C1295.69 572.873 1294.26 574.293 1294.26 576.05C1294.26 577.807 1295.69 579.227 1297.44 579.227Z" fill="#4A90E2"/>
<path fill-rule="evenodd" clip-rule="evenodd" d="M1329.28 579.227C1331.03 579.227 1332.45 577.807 1332.45 576.05C1332.45 574.293 1331.03 572.873 1329.28 572.873C1327.53 572.873 1326.1 574.293 1326.1 576.05C1326.1 577.807 1327.53 579.227 1329.28 579.227Z" fill="#4A90E2"/>
<path fill-rule="evenodd" clip-rule="evenodd" d="M1361.11 579.227C1362.86 579.227 1364.29 577.807 1364.29 576.05C1364.29 574.293 1362.86 572.873 1361.11 572.873C1359.36 572.873 1357.93 574.293 1357.93 576.05C1357.93 577.807 1359.36 579.227 1361.11 579.227Z" fill="#4A90E2"/>
<mask id="mask0" mask-type="alpha" maskUnits="userSpaceOnUse" x="-26" y="436" width="200" height="16">
<path fill-rule="evenodd" clip-rule="evenodd" d="M-25.2705 436.935H173.89V451.574H-25.2705V436.935Z" fill="white"/>
</mask>
<g mask="url(#mask0)">
<path fill-rule="evenodd" clip-rule="evenodd" d="M102.078 436.935H102.084C108.046 436.935 113.622 439.039 117.783 442.856C120.992 445.798 125.257 447.415 129.799 447.415C134.342 447.415 138.613 445.798 141.822 442.856C145.989 439.039 151.57 436.935 157.532 436.935H157.544C163.506 436.935 169.081 439.039 173.242 442.856C174.166 443.708 174.097 445.027 173.069 445.798C172.053 446.563 170.472 446.505 169.548 445.658C166.345 442.717 162.08 441.099 157.544 441.099H157.532C152.996 441.099 148.725 442.717 145.51 445.658C141.343 449.476 135.762 451.574 129.799 451.574C123.832 451.574 118.256 449.476 114.089 445.658C110.886 442.717 106.626 441.099 102.084 441.099H102.078C97.5362 441.099 93.2652 442.717 90.0504 445.658C85.8833 449.476 80.3079 451.574 74.3401 451.574H74.3343C68.3723 451.574 62.7911 449.476 58.624 445.658C52.2002 439.775 40.9975 439.775 34.5622 445.658C30.4009 449.476 24.814 451.574 18.8461 451.574C12.8783 451.574 7.29137 449.476 3.12427 445.658C-0.0789719 442.717 -4.34996 441.099 -8.89799 441.099H-8.90376C-13.446 441.099 -17.717 442.717 -20.9318 445.658C-21.8668 446.505 -23.4424 446.573 -24.4582 445.793C-25.474 445.023 -25.5491 443.704 -24.6198 442.856C-20.447 439.039 -14.8658 436.935 -8.90376 436.935H-8.89799C-2.93015 436.935 2.651 439.039 6.82386 442.856C10.0271 445.798 14.2981 447.415 18.8461 447.415C23.3941 447.415 27.6651 445.798 30.8799 442.856C39.2141 435.226 53.9779 435.226 62.3121 442.856C65.5269 445.798 69.7921 447.415 74.3343 447.415H74.3401C78.8824 447.415 83.1476 445.798 86.3681 442.856C90.5352 439.039 96.1106 436.935 102.078 436.935Z" fill="#4A90E2"/>
</g>
<path fill-rule="evenodd" clip-rule="evenodd" d="M102.079 470.989H102.084C108.046 470.989 113.622 473.093 117.783 476.91C120.992 479.851 125.257 481.469 129.8 481.469C134.342 481.469 138.613 479.851 141.822 476.91C145.989 473.093 151.57 470.989 157.532 470.989H157.544C163.506 470.989 169.081 473.093 173.242 476.91C174.166 477.762 174.097 479.081 173.069 479.851C172.053 480.617 170.472 480.559 169.549 479.712C166.345 476.77 162.08 475.153 157.544 475.153H157.532C152.996 475.153 148.725 476.77 145.51 479.712C141.343 483.529 135.762 485.628 129.8 485.628C123.832 485.628 118.256 483.529 114.089 479.712C110.886 476.77 106.627 475.153 102.084 475.153H102.079C97.5363 475.153 93.2653 476.77 90.0505 479.712C85.8834 483.529 80.3081 485.628 74.3402 485.628H74.3344C68.3724 485.628 62.7912 483.529 58.6241 479.712C52.2003 473.829 40.9977 473.829 34.5623 479.712C30.401 483.529 24.8141 485.628 18.8462 485.628C12.8784 485.628 7.29149 483.529 3.12439 479.712C-0.0788498 476.77 -4.34984 475.153 -8.89786 475.153H-8.90364C-13.4459 475.153 -17.7169 476.77 -20.9317 479.712C-21.8667 480.559 -23.4423 480.626 -24.4581 479.847C-25.4739 479.076 -25.5489 477.757 -24.6197 476.91C-20.4468 473.093 -14.8657 470.989 -8.90364 470.989H-8.89786C-2.93002 470.989 2.65112 473.093 6.82399 476.91C10.0272 479.851 14.2982 481.469 18.8462 481.469C23.3943 481.469 27.6653 479.851 30.88 476.91C39.2142 469.28 53.978 469.28 62.3122 476.91C65.527 479.851 69.7922 481.469 74.3344 481.469H74.3402C78.8825 481.469 83.1477 479.851 86.3682 476.91C90.5353 473.093 96.1107 470.989 102.079 470.989Z" fill="#4A90E2"/>
<path fill-rule="evenodd" clip-rule="evenodd" d="M102.079 504.919H102.084C108.046 504.919 113.622 507.023 117.783 510.84C120.992 513.782 125.257 515.399 129.8 515.399C134.342 515.399 138.613 513.782 141.822 510.84C145.989 507.023 151.57 504.919 157.532 504.919H157.544C163.506 504.919 169.081 507.023 173.242 510.84C174.166 511.692 174.097 513.011 173.069 513.782C172.053 514.547 170.472 514.489 169.549 513.642C166.345 510.701 162.08 509.083 157.544 509.083H157.532C152.996 509.083 148.725 510.701 145.51 513.642C141.343 517.46 135.762 519.559 129.8 519.559C123.832 519.559 118.256 517.46 114.089 513.642C110.886 510.701 106.627 509.083 102.084 509.083H102.079C97.5363 509.083 93.2653 510.701 90.0505 513.642C85.8834 517.46 80.3081 519.559 74.3402 519.559H74.3344C68.3724 519.559 62.7912 517.46 58.6241 513.642C52.2003 507.759 40.9977 507.759 34.5623 513.642C30.401 517.46 24.8141 519.559 18.8462 519.559C12.8784 519.559 7.29149 517.46 3.12439 513.642C-0.0788498 510.701 -4.34984 509.083 -8.89786 509.083H-8.90364C-13.4459 509.083 -17.7169 510.701 -20.9317 513.642C-21.8667 514.489 -23.4423 514.557 -24.4581 513.777C-25.4739 513.007 -25.5489 511.688 -24.6197 510.84C-20.4468 507.023 -14.8657 504.919 -8.90364 504.919H-8.89786C-2.93002 504.919 2.65112 507.023 6.82399 510.84C10.0272 513.782 14.2982 515.399 18.8462 515.399C23.3943 515.399 27.6653 513.782 30.88 510.84C39.2142 503.21 53.978 503.21 62.3122 510.84C65.527 513.782 69.7922 515.399 74.3344 515.399H74.3402C78.8825 515.399 83.1477 513.782 86.3682 510.84C90.5353 507.023 96.1107 504.919 102.079 504.919Z" fill="#4A90E2"/>
</g>
</svg>
