<svg width="233" height="50" fill="none" xmlns="http://www.w3.org/2000/svg"><path d="M10.6 8.6v5.75h11.25v7.45H10.6v6.35h12.75V36H.8V.75h22.55V8.6H10.6z" fill="url(#paint0_linear)"/><path d="M40.143 36.35c-2.534 0-4.8-.417-6.8-1.25-1.967-.867-3.534-2.033-4.7-3.5a9.312 9.312 0 01-1.9-5.05h9.5c.133.9.55 1.6 1.25 2.1s1.566.75 2.6.75c.8 0 1.433-.167 1.9-.5.466-.333.7-.767.7-1.3 0-.7-.384-1.217-1.15-1.55-.767-.333-2.034-.7-3.8-1.1-2-.4-3.667-.85-5-1.35-1.334-.5-2.5-1.317-3.5-2.45-.967-1.133-1.45-2.667-1.45-4.6 0-1.667.45-3.167 1.35-4.5.9-1.367 2.216-2.45 3.95-3.25 1.766-.8 3.883-1.2 6.35-1.2 3.666 0 6.55.9 8.65 2.7 2.1 1.8 3.316 4.167 3.65 7.1h-8.85c-.167-.9-.567-1.583-1.2-2.05-.6-.5-1.417-.75-2.45-.75-.8 0-1.417.15-1.85.45-.4.3-.6.717-.6 1.25 0 .667.383 1.183 1.15 1.55.766.333 2 .683 3.7 1.05 2.033.433 3.716.917 5.05 1.45 1.366.533 2.55 1.4 3.55 2.6 1.033 1.167 1.55 2.767 1.55 4.8 0 1.633-.484 3.1-1.45 4.4-.934 1.3-2.284 2.333-4.05 3.1-1.734.733-3.784 1.1-6.15 1.1z" fill="url(#paint1_linear)"/><path d="M66.41 11.85c.767-1.3 1.85-2.333 3.25-3.1 1.4-.767 3.05-1.15 4.95-1.15 2.234 0 4.25.583 6.05 1.75 1.834 1.167 3.267 2.833 4.3 5 1.067 2.167 1.6 4.7 1.6 7.6 0 2.9-.533 5.45-1.6 7.65-1.033 2.167-2.466 3.833-4.3 5-1.8 1.167-3.816 1.75-6.05 1.75-1.9 0-3.55-.383-4.95-1.15a8.799 8.799 0 01-3.25-3.1v17.3h-9.8V7.95h9.8v3.9zm10.2 10.1c0-1.833-.5-3.25-1.5-4.25-.966-1.033-2.166-1.55-3.6-1.55-1.433 0-2.65.517-3.65 1.55-.966 1.033-1.45 2.45-1.45 4.25 0 1.833.484 3.267 1.45 4.3 1 1.033 2.217 1.55 3.65 1.55 1.434 0 2.634-.517 3.6-1.55 1-1.067 1.5-2.5 1.5-4.3z" fill="url(#paint2_linear)"/><path d="M88.995 21.95c0-2.9.517-5.433 1.55-7.6 1.067-2.167 2.5-3.833 4.3-5 1.833-1.167 3.867-1.75 6.1-1.75 1.933 0 3.6.383 5 1.15 1.4.767 2.483 1.8 3.25 3.1v-3.9h9.8V36h-9.8v-3.9c-.767 1.3-1.867 2.333-3.3 3.1-1.4.767-3.05 1.15-4.95 1.15-2.233 0-4.267-.583-6.1-1.75-1.8-1.167-3.233-2.833-4.3-5-1.033-2.2-1.55-4.75-1.55-7.65zm20.2 0c0-1.8-.5-3.217-1.5-4.25-.967-1.033-2.167-1.55-3.6-1.55-1.467 0-2.683.517-3.65 1.55-.967 1-1.45 2.417-1.45 4.25 0 1.8.483 3.233 1.45 4.3.967 1.033 2.183 1.55 3.65 1.55 1.433 0 2.633-.517 3.6-1.55 1-1.033 1.5-2.467 1.5-4.3z" fill="url(#paint3_linear)"/><path d="M133.879 27.85h11.95V36h-22.75v-7.75l11.15-12.15h-11.05V7.95h22.25v7.75l-11.55 12.15z" fill="url(#paint4_linear)"/><path d="M178.621 7.95V36h-9.85v-4c-.833 1.267-1.983 2.3-3.45 3.1-1.467.767-3.15 1.15-5.05 1.15-3.267 0-5.85-1.067-7.75-3.2-1.867-2.167-2.8-5.1-2.8-8.8V7.95h9.75V23c0 1.6.417 2.867 1.25 3.8.867.9 2 1.35 3.4 1.35 1.433 0 2.567-.45 3.4-1.35.833-.933 1.25-2.2 1.25-3.8V7.95h9.85z" fill="url(#paint5_linear)"/><path d="M220.848 7.7c3.534 0 6.3 1.067 8.3 3.2 2.034 2.133 3.05 5.05 3.05 8.75V36h-9.8V20.95c0-1.5-.416-2.667-1.25-3.5-.833-.833-1.966-1.25-3.4-1.25-1.433 0-2.566.417-3.4 1.25-.833.833-1.25 2-1.25 3.5V36h-9.8V20.95c0-1.5-.416-2.667-1.25-3.5-.8-.833-1.916-1.25-3.35-1.25-1.466 0-2.616.417-3.45 1.25-.833.833-1.25 2-1.25 3.5V36h-9.8V7.95h9.8v3.7c.867-1.2 1.984-2.15 3.35-2.85 1.4-.733 3-1.1 4.8-1.1 2.067 0 3.9.45 5.5 1.35a9.806 9.806 0 013.85 3.8c1-1.533 2.317-2.767 3.95-3.7 1.634-.967 3.434-1.45 5.4-1.45z" fill="url(#paint6_linear)"/><defs><linearGradient id="paint0_linear" x1="-590.386" y1="-242.251" x2="486.811" y2="407.568" gradientUnits="userSpaceOnUse"><stop stop-color="#9B51E0"/><stop offset="1" stop-color="#2F80ED"/></linearGradient><linearGradient id="paint1_linear" x1="-590.386" y1="-242.251" x2="486.811" y2="407.568" gradientUnits="userSpaceOnUse"><stop stop-color="#9B51E0"/><stop offset="1" stop-color="#2F80ED"/></linearGradient><linearGradient id="paint2_linear" x1="-590.386" y1="-242.251" x2="486.811" y2="407.568" gradientUnits="userSpaceOnUse"><stop stop-color="#9B51E0"/><stop offset="1" stop-color="#2F80ED"/></linearGradient><linearGradient id="paint3_linear" x1="-590.386" y1="-242.251" x2="486.811" y2="407.568" gradientUnits="userSpaceOnUse"><stop stop-color="#9B51E0"/><stop offset="1" stop-color="#2F80ED"/></linearGradient><linearGradient id="paint4_linear" x1="-590.386" y1="-242.251" x2="486.811" y2="407.568" gradientUnits="userSpaceOnUse"><stop stop-color="#9B51E0"/><stop offset="1" stop-color="#2F80ED"/></linearGradient><linearGradient id="paint5_linear" x1="-590.386" y1="-242.251" x2="486.811" y2="407.568" gradientUnits="userSpaceOnUse"><stop stop-color="#9B51E0"/><stop offset="1" stop-color="#2F80ED"/></linearGradient><linearGradient id="paint6_linear" x1="-590.386" y1="-242.251" x2="486.811" y2="407.568" gradientUnits="userSpaceOnUse"><stop stop-color="#9B51E0"/><stop offset="1" stop-color="#2F80ED"/></linearGradient></defs></svg>