<svg width="143" height="30" fill="none" xmlns="http://www.w3.org/2000/svg"><path d="M6.043 4.84v3.546h6.937v4.595H6.043v3.915h7.862v4.84H0V0h13.905v4.84H6.043zM24.26 21.953c-1.562 0-2.96-.257-4.193-.771-1.212-.534-2.178-1.254-2.898-2.158a5.741 5.741 0 01-1.171-3.114h5.858c.082.555.339.986.77 1.294.432.309.966.463 1.604.463.493 0 .884-.103 1.171-.308.288-.206.432-.473.432-.802 0-.432-.236-.75-.71-.956-.472-.205-1.253-.431-2.342-.678-1.234-.247-2.261-.524-3.084-.833a5.366 5.366 0 01-2.158-1.51c-.596-.7-.894-1.645-.894-2.837 0-1.028.277-1.953.832-2.775.555-.843 1.367-1.51 2.436-2.004 1.09-.493 2.395-.74 3.916-.74 2.261 0 4.039.555 5.334 1.665 1.295 1.11 2.045 2.57 2.25 4.378h-5.457c-.102-.555-.35-.976-.74-1.264-.37-.308-.873-.462-1.51-.462-.494 0-.874.092-1.141.277-.247.185-.37.442-.37.77 0 .412.236.73.709.957.473.205 1.233.421 2.282.647 1.253.267 2.291.566 3.114.894.842.33 1.572.864 2.189 1.604.637.719.956 1.706.956 2.96a4.433 4.433 0 01-.895 2.713c-.575.801-1.408 1.439-2.497 1.911-1.069.453-2.333.679-3.792.679zM40.459 6.845c.472-.802 1.14-1.439 2.004-1.912.863-.473 1.88-.709 3.052-.709 1.377 0 2.621.36 3.731 1.08 1.13.719 2.014 1.746 2.652 3.082.657 1.337.986 2.899.986 4.687 0 1.788-.329 3.36-.986 4.717-.638 1.336-1.522 2.364-2.652 3.084-1.11.719-2.354 1.079-3.73 1.079-1.172 0-2.19-.237-3.053-.71a5.427 5.427 0 01-2.004-1.911V30h-6.043V4.44h6.043v2.405zm6.29 6.228c0-1.13-.309-2.004-.925-2.62-.596-.638-1.337-.957-2.22-.957-.884 0-1.635.319-2.251.956-.596.637-.894 1.511-.894 2.621 0 1.13.298 2.014.894 2.652a3.014 3.014 0 002.25.955c.884 0 1.624-.318 2.22-.955.617-.658.925-1.542.925-2.652zm7.636 0c0-1.788.319-3.35.956-4.687.658-1.336 1.542-2.363 2.652-3.083 1.13-.72 2.384-1.079 3.761-1.079 1.193 0 2.22.236 3.084.71.863.472 1.53 1.11 2.004 1.91V4.44h6.043v17.297h-6.043v-2.405c-.473.802-1.151 1.439-2.035 1.912-.864.472-1.881.709-3.053.709-1.377 0-2.63-.36-3.761-1.08-1.11-.719-1.994-1.747-2.652-3.083-.637-1.356-.956-2.929-.956-4.717zm12.457 0c0-1.11-.309-1.984-.925-2.62-.596-.638-1.336-.957-2.22-.957-.905 0-1.655.319-2.251.956-.596.617-.894 1.49-.894 2.621 0 1.11.298 1.994.894 2.652.596.637 1.346.955 2.25.955.885 0 1.625-.318 2.22-.955.617-.638.926-1.521.926-2.652zm15.221 3.638h7.37v5.026h-14.03v-4.78l6.876-7.491h-6.814V4.44h13.72v4.779l-7.122 7.492zm27.59-12.271v17.297h-6.074V19.27c-.514.781-1.223 1.419-2.127 1.912-.905.473-1.943.71-3.114.71-2.015 0-3.608-.659-4.78-1.974-1.15-1.336-1.726-3.145-1.726-5.427V4.44h6.013v9.28c0 .987.256 1.768.77 2.344.535.555 1.234.832 2.097.832.884 0 1.583-.277 2.096-.832.514-.576.771-1.357.771-2.344V4.44h6.074zm26.04-.154c2.179 0 3.885.657 5.118 1.973 1.254 1.316 1.881 3.114 1.881 5.396v10.082h-6.043v-9.28c0-.926-.257-1.645-.771-2.159-.514-.514-1.213-.77-2.097-.77-.884 0-1.583.256-2.096.77-.514.514-.771 1.233-.771 2.158v9.28h-6.043v-9.28c0-.925-.257-1.644-.771-2.158-.494-.514-1.182-.77-2.066-.77-.904 0-1.614.256-2.127.77-.514.514-.771 1.233-.771 2.158v9.28h-6.043V4.44h6.043v2.28a5.718 5.718 0 012.066-1.757c.863-.452 1.849-.678 2.959-.678 1.275 0 2.405.277 3.392.832a6.049 6.049 0 012.374 2.343 7.02 7.02 0 012.436-2.281 6.416 6.416 0 013.33-.894z" fill="#fff"/></svg>