<svg width="301" height="91" fill="none" xmlns="http://www.w3.org/2000/svg"><path fill-rule="evenodd" clip-rule="evenodd" d="M145.161-416.109c70.345 9.689 147.691-54.379 207.221-15.67 58.44 37.999 70.916 123.622 65.704 193.135-4.869 64.944-44.216 123.037-92.672 166.553-40.696 36.547-102.881 26.905-151.23 52.484C116.359 10.984 83.037 94.01 17.702 90.699-46.568 87.441-83.72 16.43-122.845-34.664c-37.457-48.914-83.247-100.384-79.409-161.873 3.731-59.766 65.28-95.126 98.559-144.91 31.903-47.727 37.208-123.959 92.195-140.456 55.61-16.685 99.145 57.871 156.661 65.794z" fill="#9B51E0"/><path fill-rule="evenodd" clip-rule="evenodd" d="M292.382-467.444c63.307 3.289 129.853 23.122 171.399 71.002 41.832 48.208 56.114 117.584 47.068 180.767-8.18 57.143-60.954 93.024-93.127 140.954-30.786 45.862-42.017 108.23-91.12 133.529-50.529 26.032-110.214 8.057-166.347-.88C98.158 48.038 19.257 56.505-15.776 4.29-51.178-48.472-2.646-117.51-.051-180.996c2.192-53.621-28.976-110.815-1.728-157.05 27.388-46.471 89.331-53.656 138.707-75.376 51.474-22.643 99.296-56.939 155.454-54.022z" fill="#2F80ED"/></svg>