<svg width="953" height="654" viewBox="0 0 953 654" fill="none" xmlns="http://www.w3.org/2000/svg">
<path fill-rule="evenodd" clip-rule="evenodd" d="M88.4753 146.939C136.404 101.09 207.218 98.0448 271.924 83.4354C329.213 70.5008 388.819 44.2354 443.013 66.8923C495.846 88.9799 515.259 150.667 546.9 198.394C576.51 243.058 604.895 285.371 621.609 336.282C645.66 409.538 699.434 488.829 664.875 557.737C630.663 625.954 538.741 645.132 462.812 652.915C396.582 659.703 335.728 626.957 275.965 597.598C225.059 572.589 185.817 535.15 144.342 496.462C91.7966 447.446 13.1363 412.794 1.79617 341.846C-9.70967 269.863 35.8064 197.324 88.4753 146.939Z" fill="#DFE9FD"/>
<path fill-rule="evenodd" clip-rule="evenodd" d="M596.508 12.523C655.794 5.06443 719.823 -13.9583 771.216 17.6012C823.98 50.0027 836.343 120.165 864.137 176.869C898.355 246.677 960.288 309.153 952.295 387.03C943.821 469.605 896.115 557.913 821.853 588.889C748.568 619.458 675.243 541.969 596.508 535.439C527.921 529.751 458.697 582.742 395.901 553.563C329.024 522.488 288.981 450.529 261.811 379.92C233.188 305.536 199.288 215.155 239.336 146.682C279.65 77.7529 377.021 85.4472 450.091 58.001C499.196 39.5565 544.664 19.0454 596.508 12.523Z" fill="#44009B"/>
</svg>
