<svg width="894" height="680" fill="none" xmlns="http://www.w3.org/2000/svg"><path fill-rule="evenodd" clip-rule="evenodd" d="M157.562 54.443C205.491 8.593 276.305 5.548 341.011-9.061 398.3-21.996 457.906-48.261 512.1-25.604c52.833 22.087 72.246 83.775 103.887 131.501 29.61 44.664 57.995 86.977 74.709 137.888 24.051 73.256 77.825 152.547 43.266 221.455-34.212 68.217-126.134 87.395-202.063 95.178-66.23 6.788-127.084-25.958-186.847-55.317-50.906-25.009-90.148-62.448-131.623-101.136-52.546-49.016-131.206-83.668-142.546-154.616-11.506-71.983 34.01-144.522 86.679-194.906z" fill="#DFE9FD"/><path fill-rule="evenodd" clip-rule="evenodd" d="M714.508-136.477c59.286-7.459 123.315-26.481 174.708 5.078 52.764 32.402 65.127 102.564 92.921 159.268 34.213 69.808 96.153 132.284 88.163 210.161-8.48 82.575-56.19 170.883-130.447 201.859-73.285 30.569-146.61-46.92-225.345-53.45-68.587-5.688-137.811 47.303-200.607 18.124-66.877-31.075-106.92-103.034-134.09-173.643-28.623-74.384-62.523-164.765-22.475-233.238 40.314-68.93 137.685-61.235 210.755-88.681 49.105-18.444 94.573-38.956 146.417-45.478z" fill="#44009B"/></svg>