<svg width="953" height="654" fill="none" xmlns="http://www.w3.org/2000/svg"><path fill-rule="evenodd" clip-rule="evenodd" d="M88.475 146.939c47.929-45.849 118.743-48.894 183.449-63.504 57.289-12.934 116.895-39.2 171.089-16.543 52.833 22.088 72.246 83.775 103.887 131.502 29.61 44.664 57.995 86.977 74.709 137.888 24.051 73.256 77.825 152.547 43.266 221.455-34.212 68.217-126.134 87.395-202.063 95.178-66.23 6.788-127.084-25.958-186.847-55.317-50.906-25.009-90.148-62.448-131.623-101.136C91.797 447.446 13.136 412.794 1.796 341.846c-11.506-71.983 34.01-144.522 86.68-194.907z" fill="#DFE9FD"/><path fill-rule="evenodd" clip-rule="evenodd" d="M596.508 12.523c59.286-7.459 123.315-26.481 174.708 5.078 52.764 32.402 65.127 102.564 92.921 159.268 34.218 69.808 96.151 132.284 88.158 210.161-8.474 82.575-56.18 170.883-130.442 201.859-73.285 30.569-146.61-46.92-225.345-53.45-68.587-5.688-137.811 47.303-200.607 18.124-66.877-31.075-106.92-103.034-134.09-173.643-28.623-74.384-62.523-164.765-22.475-233.238 40.314-68.93 137.685-61.235 210.755-88.681 49.105-18.444 94.573-38.956 146.417-45.478z" fill="#44009B"/></svg>