<svg width="125" height="42" fill="none" xmlns="http://www.w3.org/2000/svg"><path d="M32.35 5.75V41h-9.8V26.85H10.6V41H.8V5.75h9.8V19h11.95V5.75h9.8z" fill="url(#paint0_linear)"/><path d="M51.008 41.35c-2.8 0-5.316-.583-7.55-1.75-2.2-1.167-3.933-2.833-5.2-5-1.266-2.167-1.9-4.717-1.9-7.65 0-2.9.634-5.433 1.9-7.6 1.3-2.167 3.05-3.833 5.25-5 2.234-1.167 4.75-1.75 7.55-1.75s5.3.583 7.5 1.75a12.859 12.859 0 015.25 5c1.3 2.167 1.95 4.7 1.95 7.6 0 2.9-.65 5.45-1.95 7.65a12.859 12.859 0 01-5.25 5c-2.233 1.167-4.75 1.75-7.55 1.75zm0-8.5c1.367 0 2.5-.5 3.4-1.5.934-1.033 1.4-2.5 1.4-4.4 0-1.9-.466-3.35-1.4-4.35-.9-1-2.016-1.5-3.35-1.5-1.333 0-2.45.5-3.35 1.5-.9 1-1.35 2.45-1.35 4.35 0 1.933.434 3.4 1.3 4.4.867 1 1.984 1.5 3.35 1.5z" fill="url(#paint1_linear)"/><path d="M79.545 4v37h-9.8V4h9.8z" fill="url(#paint2_linear)"/><path d="M90.076 10.35c-1.733 0-3.133-.467-4.2-1.4-1.033-.967-1.55-2.167-1.55-3.6 0-1.467.517-2.683 1.55-3.65 1.067-.967 2.467-1.45 4.2-1.45 1.7 0 3.067.483 4.1 1.45 1.067.967 1.6 2.183 1.6 3.65 0 1.433-.533 2.633-1.6 3.6-1.033.933-2.4 1.4-4.1 1.4zm4.85 2.6V41h-9.8V12.95h9.8z" fill="url(#paint3_linear)"/><path d="M112.457 41.35c-2.533 0-4.8-.417-6.8-1.25-1.967-.867-3.533-2.033-4.7-3.5a9.31 9.31 0 01-1.9-5.05h9.5c.133.9.55 1.6 1.25 2.1s1.567.75 2.6.75c.8 0 1.433-.167 1.9-.5.467-.333.7-.767.7-1.3 0-.7-.383-1.217-1.15-1.55-.767-.333-2.033-.7-3.8-1.1-2-.4-3.667-.85-5-1.35-1.333-.5-2.5-1.317-3.5-2.45-.967-1.133-1.45-2.667-1.45-4.6 0-1.667.45-3.167 1.35-4.5.9-1.367 2.217-2.45 3.95-3.25 1.767-.8 3.883-1.2 6.35-1.2 3.667 0 6.55.9 8.65 2.7 2.1 1.8 3.317 4.167 3.65 7.1h-8.85c-.167-.9-.567-1.583-1.2-2.05-.6-.5-1.417-.75-2.45-.75-.8 0-1.417.15-1.85.45-.4.3-.6.717-.6 1.25 0 .667.383 1.183 1.15 1.55.767.333 2 .683 3.7 1.05 2.033.433 3.717.917 5.05 1.45 1.367.533 2.55 1.4 3.55 2.6 1.033 1.167 1.55 2.767 1.55 4.8 0 1.633-.483 3.1-1.45 4.4-.933 1.3-2.283 2.333-4.05 3.1-1.733.733-3.783 1.1-6.15 1.1z" fill="url(#paint4_linear)"/><defs><linearGradient id="paint0_linear" x1="-322.261" y1="-237.251" x2="399.603" y2="-.226" gradientUnits="userSpaceOnUse"><stop stop-color="#9B51E0"/><stop offset="1" stop-color="#2F80ED"/></linearGradient><linearGradient id="paint1_linear" x1="-322.261" y1="-237.251" x2="399.603" y2="-.226" gradientUnits="userSpaceOnUse"><stop stop-color="#9B51E0"/><stop offset="1" stop-color="#2F80ED"/></linearGradient><linearGradient id="paint2_linear" x1="-322.261" y1="-237.251" x2="399.603" y2="-.226" gradientUnits="userSpaceOnUse"><stop stop-color="#9B51E0"/><stop offset="1" stop-color="#2F80ED"/></linearGradient><linearGradient id="paint3_linear" x1="-322.261" y1="-237.251" x2="399.603" y2="-.226" gradientUnits="userSpaceOnUse"><stop stop-color="#9B51E0"/><stop offset="1" stop-color="#2F80ED"/></linearGradient><linearGradient id="paint4_linear" x1="-322.261" y1="-237.251" x2="399.603" y2="-.226" gradientUnits="userSpaceOnUse"><stop stop-color="#9B51E0"/><stop offset="1" stop-color="#2F80ED"/></linearGradient></defs></svg>