<svg width="88" height="30" fill="none" xmlns="http://www.w3.org/2000/svg"><path d="M23.045 4.325V29h-6.86v-9.905H7.82V29H.96V4.325h6.86V13.6h8.365V4.325h6.86zm13.061 24.92c-1.96 0-3.722-.408-5.285-1.225a9.058 9.058 0 01-3.64-3.5c-.887-1.517-1.33-3.302-1.33-5.355 0-2.03.443-3.803 1.33-5.32a9.296 9.296 0 013.675-3.5c1.563-.817 3.325-1.225 5.285-1.225s3.71.408 5.25 1.225a9 9 0 013.675 3.5c.91 1.517 1.365 3.29 1.365 5.32 0 2.03-.455 3.815-1.365 5.355a9.002 9.002 0 01-3.675 3.5c-1.564.817-3.325 1.225-5.285 1.225zm0-5.95c.956 0 1.75-.35 2.38-1.05.653-.723.98-1.75.98-3.08s-.327-2.345-.98-3.045c-.63-.7-1.412-1.05-2.345-1.05-.934 0-1.715.35-2.345 1.05-.63.7-.945 1.715-.945 3.045 0 1.353.303 2.38.91 3.08.606.7 1.388 1.05 2.345 1.05zM56.082 3.1V29h-6.86V3.1h6.86zm7.371 4.445c-1.213 0-2.193-.327-2.94-.98-.723-.677-1.085-1.517-1.085-2.52 0-1.027.362-1.878 1.085-2.555C61.26.813 62.24.475 63.453.475c1.19 0 2.147.338 2.87 1.015.747.677 1.12 1.528 1.12 2.555 0 1.003-.373 1.843-1.12 2.52-.723.653-1.68.98-2.87.98zm3.395 1.82V29h-6.86V9.365h6.86zm12.272 19.88c-1.773 0-3.36-.292-4.76-.875-1.377-.607-2.473-1.423-3.29-2.45a6.519 6.519 0 01-1.33-3.535h6.65c.093.63.385 1.12.875 1.47.49.35 1.097.525 1.82.525.56 0 1.003-.117 1.33-.35.327-.233.49-.537.49-.91 0-.49-.268-.852-.805-1.085-.537-.233-1.423-.49-2.66-.77-1.4-.28-2.567-.595-3.5-.945-.933-.35-1.75-.922-2.45-1.715-.677-.793-1.015-1.867-1.015-3.22 0-1.167.315-2.217.945-3.15.63-.957 1.552-1.715 2.765-2.275 1.237-.56 2.718-.84 4.445-.84 2.567 0 4.585.63 6.055 1.89 1.47 1.26 2.322 2.917 2.555 4.97h-6.195c-.117-.63-.397-1.108-.84-1.435-.42-.35-.992-.525-1.715-.525-.56 0-.992.105-1.295.315-.28.21-.42.502-.42.875 0 .467.268.828.805 1.085.537.233 1.4.478 2.59.735 1.423.303 2.602.642 3.535 1.015.957.373 1.785.98 2.485 1.82.723.817 1.085 1.937 1.085 3.36a5.03 5.03 0 01-1.015 3.08c-.653.91-1.598 1.633-2.835 2.17-1.213.513-2.648.77-4.305.77z" fill="#fff"/></svg>