<svg width="489" height="138" fill="none" xmlns="http://www.w3.org/2000/svg"><path fill-rule="evenodd" clip-rule="evenodd" d="M28.161 104.46l162.714-31.186s9.281-5.675 0-16.767c-9.28-11.091-36.69 0-36.69 0s-4.351-21.918-42.605-23.47c-38.254-1.55-61.454 20.89-47.534 28.63 0 0-39.85-6.932-58 15.942-18.15 22.874 9.122 29.341 22.115 26.851zm294.001 33l162.713-31.187s9.281-5.675 0-16.766c-9.28-11.092-36.69 0-36.69 0s-4.351-21.918-42.605-23.47c-38.254-1.55-61.454 20.89-47.534 28.629 0 0-39.85-6.931-58 15.943-18.151 22.874 9.121 29.342 22.116 26.851z" fill="#A378F8" fill-opacity=".27"/><path d="M195.04 61.83l10.959-.785c3.718 2.681 8.153 4.284 12.722 4.756.698.072.691-1.019 0-1.09-5.413-.56-10.676-2.808-14.599-6.625-.337-.328-.785-.09-.899.25-2.011-1.835-4.202-4.394-4.379-6.955 0 0 21.34 6.137 29.775 4.645l.172-.162c6.719 7.41 16.927 10.392 26.663 10.907.701.037.698-1.053 0-1.09-9.853-.522-20.174-3.62-26.683-11.472-.377-.454-.966.019-.888.5-.44-.626-.589-1.005-.589-1.005s-12.572-3.895-15.054-7.212c-2.481-3.317 5.295-3.9 5.295-3.9s-4.136-1.991-9.099-3.981c-4.963-1.99 5.294-9.952 5.294-9.952s-8.933-.331-9.76-2.156c-.827-1.825 7.444-6.137 7.444-6.137s-15.384-2.322-13.564-5.308c1.772-2.908 13.739-2.197 14.361-2.158 17.325 3.128 34.312 9.175 48.769 19.387.575.407 1.118-.54.549-.941-15.199-10.738-33.216-16.92-51.46-19.925-.291-.048-.504.116-.609.326-17.751-7.56-13.264-10.124-13.264-10.124 9.092-6.694 42.361 8.75 62.245 20.182 3.269 1.878 6.18 3.65 8.556 5.195 14.544 9.454 23.158 14.928 23.158 14.928 1.489.159 2.806.232 3.976.219.193.006.384 0 .569-.007 6.988-.232 8.973-3.788 14.809-11.908 6.617-9.202 12.075-8.041 12.075-8.041 9.264 0 17.37 11.61 17.37 11.61l-6.286 9.951s-4.95 6.27-11.071 15.034l-.013.007v.006c-3.382 4.83-7.12 10.416-10.588 16.135-7.318 12.061-20.128 17.88-35.36 18.066-3.527.052-7.192-.198-10.944-.757a80.828 80.828 0 01-4.976-.889 146.073 146.073 0 01-6.366-1.494c-16.747-4.365-21.258-9.287-21.258-9.287s-7.776-3.152-15.55-.166c-7.774 2.985-8.436 4.645-8.271 1.99.159-2.574 2.958-4.678 3.136-4.802-.271.145-8.297 4.51-10.083 5.558-1.721 1.01 1.885-8.864 7.175-11.627 1.606.364 3.248.553 4.903.575.702.01.7-1.08 0-1.09a21.93 21.93 0 01-7.589-1.435.43.43 0 00-.494.102c-3.801-1.537-9.047-4.245-10.279-7.847zm50.539-24.669c-9.71-5.521-19.994-8.746-31.208-8.799-.702-.002-.702 1.088 0 1.091 11.034.052 21.106 3.217 30.66 8.649.609.348 1.157-.594.548-.941zm79.93-3.892c.45 1.234 1.376 2.037 2.071 1.785.694-.253.893-1.467.443-2.7-.443-1.241-1.37-2.037-2.065-1.785-.694.251-.899 1.459-.449 2.7z" fill="#536FE8"/><path fill-rule="evenodd" clip-rule="evenodd" d="M264.694 92.243c.728 2.687-3.189 6.773-4.466 8.021l-.006.007c-.139.078-2.058 1.187-5.247-.511 0 0 3.03-1.66 2.176-3.981 0 0-4.929 2.991-10.666 1.493 0 0 6.908-3.822 6.869-7.41 1.951.504 4.069 1.007 6.365 1.493 1.673.35 3.334.648 4.975.888z" fill="#FFC762"/><path fill-rule="evenodd" clip-rule="evenodd" d="M259.149 15.383c.861-.432 1.675-.545 1.675-.545s-2.429-2.216-2.647-4.644c-.225-2.435 6.174-.664 6.174-.664s-12.909-16.4 3.971-5.97c20.208 12.479 25.118 34.91 25.739 38.187-7.446-4.51-25.377-15.895-34.912-26.364z" fill="#295FC5"/><path fill-rule="evenodd" clip-rule="evenodd" d="M266.997 27c-2.376-1.546-5.287-3.318-8.556-5.195-2.514-3.895-.827-5.66.709-6.422 9.534 10.469 27.466 21.854 34.91 26.365.045.226.066.359.073.398-1.17.014-2.488-.06-3.976-.219-.002 0-8.617-5.473-23.16-14.927z" fill="#403882"/><path fill-rule="evenodd" clip-rule="evenodd" d="M264.695 92.242c3.751.558 7.416.809 10.944.757v.007s-1.033 9.407-8.754 9.295c0 0 1.435-2.541.887-4.2 0 0-1.654 3.868-7.94 2.541 0 0 .146-.133.391-.372l.006-.006c1.275-1.248 5.193-5.335 4.466-8.022z" fill="#FF845A"/><path fill-rule="evenodd" clip-rule="evenodd" d="M342.534 46.505l3.202.895-1.192-2.389 15.418-10.216.297.596v.007c-.019.444-.839 20.918-5.26 32.569l-4.962 1.492s-22.578-8.77-28.247-10.025l-.206-.636c0-.007.007-.007.013-.013l20.937-12.28z" fill="#F4AC38"/><path fill-rule="evenodd" clip-rule="evenodd" d="M352.32 77.52l-14.405 31.926-16.126-50.01c5.671 1.254 28.247 10.025 28.247 10.025l2.284 8.06z" fill="#FFC962"/><path fill-rule="evenodd" clip-rule="evenodd" d="M325.959 30.569c.694-.252 1.62.544 2.064 1.784.451 1.234.252 2.449-.442 2.7-.695.253-1.621-.55-2.071-1.784-.451-1.241-.246-2.449.449-2.7z" fill="#000"/><path fill-rule="evenodd" clip-rule="evenodd" d="M342.534 46.505l-9.865-2.754 6.285-9.951 5.591 11.211 1.19 2.39-3.201-.897z" fill="#FFC762"/><path fill-rule="evenodd" clip-rule="evenodd" d="M353.842 82.895l5.128-2.985-.795-2.39 22.465 9.19-42.513 23.387-.212-.651 14.405-31.925 1.522 5.374z" fill="#F4AC38"/><path fill-rule="evenodd" clip-rule="evenodd" d="M358.97 79.91l-5.128 2.985-1.522-5.374-2.283-8.06 4.962-1.493 3.176 9.553.795 2.389z" fill="#fff"/><path fill-rule="evenodd" clip-rule="evenodd" d="M354.999 67.968c4.42-11.65 5.241-32.124 5.26-32.57 8.608 17.43 20.38 51.312 20.38 51.312l-22.465-9.19-3.175-9.552z" fill="#FFC962"/><path fill-rule="evenodd" clip-rule="evenodd" d="M210.07 11.42c18.243 3.004 36.261 9.187 51.46 19.925.568.402.026 1.348-.549.942-14.456-10.213-31.444-16.26-48.768-19.388-.811-.147-1.621-.294-2.433-.427-.398-.066-.461-.44-.319-.725.105-.21.318-.375.609-.327zm34.96 26.682c-9.553-5.432-19.625-8.597-30.66-8.648-.701-.003-.701-1.094 0-1.09 11.215.052 21.499 3.276 31.209 8.798.609.346.061 1.288-.549.94zm-16.258 16.106c6.51 7.853 16.83 10.95 26.684 11.472.697.037.701 1.127 0 1.09-9.738-.515-19.946-3.497-26.663-10.906-.265-.292-.535-.578-.789-.884a.543.543 0 01-.118-.271c-.08-.48.509-.954.886-.5zm-24.651 3.878c3.924 3.817 9.187 6.066 14.6 6.625.691.071.698 1.162 0 1.09-4.569-.472-9.004-2.074-12.722-4.756a23.366 23.366 0 01-2.646-2.188.482.482 0 01-.13-.52c.114-.34.561-.579.898-.251zm1.694 11.491c2.433.932 4.985 1.4 7.589 1.434.7.01.702 1.1 0 1.09a23.51 23.51 0 01-4.903-.575 21.812 21.812 0 01-2.975-.898c-.438-.168-.446-.698-.204-.95a.428.428 0 01.493-.101z" fill="#231F20"/></svg>