<svg width="320" height="393" fill="none" xmlns="http://www.w3.org/2000/svg"><path fill-rule="evenodd" clip-rule="evenodd" d="M-166.509-26.392c32.089-30.697 79.5-32.736 122.823-42.517C-5.33-77.57 34.577-95.154 70.86-79.985c35.373 14.788 48.37 56.089 69.554 88.043 19.825 29.903 38.829 58.232 50.02 92.318 16.102 49.047 52.105 102.133 28.967 148.269-22.906 45.672-84.449 58.513-135.285 63.723-44.343 4.545-85.085-17.379-125.098-37.036-34.083-16.744-60.356-41.81-88.124-67.712-35.18-32.817-87.845-56.018-95.437-103.518-7.704-48.195 22.77-96.76 58.033-130.494z" fill="#DFE9FD"/><path fill-rule="evenodd" clip-rule="evenodd" d="M279.36-91.325c39.058 8.655 83.712 11.088 109.004 42.565 25.965 32.316 17.951 79.337 22.699 121.349 5.844 51.722 30.815 105.065 8.229 152.363-23.948 50.152-73.922 95.079-127.721 97.876-53.091 2.762-81.861-62.614-130.03-84.471-41.96-19.039-97.543-1.227-130.56-33.772-35.163-34.66-44.195-89.05-45.416-139.688C-15.721 11.55-16.73-53.07 23.946-87.217c40.948-34.374 100.603-7.585 152.856-8.425 35.114-.565 68.402-3.252 102.558 4.317z" fill="#44009B"/></svg>