<svg width="51" height="50" fill="none" xmlns="http://www.w3.org/2000/svg"><path d="M15.326 41.865c-.607 2.5-3.447 6.01-3.447 6.01-.16-1.724-.508-2.344-.848-2.496.893-1.21 2.317-3.366 2.732-5.067l1.563 1.553zm-8.433-1.857a7.07 7.07 0 00-.688.228 7.502 7.502 0 00-2.504-.125 8.834 8.834 0 01.446-1.527 4.147 4.147 0 012.746 1.424zm1.719 4.188s1.183-1.62 1.633 1.464a.864.864 0 00-.075.094c-3.737 4.522-9.161 3.125-9.161 3.125.173-.466.374-.92.603-1.362a9.103 9.103 0 007-3.321zm2.419 1.183c-.415.57-.705.933-.705.933a8.606 8.606 0 00-.08-.643c.142-.134.468-.438.785-.29z" fill="#F2994A"/><path d="M8.612 44.196a9.103 9.103 0 01-7 3.334 11.464 11.464 0 016.839-5.973 3.929 3.929 0 00-2.232-1.34c.225-.087.454-.163.687-.227a4.148 4.148 0 00-2.732-1.424C5.576 35.08 8.54 35.09 8.54 35.09l5.223 5.223c-.415 1.7-1.852 3.857-2.732 5.067-.326-.148-.643.134-.786.29-.45-3.085-1.633-1.473-1.633-1.473zm17.32-.076l-1.044-6.201c.103-.058 7.808-4.402 10.683-6.808v3.433l-9.638 9.576zM9.473 24.388l2.478.584 7.875-11.263-7.313-.562-9 8.446-1.125 1.125 7.085 1.67z" fill="#F2994A"/><path d="M13.263 31.093l-2.406-2.281c.447-1.389 6.406-18.246 25.277-25.804l8.638 7.786c-.022.045-.05.112-.076.17l-6.192-5.58c-18.544 7.432-24.602 23.838-25.24 25.709zm-.317.621l5.134 4.58-3.857 3.857-4.848-4.866 3.571-3.571z" fill="#F2994A"/><path d="M7.513 33.343l3.51-4.013 7.088 6.933-.03.03-4.514-4.414L9.82 35.73l-2.308-2.388z" fill="#2D9CDB"/><path d="M39.46 4.49a14.929 14.929 0 016.825-1.339 34.79 34.79 0 01-1.071 6.826s-1.91-1.495-3.884-3.21a10.628 10.628 0 01-1.87-2.277z" fill="#F2994A"/><path d="M37.254 2.446c6.188-1.692 8.973-1.42 8.973-1.42.069.705.088 1.413.058 2.12a41.518 41.518 0 00-6.825 1.34 10.625 10.625 0 001.87 2.277c-1.75-1.527-3.544-3.26-4.076-4.317z" fill="#F2994A"/><path d="M38.504 5.383l6.192 5.58c-1.17 2.68-9.585 20.862-25.714 25.55l-5.719-5.42c.13-2.076 5.487-18.594 25.241-25.71zm-5.183 13.813a3.942 3.942 0 100-7.553 3.942 3.942 0 010 7.553z" fill="#EB5757"/><path d="M33.321 19.173c-1.553 0-2.812-1.69-2.812-3.776s1.259-3.777 2.812-3.777 2.813 1.69 2.813 3.777c0 2.086-1.26 3.776-2.813 3.776z" fill="#56CCF2"/><path d="M21.482 40.696a.847.847 0 00.344-.072A47.922 47.922 0 0036.924 30.29a50.733 50.733 0 006.464-7.906.893.893 0 00-1.491-.982 48.78 48.78 0 01-6.236 7.616 46.43 46.43 0 01-13.978 9.728L11.308 28.352a46.614 46.614 0 019.705-14c8.085-8.103 18.429-12.848 27.2-12.567.18 5.272-1.477 11.268-4.7 16.964a.896.896 0 101.554.893c3.571-6.299 5.29-12.946 4.888-18.75a.893.893 0 00-.848-.834C39.687-.6 28.424 4.397 19.74 13.093A48 48 0 009.429 28.21a.893.893 0 00.187.978l11.232 11.245a.891.891 0 00.634.264z" fill="#F2F2F2"/><path d="M16.7 43.937a.893.893 0 00.63-.264l1.817-1.817a.894.894 0 00-1.263-1.263L16.7 41.78l-8.424-8.437 3.38-3.384a.893.893 0 00-1.264-1.259l-4.018 4.018a.894.894 0 000 1.263l9.696 9.692a.893.893 0 00.634.264H16.7zm9.795 4.455a.893.893 0 00.63-.264l3.018-3.04a.894.894 0 10-1.264-1.258l-1.835 1.839-1.455-7.277a.893.893 0 10-1.75.348l1.786 8.929a.894.894 0 00.616.678.847.847 0 00.254.045zm4.933-4.938a.894.894 0 00.63-1.526.893.893 0 10-.63 1.527zm1.915-1.937a.893.893 0 00.63-.263l2.95-2.956a.893.893 0 00.26-.683l-.447-7.589a.894.894 0 10-1.785.103l.446 7.183-2.678 2.678a.893.893 0 00.624 1.527zM9.027 25.267a.897.897 0 10.174-1.786l-5.393-1.08 8.3-8.294 7.026 1.07a.903.903 0 10.272-1.785l-7.473-1.152a.893.893 0 00-.768.255l-9.821 9.821a.893.893 0 00.446 1.505l7.027 1.406a.838.838 0 00.21.04zm37.71-11.915a.893.893 0 00.89-.89.891.891 0 00-.261-.632l-9.103-9.116A.892.892 0 1037 3.973l9.102 9.12a.894.894 0 00.634.259zm-12.224 7.344a5.267 5.267 0 003.75-1.558 5.326 5.326 0 000-7.505 5.303 5.303 0 00-9.049 3.545.893.893 0 001.786.04 3.518 3.518 0 111.027 2.643.893.893 0 10-1.264 1.259 5.252 5.252 0 003.75 1.576zm-16.481 11.19c-.387-.386 1.592-2.997 4.421-5.83 2.83-2.833 5.437-4.817 5.825-4.43.387.387-1.593 2.997-4.422 5.83-2.83 2.834-5.437 4.817-5.824 4.43z" fill="#F2F2F2"/><path d="M2.987 49.999a9.95 9.95 0 007.727-3.522 7.3 7.3 0 01.26 1.482.894.894 0 001.03.794c.094 0 2.308-.397 3.045-3.441a.894.894 0 00-1.737-.42 3.415 3.415 0 01-.758 1.549c-.21-.924-.594-1.737-1.371-1.946a1.684 1.684 0 00-1.732.714 8.367 8.367 0 01-7.192 2.973c2.232-4.696 6.34-5.736 6.38-5.745a.894.894 0 00.5-1.416c-1.144-1.468-3.01-1.785-4.268-1.852 1.124-3.125 3.57-3.17 3.633-3.17a.893.893 0 100-1.786c-1.558 0-4.767 1.175-5.705 5.715a.893.893 0 001.005 1.067 6.116 6.116 0 012.812.312 12.795 12.795 0 00-6.473 7.286.893.893 0 00.045.723.892.892 0 00.57.446c.732.166 1.48.245 2.229.237zM8.134 2.138c0-.152.259-.286.67-.384A1.42 1.42 0 009.866.69c.094-.41.232-.67.384-.67s.29.26.384.67a1.42 1.42 0 001.062 1.063c.411.094.67.232.67.384s-.259.29-.67.384a1.424 1.424 0 00-1.062 1.049c-.098.415-.232.674-.384.674s-.29-.259-.384-.674a1.41 1.41 0 00-1.062-1.058c-.411-.085-.67-.223-.67-.375zM35.602 45.4c0-.246.416-.447 1.08-.62a2.285 2.285 0 001.71-1.72c.157-.665.376-1.08.621-1.08.246 0 .469.415.62 1.08a2.286 2.286 0 001.715 1.715c.665.156 1.08.38 1.08.625s-.415.446-1.08.62a2.29 2.29 0 00-1.714 1.715c-.152.665-.375 1.085-.62 1.085-.246 0-.447-.42-.621-1.085a2.286 2.286 0 00-1.71-1.715c-.665-.156-1.08-.375-1.08-.62zM0 30.316c0-.165.277-.312.723-.415a1.536 1.536 0 001.148-1.147c.102-.447.25-.728.415-.728.165 0 .312.281.415.728a1.535 1.535 0 001.147 1.156c.447.103.723.25.723.415 0 .165-.276.313-.723.415a1.53 1.53 0 00-1.17 1.143c-.102.447-.25.723-.415.723-.165 0-.312-.276-.415-.723a1.531 1.531 0 00-1.147-1.152C.277 30.63 0 30.481 0 30.316zm23.723-10.674a.893.893 0 00.34-.067.857.857 0 00.29-.196.893.893 0 00.263-.63.768.768 0 000-.174 1.066 1.066 0 00-.05-.17.963.963 0 00-.33-.397 1.052 1.052 0 00-.156-.085.893.893 0 00-1.08.33.731.731 0 00-.134.322.768.768 0 000 .174.893.893 0 00.263.63c.04.043.085.08.134.111a.725.725 0 00.152.085c.11.043.226.066.344.067h-.036zM24.17 4.04a.893.893 0 00.339-.067.893.893 0 00.29-.197.839.839 0 00.196-.286.894.894 0 00.067-.343 1.15 1.15 0 000-.174.989.989 0 00-.134-.321.81.81 0 00-.111-.135.636.636 0 00-.134-.111 1.061 1.061 0 00-.156-.085.893.893 0 00-.973.196 1.09 1.09 0 00-.112.134.99.99 0 00-.08.152.747.747 0 00-.05.17.768.768 0 000 .174.893.893 0 00.893.893h-.036zm21.812 25.87a.892.892 0 00.63-1.522.632.632 0 00-.135-.112.738.738 0 00-.321-.134.893.893 0 10-.174 1.768z" fill="#F2F2F2"/><path d="M6.237 12.258a2.453 2.453 0 01-2.451-2.455 2.453 2.453 0 012.45-2.455 2.453 2.453 0 012.451 2.455 2.453 2.453 0 01-2.45 2.455z" fill="#EB5757"/><path d="M4.978 11.888a3.321 3.321 0 002.366-.982 3.361 3.361 0 000-4.732 3.344 3.344 0 10-2.366 5.714zm0-4.91A1.567 1.567 0 016.08 9.655a1.59 1.59 0 01-2.2 0 1.562 1.562 0 011.098-2.679z" fill="#F2F2F2"/><path d="M43.321 40.865a2.452 2.452 0 01-2.45-2.455 2.453 2.453 0 012.45-2.455 2.453 2.453 0 012.451 2.455 2.453 2.453 0 01-2.45 2.455z" fill="#F2994A"/><path d="M44.58 40.495a3.304 3.304 0 002.362-.982 3.353 3.353 0 00-1.084-5.46 3.333 3.333 0 00-3.644.727 3.361 3.361 0 000 4.733 3.32 3.32 0 002.366.982zm0-4.911a1.54 1.54 0 011.098.446 1.572 1.572 0 010 2.233 1.59 1.59 0 01-2.2 0 1.573 1.573 0 010-2.233 1.549 1.549 0 011.102-.446z" fill="#F2F2F2"/></svg>