<svg width="51" height="50" viewBox="0 0 51 50" fill="none" xmlns="http://www.w3.org/2000/svg">
<path d="M15.3258 41.8653C14.7187 44.3653 11.8794 47.8742 11.8794 47.8742C11.7187 46.151 11.3705 45.5305 11.0312 45.3787C11.924 44.1689 13.3481 42.0126 13.7633 40.3118L15.3258 41.8653Z" fill="#F2994A"/>
<path d="M6.89282 40.0081C6.65993 40.0722 6.43047 40.1482 6.20533 40.2358C5.38343 40.0539 4.5368 40.0117 3.70088 40.1108C3.80348 39.5894 3.95289 39.0785 4.14731 38.584C5.21187 38.6869 6.19551 39.1971 6.89282 40.0081Z" fill="#F2994A"/>
<path d="M8.61157 44.1957C8.61157 44.1957 9.79459 42.5751 10.2455 45.6599C10.218 45.6894 10.1927 45.7207 10.1696 45.7537C6.43301 50.276 1.00895 48.8787 1.00895 48.8787C1.1821 48.413 1.38336 47.9583 1.61162 47.5171C2.95089 47.5125 4.27265 47.2124 5.48262 46.6383C6.6926 46.0642 7.76098 45.2301 8.61157 44.1957V44.1957Z" fill="#F2994A"/>
<path d="M11.0312 45.3785C10.616 45.9499 10.3258 46.3115 10.3258 46.3115C10.305 46.0794 10.2782 45.8651 10.2455 45.6687C10.3883 45.5348 10.7142 45.2312 11.0312 45.3785Z" fill="#F2994A"/>
<path d="M8.61154 44.1956C7.76226 45.2325 6.69445 46.0691 5.4844 46.6456C4.27435 47.222 2.95193 47.5242 1.6116 47.5304C2.28472 46.1215 3.23855 44.8649 4.41461 43.8378C5.59067 42.8106 6.96415 42.0346 8.45083 41.5572C7.88061 40.8701 7.09333 40.3977 6.2187 40.2179C6.44384 40.1304 6.67331 40.0544 6.9062 39.9902C6.21215 39.1823 5.23386 38.6724 4.17408 38.5661C5.57585 35.0796 8.54011 35.0885 8.54011 35.0885L13.7633 40.3117C13.3481 42.0125 11.9106 44.1688 11.0312 45.3786C10.7053 45.2313 10.3883 45.5125 10.2455 45.6688C9.79457 42.584 8.61154 44.1956 8.61154 44.1956ZM25.9328 44.1197L24.8882 37.9188C24.9909 37.8608 32.6962 33.5171 35.5712 31.1108V34.5438L25.9328 44.1197Z" fill="#F2994A"/>
<path d="M9.47317 24.3877L11.9508 24.9725L19.8258 13.7092L12.5133 13.1467L3.51339 21.5931L2.3884 22.7181L9.47317 24.3877Z" fill="#F2994A"/>
<path d="M13.2633 31.0929L10.8571 28.8117C11.3035 27.4233 17.2633 10.5663 36.1337 3.0083L44.772 10.794C44.7497 10.8386 44.7229 10.9056 44.6961 10.9636L38.5042 5.38328C19.9597 12.8163 13.9017 29.2224 13.2633 31.0929Z" fill="#F2994A"/>
<path d="M12.9463 31.7136L18.0802 36.2939L14.2231 40.1511L9.37494 35.285L12.9463 31.7136Z" fill="#F2994A"/>
<path d="M7.51335 33.343L11.0222 29.3296L18.1115 36.2626L18.0802 36.2938L13.5669 31.8787L9.82136 35.7313L7.51335 33.343Z" fill="#2D9CDB"/>
<path d="M39.4595 4.49049C41.5976 3.51281 43.9364 3.05393 46.2854 3.15122C46.1556 5.45641 45.7967 7.74297 45.2139 9.97706C45.2139 9.97706 43.3032 8.48153 41.33 6.76726C40.6038 6.0989 39.9743 5.33261 39.4595 4.49049V4.49049Z" fill="#F2994A"/>
<path d="M37.2542 2.44579C43.4417 0.753838 46.2274 1.02616 46.2274 1.02616C46.296 1.73079 46.3154 2.43935 46.2854 3.14668C43.9767 3.40138 41.6934 3.84937 39.4596 4.48595C39.9743 5.32807 40.6039 6.09436 41.3301 6.76272C39.5801 5.23595 37.7855 3.50382 37.2542 2.44579Z" fill="#F2994A"/>
<path d="M38.5042 5.3833L44.6961 10.9636C43.5265 13.6422 35.1114 31.8251 18.982 36.5125L13.2633 31.0929C13.3928 29.0171 18.7499 12.4993 38.5042 5.3833ZM33.3212 19.1957C33.6861 19.3055 34.0651 19.3611 34.4462 19.3609C35.4916 19.3609 36.4943 18.9456 37.2335 18.2063C37.9728 17.4671 38.3881 16.4644 38.3881 15.4189C38.3881 14.3735 37.9728 13.3708 37.2335 12.6316C36.4943 11.8923 35.4916 11.477 34.4462 11.477C34.0651 11.4768 33.6861 11.5324 33.3212 11.6422C34.134 11.8852 34.8468 12.384 35.3535 13.0644C35.8603 13.7448 36.134 14.5706 36.134 15.4189C36.134 16.2673 35.8603 17.0931 35.3535 17.7735C34.8468 18.4539 34.134 18.9527 33.3212 19.1957V19.1957Z" fill="#EB5757"/>
<path d="M33.3212 19.1734C31.7679 19.1734 30.5087 17.4825 30.5087 15.3966C30.5087 13.3108 31.7679 11.6199 33.3212 11.6199C34.8745 11.6199 36.1337 13.3108 36.1337 15.3966C36.1337 17.4825 34.8745 19.1734 33.3212 19.1734Z" fill="#56CCF2"/>
<path d="M21.482 40.6956C21.6003 40.6961 21.7174 40.6717 21.8257 40.6242C27.4755 38.1809 32.6016 34.672 36.9238 30.2895C39.339 27.8782 41.5048 25.2294 43.3881 22.3833C43.5137 22.1855 43.5565 21.9464 43.5074 21.7174C43.4583 21.4883 43.3212 21.2878 43.1255 21.1589C42.9299 21.0301 42.6915 20.9833 42.4617 21.0286C42.2319 21.0739 42.0291 21.2077 41.897 21.4011C40.0803 24.1436 37.9908 26.6952 35.6605 29.0171C31.6409 33.0937 26.902 36.3917 21.6829 38.7448L11.308 28.352C13.6557 23.1288 16.9457 18.383 21.0133 14.3521C29.098 6.24946 39.4417 1.50395 48.2139 1.7852C48.3925 7.05749 46.7363 13.053 43.5131 18.7494C43.4545 18.8514 43.4165 18.9639 43.4014 19.0806C43.3863 19.1973 43.3943 19.3158 43.4249 19.4294C43.4556 19.543 43.5084 19.6494 43.5802 19.7426C43.652 19.8358 43.7414 19.9139 43.8434 19.9726C43.9454 20.0312 44.058 20.0692 44.1747 20.0843C44.2914 20.0994 44.4099 20.0914 44.5235 20.0607C44.637 20.03 44.7435 19.9773 44.8367 19.9055C44.9299 19.8337 45.008 19.7442 45.0666 19.6422C48.638 13.3432 50.3568 6.69588 49.955 0.892352C49.941 0.67326 49.8467 0.467013 49.6903 0.313015C49.5338 0.159018 49.3261 0.0680659 49.1068 0.0575369C39.6872 -0.598708 28.4239 4.39679 19.7409 13.0932C15.366 17.4239 11.8649 22.5558 9.42852 28.2091C9.35917 28.3723 9.33997 28.5524 9.37336 28.7265C9.40676 28.9006 9.49123 29.0609 9.61601 29.1868L20.8481 40.4322C20.9311 40.5158 21.0299 40.5821 21.1387 40.6273C21.2475 40.6725 21.3642 40.6957 21.482 40.6956Z" fill="#F2F2F2"/>
<path d="M16.7008 43.9366C16.9372 43.9356 17.1636 43.8409 17.3302 43.6732L19.1472 41.8563C19.3147 41.6887 19.4088 41.4615 19.4088 41.2246C19.4088 40.9876 19.3147 40.7604 19.1472 40.5929C18.9797 40.4253 18.7524 40.3312 18.5155 40.3312C18.2786 40.3312 18.0513 40.4253 17.8838 40.5929L16.7008 41.7804L8.27673 33.3429L11.6562 29.959C11.8098 29.7889 11.8921 29.5662 11.886 29.3371C11.88 29.108 11.7861 28.89 11.6237 28.7282C11.4614 28.5664 11.243 28.4733 11.0139 28.468C10.7847 28.4628 10.5624 28.5459 10.3928 28.7001L6.37496 32.7179C6.29195 32.8009 6.22609 32.8993 6.18116 33.0077C6.13623 33.1161 6.1131 33.2323 6.1131 33.3496C6.1131 33.467 6.13623 33.5831 6.18116 33.6915C6.22609 33.7999 6.29195 33.8984 6.37496 33.9813L16.0713 43.6732C16.1544 43.7568 16.2532 43.8231 16.362 43.8683C16.4708 43.9135 16.5874 43.9367 16.7052 43.9366H16.7008ZM26.4954 48.3919C26.7318 48.3909 26.9581 48.2962 27.1248 48.1285L30.1426 45.0884C30.2321 45.007 30.3041 44.9083 30.3543 44.7983C30.4045 44.6882 30.4318 44.5691 30.4346 44.4482C30.4373 44.3273 30.4155 44.2071 30.3704 44.0948C30.3253 43.9826 30.2578 43.8807 30.1722 43.7953C30.0865 43.71 29.9844 43.6429 29.872 43.5982C29.7596 43.5535 29.6393 43.5321 29.5184 43.5353C29.3975 43.5385 29.2785 43.5662 29.1686 43.6167C29.0588 43.6673 28.9603 43.7397 28.8793 43.8295L27.0445 45.6687L25.5891 38.392C25.5703 38.2732 25.5278 38.1595 25.464 38.0576C25.4002 37.9557 25.3165 37.8677 25.2178 37.7989C25.1192 37.7302 25.0077 37.682 24.89 37.6574C24.7723 37.6328 24.6509 37.6322 24.533 37.6557C24.415 37.6791 24.3031 37.7262 24.2038 37.794C24.1045 37.8618 24.0199 37.9489 23.9551 38.0502C23.8903 38.1515 23.8466 38.2648 23.8267 38.3834C23.8068 38.5019 23.811 38.6233 23.8391 38.7402L25.6248 47.6687C25.6566 47.8269 25.7307 47.9736 25.8391 48.0931C25.9476 48.2126 26.0865 48.3004 26.2409 48.3473C26.3229 48.3751 26.4087 48.3901 26.4954 48.3919ZM31.4284 43.4545C31.6053 43.4546 31.7783 43.4021 31.9254 43.3038C32.0725 43.2054 32.1871 43.0655 32.2545 42.9019C32.322 42.7383 32.3393 42.5584 32.3043 42.3849C32.2692 42.2114 32.1835 42.0523 32.0578 41.9277V41.9277C31.9537 41.8244 31.8257 41.7484 31.6853 41.7063C31.5448 41.6642 31.3961 41.6574 31.2524 41.6864C31.1086 41.7154 30.9742 41.7794 30.8611 41.8727C30.7479 41.966 30.6595 42.0857 30.6036 42.2213C30.5477 42.3569 30.5261 42.5041 30.5406 42.65C30.5551 42.796 30.6054 42.9361 30.6869 43.058C30.7684 43.1799 30.8787 43.2798 31.008 43.349C31.1373 43.4181 31.2817 43.4543 31.4284 43.4545V43.4545ZM33.3435 41.517C33.5799 41.516 33.8063 41.4213 33.973 41.2536L36.9238 38.2982C37.0127 38.2091 37.0817 38.1021 37.1264 37.9844C37.171 37.8667 37.1902 37.7409 37.1828 37.6152L36.7363 30.026C36.7227 29.7892 36.6156 29.5675 36.4385 29.4097C36.2615 29.2519 36.029 29.1709 35.7922 29.1845C35.5554 29.1981 35.3337 29.3052 35.1759 29.4823C35.018 29.6594 34.937 29.8919 34.9506 30.1287L35.3971 37.3116L32.7185 39.9902C32.5931 40.1145 32.5075 40.2733 32.4723 40.4463C32.4371 40.6194 32.4541 40.799 32.521 40.9624C32.5879 41.1258 32.7017 41.2657 32.8481 41.3644C32.9945 41.4631 33.1669 41.5162 33.3435 41.517ZM9.02673 25.2671C9.26353 25.2902 9.4998 25.2183 9.68357 25.0671C9.86734 24.916 9.98354 24.6981 10.0066 24.4613C10.0297 24.2245 9.9578 23.9882 9.80668 23.8045C9.65557 23.6207 9.43764 23.5045 9.20084 23.4814L3.80802 22.401L12.1071 14.1065L19.1338 15.1779C19.3706 15.214 19.612 15.1546 19.805 15.0126C19.998 14.8707 20.1267 14.658 20.1628 14.4212C20.1989 14.1844 20.1395 13.9429 19.9976 13.75C19.8557 13.557 19.6429 13.4283 19.4061 13.3922L11.933 12.2404C11.794 12.2194 11.652 12.2315 11.5186 12.2757C11.3851 12.3199 11.264 12.395 11.1651 12.4949L1.34375 22.3162C1.23018 22.4299 1.1494 22.5721 1.10992 22.7279C1.07044 22.8837 1.07373 23.0472 1.11944 23.2012C1.16515 23.3553 1.2516 23.4942 1.36965 23.6032C1.4877 23.7122 1.63298 23.7873 1.79017 23.8207L8.81691 25.2269C8.88484 25.2492 8.95536 25.2627 9.02673 25.2671V25.2671ZM46.7363 13.352C46.9721 13.3522 47.1983 13.2591 47.3657 13.0931C47.4487 13.0102 47.5146 12.9117 47.5595 12.8033C47.6045 12.6949 47.6276 12.5787 47.6276 12.4614C47.6276 12.344 47.6045 12.2279 47.5595 12.1195C47.5146 12.0111 47.4487 11.9126 47.3657 11.8297L38.2631 2.71368C38.1821 2.62392 38.0836 2.55155 37.9737 2.50098C37.8639 2.45041 37.7449 2.42269 37.624 2.4195C37.5031 2.41631 37.3828 2.43772 37.2704 2.48243C37.158 2.52714 37.0559 2.59421 36.9702 2.67958C36.8845 2.76495 36.8171 2.86684 36.772 2.97907C36.7269 3.09129 36.7051 3.21151 36.7078 3.33242C36.7106 3.45334 36.7379 3.57243 36.7881 3.68248C36.8382 3.79253 36.9103 3.89123 36.9997 3.9726L46.1023 13.0931C46.1858 13.1758 46.2847 13.2413 46.3935 13.2857C46.5023 13.3302 46.6188 13.3527 46.7363 13.352ZM34.5131 20.6957C35.2102 20.697 35.9006 20.56 36.5443 20.2925C37.188 20.0251 37.7722 19.6326 38.2631 19.1377C39.2535 18.14 39.8093 16.7913 39.8093 15.3855C39.8093 13.9797 39.2535 12.6309 38.2631 11.6333C37.5338 10.9041 36.6076 10.4035 35.5981 10.1926C34.5886 9.98172 33.5395 10.0697 32.5793 10.4459C31.619 10.822 30.7892 11.47 30.1915 12.3104C29.5939 13.1509 29.2542 14.1474 29.2141 15.1779C29.2138 15.4079 29.3024 15.6291 29.4612 15.7954C29.6201 15.9618 29.837 16.0604 30.0668 16.0707C30.184 16.0761 30.3012 16.0583 30.4116 16.0184C30.522 15.9784 30.6235 15.9171 30.7101 15.8379C30.7968 15.7587 30.867 15.6632 30.9167 15.5568C30.9664 15.4505 30.9946 15.3353 30.9998 15.2181C31.0355 14.4116 31.3474 13.642 31.8832 13.0383C32.4191 12.4346 33.1462 12.0336 33.9427 11.9024C34.7392 11.7713 35.5565 11.9181 36.2576 12.3181C36.9587 12.7182 37.5009 13.3472 37.7932 14.0996C38.0855 14.852 38.1102 15.6821 37.8631 16.4505C37.616 17.2189 37.1121 17.879 36.436 18.32C35.7599 18.761 34.9527 18.9561 34.1499 18.8725C33.347 18.7889 32.5973 18.4317 32.0266 17.8609C31.9455 17.7711 31.8471 17.6988 31.7372 17.6482C31.6273 17.5976 31.5083 17.5699 31.3874 17.5667C31.2665 17.5635 31.1462 17.5849 31.0338 17.6296C30.9215 17.6743 30.8193 17.7414 30.7337 17.8268C30.648 17.9122 30.5805 18.0141 30.5354 18.1263C30.4903 18.2385 30.4685 18.3587 30.4713 18.4796C30.474 18.6005 30.5013 18.7196 30.5515 18.8297C30.6017 18.9397 30.6737 19.0384 30.7632 19.1198C31.2521 19.6185 31.8356 20.0148 32.4795 20.2853C33.1234 20.5559 33.8147 20.6954 34.5131 20.6957Z" fill="#F2F2F2"/>
<path d="M18.0318 31.8862C17.6445 31.4995 19.6241 28.8891 22.4534 26.0559C25.2827 23.2226 27.8903 21.2394 28.2776 21.6261C28.6649 22.0129 26.6853 24.6232 23.856 27.4565C21.0267 30.2897 18.4191 32.273 18.0318 31.8862Z" fill="#F2F2F2"/>
<path d="M2.98659 49.999C4.45474 50.0184 5.90899 49.7127 7.24503 49.1037C8.58107 48.4947 9.76579 47.5976 10.7142 46.4767C10.8513 46.9606 10.9381 47.4572 10.9731 47.9589C10.985 48.0803 11.0216 48.198 11.0807 48.3047C11.1399 48.4115 11.2202 48.505 11.3169 48.5794C11.4135 48.6539 11.5244 48.7077 11.6426 48.7376C11.7608 48.7676 11.884 48.773 12.0044 48.7535C12.0981 48.7535 14.3124 48.3562 15.049 45.3116C15.1046 45.0813 15.0665 44.8383 14.943 44.6361C14.8196 44.434 14.6208 44.2891 14.3905 44.2335C14.1602 44.1778 13.9173 44.2159 13.7151 44.3394C13.5129 44.4629 13.3681 44.6616 13.3124 44.8919C13.1962 45.4647 12.9348 45.9981 12.5535 46.441C12.3437 45.5169 11.9597 44.7044 11.183 44.4946C10.856 44.4286 10.5167 44.4613 10.2083 44.5884C9.8999 44.7156 9.63625 44.9316 9.45083 45.2089C8.58265 46.2501 7.47446 47.0647 6.22163 47.5827C4.9688 48.1006 3.60888 48.3063 2.25892 48.1821C4.49104 43.4857 8.59816 42.4455 8.63833 42.4366C8.7833 42.4018 8.91726 42.3313 9.02799 42.2315C9.13872 42.1317 9.2227 42.0058 9.27226 41.8652C9.32223 41.7245 9.33615 41.5736 9.31276 41.4262C9.28936 41.2788 9.22939 41.1397 9.13833 41.0214C7.99548 39.5527 6.12943 39.2357 4.87051 39.1688C5.9955 36.0438 8.44191 35.9991 8.50441 35.9991C8.74121 35.9991 8.9683 35.9051 9.13575 35.7376C9.30319 35.5702 9.39726 35.3431 9.39726 35.1063C9.39726 34.8695 9.30319 34.6424 9.13575 34.475C8.9683 34.3075 8.74121 34.2134 8.50441 34.2134C6.94638 34.2134 3.73658 35.3875 2.79909 39.9277C2.76947 40.0685 2.77435 40.2144 2.81329 40.353C2.85223 40.4915 2.92409 40.6186 3.02274 40.7234C3.12139 40.8282 3.24392 40.9076 3.37987 40.9548C3.51582 41.0021 3.66118 41.0157 3.80355 40.9946C4.75258 40.8775 5.71585 40.9845 6.61603 41.3071C3.58164 42.7866 1.25492 45.4054 0.142861 48.5928C0.099343 48.7098 0.0808332 48.8346 0.0885226 48.9591C0.096212 49.0837 0.129929 49.2053 0.187503 49.316C0.246225 49.4263 0.327426 49.5229 0.425855 49.5998C0.524285 49.6767 0.637752 49.7321 0.758927 49.7624C1.48978 49.9275 2.23737 50.0069 2.98659 49.999V49.999ZM8.13387 2.13778C8.13387 1.986 8.3928 1.85207 8.80351 1.75386C9.06228 1.69389 9.29903 1.56253 9.48685 1.37471C9.67468 1.18688 9.80604 0.950132 9.866 0.691366C9.95975 0.280655 10.0981 0.0217285 10.2499 0.0217285C10.4017 0.0217285 10.5401 0.280655 10.6339 0.691366C10.6938 0.950132 10.8252 1.18688 11.013 1.37471C11.2008 1.56253 11.4376 1.69389 11.6963 1.75386C12.1071 1.84761 12.366 1.986 12.366 2.13778C12.366 2.28957 12.1071 2.42796 11.6963 2.52171C11.4395 2.5811 11.2042 2.71062 11.0166 2.89585C10.829 3.08107 10.6965 3.31473 10.6339 3.57081C10.5356 3.98599 10.4017 4.24491 10.2499 4.24491C10.0981 4.24491 9.95975 3.98599 9.866 3.57081C9.80627 3.31241 9.6749 3.07608 9.48697 2.88894C9.29904 2.7018 9.06216 2.57143 8.80351 2.51278C8.3928 2.42796 8.13387 2.28957 8.13387 2.13778ZM35.6024 45.4009C35.6024 45.1553 36.0176 44.9544 36.6828 44.7803C37.1003 44.683 37.482 44.4702 37.7843 44.1663C38.0867 43.8624 38.2974 43.4796 38.3926 43.0616C38.5488 42.3964 38.7676 41.9812 39.0131 41.9812C39.2586 41.9812 39.4819 42.3964 39.6336 43.0616C39.7299 43.4793 39.9416 43.8616 40.2448 44.1647C40.5479 44.4679 40.9302 44.6796 41.3479 44.7759C42.0131 44.9321 42.4283 45.1553 42.4283 45.4009C42.4283 45.6464 42.0131 45.8473 41.3479 46.0214C40.9304 46.1181 40.5484 46.33 40.2453 46.6331C39.9423 46.9361 39.7304 47.3181 39.6336 47.7357C39.4819 48.4008 39.2586 48.8205 39.0131 48.8205C38.7676 48.8205 38.5667 48.4008 38.3926 47.7357C38.2967 47.3185 38.0856 46.9366 37.7833 46.6335C37.481 46.3305 37.0997 46.1184 36.6828 46.0214C36.0176 45.8651 35.6024 45.6464 35.6024 45.4009ZM5.26447e-06 30.3162C5.26447e-06 30.151 0.27679 30.0037 0.723215 29.901C1.0025 29.8359 1.25799 29.694 1.46076 29.4912C1.66353 29.2884 1.80548 29.0329 1.87053 28.7537C1.97321 28.3072 2.12053 28.026 2.2857 28.026C2.45088 28.026 2.5982 28.3072 2.70088 28.7537C2.76445 29.0346 2.90573 29.292 3.10861 29.4964C3.31149 29.7009 3.56777 29.8442 3.84819 29.9099C4.29462 30.0126 4.5714 30.1599 4.5714 30.3251C4.5714 30.4903 4.29462 30.6376 3.84819 30.7403C3.56515 30.8007 3.30505 30.9402 3.09804 31.1425C2.89102 31.3447 2.74558 31.6015 2.67856 31.8831C2.57588 32.3295 2.42856 32.6063 2.26338 32.6063C2.0982 32.6063 1.95088 32.3295 1.84821 31.8831C1.78438 31.6028 1.64292 31.3461 1.44002 31.1424C1.23712 30.9387 0.980974 30.7962 0.700893 30.7313C0.276789 30.6286 5.26447e-06 30.4813 5.26447e-06 30.3162ZM23.723 19.6421C23.8394 19.6421 23.9547 19.6194 24.0623 19.5752C24.1715 19.5304 24.2703 19.4635 24.3525 19.3787C24.5202 19.2121 24.6149 18.9857 24.6159 18.7493C24.6225 18.6914 24.6225 18.633 24.6159 18.5752C24.6043 18.5174 24.5878 18.4606 24.5668 18.4055C24.5429 18.3526 24.5145 18.3018 24.482 18.2537C24.4157 18.1577 24.3325 18.0745 24.2364 18.0082C24.1868 17.9756 24.1346 17.9472 24.0802 17.9234C24.0273 17.9003 23.9719 17.8838 23.915 17.8743C23.7712 17.8461 23.6227 17.8538 23.4825 17.8966C23.3424 17.9394 23.2149 18.0161 23.1114 18.1198C23.0682 18.1591 23.0307 18.2042 22.9998 18.2537C22.9656 18.3008 22.9371 18.3517 22.915 18.4055C22.8919 18.4599 22.8755 18.5169 22.8659 18.5752C22.8593 18.633 22.8593 18.6914 22.8659 18.7493C22.8669 18.9857 22.9616 19.2121 23.1293 19.3787C23.1686 19.4219 23.2137 19.4595 23.2632 19.4903C23.3102 19.5246 23.3612 19.5531 23.415 19.5752C23.5247 19.6179 23.6411 19.6406 23.7588 19.6421H23.723ZM24.1695 4.03956C24.2858 4.03956 24.4011 4.01681 24.5088 3.97259C24.6175 3.92693 24.7161 3.86016 24.7989 3.77616C24.8836 3.69564 24.9505 3.59832 24.9954 3.49045C25.0401 3.38141 25.0629 3.26459 25.0623 3.14671C25.0667 3.08875 25.0667 3.03055 25.0623 2.9726C25.0492 2.91467 25.0313 2.85792 25.0087 2.80296C24.9864 2.75012 24.9595 2.69934 24.9284 2.65117C24.8961 2.60264 24.8587 2.55773 24.8168 2.51725C24.7775 2.47405 24.7324 2.4365 24.6829 2.40564C24.6332 2.37303 24.581 2.34466 24.5266 2.32082C24.4731 2.29977 24.4178 2.28334 24.3614 2.27171C24.2465 2.24886 24.1282 2.24886 24.0132 2.27171C23.9554 2.28334 23.8987 2.29977 23.8436 2.32082C23.7906 2.34469 23.7399 2.37307 23.6918 2.40564C23.6417 2.43758 23.5952 2.47501 23.5534 2.51725C23.5127 2.55889 23.4754 2.60367 23.4418 2.65117C23.4106 2.69934 23.3838 2.75012 23.3614 2.80296C23.3384 2.85735 23.3219 2.9143 23.3123 2.9726C23.3057 3.03045 23.3057 3.08886 23.3123 3.14671C23.3117 3.26459 23.3345 3.38141 23.3793 3.49045C23.4473 3.65337 23.562 3.79249 23.709 3.89022C23.856 3.98796 24.0287 4.03992 24.2052 4.03956H24.1695ZM45.9818 29.9099C46.1579 29.9092 46.3297 29.8564 46.4759 29.7582C46.622 29.6601 46.7359 29.5209 46.8032 29.3582C46.8704 29.1955 46.8881 29.0166 46.854 28.8439C46.8198 28.6712 46.7354 28.5124 46.6113 28.3876C46.572 28.3444 46.5269 28.3068 46.4773 28.276C46.4303 28.2417 46.3794 28.2133 46.3256 28.1912C46.2712 28.1681 46.2142 28.1516 46.1559 28.1421C46.0121 28.1139 45.8636 28.1216 45.7234 28.1644C45.5833 28.2072 45.4559 28.2839 45.3523 28.3876C45.2282 28.5124 45.1438 28.6712 45.1097 28.8439C45.0755 29.0166 45.0932 29.1955 45.1605 29.3582C45.2277 29.5209 45.3416 29.6601 45.4877 29.7582C45.6339 29.8564 45.8058 29.9092 45.9818 29.9099V29.9099Z" fill="#F2F2F2"/>
<path d="M6.23657 12.2583C4.88298 12.2583 3.78569 11.159 3.78569 9.803C3.78569 8.44695 4.88298 7.34766 6.23657 7.34766C7.59015 7.34766 8.68744 8.44695 8.68744 9.803C8.68744 11.159 7.59015 12.2583 6.23657 12.2583Z" fill="#EB5757"/>
<path d="M4.97764 11.8879C5.4174 11.889 5.853 11.8027 6.25916 11.6341C6.66533 11.4655 7.03397 11.2179 7.34369 10.9057C7.96744 10.2762 8.31738 9.42589 8.31738 8.53969C8.31738 7.65349 7.96744 6.80315 7.34369 6.17364C6.95435 5.78632 6.47561 5.50087 5.94976 5.3425C5.42392 5.18412 4.86716 5.15771 4.32868 5.26558C3.7902 5.37346 3.28658 5.61231 2.86232 5.96102C2.43806 6.30973 2.10623 6.75757 1.89613 7.26498C1.68603 7.77238 1.60415 8.32372 1.65771 8.87028C1.71127 9.41683 1.89863 9.94179 2.20323 10.3988C2.50783 10.8557 2.92029 11.2306 3.40417 11.4903C3.88806 11.7501 4.42846 11.8866 4.97764 11.8879V11.8879ZM4.97764 6.9772C5.28784 6.97754 5.59096 7.06995 5.8486 7.24271C6.10624 7.41547 6.30681 7.66081 6.42489 7.94766C6.54298 8.23451 6.57327 8.54995 6.51192 8.85402C6.45058 9.1581 6.30037 9.43712 6.08031 9.65575V9.65575C5.78436 9.93977 5.39006 10.0984 4.97987 10.0984C4.56968 10.0984 4.17538 9.93977 3.87943 9.65575C3.65744 9.43825 3.50535 9.15948 3.44262 8.85509C3.37988 8.5507 3.40935 8.23451 3.52724 7.94695C3.64514 7.65939 3.84612 7.41352 4.10448 7.24078C4.36284 7.06804 4.66685 6.97627 4.97764 6.9772V6.9772Z" fill="#F2F2F2"/>
<path d="M43.3211 40.8653C41.9675 40.8653 40.8703 39.766 40.8703 38.4099C40.8703 37.0539 41.9675 35.9546 43.3211 35.9546C44.6747 35.9546 45.772 37.0539 45.772 38.4099C45.772 39.766 44.6747 40.8653 43.3211 40.8653Z" fill="#F2994A"/>
<path d="M44.58 40.4946C45.0192 40.4961 45.4542 40.41 45.8597 40.2414C46.2652 40.0727 46.633 39.8249 46.9416 39.5125C47.5675 38.8841 47.919 38.0333 47.919 37.1464C47.919 36.2595 47.5675 35.4087 46.9416 34.7804C46.6318 34.469 46.2634 34.2219 45.8577 34.0533C45.4521 33.8846 45.0171 33.7979 44.5778 33.7979C44.1385 33.7979 43.7035 33.8846 43.2979 34.0533C42.8922 34.2219 42.5239 34.469 42.214 34.7804C41.5902 35.4099 41.2403 36.2602 41.2403 37.1464C41.2403 38.0326 41.5902 38.883 42.214 39.5125V39.5125C42.5237 39.8247 42.8923 40.0722 43.2985 40.2408C43.7047 40.4094 44.1403 40.4957 44.58 40.4946ZM44.58 35.5839C44.7835 35.5821 44.9853 35.6206 45.1738 35.6973C45.3623 35.7739 45.5338 35.8871 45.6782 36.0304C45.8256 36.1765 45.9426 36.3503 46.0225 36.5419C46.1023 36.7334 46.1434 36.9389 46.1434 37.1464C46.1434 37.354 46.1023 37.5594 46.0225 37.751C45.9426 37.9425 45.8256 38.1164 45.6782 38.2625C45.3823 38.5465 44.988 38.7051 44.5778 38.7051C44.1676 38.7051 43.7733 38.5465 43.4774 38.2625V38.2625C43.33 38.1164 43.213 37.9425 43.1331 37.751C43.0533 37.5594 43.0122 37.354 43.0122 37.1464C43.0122 36.9389 43.0533 36.7334 43.1331 36.5419C43.213 36.3503 43.33 36.1765 43.4774 36.0304C43.6227 35.887 43.7949 35.7737 43.9841 35.6971C44.1734 35.6205 44.3759 35.582 44.58 35.5839V35.5839Z" fill="#F2F2F2"/>
</svg>
