<svg width="64" height="64" fill="none" xmlns="http://www.w3.org/2000/svg"><path d="M29 43.52l.13 8-7.57-2.59L14 51.52l.06-3.52a16 16 0 0015.48-12.18l4.26 1.31-4.8 6.39z" fill="#FDA736"/><path d="M29.54 35.82A16 16 0 0114.06 48l.07-4.48L13 42l-3.67-4.87L13 36l4-1.22L19 32l2.64-3.76L24.2 32l2 2.78 3.34 1.04z" fill="#FED370"/><path d="M29.13 52.52a1.131 1.131 0 01-.32-.05L21.56 50l-7.24 2.48A1 1 0 0113 51.5l.12-7.65-4.59-6.12A1 1 0 019 36.17l7.31-2.25L17 33a1.005 1.005 0 011.64 1.16l-.83 1.17a1 1 0 01-.53.39L11 37.67l3.95 5.25a1 1 0 01.2.62L15 50.11 21.24 48a1 1 0 01.64 0l6.23 2.13v-1.09a1 1 0 112 0v2.52a1 1 0 01-.41.83 1.06 1.06 0 01-.57.13zM29 46a1 1 0 01-1-1v-1.48a1 1 0 01.2-.61l3.95-5.25-6.28-1.93a1 1 0 01-.53-.39L21.56 30l-.64.92a1 1 0 01-1.64-1.14l1.46-2.09a.999.999 0 011.64 0l4.4 6.25 7.31 2.25a1 1 0 01.696 1.123 1 1 0 01-.186.437l-4.6 6.1V45a1 1 0 01-1 1z" fill="#F2F2F2"/><path d="M55 45a1 1 0 01-1-1 1 1 0 00-1-1 1 1 0 010-2 1 1 0 001-1 1 1 0 012 0 1 1 0 001 1 1 1 0 010 2 1 1 0 00-1 1 1 1 0 01-1 1z" fill="#FD7504"/><path d="M10 22a1 1 0 01-1-1 1 1 0 00-1-1 1 1 0 010-2 1 1 0 001-1 1 1 0 112 0 1 1 0 001 1 1 1 0 010 2 1 1 0 00-1 1 1 1 0 01-1 1z" fill="#FD8F07"/><path d="M27 27a1 1 0 01-.69-.27 1.002 1.002 0 010-1.42l17-18a1.006 1.006 0 011.668 1.048 1.004 1.004 0 01-.208.332l-17 18A1 1 0 0127 27zm12 2a1 1 0 01-.71-1.71l9-9a1.007 1.007 0 011.42 0 1.003 1.003 0 010 1.42l-9 9A1 1 0 0139 29zm-3 3a1 1 0 01-.71-1.71l1-1a1.004 1.004 0 111.42 1.42l-1 1A1 1 0 0136 32zm17-5a1 1 0 01-.71-1.71l3.5-3.5a1.004 1.004 0 111.42 1.42l-3.5 3.5A1 1 0 0153 27zM35 45a1 1 0 01-.71-1.71l13-13a1.007 1.007 0 011.42 0 1.003 1.003 0 010 1.42l-13 13A1 1 0 0135 45zM17 26a1 1 0 01-.71-1.71l11-11a1.004 1.004 0 111.42 1.42l-11 11A1 1 0 0117 26zm-4 4a1 1 0 01-.71-1.71l1-1a1.007 1.007 0 011.42 0 1.003 1.003 0 010 1.42l-1 1A1 1 0 0113 30z" fill="#E0E0E0"/><path d="M46 46a1 1 0 100-2 1 1 0 000 2zm-5-28a1 1 0 100-2 1 1 0 000 2z" fill="#FD8F07"/><path d="M48 12a1 1 0 100-2 1 1 0 000 2z" fill="#FDA736"/><path d="M19 18a1 1 0 100-2 1 1 0 000 2z" fill="#FED370"/><path d="M54 19a1 1 0 100-2 1 1 0 000 2zM9 45a1 1 0 100-2 1 1 0 000 2z" fill="#FD8F07"/><path d="M58 32a1 1 0 100-2 1 1 0 000 2z" fill="#FED370"/><path d="M23 57a1 1 0 100-2 1 1 0 000 2z" fill="#FD8F07"/><path d="M22 9a1 1 0 100-2 1 1 0 000 2z" fill="#FD7504"/><path d="M8 31a1 1 0 100-2 1 1 0 000 2z" fill="#FED370"/><path d="M41 53a1 1 0 01-1-1v-1a1 1 0 012 0v1a1 1 0 01-1 1zm3 2h-1a1 1 0 010-2h1a1 1 0 010 2zm-5 0h-1a1 1 0 010-2h1a1 1 0 010 2zm2 3a1 1 0 01-1-1v-1a1 1 0 012 0v1a1 1 0 01-1 1z" fill="#FDA736"/><path d="M32 7a1 1 0 01-1-1V5a1 1 0 012 0v1a1 1 0 01-1 1zm3 2h-1a1 1 0 110-2h1a1 1 0 110 2zm-5 0h-1a1 1 0 110-2h1a1 1 0 110 2zm2 3a1 1 0 01-1-1v-1a1 1 0 012 0v1a1 1 0 01-1 1z" fill="#FED370"/></svg>