<svg width="50" height="50" fill="none" xmlns="http://www.w3.org/2000/svg"><g clip-path="url(#clip0)"><path d="M31.25 29.69H20.312v10.156H31.25V29.69z" fill="#FFC107"/><path d="M25.781 33.596c6.472 0 11.719-5.247 11.719-11.719 0-6.472-5.247-11.719-11.719-11.719-6.472 0-11.719 5.247-11.719 11.72 0 6.471 5.247 11.718 11.72 11.718z" fill="#FFC107"/><path d="M27.734 25.784V36.72m-3.906-10.937V36.72 25.784z" stroke="#E9EDED"/><path d="M29.687 37.502h-7.812v7.813h7.812v-7.813z" fill="#263238"/><path d="M25.781 10.159A11.719 11.719 0 0137.5 21.877a11.719 11.719 0 01-6.25 10.357v7.612h-1.563v-7.612a11.72 11.72 0 006.25-10.357A11.719 11.719 0 0024.91 10.192c.29-.022.58-.033.871-.033z" fill="#FF9800"/><path d="M32.031 35.94h-12.5v7.812h12.5V35.94z" fill="#F2F2F2"/><path d="M32.031 36.721h-12.5a.781.781 0 100 1.563h12.5a.781.781 0 000-1.563zm0 2.344h-12.5a.781.781 0 000 1.562h12.5a.781.781 0 100-1.562zm0 2.344h-12.5a.781.781 0 100 1.562h12.5a.781.781 0 000-1.562z" fill="#263238"/><path d="M29.687 25.393h-7.812" stroke="#E9EDED"/><path d="M16.016 21.877a9.767 9.767 0 019.765-9.765" stroke="#FFEB3B"/><path d="M35.894 29.555c1.694 2.757 2.256 4.595 1.563 5.112-.694.517-2.586-.33-5.261-2.355-2.676-2.024-5.916-5.062-9.012-8.446-3.095-3.384-5.792-6.838-7.499-9.605-1.707-2.767-2.285-4.62-1.607-5.154.678-.533 2.556.296 5.223 2.308" stroke="#263238" stroke-width="1.149"/><path d="M13.808 18.771c-2.008.824-2.843 1.87-2.349 2.94.495 1.07 2.285 2.09 5.032 2.867 2.748.777 6.261 1.257 9.875 1.349 3.614.092 7.078-.21 9.736-.85 2.658-.64 4.326-1.573 4.687-2.621.36-1.049-.61-2.14-2.728-3.069" stroke="#263238"/><path d="M10.558 40.242a.781.781 0 100-1.562.781.781 0 000 1.562zm29.676-9.38a.781.781 0 100-1.563.781.781 0 000 1.563zM29.308 7.43a.781.781 0 100-1.563.781.781 0 000 1.563z" stroke="#F57C00" stroke-linecap="round" stroke-linejoin="round"/><path d="M17.584 5.862h1.562M5.865 31.643v-1.562 1.562zm-.781-.781h1.562-1.562zm33.593 8.594v-1.563 1.563zm-.78-.782h1.562-1.563zM41.801 16.8v-1.562V16.8zm-.78-.78h1.562-1.563zM18.364 6.642V5.081v1.562z" stroke="#03A9F4" stroke-linecap="round" stroke-linejoin="round"/><path d="M43.813 24.616l1.105 1.105M10.219 11.658l1.105-1.105-1.105 1.105zm0-1.105l1.105 1.105-1.105-1.105zm33.594 15.168l1.105-1.105-1.105 1.105z" stroke="#F2F2F2" stroke-linecap="round" stroke-linejoin="round"/></g><defs><clipPath id="clip0"><path fill="#fff" d="M0 0h50v50H0z"/></clipPath></defs></svg>