<svg width="25" height="25" viewBox="0 0 25 25" fill="none" xmlns="http://www.w3.org/2000/svg">
<path d="M13.2264 2.8762L22.1233 11.7731C22.2239 11.8737 22.3522 11.9422 22.4918 11.9698C22.6314 11.9974 22.776 11.9829 22.9073 11.9281L24.5584 11.2391C24.6672 11.1937 24.7632 11.1222 24.8379 11.0309C24.9125 10.9396 24.9635 10.8313 24.9864 10.7156C25.0092 10.6 25.0033 10.4804 24.969 10.3676C24.9347 10.2548 24.8731 10.1521 24.7897 10.0687L14.9308 0.210132C14.8474 0.126816 14.7448 0.0653063 14.6321 0.0310307C14.5193 -0.00324493 14.3998 -0.00923184 14.2842 0.0135983C14.1685 0.0364285 14.0603 0.0873736 13.969 0.161937C13.8777 0.2365 13.8062 0.332389 13.7608 0.441138L13.0714 2.09218C13.0166 2.22356 13.002 2.36827 13.0296 2.50793C13.0572 2.64759 13.1257 2.77589 13.2264 2.87654V2.8762Z" fill="#DC8744"/>
<path d="M6.24159 8.59239L16.4079 18.7587C16.5085 18.8593 16.5769 18.9875 16.6045 19.1271C16.6321 19.2667 16.6176 19.4114 16.5629 19.5427L15.8735 21.1937C15.8281 21.3025 15.7566 21.3984 15.6653 21.473C15.5741 21.5476 15.4658 21.5986 15.3502 21.6215C15.2346 21.6443 15.1151 21.6384 15.0023 21.6041C14.8895 21.5699 14.7869 21.5084 14.7035 21.4251L3.57518 10.2971C3.4918 10.2137 3.43025 10.1111 3.39595 9.99824C3.36165 9.88541 3.35567 9.76587 3.37854 9.65019C3.40141 9.5345 3.45242 9.42623 3.52706 9.33493C3.6017 9.24364 3.69768 9.17213 3.80652 9.12674L5.45757 8.43772C5.58887 8.38292 5.73349 8.36836 5.87308 8.3959C6.01267 8.42344 6.14093 8.49183 6.24159 8.59239Z" fill="#FCD462"/>
<path d="M22.2449 11.8944L13.1057 2.75527L6.75504 9.10597L15.8942 18.2451L22.2449 11.8944Z" fill="#F6C358"/>
<path d="M0.761721 22.7155L3.24249e-05 25.0002L2.28476 24.2385L9.90063 16.6226L8.3776 15.0992L0.761721 22.7155Z" fill="#E1E6E9"/>
</svg>
