<svg xmlns="http://www.w3.org/2000/svg" viewBox="0 0 1200.04 1186.87"><defs><style>.cls-1{fill:#fff;}</style></defs><title>Logo-principal-blanco</title><g id="Capa_2" data-name="Capa 2"><g id="Capa_1-2" data-name="Capa 1"><path class="cls-1" d="M211.37,835.79h78.88v350.43H211.37V1037.55H78.88v148.67H0V835.79H78.88v134H211.37Z"/><path class="cls-1" d="M614.9,1045.64q0,31.36-9.1,57.4t-26.3,44.5a118.17,118.17,0,0,1-41.21,28.56q-24,10.13-53.85,10.12-29.35,0-53.36-10.12a118,118,0,0,1-41.2-28.56q-17.2-18.46-26.81-44.5t-9.61-57.4q0-31.34,9.87-57.14t27.31-44a122.65,122.65,0,0,1,41.46-28.32q24-10.11,52.34-10.11,28.82,0,52.84,10.11a120.27,120.27,0,0,1,41.21,28.32q17.18,18.21,26.8,44T614.9,1045.64Zm-76.86,0q0-34.88-13.91-54.87t-39.69-20q-25.79,0-40,20t-14.16,54.87q0,34.89,14.16,55.37t40,20.48q25.77,0,39.69-20.48T538,1045.64Z"/><path class="cls-1" d="M793,1186.57c-12.41.67-37.8,1-63.13-7.43-18.28-6.05-27.58-13.68-32.36-18.45a61,61,0,0,1-16.18-28.82,155.38,155.38,0,0,1-4.31-38.18V800.91l75.36.11v277.5a99.37,99.37,0,0,0,1.51,18.2,31.15,31.15,0,0,0,5.82,13.65q4.29,5.58,12.39,9.11t21.74,4.55Z"/><path class="cls-1" d="M943,843.38q0,20.75-13.4,32.62a48,48,0,0,1-63.21,0q-13.41-11.89-13.4-32.62t13.4-32.62a48,48,0,0,1,63.21,0Q942.95,822.64,943,843.38Zm-7.08,342.84H860.52v-266h75.35Z"/><path class="cls-1" d="M1087.27,1125q20.73,0,29.33-4t8.6-15.67q0-9.1-11.13-15.94T1080.19,1074a344.27,344.27,0,0,1-32.11-13.65,94.44,94.44,0,0,1-24.53-16.94,68.43,68.43,0,0,1-15.67-23.52q-5.58-13.65-5.56-32.87,0-37.4,27.8-59.16t76.37-21.74a246.07,246.07,0,0,1,46.51,4.29q22.24,4.3,35.41,9.36l-13.15,58.65a281,281,0,0,0-28.58-8.08,155.23,155.23,0,0,0-34.63-3.54q-35.4,0-35.4,19.72a20.2,20.2,0,0,0,1.52,8.09,17.25,17.25,0,0,0,6.06,6.83,85.31,85.31,0,0,0,12.39,7.1q7.85,3.84,20,8.42,24.76,9.17,41,18.1t25.54,19.26a59.62,59.62,0,0,1,13.14,23c2.53,8.4,3.8,18.17,3.8,29.25q0,39.38-29.59,59.55t-83.68,20.18q-35.4,0-58.92-6.06T995.24,1170l12.64-61.18a244.72,244.72,0,0,0,39.44,11.88A191.53,191.53,0,0,0,1087.27,1125Z"/><path class="cls-1" d="M865,141.65,636.49,9.74a73,73,0,0,0-72.84,0L335.16,141.66a73.07,73.07,0,0,0-36.42,63.08V468.58a73.1,73.1,0,0,0,36.42,63.09L563.65,663.59a73,73,0,0,0,72.84,0L768.7,587.26,886.8,693.61A8.5,8.5,0,0,0,901,687.29V474.84c.18-2.08.42-4.15.42-6.26V204.74A73.06,73.06,0,0,0,865,141.65ZM600.54,630.56a29.84,29.84,0,0,1-15.53-4L356.51,494.68a30.22,30.22,0,0,1-15.05-26.1s0-263,0-263.06l258.73,149C600.33,444.09,600.43,541,600.54,630.56Zm2-319.31-238-137.16L585,46.73a30.17,30.17,0,0,1,30.13,0L838.69,175.8Z"/></g></g></svg>