<svg width="170" height="76" viewBox="0 0 170 76" fill="none" xmlns="http://www.w3.org/2000/svg">
<path d="M33.6082 1.80377C34.7614 1.138 36.1821 1.138 37.3353 1.80377L63.3031 16.7963C64.4563 17.4621 65.1667 18.6925 65.1667 20.024V50.0091C65.1667 51.3407 64.4563 52.5711 63.3031 53.2368L37.3353 68.2294C36.1821 68.8952 34.7614 68.8952 33.6082 68.2294L7.64037 53.2368C6.48722 52.5711 5.77686 51.3407 5.77686 50.0091V20.024C5.77686 18.6925 6.48722 17.4621 7.64037 16.7963L33.6082 1.80377Z" fill="white"/>
<path d="M38.95 26.8624C41.7624 26.8624 43.9889 27.8172 45.6295 29.7269C47.2993 31.6072 48.1342 34.1632 48.1342 37.395V48.0788C48.1342 50.1371 46.4656 51.8058 44.4072 51.8058H43.2483C41.19 51.8058 39.5213 50.1371 39.5213 48.0788V38.5408C39.5213 37.1306 39.1551 36.0289 38.4227 35.2356C37.6903 34.413 36.7089 34.0016 35.4785 34.0016C34.1895 34.0016 33.1788 34.413 32.4464 35.2356C31.714 36.0289 31.3478 37.1306 31.3478 38.5408V48.0788C31.3478 50.1371 29.6792 51.8058 27.6208 51.8058H26.4619C24.4035 51.8058 22.7349 50.1371 22.7349 48.0788V22.9213C22.7349 20.8629 24.4035 19.1942 26.4619 19.1942H28.6559C30.1426 19.1942 31.3478 20.3995 31.3478 21.8862V26.4812C31.3478 27.7344 33.3139 28.5019 34.4239 27.92C35.7422 27.2149 37.2509 26.8624 38.95 26.8624Z" fill="url(#paint0_linear)"/>
<path d="M91.1467 39.946C91.1467 41.5403 90.9153 42.9803 90.4524 44.266C89.9895 45.5518 89.3338 46.6575 88.4853 47.5832C87.6624 48.5089 86.6724 49.2289 85.5153 49.7432C84.3581 50.2318 83.0981 50.476 81.7353 50.476C80.3724 50.476 79.1124 50.2318 77.9553 49.7432C76.7981 49.2289 75.7953 48.5089 74.9467 47.5832C74.1238 46.6575 73.481 45.5518 73.0181 44.266C72.5553 42.9803 72.3238 41.5403 72.3238 39.946C72.3238 38.3775 72.5553 36.9503 73.0181 35.6646C73.481 34.3532 74.1238 33.2346 74.9467 32.3089C75.7953 31.3832 76.7981 30.676 77.9553 30.1875C79.1124 29.6732 80.3724 29.416 81.7353 29.416C83.0981 29.416 84.3581 29.6732 85.5153 30.1875C86.6724 30.676 87.6624 31.3832 88.4853 32.3089C89.3338 33.2346 89.9895 34.3532 90.4524 35.6646C90.9153 36.9503 91.1467 38.3775 91.1467 39.946ZM87.4053 39.946C87.4053 37.6832 86.891 35.896 85.8624 34.5846C84.8595 33.2475 83.4838 32.5789 81.7353 32.5789C79.9867 32.5789 78.5981 33.2475 77.5695 34.5846C76.5667 35.896 76.0653 37.6832 76.0653 39.946C76.0653 42.2089 76.5667 44.0089 77.5695 45.346C78.5981 46.6575 79.9867 47.3132 81.7353 47.3132C83.4838 47.3132 84.8595 46.6575 85.8624 45.346C86.891 44.0089 87.4053 42.2089 87.4053 39.946ZM102.211 50.3603C99.9992 50.3089 98.4307 49.8332 97.5049 48.9332C96.5792 48.0332 96.1164 46.6318 96.1164 44.7289V20.6603L99.7035 20.0432V44.1503C99.7035 44.7418 99.7549 45.2303 99.8578 45.616C99.9607 46.0018 100.128 46.3103 100.359 46.5418C100.591 46.7732 100.899 46.9532 101.285 47.0818C101.671 47.1846 102.146 47.2746 102.712 47.3518L102.211 50.3603ZM110.328 49.9746H106.74V29.9175H110.328V49.9746ZM108.515 26.2918C107.872 26.2918 107.319 26.086 106.856 25.6746C106.419 25.2375 106.2 24.6589 106.2 23.9389C106.2 23.2189 106.419 22.6532 106.856 22.2418C107.319 21.8046 107.872 21.586 108.515 21.586C109.158 21.586 109.698 21.8046 110.135 22.2418C110.598 22.6532 110.829 23.2189 110.829 23.9389C110.829 24.6589 110.598 25.2375 110.135 25.6746C109.698 26.086 109.158 26.2918 108.515 26.2918ZM121.163 47.3903C122.629 47.3903 123.709 47.1975 124.403 46.8118C125.123 46.426 125.483 45.8089 125.483 44.9603C125.483 44.086 125.136 43.3918 124.442 42.8775C123.748 42.3632 122.603 41.7846 121.009 41.1418C120.238 40.8332 119.492 40.5246 118.772 40.216C118.078 39.8818 117.473 39.496 116.959 39.0589C116.445 38.6218 116.033 38.0946 115.725 37.4775C115.416 36.8603 115.262 36.1018 115.262 35.2018C115.262 33.4275 115.918 32.026 117.229 30.9975C118.541 29.9432 120.328 29.416 122.591 29.416C123.156 29.416 123.722 29.4546 124.288 29.5318C124.853 29.5832 125.381 29.6603 125.869 29.7632C126.358 29.8403 126.782 29.9303 127.142 30.0332C127.528 30.136 127.823 30.226 128.029 30.3032L127.373 33.3889C126.988 33.1832 126.383 32.9775 125.561 32.7718C124.738 32.5403 123.748 32.4246 122.591 32.4246C121.588 32.4246 120.713 32.6303 119.968 33.0418C119.222 33.4275 118.849 34.0446 118.849 34.8932C118.849 35.3303 118.926 35.716 119.081 36.0503C119.261 36.3846 119.518 36.6932 119.852 36.976C120.212 37.2332 120.649 37.4775 121.163 37.7089C121.678 37.9403 122.295 38.1846 123.015 38.4418C123.966 38.8018 124.815 39.1618 125.561 39.5218C126.306 39.856 126.936 40.2546 127.451 40.7175C127.991 41.1803 128.402 41.746 128.685 42.4146C128.968 43.0575 129.109 43.8546 129.109 44.806C129.109 46.6575 128.415 48.0589 127.026 49.0103C125.663 49.9618 123.709 50.4375 121.163 50.4375C119.389 50.4375 118.001 50.2832 116.998 49.9746C115.995 49.6918 115.313 49.4732 114.953 49.3189L115.609 46.2332C116.021 46.3875 116.676 46.6189 117.576 46.9275C118.476 47.236 119.672 47.3903 121.163 47.3903Z" fill="white"/>
<defs>
<linearGradient id="paint0_linear" x1="-42.1565" y1="-146.761" x2="117.603" y2="-131.245" gradientUnits="userSpaceOnUse">
<stop stop-color="#9B51E0"/>
<stop offset="1" stop-color="#2F80ED"/>
</linearGradient>
</defs>
</svg>
