<svg width="25" height="25" viewBox="0 0 25 25" fill="none" xmlns="http://www.w3.org/2000/svg">
<path d="M16.6667 6.25V17.7083C16.6667 20.0002 14.7919 21.875 12.5 21.875C10.2082 21.875 8.33336 20.0002 8.33336 17.7083V5.7292C8.33336 4.27095 9.47926 3.125 10.9375 3.125C12.3957 3.125 13.5417 4.27095 13.5417 5.7292V17.7083C13.5417 18.2811 13.0727 18.75 12.5 18.75C11.9273 18.75 11.4583 18.2811 11.4583 17.7083V7.8125H9.89581V17.7083C9.89586 19.1666 11.0418 20.3125 12.5 20.3125C13.9583 20.3125 15.1042 19.1666 15.1042 17.7083V5.7292C15.1042 3.43755 13.2294 1.5625 10.9375 1.5625C8.64562 1.5625 6.77081 3.43755 6.77081 5.7292V17.7083C6.77086 20.8852 9.32316 23.4375 12.5 23.4375C15.6769 23.4375 18.2292 20.8852 18.2292 17.7083V6.25H16.6667Z" fill="#4F4F4F"/>
</svg>
