<svg width="25" height="25" viewBox="0 0 25 25" fill="none" xmlns="http://www.w3.org/2000/svg">
<path d="M20.2735 19.6484C20.2735 19.6094 20.2344 19.5703 20.2344 19.5703L19.4141 18.5547C19.375 18.4375 19.375 18.3594 19.375 18.2031L18.8672 9.21875C18.6719 6.91406 16.7969 5.07813 14.5313 5.07813H14.0625C14.2969 4.76563 14.4531 4.33594 14.4531 3.90625C14.4531 2.8125 13.5938 1.95312 12.5 1.95312C11.4063 1.95312 10.5469 2.8125 10.5469 3.90625C10.5469 4.33594 10.7031 4.76563 10.9375 5.07813H10.4688C8.20314 5.07813 6.32814 6.91406 6.17189 9.21875L5.66408 18.2031C5.66408 18.3203 5.66408 18.3984 5.62502 18.5156L4.8047 19.5313C4.76564 19.5703 4.76564 19.6094 4.76564 19.6094C4.68752 19.8438 4.68752 20.1172 4.84377 20.3125C5.00002 20.5469 5.23439 20.6641 5.54689 20.6641H9.84377C10.0391 21.9922 11.1719 23.0078 12.5391 23.0078C13.9063 23.0078 15.0391 21.9922 15.2344 20.6641H19.5313C19.8047 20.6641 20.0781 20.5469 20.2344 20.3125C20.3125 20.1172 20.3516 19.8828 20.2735 19.6484ZM11.3281 3.90625C11.3281 3.24219 11.836 2.73438 12.5 2.73438C13.1641 2.73438 13.6719 3.24219 13.6719 3.90625C13.6719 4.57031 13.1641 5.07813 12.5 5.07813C11.836 5.07813 11.3281 4.57031 11.3281 3.90625ZM12.5 22.2656C11.5625 22.2656 10.7813 21.6016 10.586 20.7031H14.4141C14.2188 21.6016 13.4375 22.2656 12.5 22.2656ZM19.4922 19.9219H14.8438C14.8438 19.9219 14.8438 19.9219 14.8047 19.9219C14.8047 19.9219 14.8047 19.9219 14.7656 19.9219H10.1563H10.1172H10.0781H5.46877L6.25002 18.9453C6.28908 18.9063 6.28908 18.8672 6.28908 18.8672C6.3672 18.6719 6.40627 18.4375 6.40627 18.2422L6.91408 9.25781C7.03127 7.34375 8.5547 5.85938 10.4297 5.85938H14.4531C16.3281 5.85938 17.8516 7.34375 17.9688 9.25781L18.4766 18.2031C18.4766 18.4375 18.5156 18.6719 18.5938 18.8672C18.5938 18.9063 18.6328 18.9453 18.6328 18.9453L19.4922 19.9219Z" fill="#231F20"/>
</svg>
