<svg width="25" height="25" viewBox="0 0 25 25" fill="none" xmlns="http://www.w3.org/2000/svg">
<path d="M23.8281 17.5781C23.9317 17.5781 24.0311 17.537 24.1043 17.4637C24.1776 17.3905 24.2188 17.2911 24.2188 17.1875V15.625C24.2188 15.5214 24.1776 15.422 24.1043 15.3488C24.0311 15.2755 23.9317 15.2344 23.8281 15.2344H22.6562V1.17188C22.6562 1.06827 22.6151 0.968918 22.5418 0.895661C22.4686 0.822405 22.3692 0.78125 22.2656 0.78125H2.73438C2.63077 0.78125 2.53142 0.822405 2.45816 0.895661C2.38491 0.968918 2.34375 1.06827 2.34375 1.17188V15.2344H1.17188C1.06827 15.2344 0.968918 15.2755 0.895661 15.3488C0.822405 15.422 0.78125 15.5214 0.78125 15.625V17.1875C0.78125 17.2911 0.822405 17.3905 0.895661 17.4637C0.968918 17.537 1.06827 17.5781 1.17188 17.5781H5.72773L4.00469 23.4375H0.78125V24.2188H24.2188V23.4375H20.9953L19.2723 17.5781H23.8281ZM3.125 1.5625H21.875V15.2344H5.46875C5.57235 15.2344 5.67171 15.1932 5.74496 15.12C5.81822 15.0467 5.85938 14.9474 5.85938 14.8438V11.7188C5.85938 11.6151 5.81822 11.5158 5.74496 11.4425C5.67171 11.3693 5.57235 11.3281 5.46875 11.3281H4.29688C4.19327 11.3281 4.09392 11.3693 4.02066 11.4425C3.94741 11.5158 3.90625 11.6151 3.90625 11.7188V14.8438C3.90625 14.9474 3.94741 15.0467 4.02066 15.12C4.09392 15.1932 4.19327 15.2344 4.29688 15.2344H3.125V1.5625ZM4.6875 14.4531V12.1094H5.07812V14.4531H4.6875ZM1.5625 16.0156H23.4375V16.7969H1.5625V16.0156ZM16.8953 17.5781L18.6184 23.4375H6.38164L8.10469 17.5781H16.8953ZM4.81875 23.4375L6.54219 17.5781H7.29062L5.56719 23.4375H4.81875ZM20.1813 23.4375H19.4328L17.7094 17.5781H18.4578L20.1813 23.4375Z" fill="#4F4F4F"/>
<path d="M19.1406 4.29688H8.20312V5.07812H19.1406V4.29688Z" fill="#4F4F4F"/>
<path d="M19.1406 7.42188H5.85938V8.20312H19.1406V7.42188Z" fill="#4F4F4F"/>
<path d="M19.1406 10.5469H5.85938V11.3281H19.1406V10.5469Z" fill="#4F4F4F"/>
<path d="M7.42188 4.29688H5.85938V5.07812H7.42188V4.29688Z" fill="#4F4F4F"/>
</svg>
