<svg width="25" height="25" viewBox="0 0 25 25" fill="none" xmlns="http://www.w3.org/2000/svg">
<g clip-path="url(#clip0)">
<path d="M23.0469 9.77795V19.9576C23.0469 20.3707 22.685 20.7032 22.2356 20.7032H2.76443C2.31497 20.7032 1.95312 20.3707 1.95312 19.9576M22.6562 6.64075H1.95312H22.6562ZM22.6562 11.3282H13.2812H22.6562ZM9.73653 11.3282H1.95312H9.73653ZM22.6562 16.0157H18.3855H22.6562ZM15.1745 16.0157H1.95312H15.1745ZM6.64062 4.68762V20.3126V4.68762ZM11.3281 4.68762V9.37512V4.68762ZM11.3281 13.2814V20.3126V13.2814ZM16.0156 4.68762V14.0626V4.68762ZM16.0156 17.5294V20.3126V17.5294ZM20.7031 4.68762V20.3126V4.68762ZM1.95312 16.9313V5.04268C1.95312 4.62955 2.31497 4.297 2.76443 4.297H22.2356C22.685 4.297 23.0469 4.62955 23.0469 5.04268V6.66516L1.95312 16.9313Z" stroke="#4F4F4F" stroke-linecap="round" stroke-linejoin="round"/>
<path d="M17.4962 14.5363L21.875 9.37512M4.27246 17.6028C6.50294 15.3723 8.1511 13.724 9.82666 12.0485L4.27246 17.6028ZM12.8892 11.2689L16.1037 14.5363L12.8892 11.2689Z" stroke="#4F4F4F" stroke-linecap="round" stroke-linejoin="round"/>
<path d="M2.73438 19.9219C3.59732 19.9219 4.29688 19.2223 4.29688 18.3594C4.29688 17.4964 3.59732 16.7969 2.73438 16.7969C1.87143 16.7969 1.17188 17.4964 1.17188 18.3594C1.17188 19.2223 1.87143 19.9219 2.73438 19.9219Z" stroke="#4F4F4F" stroke-linecap="round" stroke-linejoin="round"/>
<path d="M11.3281 12.8906C12.1911 12.8906 12.8906 12.1911 12.8906 11.3281C12.8906 10.4652 12.1911 9.76562 11.3281 9.76562C10.4652 9.76562 9.76562 10.4652 9.76562 11.3281C9.76562 12.1911 10.4652 12.8906 11.3281 12.8906Z" stroke="#4F4F4F" stroke-linecap="round" stroke-linejoin="round"/>
<path d="M16.7969 17.5781C17.6598 17.5781 18.3594 16.8786 18.3594 16.0156C18.3594 15.1527 17.6598 14.4531 16.7969 14.4531C15.9339 14.4531 15.2344 15.1527 15.2344 16.0156C15.2344 16.8786 15.9339 17.5781 16.7969 17.5781Z" stroke="#4F4F4F" stroke-linecap="round" stroke-linejoin="round"/>
<path d="M23.0469 9.76562C23.9098 9.76562 24.6094 9.06607 24.6094 8.20312C24.6094 7.34018 23.9098 6.64062 23.0469 6.64062C22.1839 6.64062 21.4844 7.34018 21.4844 8.20312C21.4844 9.06607 22.1839 9.76562 23.0469 9.76562Z" stroke="#4F4F4F" stroke-linecap="round" stroke-linejoin="round"/>
</g>
<defs>
<clipPath id="clip0">
<rect width="25" height="25" fill="white"/>
</clipPath>
</defs>
</svg>
