<svg width="18" height="18" viewBox="0 0 18 18" fill="none" xmlns="http://www.w3.org/2000/svg">
<path d="M2.625 10.125H3.375V9C3.375 5.89837 5.89837 3.375 9 3.375C12.1016 3.375 14.625 5.89837 14.625 9V10.125H15.375V9C15.375 5.48475 12.5152 2.625 9 2.625C5.48475 2.625 2.625 5.48475 2.625 9V10.125Z" fill="#4F4F4F"/>
<path d="M16.125 15.375C17.1589 15.375 18 14.5339 18 13.5C18 12.4661 17.1589 11.625 16.125 11.625V12.375C16.7453 12.375 17.25 12.8798 17.25 13.5C17.25 14.1203 16.7453 14.625 16.125 14.625V15.375Z" fill="#4F4F4F"/>
<path d="M14.25 17.25H15C15.8272 17.25 16.5 16.5772 16.5 15.75V11.25C16.5 10.4227 15.8272 9.75 15 9.75H14.25C13.4227 9.75 12.75 10.4227 12.75 11.25V15.75C12.75 16.5772 13.4227 17.25 14.25 17.25ZM15 10.5C15.4136 10.5 15.75 10.8364 15.75 11.25V15.75C15.75 16.1636 15.4136 16.5 15 16.5H14.25C13.8364 16.5 13.5 16.1636 13.5 15.75V11.25C13.5 10.8364 13.8364 10.5 14.25 10.5H15Z" fill="#4F4F4F"/>
<path d="M1.875 15.375V14.625C1.25475 14.625 0.75 14.1203 0.75 13.5C0.75 12.8798 1.25475 12.375 1.875 12.375V11.625C0.841125 11.625 0 12.4661 0 13.5C0 14.5339 0.841125 15.375 1.875 15.375Z" fill="#4F4F4F"/>
<path d="M3.375 17.25C4.40887 17.25 5.25 16.4089 5.25 15.375V11.625C5.25 10.5911 4.40887 9.75 3.375 9.75C2.34112 9.75 1.5 10.5911 1.5 11.625V15.375C1.5 16.4089 2.34112 17.25 3.375 17.25ZM3.375 10.5C3.99525 10.5 4.5 11.0047 4.5 11.625V15.375C4.5 15.9952 3.99525 16.5 3.375 16.5C2.75475 16.5 2.25 15.9952 2.25 15.375V11.625C2.25 11.0047 2.75475 10.5 3.375 10.5Z" fill="#4F4F4F"/>
</svg>
