<svg width="25" height="25" viewBox="0 0 25 25" fill="none" xmlns="http://www.w3.org/2000/svg">
<path fill-rule="evenodd" clip-rule="evenodd" d="M23.2891 12.3495C23.0906 12.5484 22.7682 12.5484 22.5698 12.3495L17.9141 7.69425C17.8807 7.66769 17.8521 7.63905 17.8255 7.60519L15.8307 5.61092C15.7974 5.58436 15.7687 5.55571 15.7422 5.52186L12.5 2.27967L2.43072 12.3495C2.23228 12.5484 1.90989 12.5484 1.71145 12.3495C1.51301 12.151 1.51301 11.8286 1.71145 11.6302L12.0786 1.263C12.0948 1.23853 12.1062 1.2104 12.1276 1.188C12.2302 1.08592 12.3656 1.03853 12.5 1.04165C12.6344 1.03853 12.7698 1.0854 12.8724 1.188C12.8948 1.20988 12.9047 1.238 12.9224 1.263L15.625 3.96665V2.60259C15.625 2.31509 15.8578 2.08175 16.1458 2.08175H18.2292C18.3734 2.08175 18.5036 2.14009 18.5974 2.23436C18.6922 2.32863 18.75 2.45884 18.75 2.60259V7.09165L23.2891 11.6302C23.4875 11.8286 23.4875 12.151 23.2891 12.3495ZM17.7083 3.12342H16.6667V5.00832L17.7083 6.04998V3.12342ZM5.20833 11.4568C5.49583 11.4568 5.72916 11.6901 5.72916 11.9776V21.8734C5.72916 22.4489 6.19583 22.9151 6.77083 22.9151H9.89582V16.1443C9.89582 15.8562 10.1286 15.6234 10.4167 15.6234H14.5833C14.8713 15.6234 15.1042 15.8562 15.1042 16.1443V22.9151H18.2292C18.8047 22.9151 19.2708 22.4489 19.2708 21.8734V11.9776C19.2708 11.6901 19.5036 11.4568 19.7917 11.4568C20.0797 11.4568 20.3125 11.6901 20.3125 11.9776V21.8734C20.3125 23.0239 19.3797 23.9568 18.2292 23.9568H6.77083C5.6203 23.9568 4.68749 23.0239 4.68749 21.8734V11.9776C4.68749 11.6896 4.92083 11.4568 5.20833 11.4568ZM14.0625 22.9146V16.6646H10.9375V22.9146H14.0625Z" fill="black"/>
</svg>
