<svg width="18" height="18" viewBox="0 0 18 18" fill="none" xmlns="http://www.w3.org/2000/svg">
<path d="M8.74512 14.25C11.4331 14.25 13.6201 12.063 13.6201 9.375V4.875C13.6201 2.187 11.4331 0 8.74512 0C6.05712 0 3.87012 2.187 3.87012 4.875V9.375C3.87012 12.063 6.05712 14.25 8.74512 14.25ZM8.74512 0.75C11.0195 0.75 12.8701 2.60062 12.8701 4.875V9.375C12.8701 11.6494 11.0195 13.5 8.74512 13.5C6.47074 13.5 4.62012 11.6494 4.62012 9.375V4.875C4.62012 2.60062 6.47074 0.75 8.74512 0.75Z" fill="#4F4F4F"/>
<path d="M8.74512 15.75C12.3196 15.75 15.1201 12.9499 15.1201 9.375V7.875C15.1201 7.77554 15.0806 7.68016 15.0103 7.60983C14.94 7.53951 14.8446 7.5 14.7451 7.5C14.6457 7.5 14.5503 7.53951 14.48 7.60983C14.4096 7.68016 14.3701 7.77554 14.3701 7.875V9.375C14.3701 12.5291 11.8992 15 8.74512 15C5.59099 15 3.12012 12.5291 3.12012 9.375V7.875C3.12012 7.77554 3.08061 7.68016 3.01028 7.60983C2.93996 7.53951 2.84457 7.5 2.74512 7.5C2.64566 7.5 2.55028 7.53951 2.47995 7.60983C2.40963 7.68016 2.37012 7.77554 2.37012 7.875V9.375C2.37012 12.9499 5.17062 15.75 8.74512 15.75Z" fill="#4F4F4F"/>
<path d="M9.12012 15.375H8.37012V18H9.12012V15.375Z" fill="#4F4F4F"/>
<path d="M8.74512 3C8.84457 3 8.93996 2.96049 9.01028 2.89016C9.08061 2.81984 9.12012 2.72446 9.12012 2.625V0.375C9.12012 0.275544 9.08061 0.180161 9.01028 0.109835C8.93996 0.0395088 8.84457 0 8.74512 0C8.64566 0 8.55028 0.0395088 8.47995 0.109835C8.40963 0.180161 8.37012 0.275544 8.37012 0.375V2.625C8.37012 2.72446 8.40963 2.81984 8.47995 2.89016C8.55028 2.96049 8.64566 3 8.74512 3Z" fill="#4F4F4F"/>
<path d="M7.24512 2.99998C7.34457 2.99998 7.43996 2.96047 7.51028 2.89014C7.58061 2.81982 7.62012 2.72443 7.62012 2.62498V0.631103C7.62012 0.531647 7.58061 0.436265 7.51028 0.365938C7.43996 0.295612 7.34457 0.256104 7.24512 0.256104C7.14566 0.256104 7.05028 0.295612 6.97995 0.365938C6.90962 0.436265 6.87012 0.531647 6.87012 0.631103V2.62498C6.87012 2.72443 6.90962 2.81982 6.97995 2.89014C7.05028 2.96047 7.14566 2.99998 7.24512 2.99998Z" fill="#4F4F4F"/>
<path d="M10.2451 2.99998C10.3446 2.99998 10.44 2.96047 10.5103 2.89014C10.5806 2.81982 10.6201 2.72443 10.6201 2.62498V0.631103C10.6201 0.531647 10.5806 0.436265 10.5103 0.365938C10.44 0.295612 10.3446 0.256104 10.2451 0.256104C10.1457 0.256104 10.0503 0.295612 9.97995 0.365938C9.90963 0.436265 9.87012 0.531647 9.87012 0.631103V2.62498C9.87012 2.72443 9.90963 2.81982 9.97995 2.89014C10.0503 2.96047 10.1457 2.99998 10.2451 2.99998Z" fill="#4F4F4F"/>
<path d="M14.7451 9H2.74512V9.75H14.7451V9Z" fill="#4F4F4F"/>
<path d="M10.2451 5.25H13.2451C13.3446 5.25 13.44 5.21049 13.5103 5.14016C13.5806 5.06984 13.6201 4.97446 13.6201 4.875C13.6201 4.77554 13.5806 4.68016 13.5103 4.60984C13.44 4.53951 13.3446 4.5 13.2451 4.5H10.2451C10.1457 4.5 10.0503 4.53951 9.97995 4.60984C9.90963 4.68016 9.87012 4.77554 9.87012 4.875C9.87012 4.97446 9.90963 5.06984 9.97995 5.14016C10.0503 5.21049 10.1457 5.25 10.2451 5.25Z" fill="#4F4F4F"/>
<path d="M10.2451 6.75H13.2451C13.3446 6.75 13.44 6.71049 13.5103 6.64017C13.5806 6.56984 13.6201 6.47446 13.6201 6.375C13.6201 6.27554 13.5806 6.18016 13.5103 6.10983C13.44 6.03951 13.3446 6 13.2451 6H10.2451C10.1457 6 10.0503 6.03951 9.97995 6.10983C9.90963 6.18016 9.87012 6.27554 9.87012 6.375C9.87012 6.47446 9.90963 6.56984 9.97995 6.64017C10.0503 6.71049 10.1457 6.75 10.2451 6.75Z" fill="#4F4F4F"/>
<path d="M4.24512 5.25H7.24512C7.34457 5.25 7.43996 5.21049 7.51028 5.14016C7.58061 5.06984 7.62012 4.97446 7.62012 4.875C7.62012 4.77554 7.58061 4.68016 7.51028 4.60984C7.43996 4.53951 7.34457 4.5 7.24512 4.5H4.24512C4.14566 4.5 4.05028 4.53951 3.97995 4.60984C3.90963 4.68016 3.87012 4.77554 3.87012 4.875C3.87012 4.97446 3.90963 5.06984 3.97995 5.14016C4.05028 5.21049 4.14566 5.25 4.24512 5.25Z" fill="#4F4F4F"/>
<path d="M4.24512 6.75H7.24512C7.34457 6.75 7.43996 6.71049 7.51028 6.64017C7.58061 6.56984 7.62012 6.47446 7.62012 6.375C7.62012 6.27554 7.58061 6.18016 7.51028 6.10983C7.43996 6.03951 7.34457 6 7.24512 6H4.24512C4.14566 6 4.05028 6.03951 3.97995 6.10983C3.90963 6.18016 3.87012 6.27554 3.87012 6.375C3.87012 6.47446 3.90963 6.56984 3.97995 6.64017C4.05028 6.71049 4.14566 6.75 4.24512 6.75Z" fill="#4F4F4F"/>
<path d="M10.2451 8.25H13.2451C13.3446 8.25 13.44 8.21049 13.5103 8.14016C13.5806 8.06984 13.6201 7.97446 13.6201 7.875C13.6201 7.77554 13.5806 7.68016 13.5103 7.60983C13.44 7.53951 13.3446 7.5 13.2451 7.5H10.2451C10.1457 7.5 10.0503 7.53951 9.97995 7.60983C9.90963 7.68016 9.87012 7.77554 9.87012 7.875C9.87012 7.97446 9.90963 8.06984 9.97995 8.14016C10.0503 8.21049 10.1457 8.25 10.2451 8.25Z" fill="#4F4F4F"/>
<path d="M4.24512 8.25H7.24512C7.34457 8.25 7.43996 8.21049 7.51028 8.14016C7.58061 8.06984 7.62012 7.97446 7.62012 7.875C7.62012 7.77554 7.58061 7.68016 7.51028 7.60983C7.43996 7.53951 7.34457 7.5 7.24512 7.5H4.24512C4.14566 7.5 4.05028 7.53951 3.97995 7.60983C3.90963 7.68016 3.87012 7.77554 3.87012 7.875C3.87012 7.97446 3.90963 8.06984 3.97995 8.14016C4.05028 8.21049 4.14566 8.25 4.24512 8.25Z" fill="#4F4F4F"/>
</svg>
