<svg width="18" height="18" viewBox="0 0 18 18" fill="none" xmlns="http://www.w3.org/2000/svg">
<path d="M8.25 18H9.75C10.3703 18 10.875 17.4953 10.875 16.875V15.4785C11.3551 15.3397 11.8181 15.1477 12.2554 14.9059L13.2431 15.894C13.6684 16.3193 14.409 16.3185 14.8342 15.894L15.8951 14.8335C16.1078 14.6213 16.2247 14.3385 16.2247 14.0381C16.2247 13.7378 16.1078 13.455 15.8951 13.2428L14.907 12.2543C15.1488 11.8173 15.3406 11.3545 15.4789 10.8746H16.875C17.4952 10.8746 18 10.3699 18 9.74963V8.24963C18 7.94888 17.883 7.6665 17.6707 7.45425C17.5665 7.34947 17.4424 7.26638 17.3059 7.20981C17.1693 7.15323 17.0228 7.12428 16.875 7.12463H15.4785C15.3398 6.64538 15.1485 6.183 14.9062 5.745L15.894 4.75688C16.1047 4.54581 16.2231 4.25975 16.2231 3.9615C16.2231 3.66325 16.1047 3.37719 15.894 3.16612L14.8335 2.10525C14.4086 1.68075 13.6676 1.68 13.2424 2.10525L12.2543 3.09337C11.8173 2.85189 11.3546 2.66007 10.875 2.5215V1.125C10.875 0.50475 10.3703 0 9.75 0H8.25C7.62975 0 7.125 0.50475 7.125 1.125V2.5215C6.645 2.66025 6.183 2.85187 5.74575 3.09337L4.75763 2.10525C4.33238 1.68075 3.59175 1.68 3.1665 2.10525L2.10563 3.16575C1.893 3.378 1.776 3.66075 1.776 3.96112C1.776 4.2615 1.893 4.54425 2.10563 4.7565L3.09338 5.74463C2.85148 6.18171 2.65952 6.64462 2.52112 7.12463H1.125C0.504749 7.12463 0 7.62937 0 8.24963V9.74963C0 10.0504 0.116999 10.3328 0.32925 10.545C0.5415 10.7572 0.824249 10.8746 1.125 10.8746H2.5215C2.66016 11.3545 2.8521 11.8174 3.09375 12.2546L2.106 13.2428C1.89528 13.4538 1.77693 13.7399 1.77693 14.0381C1.77693 14.3364 1.89528 14.6224 2.106 14.8335L3.1665 15.8944C3.59175 16.3193 4.33238 16.3193 4.75763 15.8944L5.745 14.9062C6.18209 15.1479 6.64485 15.3398 7.12463 15.4785V16.875C7.12512 17.1733 7.24386 17.4592 7.45481 17.6701C7.66576 17.881 7.95172 17.9996 8.25 18ZM12.3161 14.0618C12.249 14.0618 12.1811 14.0798 12.1207 14.1165C11.5916 14.4405 11.015 14.6797 10.4119 14.8256C10.3301 14.8454 10.2574 14.8921 10.2053 14.9582C10.1533 15.0243 10.125 15.106 10.125 15.1901V16.875C10.125 17.082 9.95662 17.25 9.75 17.25H8.25C8.04338 17.25 7.875 17.082 7.875 16.875V15.1901C7.875 15.106 7.84671 15.0243 7.79468 14.9582C7.74265 14.8921 7.6699 14.8454 7.58813 14.8256C6.98518 14.6798 6.40872 14.4407 5.87963 14.1169C5.73112 14.0265 5.54138 14.0494 5.41875 14.1716L4.227 15.3638C4.08637 15.504 3.83737 15.5048 3.69637 15.3638L2.63587 14.3029C2.56557 14.2326 2.52608 14.1372 2.52608 14.0377C2.52608 13.9383 2.56557 13.8429 2.63587 13.7726L3.828 12.5805C3.88753 12.521 3.92531 12.4432 3.93524 12.3596C3.94517 12.276 3.92668 12.1914 3.88275 12.1196C3.55898 11.5905 3.31996 11.0141 3.17438 10.4111C3.15468 10.3293 3.10801 10.2564 3.0419 10.2043C2.97578 10.1522 2.89406 10.1239 2.80988 10.1239H1.125C1.07576 10.1241 1.02697 10.1145 0.981434 10.0958C0.935896 10.0771 0.89451 10.0495 0.859659 10.0147C0.824806 9.97997 0.797176 9.93863 0.778357 9.89314C0.759537 9.84764 0.749901 9.79886 0.75 9.74963V8.24963C0.75 8.04263 0.918375 7.87463 1.125 7.87463H2.80988C2.89407 7.87467 2.97583 7.84635 3.04196 7.79424C3.10809 7.74212 3.15474 7.66925 3.17438 7.58737C3.3199 6.9844 3.55892 6.40792 3.88275 5.87887C3.92668 5.80706 3.94517 5.72255 3.93524 5.63895C3.92531 5.55535 3.88753 5.47752 3.828 5.418L2.63587 4.22587C2.56612 4.15575 2.526 4.05938 2.526 3.96075C2.526 3.86213 2.56612 3.76537 2.63587 3.69562L3.69675 2.63512C3.76833 2.56709 3.86331 2.52916 3.96206 2.52916C4.06081 2.52916 4.15579 2.56709 4.22738 2.63512L5.4195 3.82725C5.47885 3.88708 5.5567 3.92506 5.64039 3.935C5.72407 3.94494 5.80866 3.92626 5.88037 3.882C6.40923 3.55832 6.98544 3.31931 7.58813 3.17362C7.66987 3.15407 7.74264 3.10753 7.79469 3.04154C7.84674 2.97554 7.87503 2.89393 7.875 2.80988V1.125C7.875 0.918 8.04338 0.75 8.25 0.75H9.75C9.95662 0.75 10.125 0.918 10.125 1.125V2.80988C10.125 2.894 10.1533 2.97569 10.2053 3.0418C10.2574 3.10791 10.3301 3.1546 10.4119 3.17438C11.0148 3.32004 11.5913 3.55905 12.1204 3.88275C12.1921 3.92672 12.2766 3.94523 12.3601 3.9353C12.4437 3.92536 12.5214 3.88756 12.5809 3.828L13.773 2.63587C13.8446 2.56784 13.9396 2.52991 14.0383 2.52991C14.1371 2.52991 14.232 2.56784 14.3036 2.63587L15.3637 3.69638C15.4341 3.7667 15.4735 3.86206 15.4735 3.9615C15.4735 4.06094 15.4341 4.1563 15.3637 4.22662L14.1716 5.41875C14.1121 5.47827 14.0743 5.5561 14.0644 5.6397C14.0545 5.7233 14.0729 5.80781 14.1169 5.87962C14.4406 6.40857 14.6796 6.98492 14.8253 7.58775C14.8449 7.66959 14.8916 7.74243 14.9577 7.79453C15.0238 7.84664 15.1056 7.87498 15.1897 7.875H16.875C16.9243 7.8748 16.9731 7.88435 17.0187 7.90311C17.0642 7.92186 17.1056 7.94944 17.1405 7.98426C17.1753 8.01908 17.203 8.06046 17.2218 8.106C17.2405 8.15154 17.2501 8.20036 17.25 8.24963V9.74963C17.25 9.95662 17.0816 10.1246 16.875 10.1246H15.1901C15.0169 10.1246 14.8661 10.2431 14.8256 10.4119C14.68 11.0147 14.441 11.591 14.1172 12.12C14.0733 12.1918 14.0548 12.2763 14.0648 12.3599C14.0747 12.4435 14.1125 12.5214 14.172 12.5809L15.3641 13.7734C15.4339 13.8435 15.474 13.9399 15.474 14.0385C15.474 14.1371 15.4339 14.2339 15.3641 14.3036L14.3033 15.3641C14.2317 15.4322 14.1367 15.4701 14.0379 15.4701C13.9392 15.4701 13.8442 15.4322 13.7726 15.3641L12.5809 14.172C12.5463 14.137 12.505 14.1092 12.4596 14.0903C12.4141 14.0714 12.3654 14.0617 12.3161 14.0618Z" fill="#4F4F4F"/>
<path d="M9 12.75C11.0677 12.75 12.75 11.0677 12.75 9C12.75 6.93225 11.0677 5.25 9 5.25C6.93225 5.25 5.25 6.93225 5.25 9C5.25 11.0677 6.93187 12.75 9 12.75ZM9 6C10.6541 6 12 7.34587 12 9C12 10.6541 10.6541 12 9 12C7.34587 12 6 10.6541 6 9C6 7.34587 7.3455 6 9 6Z" fill="#4F4F4F"/>
</svg>
