<svg width="25" height="25" viewBox="0 0 25 25" fill="none" xmlns="http://www.w3.org/2000/svg">
<path d="M18.3014 23.9295C17.9174 23.9294 17.5393 23.8346 17.2007 23.6534L12.5003 21.1232L7.80139 23.6527C7.03959 24.059 6.08473 24.0041 5.38334 23.5232C4.66285 23.0267 4.29098 22.158 4.43507 21.309L5.35556 15.8097L1.38334 11.843C0.77292 11.2354 0.566323 10.3541 0.844795 9.54337C1.12188 8.7399 1.82292 8.16212 2.675 8.03573L8.07848 7.23261L10.4254 2.36004C10.8035 1.5767 11.6181 1.0708 12.5003 1.0708C13.3833 1.0708 14.1976 1.57705 14.5747 2.36004L16.9222 7.23261L22.325 8.03608C23.1764 8.16212 23.8781 8.7392 24.1556 9.54233C24.2924 9.93751 24.3146 10.3634 24.2194 10.7706C24.1242 11.1779 23.9156 11.5498 23.6177 11.8434L19.6441 15.8097L20.5656 21.3097C20.7083 22.1586 20.3365 23.0274 19.6181 23.5225C19.2304 23.7881 18.7713 23.9299 18.3014 23.9295ZM12.5003 19.6399C12.6135 19.6399 12.7267 19.6677 12.8295 19.7225L17.8573 22.4291C18.0096 22.5086 18.1804 22.5457 18.3519 22.5366C18.5235 22.5274 18.6894 22.4723 18.8323 22.377C19.1104 22.1857 19.2503 21.8642 19.1958 21.5396L18.2153 15.6861C18.1971 15.5768 18.2052 15.4648 18.239 15.3594C18.2728 15.2539 18.3314 15.1581 18.4097 15.0798L22.6368 10.86C22.7494 10.7498 22.8284 10.6099 22.8647 10.4566C22.9011 10.3032 22.8932 10.1428 22.842 9.99372C22.7351 9.68434 22.4587 9.45969 22.1212 9.40969L16.3542 8.55205C16.2421 8.53544 16.1357 8.49163 16.0444 8.42444C15.9532 8.35726 15.8797 8.26874 15.8306 8.16663L13.3233 2.96281C13.176 2.65691 12.8531 2.45969 12.5003 2.45969C12.1476 2.45969 11.8243 2.65726 11.676 2.96316L9.17014 8.16663C9.12096 8.26874 9.04753 8.35726 8.95626 8.42444C8.86498 8.49163 8.75864 8.53544 8.64653 8.55205L2.87917 9.40969C2.54653 9.45934 2.26389 9.68886 2.15799 9.99545C2.05382 10.2986 2.13299 10.6298 2.36389 10.8597L6.59028 15.0798C6.74931 15.2385 6.82153 15.4642 6.78473 15.6861L5.80486 21.5392C5.75 21.8642 5.88993 22.1847 6.17049 22.3781C6.44966 22.5694 6.8382 22.5923 7.14584 22.4284L12.1715 19.7225C12.274 19.6677 12.3872 19.6399 12.5003 19.6399V19.6399Z" fill="#4F4F4F"/>
<path d="M4.89061 11.1521C4.80403 11.1509 4.72098 11.1175 4.65774 11.0583C4.5945 10.9992 4.55562 10.9186 4.54872 10.8322C4.54181 10.7459 4.56737 10.6601 4.6204 10.5917C4.67343 10.5232 4.7501 10.477 4.8354 10.4621L5.06596 10.4246C5.111 10.417 5.15709 10.4185 5.20156 10.4289C5.24604 10.4392 5.28802 10.4583 5.32506 10.485C5.36211 10.5117 5.39348 10.5455 5.41737 10.5845C5.44126 10.6234 5.45718 10.6667 5.46422 10.7118C5.47895 10.8027 5.45697 10.8957 5.40312 10.9704C5.34927 11.0451 5.26796 11.0953 5.17707 11.11L4.94652 11.1475C4.92804 11.1506 4.90934 11.1521 4.89061 11.1521V11.1521ZM6.16561 10.9451C6.07925 10.945 5.99602 10.9128 5.93216 10.8546C5.8683 10.7965 5.8284 10.7167 5.82025 10.6307C5.81209 10.5447 5.83627 10.4588 5.88806 10.3897C5.93985 10.3206 6.01553 10.2732 6.10033 10.2569L9.85832 9.53192L11.2757 6.28122C11.3125 6.19678 11.3813 6.13041 11.467 6.09671C11.5528 6.06301 11.6484 6.06475 11.7328 6.10154C11.8172 6.13833 11.8836 6.20715 11.9173 6.29288C11.951 6.37861 11.9493 6.47421 11.9125 6.55865L10.4219 9.97706C10.3993 10.0287 10.3645 10.0741 10.3205 10.1093C10.2764 10.1446 10.2245 10.1685 10.1691 10.1791L6.23158 10.9389C6.20986 10.9432 6.18776 10.9453 6.16561 10.9451V10.9451Z" fill="#4F4F4F"/>
</svg>
